<?xml version="1.0" encoding="utf-8" standalone="no"?>
<!DOCTYPE svg PUBLIC "-//W3C//DTD SVG 1.1//EN"
  "http://www.w3.org/Graphics/SVG/1.1/DTD/svg11.dtd">
<!-- Created with matplotlib (https://matplotlib.org/) -->
<svg height="288pt" version="1.1" viewBox="0 0 432 288" width="432pt" xmlns="http://www.w3.org/2000/svg" xmlns:xlink="http://www.w3.org/1999/xlink">
 <defs>
  <style type="text/css">
*{stroke-linecap:butt;stroke-linejoin:round;}
  </style>
 </defs>
 <g id="figure_1">
  <g id="patch_1">
   <path d="M 0 288 
L 432 288 
L 432 0 
L 0 0 
z
" style="fill:#ffffff;"/>
  </g>
  <g id="axes_1">
   <g id="patch_2">
    <path d="M 109.8 51.52 
L 415.969501 51.52 
L 415.969501 10.8 
L 109.8 10.8 
z
" style="fill:#ffffff;"/>
   </g>
   <g id="matplotlib.axis_1">
    <g id="xtick_1">
     <g id="line2d_1">
      <defs>
       <path d="M 0 0 
L 0 3.5 
" id="m7093a5936f" style="stroke:#000000;stroke-width:0.8;"/>
      </defs>
      <g>
       <use style="stroke:#000000;stroke-width:0.8;" x="123.716796" xlink:href="#m7093a5936f" y="51.52"/>
      </g>
     </g>
     <g id="text_1">
      <!-- 0 -->
      <defs>
       <path d="M 31.78125 66.40625 
Q 24.171875 66.40625 20.328125 58.90625 
Q 16.5 51.421875 16.5 36.375 
Q 16.5 21.390625 20.328125 13.890625 
Q 24.171875 6.390625 31.78125 6.390625 
Q 39.453125 6.390625 43.28125 13.890625 
Q 47.125 21.390625 47.125 36.375 
Q 47.125 51.421875 43.28125 58.90625 
Q 39.453125 66.40625 31.78125 66.40625 
z
M 31.78125 74.21875 
Q 44.046875 74.21875 50.515625 64.515625 
Q 56.984375 54.828125 56.984375 36.375 
Q 56.984375 17.96875 50.515625 8.265625 
Q 44.046875 -1.421875 31.78125 -1.421875 
Q 19.53125 -1.421875 13.0625 8.265625 
Q 6.59375 17.96875 6.59375 36.375 
Q 6.59375 54.828125 13.0625 64.515625 
Q 19.53125 74.21875 31.78125 74.21875 
z
" id="DejaVuSans-48"/>
      </defs>
      <g transform="translate(120.535546 66.118437)scale(0.1 -0.1)">
       <use xlink:href="#DejaVuSans-48"/>
      </g>
     </g>
    </g>
    <g id="xtick_2">
     <g id="line2d_2">
      <g>
       <use style="stroke:#000000;stroke-width:0.8;" x="172.275049" xlink:href="#m7093a5936f" y="51.52"/>
      </g>
     </g>
     <g id="text_2">
      <!-- 5 -->
      <defs>
       <path d="M 10.796875 72.90625 
L 49.515625 72.90625 
L 49.515625 64.59375 
L 19.828125 64.59375 
L 19.828125 46.734375 
Q 21.96875 47.46875 24.109375 47.828125 
Q 26.265625 48.1875 28.421875 48.1875 
Q 40.625 48.1875 47.75 41.5 
Q 54.890625 34.8125 54.890625 23.390625 
Q 54.890625 11.625 47.5625 5.09375 
Q 40.234375 -1.421875 26.90625 -1.421875 
Q 22.3125 -1.421875 17.546875 -0.640625 
Q 12.796875 0.140625 7.71875 1.703125 
L 7.71875 11.625 
Q 12.109375 9.234375 16.796875 8.0625 
Q 21.484375 6.890625 26.703125 6.890625 
Q 35.15625 6.890625 40.078125 11.328125 
Q 45.015625 15.765625 45.015625 23.390625 
Q 45.015625 31 40.078125 35.4375 
Q 35.15625 39.890625 26.703125 39.890625 
Q 22.75 39.890625 18.8125 39.015625 
Q 14.890625 38.140625 10.796875 36.28125 
z
" id="DejaVuSans-53"/>
      </defs>
      <g transform="translate(169.093799 66.118437)scale(0.1 -0.1)">
       <use xlink:href="#DejaVuSans-53"/>
      </g>
     </g>
    </g>
    <g id="xtick_3">
     <g id="line2d_3">
      <g>
       <use style="stroke:#000000;stroke-width:0.8;" x="220.833303" xlink:href="#m7093a5936f" y="51.52"/>
      </g>
     </g>
     <g id="text_3">
      <!-- 10 -->
      <defs>
       <path d="M 12.40625 8.296875 
L 28.515625 8.296875 
L 28.515625 63.921875 
L 10.984375 60.40625 
L 10.984375 69.390625 
L 28.421875 72.90625 
L 38.28125 72.90625 
L 38.28125 8.296875 
L 54.390625 8.296875 
L 54.390625 0 
L 12.40625 0 
z
" id="DejaVuSans-49"/>
      </defs>
      <g transform="translate(214.470803 66.118437)scale(0.1 -0.1)">
       <use xlink:href="#DejaVuSans-49"/>
       <use x="63.623047" xlink:href="#DejaVuSans-48"/>
      </g>
     </g>
    </g>
    <g id="xtick_4">
     <g id="line2d_4">
      <g>
       <use style="stroke:#000000;stroke-width:0.8;" x="269.391557" xlink:href="#m7093a5936f" y="51.52"/>
      </g>
     </g>
     <g id="text_4">
      <!-- 15 -->
      <g transform="translate(263.029057 66.118437)scale(0.1 -0.1)">
       <use xlink:href="#DejaVuSans-49"/>
       <use x="63.623047" xlink:href="#DejaVuSans-53"/>
      </g>
     </g>
    </g>
    <g id="xtick_5">
     <g id="line2d_5">
      <g>
       <use style="stroke:#000000;stroke-width:0.8;" x="317.94981" xlink:href="#m7093a5936f" y="51.52"/>
      </g>
     </g>
     <g id="text_5">
      <!-- 20 -->
      <defs>
       <path d="M 19.1875 8.296875 
L 53.609375 8.296875 
L 53.609375 0 
L 7.328125 0 
L 7.328125 8.296875 
Q 12.9375 14.109375 22.625 23.890625 
Q 32.328125 33.6875 34.8125 36.53125 
Q 39.546875 41.84375 41.421875 45.53125 
Q 43.3125 49.21875 43.3125 52.78125 
Q 43.3125 58.59375 39.234375 62.25 
Q 35.15625 65.921875 28.609375 65.921875 
Q 23.96875 65.921875 18.8125 64.3125 
Q 13.671875 62.703125 7.8125 59.421875 
L 7.8125 69.390625 
Q 13.765625 71.78125 18.9375 73 
Q 24.125 74.21875 28.421875 74.21875 
Q 39.75 74.21875 46.484375 68.546875 
Q 53.21875 62.890625 53.21875 53.421875 
Q 53.21875 48.921875 51.53125 44.890625 
Q 49.859375 40.875 45.40625 35.40625 
Q 44.1875 33.984375 37.640625 27.21875 
Q 31.109375 20.453125 19.1875 8.296875 
z
" id="DejaVuSans-50"/>
      </defs>
      <g transform="translate(311.58731 66.118437)scale(0.1 -0.1)">
       <use xlink:href="#DejaVuSans-50"/>
       <use x="63.623047" xlink:href="#DejaVuSans-48"/>
      </g>
     </g>
    </g>
    <g id="xtick_6">
     <g id="line2d_6">
      <g>
       <use style="stroke:#000000;stroke-width:0.8;" x="366.508064" xlink:href="#m7093a5936f" y="51.52"/>
      </g>
     </g>
     <g id="text_6">
      <!-- 25 -->
      <g transform="translate(360.145564 66.118437)scale(0.1 -0.1)">
       <use xlink:href="#DejaVuSans-50"/>
       <use x="63.623047" xlink:href="#DejaVuSans-53"/>
      </g>
     </g>
    </g>
    <g id="xtick_7">
     <g id="line2d_7">
      <g>
       <use style="stroke:#000000;stroke-width:0.8;" x="415.066318" xlink:href="#m7093a5936f" y="51.52"/>
      </g>
     </g>
     <g id="text_7">
      <!-- 30 -->
      <defs>
       <path d="M 40.578125 39.3125 
Q 47.65625 37.796875 51.625 33 
Q 55.609375 28.21875 55.609375 21.1875 
Q 55.609375 10.40625 48.1875 4.484375 
Q 40.765625 -1.421875 27.09375 -1.421875 
Q 22.515625 -1.421875 17.65625 -0.515625 
Q 12.796875 0.390625 7.625 2.203125 
L 7.625 11.71875 
Q 11.71875 9.328125 16.59375 8.109375 
Q 21.484375 6.890625 26.8125 6.890625 
Q 36.078125 6.890625 40.9375 10.546875 
Q 45.796875 14.203125 45.796875 21.1875 
Q 45.796875 27.640625 41.28125 31.265625 
Q 36.765625 34.90625 28.71875 34.90625 
L 20.21875 34.90625 
L 20.21875 43.015625 
L 29.109375 43.015625 
Q 36.375 43.015625 40.234375 45.921875 
Q 44.09375 48.828125 44.09375 54.296875 
Q 44.09375 59.90625 40.109375 62.90625 
Q 36.140625 65.921875 28.71875 65.921875 
Q 24.65625 65.921875 20.015625 65.03125 
Q 15.375 64.15625 9.8125 62.3125 
L 9.8125 71.09375 
Q 15.4375 72.65625 20.34375 73.4375 
Q 25.25 74.21875 29.59375 74.21875 
Q 40.828125 74.21875 47.359375 69.109375 
Q 53.90625 64.015625 53.90625 55.328125 
Q 53.90625 49.265625 50.4375 45.09375 
Q 46.96875 40.921875 40.578125 39.3125 
z
" id="DejaVuSans-51"/>
      </defs>
      <g transform="translate(408.703818 66.118437)scale(0.1 -0.1)">
       <use xlink:href="#DejaVuSans-51"/>
       <use x="63.623047" xlink:href="#DejaVuSans-48"/>
      </g>
     </g>
    </g>
   </g>
   <g id="matplotlib.axis_2">
    <g id="ytick_1">
     <g id="line2d_8">
      <defs>
       <path d="M 0 0 
L -3.5 0 
" id="me727858247" style="stroke:#000000;stroke-width:0.8;"/>
      </defs>
      <g>
       <use style="stroke:#000000;stroke-width:0.8;" x="109.8" xlink:href="#me727858247" y="41.34"/>
      </g>
     </g>
     <g id="text_8">
      <!-- With conflicts -->
      <defs>
       <path d="M 3.328125 72.90625 
L 13.28125 72.90625 
L 28.609375 11.28125 
L 43.890625 72.90625 
L 54.984375 72.90625 
L 70.3125 11.28125 
L 85.59375 72.90625 
L 95.609375 72.90625 
L 77.296875 0 
L 64.890625 0 
L 49.515625 63.28125 
L 33.984375 0 
L 21.578125 0 
z
" id="DejaVuSans-87"/>
       <path d="M 9.421875 54.6875 
L 18.40625 54.6875 
L 18.40625 0 
L 9.421875 0 
z
M 9.421875 75.984375 
L 18.40625 75.984375 
L 18.40625 64.59375 
L 9.421875 64.59375 
z
" id="DejaVuSans-105"/>
       <path d="M 18.3125 70.21875 
L 18.3125 54.6875 
L 36.8125 54.6875 
L 36.8125 47.703125 
L 18.3125 47.703125 
L 18.3125 18.015625 
Q 18.3125 11.328125 20.140625 9.421875 
Q 21.96875 7.515625 27.59375 7.515625 
L 36.8125 7.515625 
L 36.8125 0 
L 27.59375 0 
Q 17.1875 0 13.234375 3.875 
Q 9.28125 7.765625 9.28125 18.015625 
L 9.28125 47.703125 
L 2.6875 47.703125 
L 2.6875 54.6875 
L 9.28125 54.6875 
L 9.28125 70.21875 
z
" id="DejaVuSans-116"/>
       <path d="M 54.890625 33.015625 
L 54.890625 0 
L 45.90625 0 
L 45.90625 32.71875 
Q 45.90625 40.484375 42.875 44.328125 
Q 39.84375 48.1875 33.796875 48.1875 
Q 26.515625 48.1875 22.3125 43.546875 
Q 18.109375 38.921875 18.109375 30.90625 
L 18.109375 0 
L 9.078125 0 
L 9.078125 75.984375 
L 18.109375 75.984375 
L 18.109375 46.1875 
Q 21.34375 51.125 25.703125 53.5625 
Q 30.078125 56 35.796875 56 
Q 45.21875 56 50.046875 50.171875 
Q 54.890625 44.34375 54.890625 33.015625 
z
" id="DejaVuSans-104"/>
       <path id="DejaVuSans-32"/>
       <path d="M 48.78125 52.59375 
L 48.78125 44.1875 
Q 44.96875 46.296875 41.140625 47.34375 
Q 37.3125 48.390625 33.40625 48.390625 
Q 24.65625 48.390625 19.8125 42.84375 
Q 14.984375 37.3125 14.984375 27.296875 
Q 14.984375 17.28125 19.8125 11.734375 
Q 24.65625 6.203125 33.40625 6.203125 
Q 37.3125 6.203125 41.140625 7.25 
Q 44.96875 8.296875 48.78125 10.40625 
L 48.78125 2.09375 
Q 45.015625 0.34375 40.984375 -0.53125 
Q 36.96875 -1.421875 32.421875 -1.421875 
Q 20.0625 -1.421875 12.78125 6.34375 
Q 5.515625 14.109375 5.515625 27.296875 
Q 5.515625 40.671875 12.859375 48.328125 
Q 20.21875 56 33.015625 56 
Q 37.15625 56 41.109375 55.140625 
Q 45.0625 54.296875 48.78125 52.59375 
z
" id="DejaVuSans-99"/>
       <path d="M 30.609375 48.390625 
Q 23.390625 48.390625 19.1875 42.75 
Q 14.984375 37.109375 14.984375 27.296875 
Q 14.984375 17.484375 19.15625 11.84375 
Q 23.34375 6.203125 30.609375 6.203125 
Q 37.796875 6.203125 41.984375 11.859375 
Q 46.1875 17.53125 46.1875 27.296875 
Q 46.1875 37.015625 41.984375 42.703125 
Q 37.796875 48.390625 30.609375 48.390625 
z
M 30.609375 56 
Q 42.328125 56 49.015625 48.375 
Q 55.71875 40.765625 55.71875 27.296875 
Q 55.71875 13.875 49.015625 6.21875 
Q 42.328125 -1.421875 30.609375 -1.421875 
Q 18.84375 -1.421875 12.171875 6.21875 
Q 5.515625 13.875 5.515625 27.296875 
Q 5.515625 40.765625 12.171875 48.375 
Q 18.84375 56 30.609375 56 
z
" id="DejaVuSans-111"/>
       <path d="M 54.890625 33.015625 
L 54.890625 0 
L 45.90625 0 
L 45.90625 32.71875 
Q 45.90625 40.484375 42.875 44.328125 
Q 39.84375 48.1875 33.796875 48.1875 
Q 26.515625 48.1875 22.3125 43.546875 
Q 18.109375 38.921875 18.109375 30.90625 
L 18.109375 0 
L 9.078125 0 
L 9.078125 54.6875 
L 18.109375 54.6875 
L 18.109375 46.1875 
Q 21.34375 51.125 25.703125 53.5625 
Q 30.078125 56 35.796875 56 
Q 45.21875 56 50.046875 50.171875 
Q 54.890625 44.34375 54.890625 33.015625 
z
" id="DejaVuSans-110"/>
       <path d="M 37.109375 75.984375 
L 37.109375 68.5 
L 28.515625 68.5 
Q 23.6875 68.5 21.796875 66.546875 
Q 19.921875 64.59375 19.921875 59.515625 
L 19.921875 54.6875 
L 34.71875 54.6875 
L 34.71875 47.703125 
L 19.921875 47.703125 
L 19.921875 0 
L 10.890625 0 
L 10.890625 47.703125 
L 2.296875 47.703125 
L 2.296875 54.6875 
L 10.890625 54.6875 
L 10.890625 58.5 
Q 10.890625 67.625 15.140625 71.796875 
Q 19.390625 75.984375 28.609375 75.984375 
z
" id="DejaVuSans-102"/>
       <path d="M 9.421875 75.984375 
L 18.40625 75.984375 
L 18.40625 0 
L 9.421875 0 
z
" id="DejaVuSans-108"/>
       <path d="M 44.28125 53.078125 
L 44.28125 44.578125 
Q 40.484375 46.53125 36.375 47.5 
Q 32.28125 48.484375 27.875 48.484375 
Q 21.1875 48.484375 17.84375 46.4375 
Q 14.5 44.390625 14.5 40.28125 
Q 14.5 37.15625 16.890625 35.375 
Q 19.28125 33.59375 26.515625 31.984375 
L 29.59375 31.296875 
Q 39.15625 29.25 43.1875 25.515625 
Q 47.21875 21.78125 47.21875 15.09375 
Q 47.21875 7.46875 41.1875 3.015625 
Q 35.15625 -1.421875 24.609375 -1.421875 
Q 20.21875 -1.421875 15.453125 -0.5625 
Q 10.6875 0.296875 5.421875 2 
L 5.421875 11.28125 
Q 10.40625 8.6875 15.234375 7.390625 
Q 20.0625 6.109375 24.8125 6.109375 
Q 31.15625 6.109375 34.5625 8.28125 
Q 37.984375 10.453125 37.984375 14.40625 
Q 37.984375 18.0625 35.515625 20.015625 
Q 33.0625 21.96875 24.703125 23.78125 
L 21.578125 24.515625 
Q 13.234375 26.265625 9.515625 29.90625 
Q 5.8125 33.546875 5.8125 39.890625 
Q 5.8125 47.609375 11.28125 51.796875 
Q 16.75 56 26.8125 56 
Q 31.78125 56 36.171875 55.265625 
Q 40.578125 54.546875 44.28125 53.078125 
z
" id="DejaVuSans-115"/>
      </defs>
      <g transform="translate(35.042187 45.139219)scale(0.1 -0.1)">
       <use xlink:href="#DejaVuSans-87"/>
       <use x="98.845703" xlink:href="#DejaVuSans-105"/>
       <use x="126.628906" xlink:href="#DejaVuSans-116"/>
       <use x="165.837891" xlink:href="#DejaVuSans-104"/>
       <use x="229.216797" xlink:href="#DejaVuSans-32"/>
       <use x="261.003906" xlink:href="#DejaVuSans-99"/>
       <use x="315.984375" xlink:href="#DejaVuSans-111"/>
       <use x="377.166016" xlink:href="#DejaVuSans-110"/>
       <use x="440.544922" xlink:href="#DejaVuSans-102"/>
       <use x="475.75" xlink:href="#DejaVuSans-108"/>
       <use x="503.533203" xlink:href="#DejaVuSans-105"/>
       <use x="531.316406" xlink:href="#DejaVuSans-99"/>
       <use x="586.296875" xlink:href="#DejaVuSans-116"/>
       <use x="625.505859" xlink:href="#DejaVuSans-115"/>
      </g>
     </g>
    </g>
    <g id="ytick_2">
     <g id="line2d_9">
      <g>
       <use style="stroke:#000000;stroke-width:0.8;" x="109.8" xlink:href="#me727858247" y="20.98"/>
      </g>
     </g>
     <g id="text_9">
      <!-- Without conflicts -->
      <defs>
       <path d="M 8.5 21.578125 
L 8.5 54.6875 
L 17.484375 54.6875 
L 17.484375 21.921875 
Q 17.484375 14.15625 20.5 10.265625 
Q 23.53125 6.390625 29.59375 6.390625 
Q 36.859375 6.390625 41.078125 11.03125 
Q 45.3125 15.671875 45.3125 23.6875 
L 45.3125 54.6875 
L 54.296875 54.6875 
L 54.296875 0 
L 45.3125 0 
L 45.3125 8.40625 
Q 42.046875 3.421875 37.71875 1 
Q 33.40625 -1.421875 27.6875 -1.421875 
Q 18.265625 -1.421875 13.375 4.4375 
Q 8.5 10.296875 8.5 21.578125 
z
M 31.109375 56 
z
" id="DejaVuSans-117"/>
      </defs>
      <g transform="translate(18.665625 24.779219)scale(0.1 -0.1)">
       <use xlink:href="#DejaVuSans-87"/>
       <use x="98.845703" xlink:href="#DejaVuSans-105"/>
       <use x="126.628906" xlink:href="#DejaVuSans-116"/>
       <use x="165.837891" xlink:href="#DejaVuSans-104"/>
       <use x="229.216797" xlink:href="#DejaVuSans-111"/>
       <use x="290.398438" xlink:href="#DejaVuSans-117"/>
       <use x="353.777344" xlink:href="#DejaVuSans-116"/>
       <use x="392.986328" xlink:href="#DejaVuSans-32"/>
       <use x="424.773438" xlink:href="#DejaVuSans-99"/>
       <use x="479.753906" xlink:href="#DejaVuSans-111"/>
       <use x="540.935547" xlink:href="#DejaVuSans-110"/>
       <use x="604.314453" xlink:href="#DejaVuSans-102"/>
       <use x="639.519531" xlink:href="#DejaVuSans-108"/>
       <use x="667.302734" xlink:href="#DejaVuSans-105"/>
       <use x="695.085938" xlink:href="#DejaVuSans-99"/>
       <use x="750.066406" xlink:href="#DejaVuSans-116"/>
       <use x="789.275391" xlink:href="#DejaVuSans-115"/>
      </g>
     </g>
    </g>
   </g>
   <g id="line2d_10">
    <path clip-path="url(#p6571ab2917)" d="M 131.583233 47.448 
L 131.583233 35.232 
L 239.81958 35.232 
L 239.81958 47.448 
L 131.583233 47.448 
" style="fill:none;stroke:#1f77b4;stroke-linecap:square;"/>
   </g>
   <g id="line2d_11">
    <path clip-path="url(#p6571ab2917)" d="M 131.583233 41.34 
L 123.716796 41.34 
" style="fill:none;stroke:#1f77b4;stroke-linecap:square;"/>
   </g>
   <g id="line2d_12">
    <path clip-path="url(#p6571ab2917)" d="M 239.81958 41.34 
L 402.052706 41.34 
" style="fill:none;stroke:#1f77b4;stroke-linecap:square;"/>
   </g>
   <g id="line2d_13">
    <path clip-path="url(#p6571ab2917)" d="M 123.716796 44.394 
L 123.716796 38.286 
" style="fill:none;stroke:#000000;stroke-linecap:square;"/>
   </g>
   <g id="line2d_14">
    <path clip-path="url(#p6571ab2917)" d="M 402.052706 44.394 
L 402.052706 38.286 
" style="fill:none;stroke:#000000;stroke-linecap:square;"/>
   </g>
   <g id="line2d_15">
    <path clip-path="url(#p6571ab2917)" d="M 125.27066 27.088 
L 125.27066 14.872 
L 161.980699 14.872 
L 161.980699 27.088 
L 125.27066 27.088 
" style="fill:none;stroke:#1f77b4;stroke-linecap:square;"/>
   </g>
   <g id="line2d_16">
    <path clip-path="url(#p6571ab2917)" d="M 125.27066 20.98 
L 123.716796 20.98 
" style="fill:none;stroke:#1f77b4;stroke-linecap:square;"/>
   </g>
   <g id="line2d_17">
    <path clip-path="url(#p6571ab2917)" d="M 161.980699 20.98 
L 217.045759 20.98 
" style="fill:none;stroke:#1f77b4;stroke-linecap:square;"/>
   </g>
   <g id="line2d_18">
    <path clip-path="url(#p6571ab2917)" d="M 123.716796 24.034 
L 123.716796 17.926 
" style="fill:none;stroke:#000000;stroke-linecap:square;"/>
   </g>
   <g id="line2d_19">
    <path clip-path="url(#p6571ab2917)" d="M 217.045759 24.034 
L 217.045759 17.926 
" style="fill:none;stroke:#000000;stroke-linecap:square;"/>
   </g>
   <g id="line2d_20">
    <path clip-path="url(#p6571ab2917)" d="M 155.57101 47.448 
L 155.57101 35.232 
" style="fill:none;stroke:#2ca02c;stroke-linecap:square;"/>
   </g>
   <g id="line2d_21">
    <path clip-path="url(#p6571ab2917)" d="M 133.137097 27.088 
L 133.137097 14.872 
" style="fill:none;stroke:#2ca02c;stroke-linecap:square;"/>
   </g>
   <g id="patch_3">
    <path d="M 109.8 51.52 
L 109.8 10.8 
" style="fill:none;stroke:#000000;stroke-linecap:square;stroke-linejoin:miter;stroke-width:0.8;"/>
   </g>
   <g id="patch_4">
    <path d="M 415.969501 51.52 
L 415.969501 10.8 
" style="fill:none;stroke:#000000;stroke-linecap:square;stroke-linejoin:miter;stroke-width:0.8;"/>
   </g>
   <g id="patch_5">
    <path d="M 109.8 51.52 
L 415.969501 51.52 
" style="fill:none;stroke:#000000;stroke-linecap:square;stroke-linejoin:miter;stroke-width:0.8;"/>
   </g>
   <g id="patch_6">
    <path d="M 109.8 10.8 
L 415.969501 10.8 
" style="fill:none;stroke:#000000;stroke-linecap:square;stroke-linejoin:miter;stroke-width:0.8;"/>
   </g>
   <g id="text_10">
    <!-- (a) -->
    <defs>
     <path d="M 31 75.875 
Q 24.46875 64.65625 21.28125 53.65625 
Q 18.109375 42.671875 18.109375 31.390625 
Q 18.109375 20.125 21.3125 9.0625 
Q 24.515625 -2 31 -13.1875 
L 23.1875 -13.1875 
Q 15.875 -1.703125 12.234375 9.375 
Q 8.59375 20.453125 8.59375 31.390625 
Q 8.59375 42.28125 12.203125 53.3125 
Q 15.828125 64.359375 23.1875 75.875 
z
" id="DejaVuSans-40"/>
     <path d="M 34.28125 27.484375 
Q 23.390625 27.484375 19.1875 25 
Q 14.984375 22.515625 14.984375 16.5 
Q 14.984375 11.71875 18.140625 8.90625 
Q 21.296875 6.109375 26.703125 6.109375 
Q 34.1875 6.109375 38.703125 11.40625 
Q 43.21875 16.703125 43.21875 25.484375 
L 43.21875 27.484375 
z
M 52.203125 31.203125 
L 52.203125 0 
L 43.21875 0 
L 43.21875 8.296875 
Q 40.140625 3.328125 35.546875 0.953125 
Q 30.953125 -1.421875 24.3125 -1.421875 
Q 15.921875 -1.421875 10.953125 3.296875 
Q 6 8.015625 6 15.921875 
Q 6 25.140625 12.171875 29.828125 
Q 18.359375 34.515625 30.609375 34.515625 
L 43.21875 34.515625 
L 43.21875 35.40625 
Q 43.21875 41.609375 39.140625 45 
Q 35.0625 48.390625 27.6875 48.390625 
Q 23 48.390625 18.546875 47.265625 
Q 14.109375 46.140625 10.015625 43.890625 
L 10.015625 52.203125 
Q 14.9375 54.109375 19.578125 55.046875 
Q 24.21875 56 28.609375 56 
Q 40.484375 56 46.34375 49.84375 
Q 52.203125 43.703125 52.203125 31.203125 
z
" id="DejaVuSans-97"/>
     <path d="M 8.015625 75.875 
L 15.828125 75.875 
Q 23.140625 64.359375 26.78125 53.3125 
Q 30.421875 42.28125 30.421875 31.390625 
Q 30.421875 20.453125 26.78125 9.375 
Q 23.140625 -1.703125 15.828125 -13.1875 
L 8.015625 -13.1875 
Q 14.5 -2 17.703125 9.0625 
Q 20.90625 20.125 20.90625 31.390625 
Q 20.90625 42.671875 17.703125 53.65625 
Q 14.5 64.65625 8.015625 75.875 
z
" id="DejaVuSans-41"/>
    </defs>
    <g transform="translate(399.252001 23.124)scale(0.12 -0.12)">
     <use xlink:href="#DejaVuSans-40"/>
     <use x="39.013672" xlink:href="#DejaVuSans-97"/>
     <use x="100.292969" xlink:href="#DejaVuSans-41"/>
    </g>
   </g>
  </g>
  <g id="axes_2">
   <g id="patch_7">
    <path d="M 109.8 246.2 
L 415.969501 246.2 
L 415.969501 83.32 
L 109.8 83.32 
z
" style="fill:#ffffff;"/>
   </g>
   <g id="matplotlib.axis_3">
    <g id="xtick_8">
     <g id="line2d_22">
      <g>
       <use style="stroke:#000000;stroke-width:0.8;" x="123.716796" xlink:href="#m7093a5936f" y="246.2"/>
      </g>
     </g>
     <g id="text_11">
      <!-- 0 -->
      <g transform="translate(120.535546 260.798437)scale(0.1 -0.1)">
       <use xlink:href="#DejaVuSans-48"/>
      </g>
     </g>
    </g>
    <g id="xtick_9">
     <g id="line2d_23">
      <g>
       <use style="stroke:#000000;stroke-width:0.8;" x="172.275049" xlink:href="#m7093a5936f" y="246.2"/>
      </g>
     </g>
     <g id="text_12">
      <!-- 5 -->
      <g transform="translate(169.093799 260.798437)scale(0.1 -0.1)">
       <use xlink:href="#DejaVuSans-53"/>
      </g>
     </g>
    </g>
    <g id="xtick_10">
     <g id="line2d_24">
      <g>
       <use style="stroke:#000000;stroke-width:0.8;" x="220.833303" xlink:href="#m7093a5936f" y="246.2"/>
      </g>
     </g>
     <g id="text_13">
      <!-- 10 -->
      <g transform="translate(214.470803 260.798437)scale(0.1 -0.1)">
       <use xlink:href="#DejaVuSans-49"/>
       <use x="63.623047" xlink:href="#DejaVuSans-48"/>
      </g>
     </g>
    </g>
    <g id="xtick_11">
     <g id="line2d_25">
      <g>
       <use style="stroke:#000000;stroke-width:0.8;" x="269.391557" xlink:href="#m7093a5936f" y="246.2"/>
      </g>
     </g>
     <g id="text_14">
      <!-- 15 -->
      <g transform="translate(263.029057 260.798437)scale(0.1 -0.1)">
       <use xlink:href="#DejaVuSans-49"/>
       <use x="63.623047" xlink:href="#DejaVuSans-53"/>
      </g>
     </g>
    </g>
    <g id="xtick_12">
     <g id="line2d_26">
      <g>
       <use style="stroke:#000000;stroke-width:0.8;" x="317.94981" xlink:href="#m7093a5936f" y="246.2"/>
      </g>
     </g>
     <g id="text_15">
      <!-- 20 -->
      <g transform="translate(311.58731 260.798437)scale(0.1 -0.1)">
       <use xlink:href="#DejaVuSans-50"/>
       <use x="63.623047" xlink:href="#DejaVuSans-48"/>
      </g>
     </g>
    </g>
    <g id="xtick_13">
     <g id="line2d_27">
      <g>
       <use style="stroke:#000000;stroke-width:0.8;" x="366.508064" xlink:href="#m7093a5936f" y="246.2"/>
      </g>
     </g>
     <g id="text_16">
      <!-- 25 -->
      <g transform="translate(360.145564 260.798437)scale(0.1 -0.1)">
       <use xlink:href="#DejaVuSans-50"/>
       <use x="63.623047" xlink:href="#DejaVuSans-53"/>
      </g>
     </g>
    </g>
    <g id="xtick_14">
     <g id="line2d_28">
      <g>
       <use style="stroke:#000000;stroke-width:0.8;" x="415.066318" xlink:href="#m7093a5936f" y="246.2"/>
      </g>
     </g>
     <g id="text_17">
      <!-- 30 -->
      <g transform="translate(408.703818 260.798437)scale(0.1 -0.1)">
       <use xlink:href="#DejaVuSans-51"/>
       <use x="63.623047" xlink:href="#DejaVuSans-48"/>
      </g>
     </g>
    </g>
    <g id="text_18">
     <!-- (a) branching-duration -->
     <defs>
      <path d="M 48.6875 27.296875 
Q 48.6875 37.203125 44.609375 42.84375 
Q 40.53125 48.484375 33.40625 48.484375 
Q 26.265625 48.484375 22.1875 42.84375 
Q 18.109375 37.203125 18.109375 27.296875 
Q 18.109375 17.390625 22.1875 11.75 
Q 26.265625 6.109375 33.40625 6.109375 
Q 40.53125 6.109375 44.609375 11.75 
Q 48.6875 17.390625 48.6875 27.296875 
z
M 18.109375 46.390625 
Q 20.953125 51.265625 25.265625 53.625 
Q 29.59375 56 35.59375 56 
Q 45.5625 56 51.78125 48.09375 
Q 58.015625 40.1875 58.015625 27.296875 
Q 58.015625 14.40625 51.78125 6.484375 
Q 45.5625 -1.421875 35.59375 -1.421875 
Q 29.59375 -1.421875 25.265625 0.953125 
Q 20.953125 3.328125 18.109375 8.203125 
L 18.109375 0 
L 9.078125 0 
L 9.078125 75.984375 
L 18.109375 75.984375 
z
" id="DejaVuSans-98"/>
      <path d="M 41.109375 46.296875 
Q 39.59375 47.171875 37.8125 47.578125 
Q 36.03125 48 33.890625 48 
Q 26.265625 48 22.1875 43.046875 
Q 18.109375 38.09375 18.109375 28.8125 
L 18.109375 0 
L 9.078125 0 
L 9.078125 54.6875 
L 18.109375 54.6875 
L 18.109375 46.1875 
Q 20.953125 51.171875 25.484375 53.578125 
Q 30.03125 56 36.53125 56 
Q 37.453125 56 38.578125 55.875 
Q 39.703125 55.765625 41.0625 55.515625 
z
" id="DejaVuSans-114"/>
      <path d="M 45.40625 27.984375 
Q 45.40625 37.75 41.375 43.109375 
Q 37.359375 48.484375 30.078125 48.484375 
Q 22.859375 48.484375 18.828125 43.109375 
Q 14.796875 37.75 14.796875 27.984375 
Q 14.796875 18.265625 18.828125 12.890625 
Q 22.859375 7.515625 30.078125 7.515625 
Q 37.359375 7.515625 41.375 12.890625 
Q 45.40625 18.265625 45.40625 27.984375 
z
M 54.390625 6.78125 
Q 54.390625 -7.171875 48.1875 -13.984375 
Q 42 -20.796875 29.203125 -20.796875 
Q 24.46875 -20.796875 20.265625 -20.09375 
Q 16.0625 -19.390625 12.109375 -17.921875 
L 12.109375 -9.1875 
Q 16.0625 -11.328125 19.921875 -12.34375 
Q 23.78125 -13.375 27.78125 -13.375 
Q 36.625 -13.375 41.015625 -8.765625 
Q 45.40625 -4.15625 45.40625 5.171875 
L 45.40625 9.625 
Q 42.625 4.78125 38.28125 2.390625 
Q 33.9375 0 27.875 0 
Q 17.828125 0 11.671875 7.65625 
Q 5.515625 15.328125 5.515625 27.984375 
Q 5.515625 40.671875 11.671875 48.328125 
Q 17.828125 56 27.875 56 
Q 33.9375 56 38.28125 53.609375 
Q 42.625 51.21875 45.40625 46.390625 
L 45.40625 54.6875 
L 54.390625 54.6875 
z
" id="DejaVuSans-103"/>
      <path d="M 4.890625 31.390625 
L 31.203125 31.390625 
L 31.203125 23.390625 
L 4.890625 23.390625 
z
" id="DejaVuSans-45"/>
      <path d="M 45.40625 46.390625 
L 45.40625 75.984375 
L 54.390625 75.984375 
L 54.390625 0 
L 45.40625 0 
L 45.40625 8.203125 
Q 42.578125 3.328125 38.25 0.953125 
Q 33.9375 -1.421875 27.875 -1.421875 
Q 17.96875 -1.421875 11.734375 6.484375 
Q 5.515625 14.40625 5.515625 27.296875 
Q 5.515625 40.1875 11.734375 48.09375 
Q 17.96875 56 27.875 56 
Q 33.9375 56 38.25 53.625 
Q 42.578125 51.265625 45.40625 46.390625 
z
M 14.796875 27.296875 
Q 14.796875 17.390625 18.875 11.75 
Q 22.953125 6.109375 30.078125 6.109375 
Q 37.203125 6.109375 41.296875 11.75 
Q 45.40625 17.390625 45.40625 27.296875 
Q 45.40625 37.203125 41.296875 42.84375 
Q 37.203125 48.484375 30.078125 48.484375 
Q 22.953125 48.484375 18.875 42.84375 
Q 14.796875 37.203125 14.796875 27.296875 
z
" id="DejaVuSans-100"/>
     </defs>
     <g transform="translate(206.373813 274.476562)scale(0.1 -0.1)">
      <use xlink:href="#DejaVuSans-40"/>
      <use x="39.013672" xlink:href="#DejaVuSans-97"/>
      <use x="100.292969" xlink:href="#DejaVuSans-41"/>
      <use x="139.306641" xlink:href="#DejaVuSans-32"/>
      <use x="171.09375" xlink:href="#DejaVuSans-98"/>
      <use x="234.570312" xlink:href="#DejaVuSans-114"/>
      <use x="275.683594" xlink:href="#DejaVuSans-97"/>
      <use x="336.962891" xlink:href="#DejaVuSans-110"/>
      <use x="400.341797" xlink:href="#DejaVuSans-99"/>
      <use x="455.322266" xlink:href="#DejaVuSans-104"/>
      <use x="518.701172" xlink:href="#DejaVuSans-105"/>
      <use x="546.484375" xlink:href="#DejaVuSans-110"/>
      <use x="609.863281" xlink:href="#DejaVuSans-103"/>
      <use x="673.339844" xlink:href="#DejaVuSans-45"/>
      <use x="709.423828" xlink:href="#DejaVuSans-100"/>
      <use x="772.900391" xlink:href="#DejaVuSans-117"/>
      <use x="836.279297" xlink:href="#DejaVuSans-114"/>
      <use x="877.392578" xlink:href="#DejaVuSans-97"/>
      <use x="938.671875" xlink:href="#DejaVuSans-116"/>
      <use x="977.880859" xlink:href="#DejaVuSans-105"/>
      <use x="1005.664062" xlink:href="#DejaVuSans-111"/>
      <use x="1066.845703" xlink:href="#DejaVuSans-110"/>
     </g>
    </g>
   </g>
   <g id="matplotlib.axis_4">
    <g id="ytick_3">
     <g id="line2d_29">
      <g>
       <use style="stroke:#000000;stroke-width:0.8;" x="109.8" xlink:href="#me727858247" y="246.2"/>
      </g>
     </g>
     <g id="text_19">
      <!-- 0% -->
      <defs>
       <path d="M 72.703125 32.078125 
Q 68.453125 32.078125 66.03125 28.46875 
Q 63.625 24.859375 63.625 18.40625 
Q 63.625 12.0625 66.03125 8.421875 
Q 68.453125 4.78125 72.703125 4.78125 
Q 76.859375 4.78125 79.265625 8.421875 
Q 81.6875 12.0625 81.6875 18.40625 
Q 81.6875 24.8125 79.265625 28.4375 
Q 76.859375 32.078125 72.703125 32.078125 
z
M 72.703125 38.28125 
Q 80.421875 38.28125 84.953125 32.90625 
Q 89.5 27.546875 89.5 18.40625 
Q 89.5 9.28125 84.9375 3.921875 
Q 80.375 -1.421875 72.703125 -1.421875 
Q 64.890625 -1.421875 60.34375 3.921875 
Q 55.8125 9.28125 55.8125 18.40625 
Q 55.8125 27.59375 60.375 32.9375 
Q 64.9375 38.28125 72.703125 38.28125 
z
M 22.3125 68.015625 
Q 18.109375 68.015625 15.6875 64.375 
Q 13.28125 60.75 13.28125 54.390625 
Q 13.28125 47.953125 15.671875 44.328125 
Q 18.0625 40.71875 22.3125 40.71875 
Q 26.5625 40.71875 28.96875 44.328125 
Q 31.390625 47.953125 31.390625 54.390625 
Q 31.390625 60.6875 28.953125 64.34375 
Q 26.515625 68.015625 22.3125 68.015625 
z
M 66.40625 74.21875 
L 74.21875 74.21875 
L 28.609375 -1.421875 
L 20.796875 -1.421875 
z
M 22.3125 74.21875 
Q 30.03125 74.21875 34.609375 68.875 
Q 39.203125 63.53125 39.203125 54.390625 
Q 39.203125 45.171875 34.640625 39.84375 
Q 30.078125 34.515625 22.3125 34.515625 
Q 14.546875 34.515625 10.03125 39.859375 
Q 5.515625 45.21875 5.515625 54.390625 
Q 5.515625 63.484375 10.046875 68.84375 
Q 14.59375 74.21875 22.3125 74.21875 
z
" id="DejaVuSans-37"/>
      </defs>
      <g transform="translate(86.935937 249.999219)scale(0.1 -0.1)">
       <use xlink:href="#DejaVuSans-48"/>
       <use x="63.623047" xlink:href="#DejaVuSans-37"/>
      </g>
     </g>
    </g>
    <g id="ytick_4">
     <g id="line2d_30">
      <g>
       <use style="stroke:#000000;stroke-width:0.8;" x="109.8" xlink:href="#me727858247" y="219.053333"/>
      </g>
     </g>
     <g id="text_20">
      <!-- 10% -->
      <g transform="translate(80.573437 222.852552)scale(0.1 -0.1)">
       <use xlink:href="#DejaVuSans-49"/>
       <use x="63.623047" xlink:href="#DejaVuSans-48"/>
       <use x="127.246094" xlink:href="#DejaVuSans-37"/>
      </g>
     </g>
    </g>
    <g id="ytick_5">
     <g id="line2d_31">
      <g>
       <use style="stroke:#000000;stroke-width:0.8;" x="109.8" xlink:href="#me727858247" y="191.906667"/>
      </g>
     </g>
     <g id="text_21">
      <!-- 20% -->
      <g transform="translate(80.573437 195.705885)scale(0.1 -0.1)">
       <use xlink:href="#DejaVuSans-50"/>
       <use x="63.623047" xlink:href="#DejaVuSans-48"/>
       <use x="127.246094" xlink:href="#DejaVuSans-37"/>
      </g>
     </g>
    </g>
    <g id="ytick_6">
     <g id="line2d_32">
      <g>
       <use style="stroke:#000000;stroke-width:0.8;" x="109.8" xlink:href="#me727858247" y="164.76"/>
      </g>
     </g>
     <g id="text_22">
      <!-- 30% -->
      <g transform="translate(80.573437 168.559219)scale(0.1 -0.1)">
       <use xlink:href="#DejaVuSans-51"/>
       <use x="63.623047" xlink:href="#DejaVuSans-48"/>
       <use x="127.246094" xlink:href="#DejaVuSans-37"/>
      </g>
     </g>
    </g>
    <g id="ytick_7">
     <g id="line2d_33">
      <g>
       <use style="stroke:#000000;stroke-width:0.8;" x="109.8" xlink:href="#me727858247" y="137.613333"/>
      </g>
     </g>
     <g id="text_23">
      <!-- 40% -->
      <defs>
       <path d="M 37.796875 64.3125 
L 12.890625 25.390625 
L 37.796875 25.390625 
z
M 35.203125 72.90625 
L 47.609375 72.90625 
L 47.609375 25.390625 
L 58.015625 25.390625 
L 58.015625 17.1875 
L 47.609375 17.1875 
L 47.609375 0 
L 37.796875 0 
L 37.796875 17.1875 
L 4.890625 17.1875 
L 4.890625 26.703125 
z
" id="DejaVuSans-52"/>
      </defs>
      <g transform="translate(80.573437 141.412552)scale(0.1 -0.1)">
       <use xlink:href="#DejaVuSans-52"/>
       <use x="63.623047" xlink:href="#DejaVuSans-48"/>
       <use x="127.246094" xlink:href="#DejaVuSans-37"/>
      </g>
     </g>
    </g>
    <g id="ytick_8">
     <g id="line2d_34">
      <g>
       <use style="stroke:#000000;stroke-width:0.8;" x="109.8" xlink:href="#me727858247" y="110.466667"/>
      </g>
     </g>
     <g id="text_24">
      <!-- 50% -->
      <g transform="translate(80.573437 114.265885)scale(0.1 -0.1)">
       <use xlink:href="#DejaVuSans-53"/>
       <use x="63.623047" xlink:href="#DejaVuSans-48"/>
       <use x="127.246094" xlink:href="#DejaVuSans-37"/>
      </g>
     </g>
    </g>
    <g id="ytick_9">
     <g id="line2d_35">
      <g>
       <use style="stroke:#000000;stroke-width:0.8;" x="109.8" xlink:href="#me727858247" y="83.32"/>
      </g>
     </g>
     <g id="text_25">
      <!-- 60% -->
      <defs>
       <path d="M 33.015625 40.375 
Q 26.375 40.375 22.484375 35.828125 
Q 18.609375 31.296875 18.609375 23.390625 
Q 18.609375 15.53125 22.484375 10.953125 
Q 26.375 6.390625 33.015625 6.390625 
Q 39.65625 6.390625 43.53125 10.953125 
Q 47.40625 15.53125 47.40625 23.390625 
Q 47.40625 31.296875 43.53125 35.828125 
Q 39.65625 40.375 33.015625 40.375 
z
M 52.59375 71.296875 
L 52.59375 62.3125 
Q 48.875 64.0625 45.09375 64.984375 
Q 41.3125 65.921875 37.59375 65.921875 
Q 27.828125 65.921875 22.671875 59.328125 
Q 17.53125 52.734375 16.796875 39.40625 
Q 19.671875 43.65625 24.015625 45.921875 
Q 28.375 48.1875 33.59375 48.1875 
Q 44.578125 48.1875 50.953125 41.515625 
Q 57.328125 34.859375 57.328125 23.390625 
Q 57.328125 12.15625 50.6875 5.359375 
Q 44.046875 -1.421875 33.015625 -1.421875 
Q 20.359375 -1.421875 13.671875 8.265625 
Q 6.984375 17.96875 6.984375 36.375 
Q 6.984375 53.65625 15.1875 63.9375 
Q 23.390625 74.21875 37.203125 74.21875 
Q 40.921875 74.21875 44.703125 73.484375 
Q 48.484375 72.75 52.59375 71.296875 
z
" id="DejaVuSans-54"/>
      </defs>
      <g transform="translate(80.573437 87.119219)scale(0.1 -0.1)">
       <use xlink:href="#DejaVuSans-54"/>
       <use x="63.623047" xlink:href="#DejaVuSans-48"/>
       <use x="127.246094" xlink:href="#DejaVuSans-37"/>
      </g>
     </g>
    </g>
    <g id="text_26">
     <!-- P(conflict  -->
     <defs>
      <path d="M 19.671875 64.796875 
L 19.671875 37.40625 
L 32.078125 37.40625 
Q 38.96875 37.40625 42.71875 40.96875 
Q 46.484375 44.53125 46.484375 51.125 
Q 46.484375 57.671875 42.71875 61.234375 
Q 38.96875 64.796875 32.078125 64.796875 
z
M 9.8125 72.90625 
L 32.078125 72.90625 
Q 44.34375 72.90625 50.609375 67.359375 
Q 56.890625 61.8125 56.890625 51.125 
Q 56.890625 40.328125 50.609375 34.8125 
Q 44.34375 29.296875 32.078125 29.296875 
L 19.671875 29.296875 
L 19.671875 0 
L 9.8125 0 
z
" id="DejaVuSans-80"/>
     </defs>
     <g transform="translate(10.573437 150.557344)scale(0.1 -0.1)">
      <use xlink:href="#DejaVuSans-80"/>
      <use x="60.302734" xlink:href="#DejaVuSans-40"/>
      <use x="99.316406" xlink:href="#DejaVuSans-99"/>
      <use x="154.296875" xlink:href="#DejaVuSans-111"/>
      <use x="215.478516" xlink:href="#DejaVuSans-110"/>
      <use x="278.857422" xlink:href="#DejaVuSans-102"/>
      <use x="314.0625" xlink:href="#DejaVuSans-108"/>
      <use x="341.845703" xlink:href="#DejaVuSans-105"/>
      <use x="369.628906" xlink:href="#DejaVuSans-99"/>
      <use x="424.609375" xlink:href="#DejaVuSans-116"/>
      <use x="463.818359" xlink:href="#DejaVuSans-32"/>
     </g>
     <!--    | branching- -->
     <defs>
      <path d="M 21 76.421875 
L 21 -23.578125 
L 12.703125 -23.578125 
L 12.703125 76.421875 
z
" id="DejaVuSans-124"/>
     </defs>
     <g transform="translate(10.573437 161.807656)scale(0.1 -0.1)">
      <use xlink:href="#DejaVuSans-32"/>
      <use x="31.787109" xlink:href="#DejaVuSans-32"/>
      <use x="63.574219" xlink:href="#DejaVuSans-32"/>
      <use x="95.361328" xlink:href="#DejaVuSans-124"/>
      <use x="129.052734" xlink:href="#DejaVuSans-32"/>
      <use x="160.839844" xlink:href="#DejaVuSans-98"/>
      <use x="224.316406" xlink:href="#DejaVuSans-114"/>
      <use x="265.429688" xlink:href="#DejaVuSans-97"/>
      <use x="326.708984" xlink:href="#DejaVuSans-110"/>
      <use x="390.087891" xlink:href="#DejaVuSans-99"/>
      <use x="445.068359" xlink:href="#DejaVuSans-104"/>
      <use x="508.447266" xlink:href="#DejaVuSans-105"/>
      <use x="536.230469" xlink:href="#DejaVuSans-110"/>
      <use x="599.609375" xlink:href="#DejaVuSans-103"/>
      <use x="663.085938" xlink:href="#DejaVuSans-45"/>
     </g>
     <!--      duration -->
     <g transform="translate(10.573437 173.283594)scale(0.1 -0.1)">
      <use xlink:href="#DejaVuSans-32"/>
      <use x="31.787109" xlink:href="#DejaVuSans-32"/>
      <use x="63.574219" xlink:href="#DejaVuSans-32"/>
      <use x="95.361328" xlink:href="#DejaVuSans-32"/>
      <use x="127.148438" xlink:href="#DejaVuSans-32"/>
      <use x="158.935547" xlink:href="#DejaVuSans-100"/>
      <use x="222.412109" xlink:href="#DejaVuSans-117"/>
      <use x="285.791016" xlink:href="#DejaVuSans-114"/>
      <use x="326.904297" xlink:href="#DejaVuSans-97"/>
      <use x="388.183594" xlink:href="#DejaVuSans-116"/>
      <use x="427.392578" xlink:href="#DejaVuSans-105"/>
      <use x="455.175781" xlink:href="#DejaVuSans-111"/>
      <use x="516.357422" xlink:href="#DejaVuSans-110"/>
     </g>
     <!--      ≥ x) -->
     <defs>
      <path d="M 10.59375 49.609375 
L 10.59375 58.203125 
L 73.1875 40.28125 
L 73.1875 31.984375 
L 10.59375 14.015625 
L 10.59375 22.703125 
L 57.515625 36.078125 
z
M 73.1875 8.296875 
L 73.1875 0 
L 10.59375 0 
L 10.59375 8.296875 
z
" id="DejaVuSans-8805"/>
      <path d="M 54.890625 54.6875 
L 35.109375 28.078125 
L 55.90625 0 
L 45.3125 0 
L 29.390625 21.484375 
L 13.484375 0 
L 2.875 0 
L 24.125 28.609375 
L 4.6875 54.6875 
L 15.28125 54.6875 
L 29.78125 35.203125 
L 44.28125 54.6875 
z
" id="DejaVuSans-120"/>
     </defs>
     <g transform="translate(10.573437 184.481406)scale(0.1 -0.1)">
      <use xlink:href="#DejaVuSans-32"/>
      <use x="31.787109" xlink:href="#DejaVuSans-32"/>
      <use x="63.574219" xlink:href="#DejaVuSans-32"/>
      <use x="95.361328" xlink:href="#DejaVuSans-32"/>
      <use x="127.148438" xlink:href="#DejaVuSans-32"/>
      <use x="158.935547" xlink:href="#DejaVuSans-8805"/>
      <use x="242.724609" xlink:href="#DejaVuSans-32"/>
      <use x="274.511719" xlink:href="#DejaVuSans-120"/>
      <use x="333.691406" xlink:href="#DejaVuSans-41"/>
     </g>
    </g>
   </g>
   <g id="line2d_36">
    <path clip-path="url(#p5fe82a7619)" d="M 402.149822 178.818896 
L 402.052706 178.833726 
L 402.052706 178.811268 
L 398.168046 179.218936 
L 398.168046 179.2335 
L 398.070929 179.174107 
L 398.070929 179.188672 
L 396.808414 179.205957 
L 396.808414 179.183866 
L 396.711298 179.154183 
L 396.711298 179.16866 
L 394.768968 179.21547 
L 394.768968 179.142646 
L 394.671851 179.178326 
L 393.31222 179.237457 
L 393.31222 179.179694 
L 393.020871 179.186056 
L 393.020871 179.221416 
L 385.445783 179.688304 
L 385.445783 179.667322 
L 385.154434 179.707602 
L 385.154434 179.714402 
L 385.154434 179.727996 
L 385.154434 179.692886 
L 385.057317 179.720065 
L 383.01787 179.969835 
L 382.920754 179.996665 
L 382.920754 179.989288 
L 380.104375 180.091678 
L 380.104375 180.071058 
L 380.007259 180.104242 
L 379.13321 180.018449 
L 379.13321 180.031698 
L 379.036094 180.111084 
L 377.19088 180.346642 
L 377.19088 180.359706 
L 377.093763 180.304285 
L 377.093763 180.323874 
L 376.025482 180.501854 
L 375.928365 180.540706 
L 375.345666 180.686436 
L 375.24855 180.712165 
L 374.568734 180.660722 
L 373.500453 180.630644 
L 373.500453 180.610561 
L 373.403336 180.642534 
L 373.403336 180.622461 
L 368.061928 180.919101 
L 368.061928 180.879632 
L 367.18788 180.806627 
L 367.18788 180.812865 
L 367.090763 180.862727 
L 364.66285 180.950956 
L 364.66285 180.912165 
L 364.66285 180.873387 
L 364.565734 180.916361 
L 364.565734 180.896987 
L 356.60218 181.508382 
L 356.505064 181.561539 
L 353.785802 181.835655 
L 353.688685 181.870478 
L 351.260772 181.916771 
L 350.872306 181.925703 
L 350.872306 181.93145 
L 340.966423 182.625596 
L 340.869306 182.641958 
L 340.869306 182.624123 
L 340.869306 182.635029 
L 337.955811 182.714048 
L 337.955811 182.696477 
L 337.955811 182.67891 
L 337.858694 182.721808 
L 337.858694 182.704251 
L 336.013481 182.708546 
L 336.013481 182.722945 
L 335.916364 182.673414 
L 328.147044 183.034267 
L 328.147044 182.999337 
L 328.147044 182.98263 
L 328.049927 183.007976 
L 328.049927 182.996344 
L 325.330665 183.245934 
L 325.330665 183.222986 
L 325.233548 183.27259 
L 321.154655 183.587764 
L 321.057539 183.611968 
L 319.600791 183.794349 
L 319.503675 183.832658 
L 319.503675 183.768497 
L 319.503675 183.773286 
L 317.172878 183.996136 
L 317.075762 184.014885 
L 317.075762 183.98335 
L 317.075762 183.992723 
L 315.424781 184.181117 
L 315.424781 184.194982 
L 315.327665 184.179374 
L 315.327665 184.188616 
L 310.083373 184.547141 
L 309.986257 184.540832 
L 309.986257 184.56331 
L 305.71313 184.871918 
L 305.71313 184.878752 
L 305.616014 184.838463 
L 305.616014 184.84715 
L 304.936198 184.836763 
L 302.022703 184.89373 
L 302.022703 184.868642 
L 301.925587 184.833173 
L 301.925587 184.8546 
L 301.148655 184.996194 
L 301.148655 185.030267 
L 301.051538 185.028403 
L 295.807247 185.368822 
L 295.71013 185.393365 
L 295.71013 185.391467 
L 292.408169 185.639973 
L 292.311052 185.676107 
L 291.53412 185.658753 
L 291.53412 185.674755 
L 291.437004 185.684808 
L 291.53412 185.668816 
L 291.437004 185.67887 
L 289.88314 185.690009 
L 289.88314 185.640682 
L 289.300441 185.62758 
L 289.300441 185.667154 
L 289.203324 185.663323 
L 289.203324 185.694931 
L 288.523509 185.830976 
L 288.426392 185.862326 
L 288.426392 185.846671 
L 285.318664 186.079761 
L 285.221547 186.102742 
L 285.221547 186.083472 
L 283.667683 186.252401 
L 283.570567 186.286559 
L 282.696518 186.220819 
L 282.599402 186.201684 
L 282.599402 186.20926 
L 281.628237 186.355801 
L 281.53112 186.38213 
L 281.53112 186.380107 
L 278.423392 186.611387 
L 278.326275 186.667983 
L 277.35511 186.81563 
L 277.35511 186.813558 
L 277.257994 186.804234 
L 277.257994 186.822363 
L 276.481062 186.814604 
L 276.481062 186.829039 
L 271.722353 187.116554 
L 271.625236 187.174264 
L 266.866527 187.455679 
L 266.769411 187.487261 
L 265.992479 187.47519 
L 265.992479 187.498644 
L 265.895362 187.522079 
L 265.895362 187.516637 
L 262.981867 187.725323 
L 262.884751 187.738478 
L 262.884751 187.721098 
L 262.884751 187.724386 
L 261.52512 187.881576 
L 261.428003 187.918509 
L 257.251993 188.16709 
L 257.154877 188.202088 
L 257.154877 188.194796 
L 254.629848 188.385014 
L 254.532731 188.416279 
L 251.522119 188.620403 
L 251.425003 188.650074 
L 251.425003 188.60599 
L 250.648071 188.610683 
L 250.648071 188.628379 
L 250.550954 188.662455 
L 250.648071 188.621215 
L 250.550954 188.659889 
L 249.482673 188.641109 
L 249.482673 188.584992 
L 249.482673 188.552585 
L 249.385556 188.605785 
L 249.385556 188.592925 
L 244.82108 188.839666 
L 244.723964 188.850876 
L 244.723964 188.836311 
L 243.655682 188.97624 
L 243.558566 189.024161 
L 243.558566 189.020012 
L 241.422003 189.190572 
L 241.422003 189.193298 
L 241.324886 189.14401 
L 241.324886 189.176704 
L 240.547954 189.307791 
L 240.450837 189.340129 
L 240.450837 189.307559 
L 240.450837 189.316253 
L 239.576789 189.315932 
L 239.576789 189.323938 
L 237.537342 189.49057 
L 237.440226 189.525643 
L 236.080595 189.672853 
L 236.080595 189.670782 
L 235.983478 189.694505 
L 235.206546 189.709755 
L 235.206546 189.717957 
L 234.138264 189.855083 
L 234.041148 189.881455 
L 232.390167 190.034065 
L 232.293051 190.032393 
L 232.293051 190.052452 
L 231.613235 190.178855 
L 231.613235 190.169666 
L 231.516119 190.205633 
L 230.447837 190.343789 
L 230.350721 190.372083 
L 230.350721 190.367527 
L 229.185323 190.505776 
L 229.088206 190.564262 
L 228.505507 190.606718 
L 228.505507 190.618707 
L 228.408391 190.649855 
L 228.408391 190.646152 
L 227.922808 190.680147 
L 227.922808 190.701857 
L 224.81508 190.88745 
L 224.717963 190.920306 
L 224.81508 190.880665 
L 224.717963 190.913524 
L 223.164099 191.059749 
L 223.066983 191.06947 
L 223.164099 191.048605 
L 223.066983 191.056036 
L 222.387167 191.181494 
L 222.387167 191.174799 
L 222.290051 191.231936 
L 220.736186 191.378966 
L 220.63907 191.368209 
L 220.63907 191.40186 
L 220.250604 191.472108 
L 220.250604 191.476555 
L 220.250604 191.496723 
L 220.153487 191.463842 
L 220.153487 191.483911 
L 219.085206 191.483675 
L 219.085206 191.496856 
L 218.988089 191.538776 
L 218.988089 191.536732 
L 217.919808 191.671556 
L 217.822691 191.697622 
L 217.822691 191.693338 
L 217.045759 191.820878 
L 217.045759 191.823026 
L 216.948643 191.788777 
L 216.948643 191.808142 
L 216.268827 191.855428 
L 216.268827 191.859702 
L 216.171711 191.923721 
L 213.938031 192.083237 
L 213.840914 192.104066 
L 213.938031 192.072695 
L 213.840914 192.095659 
L 210.247604 192.282434 
L 210.247604 192.282364 
L 210.150487 192.314232 
L 209.470672 192.362286 
L 209.470672 192.368283 
L 209.373555 192.415925 
L 209.470672 192.368197 
L 209.373555 192.411843 
L 207.722574 192.554981 
L 207.722574 192.552779 
L 207.625458 192.593999 
L 206.751409 192.721502 
L 206.751409 192.733188 
L 206.654293 192.711027 
L 206.654293 192.718814 
L 204.809079 192.865037 
L 204.711963 192.889422 
L 204.711963 192.881587 
L 202.963866 193.025522 
L 202.866749 193.051666 
L 202.866749 192.993071 
L 202.866749 192.998713 
L 202.28405 193.119499 
L 202.186934 193.164964 
L 202.28405 193.109542 
L 202.186934 193.159165 
L 201.410001 193.283494 
L 201.312885 193.306997 
L 201.312885 193.276798 
L 201.312885 193.306754 
L 200.633069 193.429833 
L 200.535953 193.463171 
L 200.535953 193.422825 
L 200.535953 193.426441 
L 199.759021 193.550467 
L 199.661904 193.610867 
L 198.010924 193.751911 
L 197.913807 193.760356 
L 197.913807 193.740179 
L 197.913807 193.75418 
L 197.039759 193.881002 
L 197.039759 193.869944 
L 196.942642 193.893227 
L 196.16571 194.017905 
L 196.068594 194.04912 
L 196.16571 194.014122 
L 196.068594 194.047053 
L 194.126263 194.192165 
L 194.029147 194.231018 
L 194.029147 194.229892 
L 193.446448 194.351025 
L 193.349331 194.378898 
L 193.349331 194.366559 
L 191.698351 194.505771 
L 191.698351 194.505365 
L 191.601234 194.552363 
L 191.698351 194.488036 
L 191.601234 194.541872 
L 190.921419 194.662749 
L 190.824302 194.691153 
L 190.824302 194.662109 
L 190.824302 194.688047 
L 190.04737 194.811552 
L 189.950254 194.840778 
L 189.950254 194.838127 
L 189.658904 194.95237 
L 189.561788 195.005798 
L 189.561788 194.947927 
L 189.561788 195.002268 
L 188.979089 195.121297 
L 188.881972 195.161462 
L 188.979089 195.119299 
L 188.881972 195.153953 
L 188.299273 195.206881 
L 188.299273 195.225945 
L 188.202156 195.248016 
L 188.299273 195.225455 
L 188.202156 195.238027 
L 187.425224 195.265738 
L 187.425224 195.297024 
L 187.328108 195.322299 
L 186.16271 195.451155 
L 186.065593 195.480929 
L 186.065593 195.448014 
L 185.288661 195.570424 
L 185.191545 195.589941 
L 185.288661 195.556717 
L 185.191545 195.584938 
L 184.608846 195.630407 
L 184.608846 195.657213 
L 184.511729 195.724516 
L 184.511729 195.71824 
L 183.831914 195.838132 
L 183.734797 195.866764 
L 183.734797 195.85888 
L 183.249215 195.976393 
L 183.152098 196.022157 
L 183.152098 196.017394 
L 182.666516 196.135133 
L 182.569399 196.112794 
L 182.569399 196.167606 
L 182.083816 196.284898 
L 182.083816 196.276886 
L 181.9867 196.313425 
L 181.306884 196.433545 
L 181.209768 196.460141 
L 181.209768 196.429287 
L 181.209768 196.451864 
L 180.432836 196.573039 
L 180.432836 196.570489 
L 180.335719 196.631009 
L 179.850137 196.748401 
L 179.75302 196.766013 
L 179.75302 196.733026 
L 179.75302 196.753828 
L 179.170321 196.872598 
L 179.073205 196.939206 
L 179.073205 196.932783 
L 178.781855 196.982467 
L 178.781855 197.026346 
L 178.684739 197.077126 
L 177.422224 197.203577 
L 177.325108 197.2353 
L 177.422224 197.200398 
L 177.325108 197.219416 
L 176.645292 197.33875 
L 176.548176 197.378024 
L 176.645292 197.328712 
L 176.548176 197.370466 
L 175.86836 197.489371 
L 175.771244 197.509268 
L 175.771244 197.486046 
L 175.771244 197.496688 
L 174.994311 197.616557 
L 174.897195 197.670777 
L 174.897195 197.665235 
L 174.508729 197.780428 
L 174.411612 197.794025 
L 174.411612 197.777051 
L 174.411612 197.792101 
L 173.440447 197.915154 
L 173.343331 197.957589 
L 173.343331 197.953039 
L 172.663515 198.071538 
L 172.663515 198.088852 
L 172.566399 198.051143 
L 172.566399 198.077928 
L 171.9837 198.195222 
L 171.9837 198.216027 
L 171.886583 198.184137 
L 171.886583 198.206812 
L 171.303884 198.324303 
L 171.206768 198.388868 
L 171.303884 198.320551 
L 171.206768 198.381798 
L 170.818302 198.497267 
L 170.721185 198.569877 
L 170.818302 198.496505 
L 170.721185 198.565814 
L 170.04137 198.68389 
L 170.04137 198.675069 
L 169.944253 198.720195 
L 169.555787 198.835586 
L 169.458671 198.869206 
L 169.458671 198.865212 
L 168.875971 198.934598 
L 168.875971 198.945211 
L 168.778855 199.004272 
L 168.778855 198.996338 
L 168.390389 199.069318 
L 168.390389 199.087453 
L 168.390389 199.098711 
L 168.293272 199.080499 
L 168.293272 199.098598 
L 167.224991 199.149768 
L 167.224991 199.153918 
L 167.127874 199.168254 
L 167.127874 199.152714 
L 167.127874 199.163548 
L 166.739408 199.237035 
L 166.739408 199.254995 
L 166.739408 199.246178 
L 166.642292 199.285119 
L 165.768243 199.40475 
L 165.671127 199.455604 
L 165.768243 199.403122 
L 165.671127 199.449301 
L 165.185544 199.565428 
L 165.185544 199.559375 
L 165.088428 199.591172 
L 164.214379 199.710331 
L 164.117263 199.761432 
L 163.728797 199.875879 
L 163.63168 199.962237 
L 163.63168 199.960421 
L 163.048981 200.077324 
L 162.951865 200.172236 
L 162.951865 200.168622 
L 162.369165 200.285425 
L 162.272049 200.338619 
L 162.369165 200.275688 
L 162.272049 200.300506 
L 161.883583 200.414858 
L 161.786466 200.410574 
L 161.786466 200.449091 
L 161.398 200.563743 
L 161.300884 200.646864 
L 161.398 200.560195 
L 161.300884 200.645995 
L 160.912418 200.759994 
L 160.815301 200.809456 
L 160.815301 200.80681 
L 160.523952 200.903215 
L 160.523952 200.904103 
L 160.426835 200.958208 
L 159.941253 201.073128 
L 159.844136 201.104334 
L 159.941253 201.062512 
L 159.844136 201.100811 
L 159.358554 201.215586 
L 159.261437 201.264356 
L 159.358554 201.201577 
L 159.261437 201.252982 
L 158.775855 201.368365 
L 158.678738 201.412153 
L 158.678738 201.406091 
L 158.193156 201.520993 
L 158.096039 201.569587 
L 158.096039 201.557449 
L 157.319107 201.67528 
L 157.221991 201.694192 
L 157.319107 201.659723 
L 157.221991 201.68555 
L 156.639292 201.762517 
L 156.639292 201.770672 
L 156.542175 201.78952 
L 156.639292 201.768109 
L 156.542175 201.780193 
L 155.765243 201.897508 
L 155.765243 201.892426 
L 155.668126 201.913408 
L 155.182544 202.028182 
L 155.085427 202.076138 
L 155.182544 202.019802 
L 155.085427 202.073493 
L 154.405612 202.189835 
L 154.308495 202.256349 
L 154.308495 202.248716 
L 154.017146 202.361923 
L 153.920029 202.406192 
L 154.017146 202.354006 
L 153.920029 202.40526 
L 153.531563 202.518893 
L 153.434447 202.556623 
L 153.531563 202.518728 
L 153.434447 202.550157 
L 153.045981 202.664274 
L 152.948864 202.753291 
L 152.657515 202.837394 
L 152.657515 202.852496 
L 152.657515 202.851553 
L 152.560398 202.932413 
L 152.269049 203.045038 
L 152.171932 203.100419 
L 152.171932 203.091007 
L 151.783466 203.204633 
L 151.68635 203.290738 
L 151.68635 203.277607 
L 151.297884 203.391293 
L 151.297884 203.388214 
L 151.200767 203.461167 
L 150.812301 203.574436 
L 150.715185 203.682032 
L 150.715185 203.681925 
L 150.520952 203.742207 
L 150.520952 203.784435 
L 150.035369 203.89884 
L 149.938253 203.936824 
L 150.035369 203.896514 
L 149.938253 203.933825 
L 149.549786 204.047275 
L 149.45267 204.0984 
L 149.45267 204.094455 
L 149.064204 204.208163 
L 148.967087 204.201016 
L 148.967087 204.236886 
L 148.578621 204.350502 
L 148.481505 204.409454 
L 147.995922 204.523525 
L 147.995922 204.520917 
L 147.898806 204.571829 
L 147.51034 204.685359 
L 147.413223 204.712983 
L 147.413223 204.697787 
L 146.636291 204.773495 
L 146.636291 204.780437 
L 146.539175 204.835419 
L 145.859359 204.950336 
L 145.762243 204.964144 
L 145.762243 204.948032 
L 145.762243 204.951709 
L 145.179544 205.066484 
L 145.082427 205.116265 
L 145.179544 205.062079 
L 145.082427 205.105647 
L 144.596845 205.219618 
L 144.499728 205.250294 
L 144.499728 205.212482 
L 144.499728 205.240464 
L 144.111262 205.35371 
L 144.014146 205.435845 
L 144.111262 205.351758 
L 144.014146 205.435268 
L 143.62568 205.5047 
L 143.62568 205.532845 
L 143.62568 205.527971 
L 143.528563 205.588004 
L 143.237214 205.700536 
L 143.140097 205.752858 
L 143.237214 205.682644 
L 143.140097 205.751883 
L 142.751631 205.864721 
L 142.654514 205.95445 
L 142.654514 205.949161 
L 142.266048 206.062479 
L 142.266048 206.06206 
L 142.266048 206.059962 
L 142.168932 206.109799 
L 141.974699 206.221588 
L 141.877582 206.247014 
L 141.877582 206.213202 
L 141.877582 206.244964 
L 141.586233 206.357233 
L 141.489116 206.441141 
L 141.489116 206.439108 
L 141.197767 206.551579 
L 141.197767 206.550606 
L 141.10065 206.645521 
L 140.809301 206.758046 
L 140.809301 206.756552 
L 140.712184 206.818446 
L 140.323718 206.93137 
L 140.226602 206.965669 
L 140.226602 206.952485 
L 139.935252 207.064697 
L 139.935252 207.064225 
L 139.838136 207.108354 
L 139.546786 207.220597 
L 139.546786 207.218146 
L 139.44967 207.284272 
L 139.061204 207.396963 
L 138.964087 207.450372 
L 138.575621 207.563441 
L 138.478505 207.605772 
L 138.478505 207.596475 
L 137.992922 207.709839 
L 137.992922 207.707378 
L 137.895806 207.743201 
L 137.50734 207.855763 
L 137.410223 207.893052 
L 137.50734 207.853371 
L 137.410223 207.885424 
L 137.021757 207.99798 
L 136.924641 208.040487 
L 137.021757 207.995096 
L 136.924641 208.036985 
L 136.536174 208.149663 
L 136.439058 208.170674 
L 136.536174 208.147252 
L 136.439058 208.167494 
L 135.953475 208.280816 
L 135.953475 208.280744 
L 135.856359 208.352965 
L 135.565009 208.465152 
L 135.467893 208.525041 
L 135.467893 208.524069 
L 135.176543 208.636238 
L 135.079427 208.713075 
L 135.079427 208.712104 
L 134.788077 208.824177 
L 134.788077 208.820838 
L 134.690961 208.896144 
L 134.496728 209.007859 
L 134.399611 209.075778 
L 134.496728 209.004238 
L 134.399611 209.072824 
L 134.011145 209.185376 
L 133.914029 209.29822 
L 133.914029 209.284839 
L 133.719796 209.39658 
L 133.622679 209.477469 
L 133.622679 209.47406 
L 133.428446 209.585611 
L 133.33133 209.694597 
L 133.33133 209.692484 
L 133.137097 209.804142 
L 133.03998 209.996495 
L 133.137097 209.802812 
L 133.03998 209.994225 
L 132.845747 210.10588 
L 132.748631 210.233318 
L 132.845747 210.104155 
L 132.748631 210.231267 
L 132.554398 210.343037 
L 132.457281 210.506048 
L 132.263048 210.617765 
L 132.263048 210.617541 
L 132.165932 210.775455 
L 132.165932 210.771817 
L 131.971699 210.883367 
L 131.971699 210.883237 
L 131.874582 210.978967 
L 131.680349 211.09049 
L 131.583233 211.167819 
L 131.583233 211.163513 
L 131.389 211.27524 
L 131.389 211.275058 
L 131.291883 211.412256 
L 131.09765 211.496796 
L 131.09765 211.518841 
L 131.000534 211.637907 
L 130.806301 211.749454 
L 130.709184 211.831451 
L 130.709184 211.830849 
L 130.514951 211.942485 
L 130.417835 212.037797 
L 130.514951 211.940624 
L 130.417835 212.035945 
L 130.223602 212.147551 
L 130.126485 212.242544 
L 130.223602 212.146028 
L 130.126485 212.241323 
L 129.932252 212.352918 
L 129.835135 212.466984 
L 129.932252 212.349574 
L 129.835135 212.46697 
L 129.640902 212.578499 
L 129.543786 212.722062 
L 129.543786 212.721441 
L 129.349553 212.833008 
L 129.252436 212.946713 
L 129.058203 213.058172 
L 129.058203 213.058117 
L 128.961087 213.156265 
L 128.766854 213.207621 
L 128.766854 213.263292 
L 128.669737 213.335345 
L 128.378388 213.447121 
L 128.281271 213.564104 
L 128.281271 213.563744 
L 128.087038 213.675331 
L 128.087038 213.675237 
L 128.087038 213.673415 
L 127.989922 213.777354 
L 127.698572 213.889115 
L 127.698572 213.886039 
L 127.601456 213.996627 
L 127.407223 214.108049 
L 127.310106 214.157345 
L 127.310106 214.156965 
L 127.115873 214.268498 
L 127.115873 214.267858 
L 127.018757 214.374362 
L 126.727407 214.486215 
L 126.727407 214.486075 
L 126.630291 214.622777 
L 126.630291 214.621151 
L 126.436058 214.732574 
L 126.338941 214.845784 
L 126.144708 214.957304 
L 126.047592 215.107336 
L 125.853359 215.218863 
L 125.756242 215.371385 
L 125.756242 215.369231 
L 125.659126 215.48054 
L 125.562009 215.584026 
L 125.562009 215.58316 
L 125.367776 215.69454 
L 125.27066 215.935876 
L 125.076427 216.047298 
L 124.97931 216.312929 
L 124.97931 216.312045 
L 124.882194 216.42336 
L 124.785077 216.593705 
L 124.687961 216.704979 
L 124.590844 216.932879 
L 124.687961 216.703899 
L 124.590844 216.926206 
L 124.493728 217.037324 
L 124.396611 217.318768 
L 124.493728 217.037071 
L 124.396611 217.316556 
L 124.299495 217.427711 
L 124.202378 217.811206 
L 124.299495 217.423793 
L 124.202378 217.810215 
L 124.105262 217.921377 
L 124.008145 218.468814 
L 124.008145 218.466416 
L 123.911029 218.577548 
L 123.813912 219.410164 
L 123.911029 218.576421 
L 123.813912 219.409086 
L 123.716796 219.520333 
L 123.716796 219.661431 
L 123.716796 219.518297 
L 123.716796 219.661431 
" style="fill:none;stroke:#1f77b4;stroke-linecap:square;stroke-width:1.5;"/>
   </g>
   <g id="line2d_37">
    <defs>
     <path d="M 0 3 
C 0.795609 3 1.55874 2.683901 2.12132 2.12132 
C 2.683901 1.55874 3 0.795609 3 0 
C 3 -0.795609 2.683901 -1.55874 2.12132 -2.12132 
C 1.55874 -2.683901 0.795609 -3 0 -3 
C -0.795609 -3 -1.55874 -2.683901 -2.12132 -2.12132 
C -2.683901 -1.55874 -3 -0.795609 -3 0 
C -3 0.795609 -2.683901 1.55874 -2.12132 2.12132 
C -1.55874 2.683901 -0.795609 3 0 3 
z
" id="m37d61fb893" style="stroke:#008000;stroke-opacity:0.5;"/>
    </defs>
    <g clip-path="url(#p5fe82a7619)">
     <use style="fill:#008000;fill-opacity:0.5;stroke:#008000;stroke-opacity:0.5;" x="133.137097" xlink:href="#m37d61fb893" y="209.878986"/>
    </g>
   </g>
   <g id="line2d_38">
    <defs>
     <path d="M 0 3 
C 0.795609 3 1.55874 2.683901 2.12132 2.12132 
C 2.683901 1.55874 3 0.795609 3 0 
C 3 -0.795609 2.683901 -1.55874 2.12132 -2.12132 
C 1.55874 -2.683901 0.795609 -3 0 -3 
C -0.795609 -3 -1.55874 -2.683901 -2.12132 -2.12132 
C -2.683901 -1.55874 -3 -0.795609 -3 0 
C -3 0.795609 -2.683901 1.55874 -2.12132 2.12132 
C -1.55874 2.683901 -0.795609 3 0 3 
z
" id="m091b168011" style="stroke:#ff0000;stroke-opacity:0.5;"/>
    </defs>
    <g clip-path="url(#p5fe82a7619)">
     <use style="fill:#ff0000;fill-opacity:0.5;stroke:#ff0000;stroke-opacity:0.5;" x="155.57101" xlink:href="#m091b168011" y="201.951057"/>
    </g>
   </g>
   <g id="line2d_39">
    <defs>
     <path d="M 0 3 
C 0.795609 3 1.55874 2.683901 2.12132 2.12132 
C 2.683901 1.55874 3 0.795609 3 0 
C 3 -0.795609 2.683901 -1.55874 2.12132 -2.12132 
C 1.55874 -2.683901 0.795609 -3 0 -3 
C -0.795609 -3 -1.55874 -2.683901 -2.12132 -2.12132 
C -2.683901 -1.55874 -3 -0.795609 -3 0 
C -3 0.795609 -2.683901 1.55874 -2.12132 2.12132 
C -1.55874 2.683901 -0.795609 3 0 3 
z
" id="m6f60774b1f" style="stroke:#0000ff;stroke-opacity:0.5;"/>
    </defs>
    <g clip-path="url(#p5fe82a7619)">
     <use style="fill:#0000ff;fill-opacity:0.5;stroke:#0000ff;stroke-opacity:0.5;" x="402.174101" xlink:href="#m6f60774b1f" y="178.818896"/>
    </g>
   </g>
   <g id="patch_8">
    <path d="M 109.8 246.2 
L 109.8 83.32 
" style="fill:none;stroke:#000000;stroke-linecap:square;stroke-linejoin:miter;stroke-width:0.8;"/>
   </g>
   <g id="patch_9">
    <path d="M 415.969501 246.2 
L 415.969501 83.32 
" style="fill:none;stroke:#000000;stroke-linecap:square;stroke-linejoin:miter;stroke-width:0.8;"/>
   </g>
   <g id="patch_10">
    <path d="M 109.8 246.2 
L 415.969501 246.2 
" style="fill:none;stroke:#000000;stroke-linecap:square;stroke-linejoin:miter;stroke-width:0.8;"/>
   </g>
   <g id="patch_11">
    <path d="M 109.8 83.32 
L 415.969501 83.32 
" style="fill:none;stroke:#000000;stroke-linecap:square;stroke-linejoin:miter;stroke-width:0.8;"/>
   </g>
   <g id="text_27">
    <!-- 13.4% -->
    <defs>
     <path d="M 10.6875 12.40625 
L 21 12.40625 
L 21 0 
L 10.6875 0 
z
" id="DejaVuSans-46"/>
    </defs>
    <g transform="translate(117.253503 234.355695)scale(0.1 -0.1)">
     <use xlink:href="#DejaVuSans-49"/>
     <use x="63.623047" xlink:href="#DejaVuSans-51"/>
     <use x="127.246094" xlink:href="#DejaVuSans-46"/>
     <use x="159.033203" xlink:href="#DejaVuSans-52"/>
     <use x="222.65625" xlink:href="#DejaVuSans-37"/>
    </g>
   </g>
   <g id="text_28">
    <!-- 16.3% -->
    <g transform="translate(139.687416 191.137099)scale(0.1 -0.1)">
     <use xlink:href="#DejaVuSans-49"/>
     <use x="63.623047" xlink:href="#DejaVuSans-54"/>
     <use x="127.246094" xlink:href="#DejaVuSans-46"/>
     <use x="159.033203" xlink:href="#DejaVuSans-51"/>
     <use x="222.65625" xlink:href="#DejaVuSans-37"/>
    </g>
   </g>
   <g id="text_29">
    <!-- 24.8% -->
    <defs>
     <path d="M 31.78125 34.625 
Q 24.75 34.625 20.71875 30.859375 
Q 16.703125 27.09375 16.703125 20.515625 
Q 16.703125 13.921875 20.71875 10.15625 
Q 24.75 6.390625 31.78125 6.390625 
Q 38.8125 6.390625 42.859375 10.171875 
Q 46.921875 13.96875 46.921875 20.515625 
Q 46.921875 27.09375 42.890625 30.859375 
Q 38.875 34.625 31.78125 34.625 
z
M 21.921875 38.8125 
Q 15.578125 40.375 12.03125 44.71875 
Q 8.5 49.078125 8.5 55.328125 
Q 8.5 64.0625 14.71875 69.140625 
Q 20.953125 74.21875 31.78125 74.21875 
Q 42.671875 74.21875 48.875 69.140625 
Q 55.078125 64.0625 55.078125 55.328125 
Q 55.078125 49.078125 51.53125 44.71875 
Q 48 40.375 41.703125 38.8125 
Q 48.828125 37.15625 52.796875 32.3125 
Q 56.78125 27.484375 56.78125 20.515625 
Q 56.78125 9.90625 50.3125 4.234375 
Q 43.84375 -1.421875 31.78125 -1.421875 
Q 19.734375 -1.421875 13.25 4.234375 
Q 6.78125 9.90625 6.78125 20.515625 
Q 6.78125 27.484375 10.78125 32.3125 
Q 14.796875 37.15625 21.921875 38.8125 
z
M 18.3125 54.390625 
Q 18.3125 48.734375 21.84375 45.5625 
Q 25.390625 42.390625 31.78125 42.390625 
Q 38.140625 42.390625 41.71875 45.5625 
Q 45.3125 48.734375 45.3125 54.390625 
Q 45.3125 60.0625 41.71875 63.234375 
Q 38.140625 66.40625 31.78125 66.40625 
Q 25.390625 66.40625 21.84375 63.234375 
Q 18.3125 60.0625 18.3125 54.390625 
z
" id="DejaVuSans-56"/>
    </defs>
    <g transform="translate(372.367642 195.151604)scale(0.1 -0.1)">
     <use xlink:href="#DejaVuSans-50"/>
     <use x="63.623047" xlink:href="#DejaVuSans-52"/>
     <use x="127.246094" xlink:href="#DejaVuSans-46"/>
     <use x="159.033203" xlink:href="#DejaVuSans-56"/>
     <use x="222.65625" xlink:href="#DejaVuSans-37"/>
    </g>
   </g>
   <g id="text_30">
    <!-- (b) -->
    <g transform="translate(398.987626 95.2368)scale(0.12 -0.12)">
     <use xlink:href="#DejaVuSans-40"/>
     <use x="39.013672" xlink:href="#DejaVuSans-98"/>
     <use x="102.490234" xlink:href="#DejaVuSans-41"/>
    </g>
   </g>
  </g>
 </g>
 <defs>
  <clipPath id="p6571ab2917">
   <rect height="40.72" width="306.169501" x="109.8" y="10.8"/>
  </clipPath>
  <clipPath id="p5fe82a7619">
   <rect height="162.88" width="306.169501" x="109.8" y="83.32"/>
  </clipPath>
 </defs>
</svg>
