<?xml version="1.0" encoding="utf-8" standalone="no"?>
<!DOCTYPE svg PUBLIC "-//W3C//DTD SVG 1.1//EN"
  "http://www.w3.org/Graphics/SVG/1.1/DTD/svg11.dtd">
<!-- Created with matplotlib (https://matplotlib.org/) -->
<svg height="288pt" version="1.1" viewBox="0 0 432 288" width="432pt" xmlns="http://www.w3.org/2000/svg" xmlns:xlink="http://www.w3.org/1999/xlink">
 <defs>
  <style type="text/css">
*{stroke-linecap:butt;stroke-linejoin:round;}
  </style>
 </defs>
 <g id="figure_1">
  <g id="patch_1">
   <path d="M 0 288 
L 432 288 
L 432 0 
L 0 0 
z
" style="fill:#ffffff;"/>
  </g>
  <g id="axes_1">
   <g id="patch_2">
    <path d="M 109.8 51.52 
L 421.2 51.52 
L 421.2 10.8 
L 109.8 10.8 
z
" style="fill:#ffffff;"/>
   </g>
   <g id="matplotlib.axis_1">
    <g id="xtick_1">
     <g id="line2d_1">
      <defs>
       <path d="M 0 0 
L 0 3.5 
" id="m493c841fd5" style="stroke:#000000;stroke-width:0.8;"/>
      </defs>
      <g>
       <use style="stroke:#000000;stroke-width:0.8;" x="123.954545" xlink:href="#m493c841fd5" y="51.52"/>
      </g>
     </g>
     <g id="text_1">
      <!-- 0 -->
      <defs>
       <path d="M 31.78125 66.40625 
Q 24.171875 66.40625 20.328125 58.90625 
Q 16.5 51.421875 16.5 36.375 
Q 16.5 21.390625 20.328125 13.890625 
Q 24.171875 6.390625 31.78125 6.390625 
Q 39.453125 6.390625 43.28125 13.890625 
Q 47.125 21.390625 47.125 36.375 
Q 47.125 51.421875 43.28125 58.90625 
Q 39.453125 66.40625 31.78125 66.40625 
z
M 31.78125 74.21875 
Q 44.046875 74.21875 50.515625 64.515625 
Q 56.984375 54.828125 56.984375 36.375 
Q 56.984375 17.96875 50.515625 8.265625 
Q 44.046875 -1.421875 31.78125 -1.421875 
Q 19.53125 -1.421875 13.0625 8.265625 
Q 6.59375 17.96875 6.59375 36.375 
Q 6.59375 54.828125 13.0625 64.515625 
Q 19.53125 74.21875 31.78125 74.21875 
z
" id="DejaVuSans-48"/>
      </defs>
      <g transform="translate(120.773295 66.118437)scale(0.1 -0.1)">
       <use xlink:href="#DejaVuSans-48"/>
      </g>
     </g>
    </g>
    <g id="xtick_2">
     <g id="line2d_2">
      <g>
       <use style="stroke:#000000;stroke-width:0.8;" x="168.989688" xlink:href="#m493c841fd5" y="51.52"/>
      </g>
     </g>
     <g id="text_2">
      <!-- 5 -->
      <defs>
       <path d="M 10.796875 72.90625 
L 49.515625 72.90625 
L 49.515625 64.59375 
L 19.828125 64.59375 
L 19.828125 46.734375 
Q 21.96875 47.46875 24.109375 47.828125 
Q 26.265625 48.1875 28.421875 48.1875 
Q 40.625 48.1875 47.75 41.5 
Q 54.890625 34.8125 54.890625 23.390625 
Q 54.890625 11.625 47.5625 5.09375 
Q 40.234375 -1.421875 26.90625 -1.421875 
Q 22.3125 -1.421875 17.546875 -0.640625 
Q 12.796875 0.140625 7.71875 1.703125 
L 7.71875 11.625 
Q 12.109375 9.234375 16.796875 8.0625 
Q 21.484375 6.890625 26.703125 6.890625 
Q 35.15625 6.890625 40.078125 11.328125 
Q 45.015625 15.765625 45.015625 23.390625 
Q 45.015625 31 40.078125 35.4375 
Q 35.15625 39.890625 26.703125 39.890625 
Q 22.75 39.890625 18.8125 39.015625 
Q 14.890625 38.140625 10.796875 36.28125 
z
" id="DejaVuSans-53"/>
      </defs>
      <g transform="translate(165.808438 66.118437)scale(0.1 -0.1)">
       <use xlink:href="#DejaVuSans-53"/>
      </g>
     </g>
    </g>
    <g id="xtick_3">
     <g id="line2d_3">
      <g>
       <use style="stroke:#000000;stroke-width:0.8;" x="214.024832" xlink:href="#m493c841fd5" y="51.52"/>
      </g>
     </g>
     <g id="text_3">
      <!-- 10 -->
      <defs>
       <path d="M 12.40625 8.296875 
L 28.515625 8.296875 
L 28.515625 63.921875 
L 10.984375 60.40625 
L 10.984375 69.390625 
L 28.421875 72.90625 
L 38.28125 72.90625 
L 38.28125 8.296875 
L 54.390625 8.296875 
L 54.390625 0 
L 12.40625 0 
z
" id="DejaVuSans-49"/>
      </defs>
      <g transform="translate(207.662332 66.118437)scale(0.1 -0.1)">
       <use xlink:href="#DejaVuSans-49"/>
       <use x="63.623047" xlink:href="#DejaVuSans-48"/>
      </g>
     </g>
    </g>
    <g id="xtick_4">
     <g id="line2d_4">
      <g>
       <use style="stroke:#000000;stroke-width:0.8;" x="259.059975" xlink:href="#m493c841fd5" y="51.52"/>
      </g>
     </g>
     <g id="text_4">
      <!-- 15 -->
      <g transform="translate(252.697475 66.118437)scale(0.1 -0.1)">
       <use xlink:href="#DejaVuSans-49"/>
       <use x="63.623047" xlink:href="#DejaVuSans-53"/>
      </g>
     </g>
    </g>
    <g id="xtick_5">
     <g id="line2d_5">
      <g>
       <use style="stroke:#000000;stroke-width:0.8;" x="304.095118" xlink:href="#m493c841fd5" y="51.52"/>
      </g>
     </g>
     <g id="text_5">
      <!-- 20 -->
      <defs>
       <path d="M 19.1875 8.296875 
L 53.609375 8.296875 
L 53.609375 0 
L 7.328125 0 
L 7.328125 8.296875 
Q 12.9375 14.109375 22.625 23.890625 
Q 32.328125 33.6875 34.8125 36.53125 
Q 39.546875 41.84375 41.421875 45.53125 
Q 43.3125 49.21875 43.3125 52.78125 
Q 43.3125 58.59375 39.234375 62.25 
Q 35.15625 65.921875 28.609375 65.921875 
Q 23.96875 65.921875 18.8125 64.3125 
Q 13.671875 62.703125 7.8125 59.421875 
L 7.8125 69.390625 
Q 13.765625 71.78125 18.9375 73 
Q 24.125 74.21875 28.421875 74.21875 
Q 39.75 74.21875 46.484375 68.546875 
Q 53.21875 62.890625 53.21875 53.421875 
Q 53.21875 48.921875 51.53125 44.890625 
Q 49.859375 40.875 45.40625 35.40625 
Q 44.1875 33.984375 37.640625 27.21875 
Q 31.109375 20.453125 19.1875 8.296875 
z
" id="DejaVuSans-50"/>
      </defs>
      <g transform="translate(297.732618 66.118437)scale(0.1 -0.1)">
       <use xlink:href="#DejaVuSans-50"/>
       <use x="63.623047" xlink:href="#DejaVuSans-48"/>
      </g>
     </g>
    </g>
    <g id="xtick_6">
     <g id="line2d_6">
      <g>
       <use style="stroke:#000000;stroke-width:0.8;" x="349.130261" xlink:href="#m493c841fd5" y="51.52"/>
      </g>
     </g>
     <g id="text_6">
      <!-- 25 -->
      <g transform="translate(342.767761 66.118437)scale(0.1 -0.1)">
       <use xlink:href="#DejaVuSans-50"/>
       <use x="63.623047" xlink:href="#DejaVuSans-53"/>
      </g>
     </g>
    </g>
    <g id="xtick_7">
     <g id="line2d_7">
      <g>
       <use style="stroke:#000000;stroke-width:0.8;" x="394.165404" xlink:href="#m493c841fd5" y="51.52"/>
      </g>
     </g>
     <g id="text_7">
      <!-- 30 -->
      <defs>
       <path d="M 40.578125 39.3125 
Q 47.65625 37.796875 51.625 33 
Q 55.609375 28.21875 55.609375 21.1875 
Q 55.609375 10.40625 48.1875 4.484375 
Q 40.765625 -1.421875 27.09375 -1.421875 
Q 22.515625 -1.421875 17.65625 -0.515625 
Q 12.796875 0.390625 7.625 2.203125 
L 7.625 11.71875 
Q 11.71875 9.328125 16.59375 8.109375 
Q 21.484375 6.890625 26.8125 6.890625 
Q 36.078125 6.890625 40.9375 10.546875 
Q 45.796875 14.203125 45.796875 21.1875 
Q 45.796875 27.640625 41.28125 31.265625 
Q 36.765625 34.90625 28.71875 34.90625 
L 20.21875 34.90625 
L 20.21875 43.015625 
L 29.109375 43.015625 
Q 36.375 43.015625 40.234375 45.921875 
Q 44.09375 48.828125 44.09375 54.296875 
Q 44.09375 59.90625 40.109375 62.90625 
Q 36.140625 65.921875 28.71875 65.921875 
Q 24.65625 65.921875 20.015625 65.03125 
Q 15.375 64.15625 9.8125 62.3125 
L 9.8125 71.09375 
Q 15.4375 72.65625 20.34375 73.4375 
Q 25.25 74.21875 29.59375 74.21875 
Q 40.828125 74.21875 47.359375 69.109375 
Q 53.90625 64.015625 53.90625 55.328125 
Q 53.90625 49.265625 50.4375 45.09375 
Q 46.96875 40.921875 40.578125 39.3125 
z
" id="DejaVuSans-51"/>
      </defs>
      <g transform="translate(387.802904 66.118437)scale(0.1 -0.1)">
       <use xlink:href="#DejaVuSans-51"/>
       <use x="63.623047" xlink:href="#DejaVuSans-48"/>
      </g>
     </g>
    </g>
   </g>
   <g id="matplotlib.axis_2">
    <g id="ytick_1">
     <g id="line2d_8">
      <defs>
       <path d="M 0 0 
L -3.5 0 
" id="m638fea8842" style="stroke:#000000;stroke-width:0.8;"/>
      </defs>
      <g>
       <use style="stroke:#000000;stroke-width:0.8;" x="109.8" xlink:href="#m638fea8842" y="41.34"/>
      </g>
     </g>
     <g id="text_8">
      <!-- With conflicts -->
      <defs>
       <path d="M 3.328125 72.90625 
L 13.28125 72.90625 
L 28.609375 11.28125 
L 43.890625 72.90625 
L 54.984375 72.90625 
L 70.3125 11.28125 
L 85.59375 72.90625 
L 95.609375 72.90625 
L 77.296875 0 
L 64.890625 0 
L 49.515625 63.28125 
L 33.984375 0 
L 21.578125 0 
z
" id="DejaVuSans-87"/>
       <path d="M 9.421875 54.6875 
L 18.40625 54.6875 
L 18.40625 0 
L 9.421875 0 
z
M 9.421875 75.984375 
L 18.40625 75.984375 
L 18.40625 64.59375 
L 9.421875 64.59375 
z
" id="DejaVuSans-105"/>
       <path d="M 18.3125 70.21875 
L 18.3125 54.6875 
L 36.8125 54.6875 
L 36.8125 47.703125 
L 18.3125 47.703125 
L 18.3125 18.015625 
Q 18.3125 11.328125 20.140625 9.421875 
Q 21.96875 7.515625 27.59375 7.515625 
L 36.8125 7.515625 
L 36.8125 0 
L 27.59375 0 
Q 17.1875 0 13.234375 3.875 
Q 9.28125 7.765625 9.28125 18.015625 
L 9.28125 47.703125 
L 2.6875 47.703125 
L 2.6875 54.6875 
L 9.28125 54.6875 
L 9.28125 70.21875 
z
" id="DejaVuSans-116"/>
       <path d="M 54.890625 33.015625 
L 54.890625 0 
L 45.90625 0 
L 45.90625 32.71875 
Q 45.90625 40.484375 42.875 44.328125 
Q 39.84375 48.1875 33.796875 48.1875 
Q 26.515625 48.1875 22.3125 43.546875 
Q 18.109375 38.921875 18.109375 30.90625 
L 18.109375 0 
L 9.078125 0 
L 9.078125 75.984375 
L 18.109375 75.984375 
L 18.109375 46.1875 
Q 21.34375 51.125 25.703125 53.5625 
Q 30.078125 56 35.796875 56 
Q 45.21875 56 50.046875 50.171875 
Q 54.890625 44.34375 54.890625 33.015625 
z
" id="DejaVuSans-104"/>
       <path id="DejaVuSans-32"/>
       <path d="M 48.78125 52.59375 
L 48.78125 44.1875 
Q 44.96875 46.296875 41.140625 47.34375 
Q 37.3125 48.390625 33.40625 48.390625 
Q 24.65625 48.390625 19.8125 42.84375 
Q 14.984375 37.3125 14.984375 27.296875 
Q 14.984375 17.28125 19.8125 11.734375 
Q 24.65625 6.203125 33.40625 6.203125 
Q 37.3125 6.203125 41.140625 7.25 
Q 44.96875 8.296875 48.78125 10.40625 
L 48.78125 2.09375 
Q 45.015625 0.34375 40.984375 -0.53125 
Q 36.96875 -1.421875 32.421875 -1.421875 
Q 20.0625 -1.421875 12.78125 6.34375 
Q 5.515625 14.109375 5.515625 27.296875 
Q 5.515625 40.671875 12.859375 48.328125 
Q 20.21875 56 33.015625 56 
Q 37.15625 56 41.109375 55.140625 
Q 45.0625 54.296875 48.78125 52.59375 
z
" id="DejaVuSans-99"/>
       <path d="M 30.609375 48.390625 
Q 23.390625 48.390625 19.1875 42.75 
Q 14.984375 37.109375 14.984375 27.296875 
Q 14.984375 17.484375 19.15625 11.84375 
Q 23.34375 6.203125 30.609375 6.203125 
Q 37.796875 6.203125 41.984375 11.859375 
Q 46.1875 17.53125 46.1875 27.296875 
Q 46.1875 37.015625 41.984375 42.703125 
Q 37.796875 48.390625 30.609375 48.390625 
z
M 30.609375 56 
Q 42.328125 56 49.015625 48.375 
Q 55.71875 40.765625 55.71875 27.296875 
Q 55.71875 13.875 49.015625 6.21875 
Q 42.328125 -1.421875 30.609375 -1.421875 
Q 18.84375 -1.421875 12.171875 6.21875 
Q 5.515625 13.875 5.515625 27.296875 
Q 5.515625 40.765625 12.171875 48.375 
Q 18.84375 56 30.609375 56 
z
" id="DejaVuSans-111"/>
       <path d="M 54.890625 33.015625 
L 54.890625 0 
L 45.90625 0 
L 45.90625 32.71875 
Q 45.90625 40.484375 42.875 44.328125 
Q 39.84375 48.1875 33.796875 48.1875 
Q 26.515625 48.1875 22.3125 43.546875 
Q 18.109375 38.921875 18.109375 30.90625 
L 18.109375 0 
L 9.078125 0 
L 9.078125 54.6875 
L 18.109375 54.6875 
L 18.109375 46.1875 
Q 21.34375 51.125 25.703125 53.5625 
Q 30.078125 56 35.796875 56 
Q 45.21875 56 50.046875 50.171875 
Q 54.890625 44.34375 54.890625 33.015625 
z
" id="DejaVuSans-110"/>
       <path d="M 37.109375 75.984375 
L 37.109375 68.5 
L 28.515625 68.5 
Q 23.6875 68.5 21.796875 66.546875 
Q 19.921875 64.59375 19.921875 59.515625 
L 19.921875 54.6875 
L 34.71875 54.6875 
L 34.71875 47.703125 
L 19.921875 47.703125 
L 19.921875 0 
L 10.890625 0 
L 10.890625 47.703125 
L 2.296875 47.703125 
L 2.296875 54.6875 
L 10.890625 54.6875 
L 10.890625 58.5 
Q 10.890625 67.625 15.140625 71.796875 
Q 19.390625 75.984375 28.609375 75.984375 
z
" id="DejaVuSans-102"/>
       <path d="M 9.421875 75.984375 
L 18.40625 75.984375 
L 18.40625 0 
L 9.421875 0 
z
" id="DejaVuSans-108"/>
       <path d="M 44.28125 53.078125 
L 44.28125 44.578125 
Q 40.484375 46.53125 36.375 47.5 
Q 32.28125 48.484375 27.875 48.484375 
Q 21.1875 48.484375 17.84375 46.4375 
Q 14.5 44.390625 14.5 40.28125 
Q 14.5 37.15625 16.890625 35.375 
Q 19.28125 33.59375 26.515625 31.984375 
L 29.59375 31.296875 
Q 39.15625 29.25 43.1875 25.515625 
Q 47.21875 21.78125 47.21875 15.09375 
Q 47.21875 7.46875 41.1875 3.015625 
Q 35.15625 -1.421875 24.609375 -1.421875 
Q 20.21875 -1.421875 15.453125 -0.5625 
Q 10.6875 0.296875 5.421875 2 
L 5.421875 11.28125 
Q 10.40625 8.6875 15.234375 7.390625 
Q 20.0625 6.109375 24.8125 6.109375 
Q 31.15625 6.109375 34.5625 8.28125 
Q 37.984375 10.453125 37.984375 14.40625 
Q 37.984375 18.0625 35.515625 20.015625 
Q 33.0625 21.96875 24.703125 23.78125 
L 21.578125 24.515625 
Q 13.234375 26.265625 9.515625 29.90625 
Q 5.8125 33.546875 5.8125 39.890625 
Q 5.8125 47.609375 11.28125 51.796875 
Q 16.75 56 26.8125 56 
Q 31.78125 56 36.171875 55.265625 
Q 40.578125 54.546875 44.28125 53.078125 
z
" id="DejaVuSans-115"/>
      </defs>
      <g transform="translate(35.042187 45.139219)scale(0.1 -0.1)">
       <use xlink:href="#DejaVuSans-87"/>
       <use x="98.845703" xlink:href="#DejaVuSans-105"/>
       <use x="126.628906" xlink:href="#DejaVuSans-116"/>
       <use x="165.837891" xlink:href="#DejaVuSans-104"/>
       <use x="229.216797" xlink:href="#DejaVuSans-32"/>
       <use x="261.003906" xlink:href="#DejaVuSans-99"/>
       <use x="315.984375" xlink:href="#DejaVuSans-111"/>
       <use x="377.166016" xlink:href="#DejaVuSans-110"/>
       <use x="440.544922" xlink:href="#DejaVuSans-102"/>
       <use x="475.75" xlink:href="#DejaVuSans-108"/>
       <use x="503.533203" xlink:href="#DejaVuSans-105"/>
       <use x="531.316406" xlink:href="#DejaVuSans-99"/>
       <use x="586.296875" xlink:href="#DejaVuSans-116"/>
       <use x="625.505859" xlink:href="#DejaVuSans-115"/>
      </g>
     </g>
    </g>
    <g id="ytick_2">
     <g id="line2d_9">
      <g>
       <use style="stroke:#000000;stroke-width:0.8;" x="109.8" xlink:href="#m638fea8842" y="20.98"/>
      </g>
     </g>
     <g id="text_9">
      <!-- Without conflicts -->
      <defs>
       <path d="M 8.5 21.578125 
L 8.5 54.6875 
L 17.484375 54.6875 
L 17.484375 21.921875 
Q 17.484375 14.15625 20.5 10.265625 
Q 23.53125 6.390625 29.59375 6.390625 
Q 36.859375 6.390625 41.078125 11.03125 
Q 45.3125 15.671875 45.3125 23.6875 
L 45.3125 54.6875 
L 54.296875 54.6875 
L 54.296875 0 
L 45.3125 0 
L 45.3125 8.40625 
Q 42.046875 3.421875 37.71875 1 
Q 33.40625 -1.421875 27.6875 -1.421875 
Q 18.265625 -1.421875 13.375 4.4375 
Q 8.5 10.296875 8.5 21.578125 
z
M 31.109375 56 
z
" id="DejaVuSans-117"/>
      </defs>
      <g transform="translate(18.665625 24.779219)scale(0.1 -0.1)">
       <use xlink:href="#DejaVuSans-87"/>
       <use x="98.845703" xlink:href="#DejaVuSans-105"/>
       <use x="126.628906" xlink:href="#DejaVuSans-116"/>
       <use x="165.837891" xlink:href="#DejaVuSans-104"/>
       <use x="229.216797" xlink:href="#DejaVuSans-111"/>
       <use x="290.398438" xlink:href="#DejaVuSans-117"/>
       <use x="353.777344" xlink:href="#DejaVuSans-116"/>
       <use x="392.986328" xlink:href="#DejaVuSans-32"/>
       <use x="424.773438" xlink:href="#DejaVuSans-99"/>
       <use x="479.753906" xlink:href="#DejaVuSans-111"/>
       <use x="540.935547" xlink:href="#DejaVuSans-110"/>
       <use x="604.314453" xlink:href="#DejaVuSans-102"/>
       <use x="639.519531" xlink:href="#DejaVuSans-108"/>
       <use x="667.302734" xlink:href="#DejaVuSans-105"/>
       <use x="695.085938" xlink:href="#DejaVuSans-99"/>
       <use x="750.066406" xlink:href="#DejaVuSans-116"/>
       <use x="789.275391" xlink:href="#DejaVuSans-115"/>
      </g>
     </g>
    </g>
   </g>
   <g id="line2d_10">
    <path clip-path="url(#p26d3a16f22)" d="M 133.682136 47.448 
L 133.682136 35.232 
L 243.207604 35.232 
L 243.207604 47.448 
L 133.682136 47.448 
" style="fill:none;stroke:#1f77b4;stroke-linecap:square;"/>
   </g>
   <g id="line2d_11">
    <path clip-path="url(#p26d3a16f22)" d="M 133.682136 41.34 
L 123.954545 41.34 
" style="fill:none;stroke:#1f77b4;stroke-linecap:square;"/>
   </g>
   <g id="line2d_12">
    <path clip-path="url(#p26d3a16f22)" d="M 243.207604 41.34 
L 407.045455 41.34 
" style="fill:none;stroke:#1f77b4;stroke-linecap:square;"/>
   </g>
   <g id="line2d_13">
    <path clip-path="url(#p26d3a16f22)" d="M 123.954545 44.394 
L 123.954545 38.286 
" style="fill:none;stroke:#000000;stroke-linecap:square;"/>
   </g>
   <g id="line2d_14">
    <path clip-path="url(#p26d3a16f22)" d="M 407.045455 44.394 
L 407.045455 38.286 
" style="fill:none;stroke:#000000;stroke-linecap:square;"/>
   </g>
   <g id="line2d_15">
    <path clip-path="url(#p26d3a16f22)" d="M 128.998481 27.088 
L 128.998481 14.872 
L 170.340743 14.872 
L 170.340743 27.088 
L 128.998481 27.088 
" style="fill:none;stroke:#1f77b4;stroke-linecap:square;"/>
   </g>
   <g id="line2d_16">
    <path clip-path="url(#p26d3a16f22)" d="M 128.998481 20.98 
L 123.954545 20.98 
" style="fill:none;stroke:#1f77b4;stroke-linecap:square;"/>
   </g>
   <g id="line2d_17">
    <path clip-path="url(#p26d3a16f22)" d="M 170.340743 20.98 
L 232.3091 20.98 
" style="fill:none;stroke:#1f77b4;stroke-linecap:square;"/>
   </g>
   <g id="line2d_18">
    <path clip-path="url(#p26d3a16f22)" d="M 123.954545 24.034 
L 123.954545 17.926 
" style="fill:none;stroke:#000000;stroke-linecap:square;"/>
   </g>
   <g id="line2d_19">
    <path clip-path="url(#p26d3a16f22)" d="M 232.3091 24.034 
L 232.3091 17.926 
" style="fill:none;stroke:#000000;stroke-linecap:square;"/>
   </g>
   <g id="line2d_20">
    <path clip-path="url(#p26d3a16f22)" d="M 160.793292 47.448 
L 160.793292 35.232 
" style="fill:none;stroke:#2ca02c;stroke-linecap:square;"/>
   </g>
   <g id="line2d_21">
    <path clip-path="url(#p26d3a16f22)" d="M 139.626775 27.088 
L 139.626775 14.872 
" style="fill:none;stroke:#2ca02c;stroke-linecap:square;"/>
   </g>
   <g id="patch_3">
    <path d="M 109.8 51.52 
L 109.8 10.8 
" style="fill:none;stroke:#000000;stroke-linecap:square;stroke-linejoin:miter;stroke-width:0.8;"/>
   </g>
   <g id="patch_4">
    <path d="M 421.2 51.52 
L 421.2 10.8 
" style="fill:none;stroke:#000000;stroke-linecap:square;stroke-linejoin:miter;stroke-width:0.8;"/>
   </g>
   <g id="patch_5">
    <path d="M 109.8 51.52 
L 421.2 51.52 
" style="fill:none;stroke:#000000;stroke-linecap:square;stroke-linejoin:miter;stroke-width:0.8;"/>
   </g>
   <g id="patch_6">
    <path d="M 109.8 10.8 
L 421.2 10.8 
" style="fill:none;stroke:#000000;stroke-linecap:square;stroke-linejoin:miter;stroke-width:0.8;"/>
   </g>
   <g id="text_10">
    <!-- (a) -->
    <defs>
     <path d="M 31 75.875 
Q 24.46875 64.65625 21.28125 53.65625 
Q 18.109375 42.671875 18.109375 31.390625 
Q 18.109375 20.125 21.3125 9.0625 
Q 24.515625 -2 31 -13.1875 
L 23.1875 -13.1875 
Q 15.875 -1.703125 12.234375 9.375 
Q 8.59375 20.453125 8.59375 31.390625 
Q 8.59375 42.28125 12.203125 53.3125 
Q 15.828125 64.359375 23.1875 75.875 
z
" id="DejaVuSans-40"/>
     <path d="M 34.28125 27.484375 
Q 23.390625 27.484375 19.1875 25 
Q 14.984375 22.515625 14.984375 16.5 
Q 14.984375 11.71875 18.140625 8.90625 
Q 21.296875 6.109375 26.703125 6.109375 
Q 34.1875 6.109375 38.703125 11.40625 
Q 43.21875 16.703125 43.21875 25.484375 
L 43.21875 27.484375 
z
M 52.203125 31.203125 
L 52.203125 0 
L 43.21875 0 
L 43.21875 8.296875 
Q 40.140625 3.328125 35.546875 0.953125 
Q 30.953125 -1.421875 24.3125 -1.421875 
Q 15.921875 -1.421875 10.953125 3.296875 
Q 6 8.015625 6 15.921875 
Q 6 25.140625 12.171875 29.828125 
Q 18.359375 34.515625 30.609375 34.515625 
L 43.21875 34.515625 
L 43.21875 35.40625 
Q 43.21875 41.609375 39.140625 45 
Q 35.0625 48.390625 27.6875 48.390625 
Q 23 48.390625 18.546875 47.265625 
Q 14.109375 46.140625 10.015625 43.890625 
L 10.015625 52.203125 
Q 14.9375 54.109375 19.578125 55.046875 
Q 24.21875 56 28.609375 56 
Q 40.484375 56 46.34375 49.84375 
Q 52.203125 43.703125 52.203125 31.203125 
z
" id="DejaVuSans-97"/>
     <path d="M 8.015625 75.875 
L 15.828125 75.875 
Q 23.140625 64.359375 26.78125 53.3125 
Q 30.421875 42.28125 30.421875 31.390625 
Q 30.421875 20.453125 26.78125 9.375 
Q 23.140625 -1.703125 15.828125 -13.1875 
L 8.015625 -13.1875 
Q 14.5 -2 17.703125 9.0625 
Q 20.90625 20.125 20.90625 31.390625 
Q 20.90625 42.671875 17.703125 53.65625 
Q 14.5 64.65625 8.015625 75.875 
z
" id="DejaVuSans-41"/>
    </defs>
    <g transform="translate(404.4825 23.124)scale(0.12 -0.12)">
     <use xlink:href="#DejaVuSans-40"/>
     <use x="39.013672" xlink:href="#DejaVuSans-97"/>
     <use x="100.292969" xlink:href="#DejaVuSans-41"/>
    </g>
   </g>
  </g>
  <g id="axes_2">
   <g id="patch_7">
    <path d="M 109.8 246.2 
L 421.2 246.2 
L 421.2 83.32 
L 109.8 83.32 
z
" style="fill:#ffffff;"/>
   </g>
   <g id="matplotlib.axis_3">
    <g id="xtick_8">
     <g id="line2d_22">
      <g>
       <use style="stroke:#000000;stroke-width:0.8;" x="123.954545" xlink:href="#m493c841fd5" y="246.2"/>
      </g>
     </g>
     <g id="text_11">
      <!-- 0 -->
      <g transform="translate(120.773295 260.798437)scale(0.1 -0.1)">
       <use xlink:href="#DejaVuSans-48"/>
      </g>
     </g>
    </g>
    <g id="xtick_9">
     <g id="line2d_23">
      <g>
       <use style="stroke:#000000;stroke-width:0.8;" x="168.989688" xlink:href="#m493c841fd5" y="246.2"/>
      </g>
     </g>
     <g id="text_12">
      <!-- 5 -->
      <g transform="translate(165.808438 260.798437)scale(0.1 -0.1)">
       <use xlink:href="#DejaVuSans-53"/>
      </g>
     </g>
    </g>
    <g id="xtick_10">
     <g id="line2d_24">
      <g>
       <use style="stroke:#000000;stroke-width:0.8;" x="214.024832" xlink:href="#m493c841fd5" y="246.2"/>
      </g>
     </g>
     <g id="text_13">
      <!-- 10 -->
      <g transform="translate(207.662332 260.798437)scale(0.1 -0.1)">
       <use xlink:href="#DejaVuSans-49"/>
       <use x="63.623047" xlink:href="#DejaVuSans-48"/>
      </g>
     </g>
    </g>
    <g id="xtick_11">
     <g id="line2d_25">
      <g>
       <use style="stroke:#000000;stroke-width:0.8;" x="259.059975" xlink:href="#m493c841fd5" y="246.2"/>
      </g>
     </g>
     <g id="text_14">
      <!-- 15 -->
      <g transform="translate(252.697475 260.798437)scale(0.1 -0.1)">
       <use xlink:href="#DejaVuSans-49"/>
       <use x="63.623047" xlink:href="#DejaVuSans-53"/>
      </g>
     </g>
    </g>
    <g id="xtick_12">
     <g id="line2d_26">
      <g>
       <use style="stroke:#000000;stroke-width:0.8;" x="304.095118" xlink:href="#m493c841fd5" y="246.2"/>
      </g>
     </g>
     <g id="text_15">
      <!-- 20 -->
      <g transform="translate(297.732618 260.798437)scale(0.1 -0.1)">
       <use xlink:href="#DejaVuSans-50"/>
       <use x="63.623047" xlink:href="#DejaVuSans-48"/>
      </g>
     </g>
    </g>
    <g id="xtick_13">
     <g id="line2d_27">
      <g>
       <use style="stroke:#000000;stroke-width:0.8;" x="349.130261" xlink:href="#m493c841fd5" y="246.2"/>
      </g>
     </g>
     <g id="text_16">
      <!-- 25 -->
      <g transform="translate(342.767761 260.798437)scale(0.1 -0.1)">
       <use xlink:href="#DejaVuSans-50"/>
       <use x="63.623047" xlink:href="#DejaVuSans-53"/>
      </g>
     </g>
    </g>
    <g id="xtick_14">
     <g id="line2d_28">
      <g>
       <use style="stroke:#000000;stroke-width:0.8;" x="394.165404" xlink:href="#m493c841fd5" y="246.2"/>
      </g>
     </g>
     <g id="text_17">
      <!-- 30 -->
      <g transform="translate(387.802904 260.798437)scale(0.1 -0.1)">
       <use xlink:href="#DejaVuSans-51"/>
       <use x="63.623047" xlink:href="#DejaVuSans-48"/>
      </g>
     </g>
    </g>
    <g id="text_18">
     <!-- (b) total-duration -->
     <defs>
      <path d="M 48.6875 27.296875 
Q 48.6875 37.203125 44.609375 42.84375 
Q 40.53125 48.484375 33.40625 48.484375 
Q 26.265625 48.484375 22.1875 42.84375 
Q 18.109375 37.203125 18.109375 27.296875 
Q 18.109375 17.390625 22.1875 11.75 
Q 26.265625 6.109375 33.40625 6.109375 
Q 40.53125 6.109375 44.609375 11.75 
Q 48.6875 17.390625 48.6875 27.296875 
z
M 18.109375 46.390625 
Q 20.953125 51.265625 25.265625 53.625 
Q 29.59375 56 35.59375 56 
Q 45.5625 56 51.78125 48.09375 
Q 58.015625 40.1875 58.015625 27.296875 
Q 58.015625 14.40625 51.78125 6.484375 
Q 45.5625 -1.421875 35.59375 -1.421875 
Q 29.59375 -1.421875 25.265625 0.953125 
Q 20.953125 3.328125 18.109375 8.203125 
L 18.109375 0 
L 9.078125 0 
L 9.078125 75.984375 
L 18.109375 75.984375 
z
" id="DejaVuSans-98"/>
      <path d="M 4.890625 31.390625 
L 31.203125 31.390625 
L 31.203125 23.390625 
L 4.890625 23.390625 
z
" id="DejaVuSans-45"/>
      <path d="M 45.40625 46.390625 
L 45.40625 75.984375 
L 54.390625 75.984375 
L 54.390625 0 
L 45.40625 0 
L 45.40625 8.203125 
Q 42.578125 3.328125 38.25 0.953125 
Q 33.9375 -1.421875 27.875 -1.421875 
Q 17.96875 -1.421875 11.734375 6.484375 
Q 5.515625 14.40625 5.515625 27.296875 
Q 5.515625 40.1875 11.734375 48.09375 
Q 17.96875 56 27.875 56 
Q 33.9375 56 38.25 53.625 
Q 42.578125 51.265625 45.40625 46.390625 
z
M 14.796875 27.296875 
Q 14.796875 17.390625 18.875 11.75 
Q 22.953125 6.109375 30.078125 6.109375 
Q 37.203125 6.109375 41.296875 11.75 
Q 45.40625 17.390625 45.40625 27.296875 
Q 45.40625 37.203125 41.296875 42.84375 
Q 37.203125 48.484375 30.078125 48.484375 
Q 22.953125 48.484375 18.875 42.84375 
Q 14.796875 37.203125 14.796875 27.296875 
z
" id="DejaVuSans-100"/>
      <path d="M 41.109375 46.296875 
Q 39.59375 47.171875 37.8125 47.578125 
Q 36.03125 48 33.890625 48 
Q 26.265625 48 22.1875 43.046875 
Q 18.109375 38.09375 18.109375 28.8125 
L 18.109375 0 
L 9.078125 0 
L 9.078125 54.6875 
L 18.109375 54.6875 
L 18.109375 46.1875 
Q 20.953125 51.171875 25.484375 53.578125 
Q 30.03125 56 36.53125 56 
Q 37.453125 56 38.578125 55.875 
Q 39.703125 55.765625 41.0625 55.515625 
z
" id="DejaVuSans-114"/>
     </defs>
     <g transform="translate(222.558594 274.476562)scale(0.1 -0.1)">
      <use xlink:href="#DejaVuSans-40"/>
      <use x="39.013672" xlink:href="#DejaVuSans-98"/>
      <use x="102.490234" xlink:href="#DejaVuSans-41"/>
      <use x="141.503906" xlink:href="#DejaVuSans-32"/>
      <use x="173.291016" xlink:href="#DejaVuSans-116"/>
      <use x="212.5" xlink:href="#DejaVuSans-111"/>
      <use x="273.681641" xlink:href="#DejaVuSans-116"/>
      <use x="312.890625" xlink:href="#DejaVuSans-97"/>
      <use x="374.169922" xlink:href="#DejaVuSans-108"/>
      <use x="401.953125" xlink:href="#DejaVuSans-45"/>
      <use x="438.037109" xlink:href="#DejaVuSans-100"/>
      <use x="501.513672" xlink:href="#DejaVuSans-117"/>
      <use x="564.892578" xlink:href="#DejaVuSans-114"/>
      <use x="606.005859" xlink:href="#DejaVuSans-97"/>
      <use x="667.285156" xlink:href="#DejaVuSans-116"/>
      <use x="706.494141" xlink:href="#DejaVuSans-105"/>
      <use x="734.277344" xlink:href="#DejaVuSans-111"/>
      <use x="795.458984" xlink:href="#DejaVuSans-110"/>
     </g>
    </g>
   </g>
   <g id="matplotlib.axis_4">
    <g id="ytick_3">
     <g id="line2d_29">
      <g>
       <use style="stroke:#000000;stroke-width:0.8;" x="109.8" xlink:href="#m638fea8842" y="246.2"/>
      </g>
     </g>
     <g id="text_19">
      <!-- 0% -->
      <defs>
       <path d="M 72.703125 32.078125 
Q 68.453125 32.078125 66.03125 28.46875 
Q 63.625 24.859375 63.625 18.40625 
Q 63.625 12.0625 66.03125 8.421875 
Q 68.453125 4.78125 72.703125 4.78125 
Q 76.859375 4.78125 79.265625 8.421875 
Q 81.6875 12.0625 81.6875 18.40625 
Q 81.6875 24.8125 79.265625 28.4375 
Q 76.859375 32.078125 72.703125 32.078125 
z
M 72.703125 38.28125 
Q 80.421875 38.28125 84.953125 32.90625 
Q 89.5 27.546875 89.5 18.40625 
Q 89.5 9.28125 84.9375 3.921875 
Q 80.375 -1.421875 72.703125 -1.421875 
Q 64.890625 -1.421875 60.34375 3.921875 
Q 55.8125 9.28125 55.8125 18.40625 
Q 55.8125 27.59375 60.375 32.9375 
Q 64.9375 38.28125 72.703125 38.28125 
z
M 22.3125 68.015625 
Q 18.109375 68.015625 15.6875 64.375 
Q 13.28125 60.75 13.28125 54.390625 
Q 13.28125 47.953125 15.671875 44.328125 
Q 18.0625 40.71875 22.3125 40.71875 
Q 26.5625 40.71875 28.96875 44.328125 
Q 31.390625 47.953125 31.390625 54.390625 
Q 31.390625 60.6875 28.953125 64.34375 
Q 26.515625 68.015625 22.3125 68.015625 
z
M 66.40625 74.21875 
L 74.21875 74.21875 
L 28.609375 -1.421875 
L 20.796875 -1.421875 
z
M 22.3125 74.21875 
Q 30.03125 74.21875 34.609375 68.875 
Q 39.203125 63.53125 39.203125 54.390625 
Q 39.203125 45.171875 34.640625 39.84375 
Q 30.078125 34.515625 22.3125 34.515625 
Q 14.546875 34.515625 10.03125 39.859375 
Q 5.515625 45.21875 5.515625 54.390625 
Q 5.515625 63.484375 10.046875 68.84375 
Q 14.59375 74.21875 22.3125 74.21875 
z
" id="DejaVuSans-37"/>
      </defs>
      <g transform="translate(86.935937 249.999219)scale(0.1 -0.1)">
       <use xlink:href="#DejaVuSans-48"/>
       <use x="63.623047" xlink:href="#DejaVuSans-37"/>
      </g>
     </g>
    </g>
    <g id="ytick_4">
     <g id="line2d_30">
      <g>
       <use style="stroke:#000000;stroke-width:0.8;" x="109.8" xlink:href="#m638fea8842" y="219.053333"/>
      </g>
     </g>
     <g id="text_20">
      <!-- 10% -->
      <g transform="translate(80.573437 222.852552)scale(0.1 -0.1)">
       <use xlink:href="#DejaVuSans-49"/>
       <use x="63.623047" xlink:href="#DejaVuSans-48"/>
       <use x="127.246094" xlink:href="#DejaVuSans-37"/>
      </g>
     </g>
    </g>
    <g id="ytick_5">
     <g id="line2d_31">
      <g>
       <use style="stroke:#000000;stroke-width:0.8;" x="109.8" xlink:href="#m638fea8842" y="191.906667"/>
      </g>
     </g>
     <g id="text_21">
      <!-- 20% -->
      <g transform="translate(80.573437 195.705885)scale(0.1 -0.1)">
       <use xlink:href="#DejaVuSans-50"/>
       <use x="63.623047" xlink:href="#DejaVuSans-48"/>
       <use x="127.246094" xlink:href="#DejaVuSans-37"/>
      </g>
     </g>
    </g>
    <g id="ytick_6">
     <g id="line2d_32">
      <g>
       <use style="stroke:#000000;stroke-width:0.8;" x="109.8" xlink:href="#m638fea8842" y="164.76"/>
      </g>
     </g>
     <g id="text_22">
      <!-- 30% -->
      <g transform="translate(80.573437 168.559219)scale(0.1 -0.1)">
       <use xlink:href="#DejaVuSans-51"/>
       <use x="63.623047" xlink:href="#DejaVuSans-48"/>
       <use x="127.246094" xlink:href="#DejaVuSans-37"/>
      </g>
     </g>
    </g>
    <g id="ytick_7">
     <g id="line2d_33">
      <g>
       <use style="stroke:#000000;stroke-width:0.8;" x="109.8" xlink:href="#m638fea8842" y="137.613333"/>
      </g>
     </g>
     <g id="text_23">
      <!-- 40% -->
      <defs>
       <path d="M 37.796875 64.3125 
L 12.890625 25.390625 
L 37.796875 25.390625 
z
M 35.203125 72.90625 
L 47.609375 72.90625 
L 47.609375 25.390625 
L 58.015625 25.390625 
L 58.015625 17.1875 
L 47.609375 17.1875 
L 47.609375 0 
L 37.796875 0 
L 37.796875 17.1875 
L 4.890625 17.1875 
L 4.890625 26.703125 
z
" id="DejaVuSans-52"/>
      </defs>
      <g transform="translate(80.573437 141.412552)scale(0.1 -0.1)">
       <use xlink:href="#DejaVuSans-52"/>
       <use x="63.623047" xlink:href="#DejaVuSans-48"/>
       <use x="127.246094" xlink:href="#DejaVuSans-37"/>
      </g>
     </g>
    </g>
    <g id="ytick_8">
     <g id="line2d_34">
      <g>
       <use style="stroke:#000000;stroke-width:0.8;" x="109.8" xlink:href="#m638fea8842" y="110.466667"/>
      </g>
     </g>
     <g id="text_24">
      <!-- 50% -->
      <g transform="translate(80.573437 114.265885)scale(0.1 -0.1)">
       <use xlink:href="#DejaVuSans-53"/>
       <use x="63.623047" xlink:href="#DejaVuSans-48"/>
       <use x="127.246094" xlink:href="#DejaVuSans-37"/>
      </g>
     </g>
    </g>
    <g id="ytick_9">
     <g id="line2d_35">
      <g>
       <use style="stroke:#000000;stroke-width:0.8;" x="109.8" xlink:href="#m638fea8842" y="83.32"/>
      </g>
     </g>
     <g id="text_25">
      <!-- 60% -->
      <defs>
       <path d="M 33.015625 40.375 
Q 26.375 40.375 22.484375 35.828125 
Q 18.609375 31.296875 18.609375 23.390625 
Q 18.609375 15.53125 22.484375 10.953125 
Q 26.375 6.390625 33.015625 6.390625 
Q 39.65625 6.390625 43.53125 10.953125 
Q 47.40625 15.53125 47.40625 23.390625 
Q 47.40625 31.296875 43.53125 35.828125 
Q 39.65625 40.375 33.015625 40.375 
z
M 52.59375 71.296875 
L 52.59375 62.3125 
Q 48.875 64.0625 45.09375 64.984375 
Q 41.3125 65.921875 37.59375 65.921875 
Q 27.828125 65.921875 22.671875 59.328125 
Q 17.53125 52.734375 16.796875 39.40625 
Q 19.671875 43.65625 24.015625 45.921875 
Q 28.375 48.1875 33.59375 48.1875 
Q 44.578125 48.1875 50.953125 41.515625 
Q 57.328125 34.859375 57.328125 23.390625 
Q 57.328125 12.15625 50.6875 5.359375 
Q 44.046875 -1.421875 33.015625 -1.421875 
Q 20.359375 -1.421875 13.671875 8.265625 
Q 6.984375 17.96875 6.984375 36.375 
Q 6.984375 53.65625 15.1875 63.9375 
Q 23.390625 74.21875 37.203125 74.21875 
Q 40.921875 74.21875 44.703125 73.484375 
Q 48.484375 72.75 52.59375 71.296875 
z
" id="DejaVuSans-54"/>
      </defs>
      <g transform="translate(80.573437 87.119219)scale(0.1 -0.1)">
       <use xlink:href="#DejaVuSans-54"/>
       <use x="63.623047" xlink:href="#DejaVuSans-48"/>
       <use x="127.246094" xlink:href="#DejaVuSans-37"/>
      </g>
     </g>
    </g>
    <g id="text_26">
     <!-- P(conflict  -->
     <defs>
      <path d="M 19.671875 64.796875 
L 19.671875 37.40625 
L 32.078125 37.40625 
Q 38.96875 37.40625 42.71875 40.96875 
Q 46.484375 44.53125 46.484375 51.125 
Q 46.484375 57.671875 42.71875 61.234375 
Q 38.96875 64.796875 32.078125 64.796875 
z
M 9.8125 72.90625 
L 32.078125 72.90625 
Q 44.34375 72.90625 50.609375 67.359375 
Q 56.890625 61.8125 56.890625 51.125 
Q 56.890625 40.328125 50.609375 34.8125 
Q 44.34375 29.296875 32.078125 29.296875 
L 19.671875 29.296875 
L 19.671875 0 
L 9.8125 0 
z
" id="DejaVuSans-80"/>
     </defs>
     <g transform="translate(10.573437 150.557344)scale(0.1 -0.1)">
      <use xlink:href="#DejaVuSans-80"/>
      <use x="60.302734" xlink:href="#DejaVuSans-40"/>
      <use x="99.316406" xlink:href="#DejaVuSans-99"/>
      <use x="154.296875" xlink:href="#DejaVuSans-111"/>
      <use x="215.478516" xlink:href="#DejaVuSans-110"/>
      <use x="278.857422" xlink:href="#DejaVuSans-102"/>
      <use x="314.0625" xlink:href="#DejaVuSans-108"/>
      <use x="341.845703" xlink:href="#DejaVuSans-105"/>
      <use x="369.628906" xlink:href="#DejaVuSans-99"/>
      <use x="424.609375" xlink:href="#DejaVuSans-116"/>
      <use x="463.818359" xlink:href="#DejaVuSans-32"/>
     </g>
     <!--    | total- -->
     <defs>
      <path d="M 21 76.421875 
L 21 -23.578125 
L 12.703125 -23.578125 
L 12.703125 76.421875 
z
" id="DejaVuSans-124"/>
     </defs>
     <g transform="translate(10.573437 161.807656)scale(0.1 -0.1)">
      <use xlink:href="#DejaVuSans-32"/>
      <use x="31.787109" xlink:href="#DejaVuSans-32"/>
      <use x="63.574219" xlink:href="#DejaVuSans-32"/>
      <use x="95.361328" xlink:href="#DejaVuSans-124"/>
      <use x="129.052734" xlink:href="#DejaVuSans-32"/>
      <use x="160.839844" xlink:href="#DejaVuSans-116"/>
      <use x="200.048828" xlink:href="#DejaVuSans-111"/>
      <use x="261.230469" xlink:href="#DejaVuSans-116"/>
      <use x="300.439453" xlink:href="#DejaVuSans-97"/>
      <use x="361.71875" xlink:href="#DejaVuSans-108"/>
      <use x="389.501953" xlink:href="#DejaVuSans-45"/>
     </g>
     <!--      duration -->
     <g transform="translate(10.573437 173.283594)scale(0.1 -0.1)">
      <use xlink:href="#DejaVuSans-32"/>
      <use x="31.787109" xlink:href="#DejaVuSans-32"/>
      <use x="63.574219" xlink:href="#DejaVuSans-32"/>
      <use x="95.361328" xlink:href="#DejaVuSans-32"/>
      <use x="127.148438" xlink:href="#DejaVuSans-32"/>
      <use x="158.935547" xlink:href="#DejaVuSans-100"/>
      <use x="222.412109" xlink:href="#DejaVuSans-117"/>
      <use x="285.791016" xlink:href="#DejaVuSans-114"/>
      <use x="326.904297" xlink:href="#DejaVuSans-97"/>
      <use x="388.183594" xlink:href="#DejaVuSans-116"/>
      <use x="427.392578" xlink:href="#DejaVuSans-105"/>
      <use x="455.175781" xlink:href="#DejaVuSans-111"/>
      <use x="516.357422" xlink:href="#DejaVuSans-110"/>
     </g>
     <!--      ≥ x) -->
     <defs>
      <path d="M 10.59375 49.609375 
L 10.59375 58.203125 
L 73.1875 40.28125 
L 73.1875 31.984375 
L 10.59375 14.015625 
L 10.59375 22.703125 
L 57.515625 36.078125 
z
M 73.1875 8.296875 
L 73.1875 0 
L 10.59375 0 
L 10.59375 8.296875 
z
" id="DejaVuSans-8805"/>
      <path d="M 54.890625 54.6875 
L 35.109375 28.078125 
L 55.90625 0 
L 45.3125 0 
L 29.390625 21.484375 
L 13.484375 0 
L 2.875 0 
L 24.125 28.609375 
L 4.6875 54.6875 
L 15.28125 54.6875 
L 29.78125 35.203125 
L 44.28125 54.6875 
z
" id="DejaVuSans-120"/>
     </defs>
     <g transform="translate(10.573437 184.481406)scale(0.1 -0.1)">
      <use xlink:href="#DejaVuSans-32"/>
      <use x="31.787109" xlink:href="#DejaVuSans-32"/>
      <use x="63.574219" xlink:href="#DejaVuSans-32"/>
      <use x="95.361328" xlink:href="#DejaVuSans-32"/>
      <use x="127.148438" xlink:href="#DejaVuSans-32"/>
      <use x="158.935547" xlink:href="#DejaVuSans-8805"/>
      <use x="242.724609" xlink:href="#DejaVuSans-32"/>
      <use x="274.511719" xlink:href="#DejaVuSans-120"/>
      <use x="333.691406" xlink:href="#DejaVuSans-41"/>
     </g>
    </g>
   </g>
   <g id="line2d_36">
    <path clip-path="url(#p4d17b76693)" d="M 407.495806 180.576191 
L 407.405736 180.618827 
L 405.964611 180.641225 
L 405.874541 180.5958 
L 402.632011 180.961362 
L 402.54194 180.982176 
L 402.54194 180.952192 
L 402.54194 180.959127 
L 402.001519 180.905077 
L 402.001519 180.839445 
L 401.911448 180.881032 
L 401.190886 181.018137 
L 401.100816 181.038814 
L 401.100816 181.017001 
L 401.100816 181.030782 
L 399.029199 181.298936 
L 399.029199 181.319381 
L 399.029199 181.29769 
L 395.066106 181.378452 
L 395.066106 181.349003 
L 394.795896 181.381385 
L 394.795896 181.388108 
L 389.301608 181.72391 
L 389.301608 181.702894 
L 388.941327 181.721158 
L 388.941327 181.727699 
L 388.941327 181.73424 
L 388.851257 181.713243 
L 388.851257 181.719784 
L 388.130694 181.88286 
L 388.040624 181.915376 
L 385.608726 182.029716 
L 385.608726 181.994642 
L 385.518656 181.964563 
L 385.518656 181.9996 
L 385.518656 181.970987 
L 384.888164 181.930125 
L 384.888164 181.909525 
L 384.798094 181.846352 
L 384.798094 181.852745 
L 380.204509 182.082361 
L 380.204509 182.062126 
L 380.114439 182.074641 
L 379.844228 182.09194 
L 379.844228 182.104439 
L 378.222963 182.119773 
L 378.222963 182.059527 
L 378.132893 182.090567 
L 377.682541 182.226785 
L 377.592471 182.23914 
L 377.592471 182.219105 
L 377.592471 182.237632 
L 377.23219 182.226947 
L 377.23219 182.270097 
L 376.061276 182.252212 
L 375.971206 182.204943 
L 375.971206 182.235505 
L 375.430784 182.213089 
L 375.430784 182.225259 
L 375.340714 182.358831 
L 375.340714 182.339128 
L 374.980433 182.369343 
L 374.890362 182.40559 
L 373.359168 182.615965 
L 373.269097 182.645761 
L 373.269097 182.606797 
L 373.269097 182.612755 
L 371.647832 182.624846 
L 371.01734 182.587247 
L 371.01734 182.599094 
L 370.92727 182.646438 
L 366.423756 183.048696 
L 366.333685 183.088873 
L 366.333685 183.08141 
L 365.613123 183.234474 
L 365.523053 183.257258 
L 365.523053 183.244091 
L 363.181225 183.344033 
L 363.181225 183.299187 
L 362.820944 183.325586 
L 362.820944 183.336851 
L 360.569187 183.383062 
L 359.938695 183.335302 
L 359.938695 183.346451 
L 357.777008 183.588522 
L 357.686938 183.581215 
L 357.686938 183.608559 
L 355.25504 183.652881 
L 355.25504 183.622253 
L 355.16497 183.63304 
L 351.652229 183.756878 
L 351.652229 183.749704 
L 351.652229 183.731884 
L 351.562158 183.763823 
L 350.211104 183.951549 
L 350.211104 183.962085 
L 350.121034 183.922893 
L 350.121034 183.933424 
L 348.319628 184.149827 
L 348.319628 184.160212 
L 348.229558 184.140744 
L 348.229558 184.145935 
L 347.689136 184.286947 
L 347.599066 184.333378 
L 340.753724 184.655492 
L 340.753724 184.62137 
L 340.663654 184.585226 
L 340.663654 184.595235 
L 340.213302 184.583052 
L 340.213302 184.622986 
L 339.49274 184.771797 
L 339.49274 184.816364 
L 339.40267 184.80724 
L 338.231756 184.781808 
L 338.231756 184.764982 
L 338.231756 184.748158 
L 338.141686 184.762921 
L 336.610491 184.750959 
L 335.979999 184.728919 
L 335.979999 184.738702 
L 333.458031 184.986088 
L 333.367961 184.993647 
L 333.458031 184.974327 
L 333.367961 184.991546 
L 332.647398 184.94992 
L 332.647398 184.938219 
L 332.377187 184.94642 
L 332.377187 184.982756 
L 330.845993 185.173264 
L 330.755922 185.215913 
L 327.423322 185.49796 
L 327.333251 185.525809 
L 327.333251 185.509692 
L 324.721213 185.540276 
L 324.721213 185.524299 
L 324.631143 185.561067 
L 323.910581 185.525725 
L 323.910581 185.544039 
L 323.82051 185.564734 
L 323.460229 185.692615 
L 323.370159 185.724449 
L 319.677277 186.017855 
L 319.677277 186.02668 
L 319.677277 186.004525 
L 319.587207 186.011098 
L 314.27306 186.379056 
L 314.18299 186.400448 
L 314.18299 186.376431 
L 309.048983 186.730515 
L 309.048983 186.73873 
L 308.958913 186.724087 
L 303.464626 187.0826 
L 303.374555 187.144726 
L 302.563923 187.290765 
L 302.473852 187.323393 
L 297.790198 187.633921 
L 297.790198 187.652836 
L 297.700127 187.632899 
L 297.700127 187.644242 
L 296.529214 187.801179 
L 296.529214 187.812404 
L 296.439143 187.76288 
L 295.44837 187.912785 
L 295.3583 187.938772 
L 295.44837 187.894386 
L 295.3583 187.93264 
L 293.827105 188.103888 
L 293.827105 188.111167 
L 293.737035 188.075916 
L 293.737035 188.101377 
L 287.882466 188.44748 
L 287.882466 188.472141 
L 287.882466 188.440078 
L 287.792396 188.451697 
L 285.270428 188.65893 
L 285.180358 188.686425 
L 285.180358 188.678046 
L 284.730006 188.715031 
L 284.730006 188.725291 
L 284.639936 188.723765 
L 284.639936 188.761331 
L 282.83853 188.93987 
L 282.74846 188.983621 
L 282.74846 188.974393 
L 279.325789 189.210739 
L 279.235719 189.240476 
L 278.064805 189.392305 
L 277.974735 189.434811 
L 276.713751 189.591498 
L 276.62368 189.634772 
L 276.713751 189.588928 
L 276.62368 189.625746 
L 276.173329 189.537772 
L 276.173329 189.52557 
L 276.083259 189.58025 
L 275.002415 189.529057 
L 275.002415 189.514432 
L 275.002415 189.502331 
L 274.912345 189.534257 
L 272.390377 189.732635 
L 272.300307 189.751498 
L 271.669815 189.883182 
L 271.579744 189.905625 
L 270.588971 190.048457 
L 270.588971 190.060873 
L 270.498901 190.002952 
L 270.498901 190.006055 
L 267.616652 190.01723 
L 267.616652 190.005561 
L 267.616652 189.986314 
L 267.526581 190.017769 
L 263.023067 190.101767 
L 263.023067 190.068111 
L 263.023067 190.048327 
L 262.932997 190.063153 
L 261.221661 190.230279 
L 261.221661 190.224851 
L 261.131591 190.254174 
L 260.140818 190.183517 
L 260.140818 190.172308 
L 260.050748 190.211498 
L 260.050748 190.186649 
L 259.510326 190.20491 
L 259.510326 190.230964 
L 259.420256 190.281789 
L 259.420256 190.270667 
L 257.348639 190.446889 
L 257.258569 190.450796 
L 257.258569 190.428349 
L 257.258569 190.442749 
L 252.484844 190.702039 
L 252.394773 190.732211 
L 247.621048 190.985799 
L 247.530978 191.019545 
L 247.530978 191.012068 
L 246.179924 191.160324 
L 246.089853 191.18056 
L 244.648729 191.331189 
L 244.558658 191.366508 
L 241.85655 191.551904 
L 241.76648 191.574204 
L 241.85655 191.544727 
L 241.76648 191.564589 
L 240.685636 191.703141 
L 240.595566 191.751304 
L 240.595566 191.675154 
L 239.965074 191.80242 
L 239.965074 191.788226 
L 239.875004 191.828554 
L 239.064371 191.803322 
L 239.064371 191.850346 
L 238.343809 191.978946 
L 238.253738 191.97893 
L 238.253738 191.999854 
L 237.713317 192.043712 
L 237.713317 192.055295 
L 237.623246 192.07378 
L 237.623246 192.073744 
L 234.110505 192.272853 
L 234.020435 192.295434 
L 234.020435 192.290839 
L 232.939592 192.429064 
L 232.939592 192.417594 
L 232.849521 192.441776 
L 231.948818 192.574344 
L 231.858748 192.613449 
L 231.858748 192.565992 
L 231.858748 192.568185 
L 230.507694 192.711725 
L 230.417624 192.72863 
L 230.417624 192.691057 
L 230.417624 192.71043 
L 229.877202 192.833456 
L 229.877202 192.861241 
L 229.787132 192.828256 
L 229.787132 192.834665 
L 227.085023 193.008722 
L 227.085023 193.012907 
L 226.994953 192.995522 
L 226.994953 193.001583 
L 226.364461 193.047623 
L 226.364461 193.05179 
L 226.27439 193.066371 
L 226.27439 193.063835 
L 225.463758 193.193469 
L 225.373688 193.205358 
L 225.373688 193.192968 
L 225.373688 193.198912 
L 224.022633 193.340223 
L 223.932563 193.346974 
L 224.022633 193.319054 
L 223.932563 193.33857 
L 223.12193 193.467057 
L 223.03186 193.508873 
L 223.12193 193.464753 
L 223.03186 193.495639 
L 222.671579 193.543011 
L 222.671579 193.5729 
L 222.581509 193.609102 
L 222.581509 193.561688 
L 222.581509 193.600834 
L 222.041087 193.723855 
L 221.951017 193.752367 
L 221.951017 193.752021 
L 221.500665 193.871642 
L 221.410595 193.876769 
L 221.410595 193.860043 
L 221.410595 193.863585 
L 220.599962 193.991389 
L 220.599962 193.991003 
L 220.509892 194.004542 
L 220.509892 193.988297 
L 220.509892 193.994098 
L 219.338978 194.128593 
L 219.248908 194.159237 
L 218.438276 194.287046 
L 218.348205 194.31467 
L 217.717713 194.362841 
L 217.717713 194.368514 
L 217.627643 194.361497 
L 217.627643 194.380392 
L 215.646097 194.53153 
L 215.646097 194.529203 
L 215.556026 194.556072 
L 214.475183 194.688024 
L 214.385113 194.681903 
L 214.385113 194.711957 
L 213.66455 194.837321 
L 213.66455 194.862028 
L 213.57448 194.815238 
L 213.57448 194.820635 
L 213.214199 194.888027 
L 213.214199 194.900555 
L 213.124129 194.898691 
L 213.124129 194.921388 
L 212.583707 195.042262 
L 212.493637 195.065941 
L 212.493637 195.063081 
L 211.502864 195.193175 
L 211.412793 195.261153 
L 211.412793 195.258267 
L 208.530544 195.42357 
L 208.530544 195.421276 
L 208.440474 195.436534 
L 206.909279 195.575062 
L 206.819209 195.595649 
L 206.909279 195.571098 
L 206.819209 195.585437 
L 206.008576 195.71034 
L 206.008576 195.714691 
L 205.918506 195.67966 
L 205.918506 195.682975 
L 204.747592 195.814706 
L 204.657522 195.83685 
L 204.657522 195.803787 
L 204.657522 195.821041 
L 203.576678 195.950486 
L 203.486608 195.999979 
L 203.576678 195.948242 
L 203.486608 195.994542 
L 202.495835 196.121717 
L 202.405765 196.153454 
L 200.694429 196.294007 
L 200.604359 196.306412 
L 200.604359 196.305912 
L 198.172461 196.458442 
L 198.082391 196.508582 
L 198.082391 196.498912 
L 197.271758 196.622696 
L 197.181688 196.631743 
L 197.181688 196.613159 
L 197.181688 196.621567 
L 196.641266 196.741327 
L 196.641266 196.730288 
L 196.551196 196.775406 
L 195.920704 196.896373 
L 195.920704 196.895636 
L 195.830634 196.929793 
L 195.920704 196.888339 
L 195.830634 196.920994 
L 195.560423 197.035114 
L 195.560423 197.07329 
L 195.560423 197.030032 
L 195.470353 197.054213 
L 194.839861 197.174236 
L 194.74979 197.241195 
L 194.029228 197.288913 
L 194.029228 197.300147 
L 193.939158 197.312961 
L 193.939158 197.283862 
L 193.939158 197.288068 
L 192.948385 197.414328 
L 192.858314 197.448155 
L 192.858314 197.444414 
L 191.59733 197.574669 
L 191.59733 197.573873 
L 191.59733 197.573078 
L 191.50726 197.605572 
L 189.165433 197.751233 
L 189.165433 197.750958 
L 189.165433 197.756278 
L 189.075362 197.724341 
L 189.075362 197.750916 
L 188.44487 197.871154 
L 188.44487 197.870344 
L 188.3548 197.927331 
L 187.904449 198.007928 
L 187.814378 198.031859 
L 187.904449 197.973809 
L 187.814378 198.023877 
L 187.273957 198.142411 
L 187.183886 198.249769 
L 187.183886 198.238832 
L 186.823605 198.281551 
L 186.823605 198.325891 
L 186.733535 198.382876 
L 186.733535 198.323371 
L 186.733535 198.378692 
L 186.373254 198.494502 
L 186.283183 198.546808 
L 186.283183 198.535129 
L 186.012973 198.648839 
L 185.922902 198.643338 
L 185.922902 198.6653 
L 185.562621 198.78073 
L 185.472551 198.822003 
L 185.472551 198.80972 
L 185.20234 198.924107 
L 185.11227 198.95914 
L 185.11227 198.94276 
L 184.391707 199.062582 
L 184.301637 199.108774 
L 184.301637 199.103444 
L 183.941356 199.165336 
L 183.941356 199.192259 
L 183.851286 199.205522 
L 183.851286 199.182786 
L 183.851286 199.203447 
L 183.040653 199.324974 
L 182.950583 199.335661 
L 183.040653 199.319005 
L 182.950583 199.326903 
L 182.410161 199.444044 
L 182.320091 199.47333 
L 180.969037 199.601599 
L 180.878966 199.617195 
L 180.878966 199.594508 
L 180.878966 199.614211 
L 180.338545 199.732029 
L 180.248474 199.75773 
L 180.338545 199.719191 
L 180.248474 199.753628 
L 179.798123 199.870136 
L 179.798123 199.8695 
L 179.708053 199.912345 
L 179.708053 199.86257 
L 179.708053 199.908101 
L 179.347771 200.02301 
L 179.257701 200.06223 
L 178.717279 200.179166 
L 178.627209 200.218737 
L 178.627209 200.17724 
L 178.627209 200.214774 
L 178.176858 200.330784 
L 178.176858 200.326655 
L 178.086787 200.423097 
L 177.816577 200.536635 
L 177.726506 200.561268 
L 177.816577 200.535768 
L 177.726506 200.544214 
L 177.456295 200.657653 
L 177.366225 200.722698 
L 177.366225 200.710595 
L 176.825803 200.826837 
L 176.735733 200.911462 
L 176.825803 200.820893 
L 176.735733 200.908458 
L 176.465522 201.022366 
L 176.375452 201.051109 
L 176.375452 201.050983 
L 175.925101 201.166812 
L 175.83503 201.235304 
L 175.925101 201.165774 
L 175.83503 201.230373 
L 175.474749 201.344842 
L 175.384679 201.400923 
L 174.934327 201.516292 
L 174.844257 201.560085 
L 174.844257 201.556171 
L 174.033625 201.675557 
L 174.033625 201.683144 
L 173.943554 201.663448 
L 173.943554 201.678243 
L 173.222992 201.796125 
L 173.132922 201.825696 
L 173.132922 201.814126 
L 172.052078 201.936232 
L 171.962008 201.971521 
L 172.052078 201.927538 
L 171.962008 201.970471 
L 171.511656 202.085751 
L 171.421586 202.129421 
L 171.511656 202.083991 
L 171.421586 202.124709 
L 170.971235 202.169301 
L 170.971235 202.207842 
L 169.62018 202.332485 
L 169.53011 202.36316 
L 169.53011 202.351078 
L 169.079759 202.466455 
L 168.989688 202.574684 
L 169.079759 202.465408 
L 168.989688 202.560906 
L 168.719478 202.674485 
L 168.629407 202.735413 
L 168.359196 202.84833 
L 168.269126 202.87576 
L 168.359196 202.836454 
L 168.269126 202.867539 
L 167.998915 202.980385 
L 167.908845 203.052427 
L 167.458494 203.087231 
L 167.458494 203.141194 
L 167.368423 203.184464 
L 167.458494 203.138488 
L 167.368423 203.182578 
L 167.008142 203.296404 
L 166.918072 203.277641 
L 166.918072 203.309431 
L 166.19751 203.426859 
L 166.107439 203.459576 
L 166.19751 203.418879 
L 166.107439 203.458225 
L 165.657088 203.573292 
L 165.567018 203.6014 
L 165.657088 203.57143 
L 165.567018 203.592877 
L 164.756385 203.710341 
L 164.666315 203.734889 
L 164.666315 203.725455 
L 164.125893 203.840773 
L 164.035823 203.867619 
L 164.035823 203.867436 
L 163.31526 203.984544 
L 163.31526 203.978577 
L 163.22519 203.999698 
L 162.594698 204.115672 
L 162.504628 204.131707 
L 162.504628 204.110232 
L 162.504628 204.126195 
L 161.603925 204.18645 
L 161.603925 204.196439 
L 161.603925 204.193884 
L 161.513855 204.256346 
L 161.243644 204.369338 
L 161.153574 204.418478 
L 161.153574 204.360628 
L 161.153574 204.416664 
L 160.613152 204.531657 
L 160.523082 204.596518 
L 160.252871 204.709622 
L 160.1628 204.74728 
L 160.1628 204.743391 
L 159.98266 204.855217 
L 159.98266 204.852042 
L 159.89259 204.905582 
L 159.622379 205.018617 
L 159.532308 205.048772 
L 159.532308 205.046318 
L 159.262098 205.158835 
L 159.172027 205.214572 
L 159.262098 205.158266 
L 159.172027 205.213315 
L 158.811746 205.326925 
L 158.721676 205.401134 
L 158.721676 205.400346 
L 158.451465 205.512802 
L 158.361395 205.53329 
L 158.451465 205.510395 
L 158.361395 205.52235 
L 158.091184 205.634867 
L 158.091184 205.634817 
L 158.001114 205.698173 
L 157.550762 205.812126 
L 157.460692 205.842965 
L 157.460692 205.839314 
L 157.100411 205.952695 
L 157.01034 205.973405 
L 157.100411 205.943059 
L 157.01034 205.957646 
L 156.289778 206.07326 
L 156.199708 206.07183 
L 156.199708 206.092185 
L 155.569216 206.20718 
L 155.479146 206.232545 
L 155.569216 206.206695 
L 155.479146 206.231955 
L 154.668513 206.348386 
L 154.578443 206.381481 
L 154.578443 206.377581 
L 153.947951 206.492728 
L 153.85788 206.520679 
L 153.85788 206.517192 
L 152.867107 206.634415 
L 152.777037 206.696571 
L 152.777037 206.679959 
L 152.326686 206.793741 
L 152.236615 206.849764 
L 152.236615 206.836224 
L 151.876334 206.949248 
L 151.876334 206.965965 
L 151.786264 206.939524 
L 151.786264 206.959075 
L 151.516053 207.071423 
L 151.425983 207.17158 
L 151.425983 207.167755 
L 151.155772 207.241378 
L 151.155772 207.268465 
L 151.065702 207.350659 
L 151.155772 207.266825 
L 151.065702 207.349569 
L 150.70542 207.462337 
L 150.61535 207.55318 
L 150.61535 207.551557 
L 150.43521 207.663391 
L 150.345139 207.763035 
L 150.074928 207.8756 
L 149.984858 207.9311 
L 150.074928 207.867884 
L 149.984858 207.928449 
L 149.714647 208.041034 
L 149.714647 208.038107 
L 149.624577 208.098006 
L 149.264296 208.21096 
L 149.174226 208.248548 
L 149.264296 208.205746 
L 149.174226 208.248317 
L 148.813944 208.361122 
L 148.723874 208.428679 
L 148.453663 208.541217 
L 148.363593 208.58994 
L 148.453663 208.54013 
L 148.363593 208.579606 
L 148.003312 208.668296 
L 148.003312 208.678502 
L 147.913242 208.723812 
L 147.46289 208.801611 
L 147.46289 208.819793 
L 147.37282 208.87164 
L 146.832398 208.985243 
L 146.742328 209.017923 
L 146.742328 209.016838 
L 146.111836 209.131248 
L 146.021766 209.148215 
L 146.021766 209.12462 
L 146.021766 209.139704 
L 145.481344 209.253171 
L 145.481344 209.250088 
L 145.391274 209.28526 
L 144.670711 209.39979 
L 144.580641 209.41204 
L 144.580641 209.394865 
L 144.580641 209.408987 
L 143.950149 209.52297 
L 143.860079 209.563997 
L 143.950149 209.521457 
L 143.860079 209.558129 
L 143.409727 209.67131 
L 143.319657 209.703388 
L 143.319657 209.702325 
L 142.779235 209.815988 
L 142.689165 209.881951 
L 142.689165 209.875 
L 142.328884 209.987445 
L 142.238814 210.04144 
L 142.058673 210.153313 
L 141.968603 210.231907 
L 141.698392 210.34411 
L 141.698392 210.343239 
L 141.608322 210.438969 
L 141.24804 210.55133 
L 141.15797 210.662743 
L 141.24804 210.549492 
L 141.15797 210.660946 
L 140.887759 210.77309 
L 140.797689 210.844775 
L 140.797689 210.837393 
L 140.527478 210.949609 
L 140.437408 211.019902 
L 140.437408 211.014889 
L 140.167197 211.126802 
L 140.077127 211.12552 
L 140.077127 211.169883 
L 139.896986 211.281628 
L 139.806916 211.331105 
L 139.806916 211.330814 
L 139.536705 211.442875 
L 139.446635 211.493122 
L 139.446635 211.491358 
L 139.086354 211.603672 
L 138.996283 211.641932 
L 139.086354 211.599805 
L 138.996283 211.641624 
L 138.455862 211.754722 
L 138.365791 211.798727 
L 138.365791 211.794556 
L 138.00551 211.906785 
L 137.91544 211.951927 
L 137.284948 212.06531 
L 137.194878 212.103819 
L 137.284948 212.062259 
L 137.194878 212.100415 
L 136.654456 212.213284 
L 136.654456 212.20823 
L 136.564386 212.241382 
L 136.023964 212.354389 
L 135.933894 212.379844 
L 135.933894 212.3798 
L 135.483542 212.492247 
L 135.393472 212.561802 
L 135.123261 212.629477 
L 135.123261 212.665821 
L 135.033191 212.706549 
L 134.76298 212.818326 
L 134.672909 212.837088 
L 134.672909 212.807569 
L 134.672909 212.835468 
L 134.402699 212.947502 
L 134.312628 213.004217 
L 134.312628 213.001829 
L 133.952347 213.113978 
L 133.952347 213.11014 
L 133.862277 213.191266 
L 133.592066 213.303272 
L 133.501996 213.384195 
L 133.501996 213.379505 
L 133.321855 213.491043 
L 133.231785 213.606235 
L 133.321855 213.487865 
L 133.231785 213.605568 
L 133.051644 213.717155 
L 132.961574 213.812268 
L 132.781433 213.905887 
L 132.781433 213.919099 
L 132.691363 214.056966 
L 132.781433 213.915184 
L 132.691363 214.052906 
L 132.511223 214.164348 
L 132.421152 214.275755 
L 132.241012 214.387305 
L 132.241012 214.385837 
L 132.150941 214.527805 
L 131.970801 214.639438 
L 131.970801 214.632609 
L 131.880731 214.7345 
L 131.70059 214.845907 
L 131.61052 214.976983 
L 131.70059 214.844901 
L 131.61052 214.975808 
L 131.340309 215.087525 
L 131.250239 215.189567 
L 131.340309 215.085689 
L 131.250239 215.187981 
L 131.070098 215.299548 
L 131.070098 215.296915 
L 130.980028 215.373629 
L 130.799887 215.485154 
L 130.709817 215.569598 
L 130.709817 215.567445 
L 130.529676 215.678809 
L 130.439606 215.737349 
L 130.169395 215.849068 
L 130.169395 215.847294 
L 130.079325 215.942926 
L 129.899184 216.054276 
L 129.809114 216.103268 
L 129.809114 216.103041 
L 129.538903 216.214763 
L 129.448833 216.259888 
L 129.538903 216.21452 
L 129.448833 216.258969 
L 129.268692 216.37034 
L 129.268692 216.365919 
L 129.178622 216.413487 
L 128.908411 216.525206 
L 128.908411 216.523862 
L 128.818341 216.589274 
L 128.54813 216.700895 
L 128.45806 216.749716 
L 128.54813 216.70081 
L 128.45806 216.746704 
L 128.097779 216.858589 
L 128.007708 216.900659 
L 128.097779 216.858125 
L 128.007708 216.891209 
L 127.737497 217.002894 
L 127.647427 217.071796 
L 127.287146 217.18359 
L 127.197076 217.249514 
L 127.197076 217.247857 
L 126.926865 217.325195 
L 126.926865 217.353862 
L 126.836795 217.394379 
L 126.836795 217.393713 
L 126.566584 217.505233 
L 126.476513 217.551657 
L 126.476513 217.551566 
L 126.206303 217.66314 
L 126.206303 217.661724 
L 126.116232 217.742393 
L 125.846021 217.854027 
L 125.755951 217.958249 
L 125.575811 218.069688 
L 125.48574 218.178287 
L 125.575811 218.06719 
L 125.48574 218.176749 
L 125.3056 218.288072 
L 125.215529 218.381867 
L 125.215529 218.377238 
L 125.035389 218.488603 
L 124.945319 218.599864 
L 124.945319 218.599495 
L 124.855248 218.710619 
L 124.765178 218.788948 
L 124.765178 218.788449 
L 124.585037 218.899859 
L 124.585037 218.898896 
L 124.494967 219.074272 
L 124.404897 219.070463 
L 124.404897 219.183823 
L 124.314827 219.299144 
L 124.224756 219.410395 
L 124.134686 219.536374 
L 124.134686 219.535155 
L 123.954545 219.646494 
L 123.954545 219.661431 
L 123.954545 219.64484 
L 123.954545 219.661431 
" style="fill:none;stroke:#1f77b4;stroke-linecap:square;stroke-width:1.5;"/>
   </g>
   <g id="line2d_37">
    <defs>
     <path d="M 0 3 
C 0.795609 3 1.55874 2.683901 2.12132 2.12132 
C 2.683901 1.55874 3 0.795609 3 0 
C 3 -0.795609 2.683901 -1.55874 2.12132 -2.12132 
C 1.55874 -2.683901 0.795609 -3 0 -3 
C -0.795609 -3 -1.55874 -2.683901 -2.12132 -2.12132 
C -2.683901 -1.55874 -3 -0.795609 -3 0 
C -3 0.795609 -2.683901 1.55874 -2.12132 2.12132 
C -1.55874 2.683901 -0.795609 3 0 3 
z
" id="m5566dc8133" style="stroke:#008000;stroke-opacity:0.5;"/>
    </defs>
    <g clip-path="url(#p4d17b76693)">
     <use style="fill:#008000;fill-opacity:0.5;stroke:#008000;stroke-opacity:0.5;" x="139.626775" xlink:href="#m5566dc8133" y="211.410365"/>
    </g>
   </g>
   <g id="line2d_38">
    <defs>
     <path d="M 0 3 
C 0.795609 3 1.55874 2.683901 2.12132 2.12132 
C 2.683901 1.55874 3 0.795609 3 0 
C 3 -0.795609 2.683901 -1.55874 2.12132 -2.12132 
C 1.55874 -2.683901 0.795609 -3 0 -3 
C -0.795609 -3 -1.55874 -2.683901 -2.12132 -2.12132 
C -2.683901 -1.55874 -3 -0.795609 -3 0 
C -3 0.795609 -2.683901 1.55874 -2.12132 2.12132 
C -1.55874 2.683901 -0.795609 3 0 3 
z
" id="m3824a733f0" style="stroke:#ff0000;stroke-opacity:0.5;"/>
    </defs>
    <g clip-path="url(#p4d17b76693)">
     <use style="fill:#ff0000;fill-opacity:0.5;stroke:#ff0000;stroke-opacity:0.5;" x="160.793292" xlink:href="#m3824a733f0" y="204.481228"/>
    </g>
   </g>
   <g id="line2d_39">
    <defs>
     <path d="M 0 3 
C 0.795609 3 1.55874 2.683901 2.12132 2.12132 
C 2.683901 1.55874 3 0.795609 3 0 
C 3 -0.795609 2.683901 -1.55874 2.12132 -2.12132 
C 1.55874 -2.683901 0.795609 -3 0 -3 
C -0.795609 -3 -1.55874 -2.683901 -2.12132 -2.12132 
C -2.683901 -1.55874 -3 -0.795609 -3 0 
C -3 0.795609 -2.683901 1.55874 -2.12132 2.12132 
C -1.55874 2.683901 -0.795609 3 0 3 
z
" id="mbf7abfa85b" style="stroke:#0000ff;stroke-opacity:0.5;"/>
    </defs>
    <g clip-path="url(#p4d17b76693)">
     <use style="fill:#0000ff;fill-opacity:0.5;stroke:#0000ff;stroke-opacity:0.5;" x="407.495806" xlink:href="#mbf7abfa85b" y="180.576191"/>
    </g>
   </g>
   <g id="patch_8">
    <path d="M 109.8 246.2 
L 109.8 83.32 
" style="fill:none;stroke:#000000;stroke-linecap:square;stroke-linejoin:miter;stroke-width:0.8;"/>
   </g>
   <g id="patch_9">
    <path d="M 421.2 246.2 
L 421.2 83.32 
" style="fill:none;stroke:#000000;stroke-linecap:square;stroke-linejoin:miter;stroke-width:0.8;"/>
   </g>
   <g id="patch_10">
    <path d="M 109.8 246.2 
L 421.2 246.2 
" style="fill:none;stroke:#000000;stroke-linecap:square;stroke-linejoin:miter;stroke-width:0.8;"/>
   </g>
   <g id="patch_11">
    <path d="M 109.8 83.32 
L 421.2 83.32 
" style="fill:none;stroke:#000000;stroke-linecap:square;stroke-linejoin:miter;stroke-width:0.8;"/>
   </g>
   <g id="text_27">
    <!-- 12.8% -->
    <defs>
     <path d="M 10.6875 12.40625 
L 21 12.40625 
L 21 0 
L 10.6875 0 
z
" id="DejaVuSans-46"/>
     <path d="M 31.78125 34.625 
Q 24.75 34.625 20.71875 30.859375 
Q 16.703125 27.09375 16.703125 20.515625 
Q 16.703125 13.921875 20.71875 10.15625 
Q 24.75 6.390625 31.78125 6.390625 
Q 38.8125 6.390625 42.859375 10.171875 
Q 46.921875 13.96875 46.921875 20.515625 
Q 46.921875 27.09375 42.890625 30.859375 
Q 38.875 34.625 31.78125 34.625 
z
M 21.921875 38.8125 
Q 15.578125 40.375 12.03125 44.71875 
Q 8.5 49.078125 8.5 55.328125 
Q 8.5 64.0625 14.71875 69.140625 
Q 20.953125 74.21875 31.78125 74.21875 
Q 42.671875 74.21875 48.875 69.140625 
Q 55.078125 64.0625 55.078125 55.328125 
Q 55.078125 49.078125 51.53125 44.71875 
Q 48 40.375 41.703125 38.8125 
Q 48.828125 37.15625 52.796875 32.3125 
Q 56.78125 27.484375 56.78125 20.515625 
Q 56.78125 9.90625 50.3125 4.234375 
Q 43.84375 -1.421875 31.78125 -1.421875 
Q 19.734375 -1.421875 13.25 4.234375 
Q 6.78125 9.90625 6.78125 20.515625 
Q 6.78125 27.484375 10.78125 32.3125 
Q 14.796875 37.15625 21.921875 38.8125 
z
M 18.3125 54.390625 
Q 18.3125 48.734375 21.84375 45.5625 
Q 25.390625 42.390625 31.78125 42.390625 
Q 38.140625 42.390625 41.71875 45.5625 
Q 45.3125 48.734375 45.3125 54.390625 
Q 45.3125 60.0625 41.71875 63.234375 
Q 38.140625 66.40625 31.78125 66.40625 
Q 25.390625 66.40625 21.84375 63.234375 
Q 18.3125 60.0625 18.3125 54.390625 
z
" id="DejaVuSans-56"/>
    </defs>
    <g transform="translate(123.743181 235.887073)scale(0.1 -0.1)">
     <use xlink:href="#DejaVuSans-49"/>
     <use x="63.623047" xlink:href="#DejaVuSans-50"/>
     <use x="127.246094" xlink:href="#DejaVuSans-46"/>
     <use x="159.033203" xlink:href="#DejaVuSans-56"/>
     <use x="222.65625" xlink:href="#DejaVuSans-37"/>
    </g>
   </g>
   <g id="text_28">
    <!-- 15.4% -->
    <g transform="translate(144.909699 193.66727)scale(0.1 -0.1)">
     <use xlink:href="#DejaVuSans-49"/>
     <use x="63.623047" xlink:href="#DejaVuSans-53"/>
     <use x="127.246094" xlink:href="#DejaVuSans-46"/>
     <use x="159.033203" xlink:href="#DejaVuSans-52"/>
     <use x="222.65625" xlink:href="#DejaVuSans-37"/>
    </g>
   </g>
   <g id="text_29">
    <!-- 24.2% -->
    <g transform="translate(377.435149 196.908899)scale(0.1 -0.1)">
     <use xlink:href="#DejaVuSans-50"/>
     <use x="63.623047" xlink:href="#DejaVuSans-52"/>
     <use x="127.246094" xlink:href="#DejaVuSans-46"/>
     <use x="159.033203" xlink:href="#DejaVuSans-50"/>
     <use x="222.65625" xlink:href="#DejaVuSans-37"/>
    </g>
   </g>
   <g id="text_30">
    <!-- (b) -->
    <g transform="translate(404.218125 95.2368)scale(0.12 -0.12)">
     <use xlink:href="#DejaVuSans-40"/>
     <use x="39.013672" xlink:href="#DejaVuSans-98"/>
     <use x="102.490234" xlink:href="#DejaVuSans-41"/>
    </g>
   </g>
  </g>
 </g>
 <defs>
  <clipPath id="p26d3a16f22">
   <rect height="40.72" width="311.4" x="109.8" y="10.8"/>
  </clipPath>
  <clipPath id="p4d17b76693">
   <rect height="162.88" width="311.4" x="109.8" y="83.32"/>
  </clipPath>
 </defs>
</svg>
