<?xml version="1.0" encoding="utf-8" standalone="no"?>
<!DOCTYPE svg PUBLIC "-//W3C//DTD SVG 1.1//EN"
  "http://www.w3.org/Graphics/SVG/1.1/DTD/svg11.dtd">
<!-- Created with matplotlib (https://matplotlib.org/) -->
<svg height="288pt" version="1.1" viewBox="0 0 432 288" width="432pt" xmlns="http://www.w3.org/2000/svg" xmlns:xlink="http://www.w3.org/1999/xlink">
 <defs>
  <style type="text/css">
*{stroke-linecap:butt;stroke-linejoin:round;}
  </style>
 </defs>
 <g id="figure_1">
  <g id="patch_1">
   <path d="M 0 288 
L 432 288 
L 432 0 
L 0 0 
z
" style="fill:#ffffff;"/>
  </g>
  <g id="axes_1">
   <g id="patch_2">
    <path d="M 109.8 51.52 
L 421.2 51.52 
L 421.2 10.8 
L 109.8 10.8 
z
" style="fill:#ffffff;"/>
   </g>
   <g id="matplotlib.axis_1">
    <g id="xtick_1">
     <g id="line2d_1">
      <defs>
       <path d="M 0 0 
L 0 3.5 
" id="mbf6f983649" style="stroke:#000000;stroke-width:0.8;"/>
      </defs>
      <g>
       <use style="stroke:#000000;stroke-width:0.8;" x="122.744755" xlink:href="#mbf6f983649" y="51.52"/>
      </g>
     </g>
     <g id="text_1">
      <!-- 0 -->
      <defs>
       <path d="M 31.78125 66.40625 
Q 24.171875 66.40625 20.328125 58.90625 
Q 16.5 51.421875 16.5 36.375 
Q 16.5 21.390625 20.328125 13.890625 
Q 24.171875 6.390625 31.78125 6.390625 
Q 39.453125 6.390625 43.28125 13.890625 
Q 47.125 21.390625 47.125 36.375 
Q 47.125 51.421875 43.28125 58.90625 
Q 39.453125 66.40625 31.78125 66.40625 
z
M 31.78125 74.21875 
Q 44.046875 74.21875 50.515625 64.515625 
Q 56.984375 54.828125 56.984375 36.375 
Q 56.984375 17.96875 50.515625 8.265625 
Q 44.046875 -1.421875 31.78125 -1.421875 
Q 19.53125 -1.421875 13.0625 8.265625 
Q 6.59375 17.96875 6.59375 36.375 
Q 6.59375 54.828125 13.0625 64.515625 
Q 19.53125 74.21875 31.78125 74.21875 
z
" id="DejaVuSans-48"/>
      </defs>
      <g transform="translate(119.563505 66.118437)scale(0.1 -0.1)">
       <use xlink:href="#DejaVuSans-48"/>
      </g>
     </g>
    </g>
    <g id="xtick_2">
     <g id="line2d_2">
      <g>
       <use style="stroke:#000000;stroke-width:0.8;" x="183.234266" xlink:href="#mbf6f983649" y="51.52"/>
      </g>
     </g>
     <g id="text_2">
      <!-- 50 -->
      <defs>
       <path d="M 10.796875 72.90625 
L 49.515625 72.90625 
L 49.515625 64.59375 
L 19.828125 64.59375 
L 19.828125 46.734375 
Q 21.96875 47.46875 24.109375 47.828125 
Q 26.265625 48.1875 28.421875 48.1875 
Q 40.625 48.1875 47.75 41.5 
Q 54.890625 34.8125 54.890625 23.390625 
Q 54.890625 11.625 47.5625 5.09375 
Q 40.234375 -1.421875 26.90625 -1.421875 
Q 22.3125 -1.421875 17.546875 -0.640625 
Q 12.796875 0.140625 7.71875 1.703125 
L 7.71875 11.625 
Q 12.109375 9.234375 16.796875 8.0625 
Q 21.484375 6.890625 26.703125 6.890625 
Q 35.15625 6.890625 40.078125 11.328125 
Q 45.015625 15.765625 45.015625 23.390625 
Q 45.015625 31 40.078125 35.4375 
Q 35.15625 39.890625 26.703125 39.890625 
Q 22.75 39.890625 18.8125 39.015625 
Q 14.890625 38.140625 10.796875 36.28125 
z
" id="DejaVuSans-53"/>
      </defs>
      <g transform="translate(176.871766 66.118437)scale(0.1 -0.1)">
       <use xlink:href="#DejaVuSans-53"/>
       <use x="63.623047" xlink:href="#DejaVuSans-48"/>
      </g>
     </g>
    </g>
    <g id="xtick_3">
     <g id="line2d_3">
      <g>
       <use style="stroke:#000000;stroke-width:0.8;" x="243.723776" xlink:href="#mbf6f983649" y="51.52"/>
      </g>
     </g>
     <g id="text_3">
      <!-- 100 -->
      <defs>
       <path d="M 12.40625 8.296875 
L 28.515625 8.296875 
L 28.515625 63.921875 
L 10.984375 60.40625 
L 10.984375 69.390625 
L 28.421875 72.90625 
L 38.28125 72.90625 
L 38.28125 8.296875 
L 54.390625 8.296875 
L 54.390625 0 
L 12.40625 0 
z
" id="DejaVuSans-49"/>
      </defs>
      <g transform="translate(234.180026 66.118437)scale(0.1 -0.1)">
       <use xlink:href="#DejaVuSans-49"/>
       <use x="63.623047" xlink:href="#DejaVuSans-48"/>
       <use x="127.246094" xlink:href="#DejaVuSans-48"/>
      </g>
     </g>
    </g>
    <g id="xtick_4">
     <g id="line2d_4">
      <g>
       <use style="stroke:#000000;stroke-width:0.8;" x="304.213287" xlink:href="#mbf6f983649" y="51.52"/>
      </g>
     </g>
     <g id="text_4">
      <!-- 150 -->
      <g transform="translate(294.669537 66.118437)scale(0.1 -0.1)">
       <use xlink:href="#DejaVuSans-49"/>
       <use x="63.623047" xlink:href="#DejaVuSans-53"/>
       <use x="127.246094" xlink:href="#DejaVuSans-48"/>
      </g>
     </g>
    </g>
    <g id="xtick_5">
     <g id="line2d_5">
      <g>
       <use style="stroke:#000000;stroke-width:0.8;" x="364.702797" xlink:href="#mbf6f983649" y="51.52"/>
      </g>
     </g>
     <g id="text_5">
      <!-- 200 -->
      <defs>
       <path d="M 19.1875 8.296875 
L 53.609375 8.296875 
L 53.609375 0 
L 7.328125 0 
L 7.328125 8.296875 
Q 12.9375 14.109375 22.625 23.890625 
Q 32.328125 33.6875 34.8125 36.53125 
Q 39.546875 41.84375 41.421875 45.53125 
Q 43.3125 49.21875 43.3125 52.78125 
Q 43.3125 58.59375 39.234375 62.25 
Q 35.15625 65.921875 28.609375 65.921875 
Q 23.96875 65.921875 18.8125 64.3125 
Q 13.671875 62.703125 7.8125 59.421875 
L 7.8125 69.390625 
Q 13.765625 71.78125 18.9375 73 
Q 24.125 74.21875 28.421875 74.21875 
Q 39.75 74.21875 46.484375 68.546875 
Q 53.21875 62.890625 53.21875 53.421875 
Q 53.21875 48.921875 51.53125 44.890625 
Q 49.859375 40.875 45.40625 35.40625 
Q 44.1875 33.984375 37.640625 27.21875 
Q 31.109375 20.453125 19.1875 8.296875 
z
" id="DejaVuSans-50"/>
      </defs>
      <g transform="translate(355.159047 66.118437)scale(0.1 -0.1)">
       <use xlink:href="#DejaVuSans-50"/>
       <use x="63.623047" xlink:href="#DejaVuSans-48"/>
       <use x="127.246094" xlink:href="#DejaVuSans-48"/>
      </g>
     </g>
    </g>
   </g>
   <g id="matplotlib.axis_2">
    <g id="ytick_1">
     <g id="line2d_6">
      <defs>
       <path d="M 0 0 
L -3.5 0 
" id="m083a7bc845" style="stroke:#000000;stroke-width:0.8;"/>
      </defs>
      <g>
       <use style="stroke:#000000;stroke-width:0.8;" x="109.8" xlink:href="#m083a7bc845" y="41.34"/>
      </g>
     </g>
     <g id="text_6">
      <!-- With conflicts -->
      <defs>
       <path d="M 3.328125 72.90625 
L 13.28125 72.90625 
L 28.609375 11.28125 
L 43.890625 72.90625 
L 54.984375 72.90625 
L 70.3125 11.28125 
L 85.59375 72.90625 
L 95.609375 72.90625 
L 77.296875 0 
L 64.890625 0 
L 49.515625 63.28125 
L 33.984375 0 
L 21.578125 0 
z
" id="DejaVuSans-87"/>
       <path d="M 9.421875 54.6875 
L 18.40625 54.6875 
L 18.40625 0 
L 9.421875 0 
z
M 9.421875 75.984375 
L 18.40625 75.984375 
L 18.40625 64.59375 
L 9.421875 64.59375 
z
" id="DejaVuSans-105"/>
       <path d="M 18.3125 70.21875 
L 18.3125 54.6875 
L 36.8125 54.6875 
L 36.8125 47.703125 
L 18.3125 47.703125 
L 18.3125 18.015625 
Q 18.3125 11.328125 20.140625 9.421875 
Q 21.96875 7.515625 27.59375 7.515625 
L 36.8125 7.515625 
L 36.8125 0 
L 27.59375 0 
Q 17.1875 0 13.234375 3.875 
Q 9.28125 7.765625 9.28125 18.015625 
L 9.28125 47.703125 
L 2.6875 47.703125 
L 2.6875 54.6875 
L 9.28125 54.6875 
L 9.28125 70.21875 
z
" id="DejaVuSans-116"/>
       <path d="M 54.890625 33.015625 
L 54.890625 0 
L 45.90625 0 
L 45.90625 32.71875 
Q 45.90625 40.484375 42.875 44.328125 
Q 39.84375 48.1875 33.796875 48.1875 
Q 26.515625 48.1875 22.3125 43.546875 
Q 18.109375 38.921875 18.109375 30.90625 
L 18.109375 0 
L 9.078125 0 
L 9.078125 75.984375 
L 18.109375 75.984375 
L 18.109375 46.1875 
Q 21.34375 51.125 25.703125 53.5625 
Q 30.078125 56 35.796875 56 
Q 45.21875 56 50.046875 50.171875 
Q 54.890625 44.34375 54.890625 33.015625 
z
" id="DejaVuSans-104"/>
       <path id="DejaVuSans-32"/>
       <path d="M 48.78125 52.59375 
L 48.78125 44.1875 
Q 44.96875 46.296875 41.140625 47.34375 
Q 37.3125 48.390625 33.40625 48.390625 
Q 24.65625 48.390625 19.8125 42.84375 
Q 14.984375 37.3125 14.984375 27.296875 
Q 14.984375 17.28125 19.8125 11.734375 
Q 24.65625 6.203125 33.40625 6.203125 
Q 37.3125 6.203125 41.140625 7.25 
Q 44.96875 8.296875 48.78125 10.40625 
L 48.78125 2.09375 
Q 45.015625 0.34375 40.984375 -0.53125 
Q 36.96875 -1.421875 32.421875 -1.421875 
Q 20.0625 -1.421875 12.78125 6.34375 
Q 5.515625 14.109375 5.515625 27.296875 
Q 5.515625 40.671875 12.859375 48.328125 
Q 20.21875 56 33.015625 56 
Q 37.15625 56 41.109375 55.140625 
Q 45.0625 54.296875 48.78125 52.59375 
z
" id="DejaVuSans-99"/>
       <path d="M 30.609375 48.390625 
Q 23.390625 48.390625 19.1875 42.75 
Q 14.984375 37.109375 14.984375 27.296875 
Q 14.984375 17.484375 19.15625 11.84375 
Q 23.34375 6.203125 30.609375 6.203125 
Q 37.796875 6.203125 41.984375 11.859375 
Q 46.1875 17.53125 46.1875 27.296875 
Q 46.1875 37.015625 41.984375 42.703125 
Q 37.796875 48.390625 30.609375 48.390625 
z
M 30.609375 56 
Q 42.328125 56 49.015625 48.375 
Q 55.71875 40.765625 55.71875 27.296875 
Q 55.71875 13.875 49.015625 6.21875 
Q 42.328125 -1.421875 30.609375 -1.421875 
Q 18.84375 -1.421875 12.171875 6.21875 
Q 5.515625 13.875 5.515625 27.296875 
Q 5.515625 40.765625 12.171875 48.375 
Q 18.84375 56 30.609375 56 
z
" id="DejaVuSans-111"/>
       <path d="M 54.890625 33.015625 
L 54.890625 0 
L 45.90625 0 
L 45.90625 32.71875 
Q 45.90625 40.484375 42.875 44.328125 
Q 39.84375 48.1875 33.796875 48.1875 
Q 26.515625 48.1875 22.3125 43.546875 
Q 18.109375 38.921875 18.109375 30.90625 
L 18.109375 0 
L 9.078125 0 
L 9.078125 54.6875 
L 18.109375 54.6875 
L 18.109375 46.1875 
Q 21.34375 51.125 25.703125 53.5625 
Q 30.078125 56 35.796875 56 
Q 45.21875 56 50.046875 50.171875 
Q 54.890625 44.34375 54.890625 33.015625 
z
" id="DejaVuSans-110"/>
       <path d="M 37.109375 75.984375 
L 37.109375 68.5 
L 28.515625 68.5 
Q 23.6875 68.5 21.796875 66.546875 
Q 19.921875 64.59375 19.921875 59.515625 
L 19.921875 54.6875 
L 34.71875 54.6875 
L 34.71875 47.703125 
L 19.921875 47.703125 
L 19.921875 0 
L 10.890625 0 
L 10.890625 47.703125 
L 2.296875 47.703125 
L 2.296875 54.6875 
L 10.890625 54.6875 
L 10.890625 58.5 
Q 10.890625 67.625 15.140625 71.796875 
Q 19.390625 75.984375 28.609375 75.984375 
z
" id="DejaVuSans-102"/>
       <path d="M 9.421875 75.984375 
L 18.40625 75.984375 
L 18.40625 0 
L 9.421875 0 
z
" id="DejaVuSans-108"/>
       <path d="M 44.28125 53.078125 
L 44.28125 44.578125 
Q 40.484375 46.53125 36.375 47.5 
Q 32.28125 48.484375 27.875 48.484375 
Q 21.1875 48.484375 17.84375 46.4375 
Q 14.5 44.390625 14.5 40.28125 
Q 14.5 37.15625 16.890625 35.375 
Q 19.28125 33.59375 26.515625 31.984375 
L 29.59375 31.296875 
Q 39.15625 29.25 43.1875 25.515625 
Q 47.21875 21.78125 47.21875 15.09375 
Q 47.21875 7.46875 41.1875 3.015625 
Q 35.15625 -1.421875 24.609375 -1.421875 
Q 20.21875 -1.421875 15.453125 -0.5625 
Q 10.6875 0.296875 5.421875 2 
L 5.421875 11.28125 
Q 10.40625 8.6875 15.234375 7.390625 
Q 20.0625 6.109375 24.8125 6.109375 
Q 31.15625 6.109375 34.5625 8.28125 
Q 37.984375 10.453125 37.984375 14.40625 
Q 37.984375 18.0625 35.515625 20.015625 
Q 33.0625 21.96875 24.703125 23.78125 
L 21.578125 24.515625 
Q 13.234375 26.265625 9.515625 29.90625 
Q 5.8125 33.546875 5.8125 39.890625 
Q 5.8125 47.609375 11.28125 51.796875 
Q 16.75 56 26.8125 56 
Q 31.78125 56 36.171875 55.265625 
Q 40.578125 54.546875 44.28125 53.078125 
z
" id="DejaVuSans-115"/>
      </defs>
      <g transform="translate(35.042187 45.139219)scale(0.1 -0.1)">
       <use xlink:href="#DejaVuSans-87"/>
       <use x="98.845703" xlink:href="#DejaVuSans-105"/>
       <use x="126.628906" xlink:href="#DejaVuSans-116"/>
       <use x="165.837891" xlink:href="#DejaVuSans-104"/>
       <use x="229.216797" xlink:href="#DejaVuSans-32"/>
       <use x="261.003906" xlink:href="#DejaVuSans-99"/>
       <use x="315.984375" xlink:href="#DejaVuSans-111"/>
       <use x="377.166016" xlink:href="#DejaVuSans-110"/>
       <use x="440.544922" xlink:href="#DejaVuSans-102"/>
       <use x="475.75" xlink:href="#DejaVuSans-108"/>
       <use x="503.533203" xlink:href="#DejaVuSans-105"/>
       <use x="531.316406" xlink:href="#DejaVuSans-99"/>
       <use x="586.296875" xlink:href="#DejaVuSans-116"/>
       <use x="625.505859" xlink:href="#DejaVuSans-115"/>
      </g>
     </g>
    </g>
    <g id="ytick_2">
     <g id="line2d_7">
      <g>
       <use style="stroke:#000000;stroke-width:0.8;" x="109.8" xlink:href="#m083a7bc845" y="20.98"/>
      </g>
     </g>
     <g id="text_7">
      <!-- Without conflicts -->
      <defs>
       <path d="M 8.5 21.578125 
L 8.5 54.6875 
L 17.484375 54.6875 
L 17.484375 21.921875 
Q 17.484375 14.15625 20.5 10.265625 
Q 23.53125 6.390625 29.59375 6.390625 
Q 36.859375 6.390625 41.078125 11.03125 
Q 45.3125 15.671875 45.3125 23.6875 
L 45.3125 54.6875 
L 54.296875 54.6875 
L 54.296875 0 
L 45.3125 0 
L 45.3125 8.40625 
Q 42.046875 3.421875 37.71875 1 
Q 33.40625 -1.421875 27.6875 -1.421875 
Q 18.265625 -1.421875 13.375 4.4375 
Q 8.5 10.296875 8.5 21.578125 
z
M 31.109375 56 
z
" id="DejaVuSans-117"/>
      </defs>
      <g transform="translate(18.665625 24.779219)scale(0.1 -0.1)">
       <use xlink:href="#DejaVuSans-87"/>
       <use x="98.845703" xlink:href="#DejaVuSans-105"/>
       <use x="126.628906" xlink:href="#DejaVuSans-116"/>
       <use x="165.837891" xlink:href="#DejaVuSans-104"/>
       <use x="229.216797" xlink:href="#DejaVuSans-111"/>
       <use x="290.398438" xlink:href="#DejaVuSans-117"/>
       <use x="353.777344" xlink:href="#DejaVuSans-116"/>
       <use x="392.986328" xlink:href="#DejaVuSans-32"/>
       <use x="424.773438" xlink:href="#DejaVuSans-99"/>
       <use x="479.753906" xlink:href="#DejaVuSans-111"/>
       <use x="540.935547" xlink:href="#DejaVuSans-110"/>
       <use x="604.314453" xlink:href="#DejaVuSans-102"/>
       <use x="639.519531" xlink:href="#DejaVuSans-108"/>
       <use x="667.302734" xlink:href="#DejaVuSans-105"/>
       <use x="695.085938" xlink:href="#DejaVuSans-99"/>
       <use x="750.066406" xlink:href="#DejaVuSans-116"/>
       <use x="789.275391" xlink:href="#DejaVuSans-115"/>
      </g>
     </g>
    </g>
   </g>
   <g id="line2d_8">
    <path clip-path="url(#p625f26840a)" d="M 126.374126 47.448 
L 126.374126 35.232 
L 238.884615 35.232 
L 238.884615 47.448 
L 126.374126 47.448 
" style="fill:none;stroke:#1f77b4;stroke-linecap:square;"/>
   </g>
   <g id="line2d_9">
    <path clip-path="url(#p625f26840a)" d="M 126.374126 41.34 
L 123.954545 41.34 
" style="fill:none;stroke:#1f77b4;stroke-linecap:square;"/>
   </g>
   <g id="line2d_10">
    <path clip-path="url(#p625f26840a)" d="M 238.884615 41.34 
L 407.045455 41.34 
" style="fill:none;stroke:#1f77b4;stroke-linecap:square;"/>
   </g>
   <g id="line2d_11">
    <path clip-path="url(#p625f26840a)" d="M 123.954545 44.394 
L 123.954545 38.286 
" style="fill:none;stroke:#000000;stroke-linecap:square;"/>
   </g>
   <g id="line2d_12">
    <path clip-path="url(#p625f26840a)" d="M 407.045455 44.394 
L 407.045455 38.286 
" style="fill:none;stroke:#000000;stroke-linecap:square;"/>
   </g>
   <g id="line2d_13">
    <path clip-path="url(#p625f26840a)" d="M 125.164336 27.088 
L 125.164336 14.872 
L 151.77972 14.872 
L 151.77972 27.088 
L 125.164336 27.088 
" style="fill:none;stroke:#1f77b4;stroke-linecap:square;"/>
   </g>
   <g id="line2d_14">
    <path clip-path="url(#p625f26840a)" d="M 125.164336 20.98 
L 123.954545 20.98 
" style="fill:none;stroke:#1f77b4;stroke-linecap:square;"/>
   </g>
   <g id="line2d_15">
    <path clip-path="url(#p625f26840a)" d="M 151.77972 20.98 
L 191.702797 20.98 
" style="fill:none;stroke:#1f77b4;stroke-linecap:square;"/>
   </g>
   <g id="line2d_16">
    <path clip-path="url(#p625f26840a)" d="M 123.954545 24.034 
L 123.954545 17.926 
" style="fill:none;stroke:#000000;stroke-linecap:square;"/>
   </g>
   <g id="line2d_17">
    <path clip-path="url(#p625f26840a)" d="M 191.702797 24.034 
L 191.702797 17.926 
" style="fill:none;stroke:#000000;stroke-linecap:square;"/>
   </g>
   <g id="line2d_18">
    <path clip-path="url(#p625f26840a)" d="M 140.891608 47.448 
L 140.891608 35.232 
" style="fill:none;stroke:#2ca02c;stroke-linecap:square;"/>
   </g>
   <g id="line2d_19">
    <path clip-path="url(#p625f26840a)" d="M 130.003497 27.088 
L 130.003497 14.872 
" style="fill:none;stroke:#2ca02c;stroke-linecap:square;"/>
   </g>
   <g id="patch_3">
    <path d="M 109.8 51.52 
L 109.8 10.8 
" style="fill:none;stroke:#000000;stroke-linecap:square;stroke-linejoin:miter;stroke-width:0.8;"/>
   </g>
   <g id="patch_4">
    <path d="M 421.2 51.52 
L 421.2 10.8 
" style="fill:none;stroke:#000000;stroke-linecap:square;stroke-linejoin:miter;stroke-width:0.8;"/>
   </g>
   <g id="patch_5">
    <path d="M 109.8 51.52 
L 421.2 51.52 
" style="fill:none;stroke:#000000;stroke-linecap:square;stroke-linejoin:miter;stroke-width:0.8;"/>
   </g>
   <g id="patch_6">
    <path d="M 109.8 10.8 
L 421.2 10.8 
" style="fill:none;stroke:#000000;stroke-linecap:square;stroke-linejoin:miter;stroke-width:0.8;"/>
   </g>
   <g id="text_8">
    <!-- (a) -->
    <defs>
     <path d="M 31 75.875 
Q 24.46875 64.65625 21.28125 53.65625 
Q 18.109375 42.671875 18.109375 31.390625 
Q 18.109375 20.125 21.3125 9.0625 
Q 24.515625 -2 31 -13.1875 
L 23.1875 -13.1875 
Q 15.875 -1.703125 12.234375 9.375 
Q 8.59375 20.453125 8.59375 31.390625 
Q 8.59375 42.28125 12.203125 53.3125 
Q 15.828125 64.359375 23.1875 75.875 
z
" id="DejaVuSans-40"/>
     <path d="M 34.28125 27.484375 
Q 23.390625 27.484375 19.1875 25 
Q 14.984375 22.515625 14.984375 16.5 
Q 14.984375 11.71875 18.140625 8.90625 
Q 21.296875 6.109375 26.703125 6.109375 
Q 34.1875 6.109375 38.703125 11.40625 
Q 43.21875 16.703125 43.21875 25.484375 
L 43.21875 27.484375 
z
M 52.203125 31.203125 
L 52.203125 0 
L 43.21875 0 
L 43.21875 8.296875 
Q 40.140625 3.328125 35.546875 0.953125 
Q 30.953125 -1.421875 24.3125 -1.421875 
Q 15.921875 -1.421875 10.953125 3.296875 
Q 6 8.015625 6 15.921875 
Q 6 25.140625 12.171875 29.828125 
Q 18.359375 34.515625 30.609375 34.515625 
L 43.21875 34.515625 
L 43.21875 35.40625 
Q 43.21875 41.609375 39.140625 45 
Q 35.0625 48.390625 27.6875 48.390625 
Q 23 48.390625 18.546875 47.265625 
Q 14.109375 46.140625 10.015625 43.890625 
L 10.015625 52.203125 
Q 14.9375 54.109375 19.578125 55.046875 
Q 24.21875 56 28.609375 56 
Q 40.484375 56 46.34375 49.84375 
Q 52.203125 43.703125 52.203125 31.203125 
z
" id="DejaVuSans-97"/>
     <path d="M 8.015625 75.875 
L 15.828125 75.875 
Q 23.140625 64.359375 26.78125 53.3125 
Q 30.421875 42.28125 30.421875 31.390625 
Q 30.421875 20.453125 26.78125 9.375 
Q 23.140625 -1.703125 15.828125 -13.1875 
L 8.015625 -13.1875 
Q 14.5 -2 17.703125 9.0625 
Q 20.90625 20.125 20.90625 31.390625 
Q 20.90625 42.671875 17.703125 53.65625 
Q 14.5 64.65625 8.015625 75.875 
z
" id="DejaVuSans-41"/>
    </defs>
    <g transform="translate(404.4825 23.124)scale(0.12 -0.12)">
     <use xlink:href="#DejaVuSans-40"/>
     <use x="39.013672" xlink:href="#DejaVuSans-97"/>
     <use x="100.292969" xlink:href="#DejaVuSans-41"/>
    </g>
   </g>
  </g>
  <g id="axes_2">
   <g id="patch_7">
    <path d="M 109.8 246.2 
L 421.2 246.2 
L 421.2 83.32 
L 109.8 83.32 
z
" style="fill:#ffffff;"/>
   </g>
   <g id="matplotlib.axis_3">
    <g id="xtick_6">
     <g id="line2d_20">
      <g>
       <use style="stroke:#000000;stroke-width:0.8;" x="122.744755" xlink:href="#mbf6f983649" y="246.2"/>
      </g>
     </g>
     <g id="text_9">
      <!-- 0 -->
      <g transform="translate(119.563505 260.798437)scale(0.1 -0.1)">
       <use xlink:href="#DejaVuSans-48"/>
      </g>
     </g>
    </g>
    <g id="xtick_7">
     <g id="line2d_21">
      <g>
       <use style="stroke:#000000;stroke-width:0.8;" x="183.234266" xlink:href="#mbf6f983649" y="246.2"/>
      </g>
     </g>
     <g id="text_10">
      <!-- 50 -->
      <g transform="translate(176.871766 260.798437)scale(0.1 -0.1)">
       <use xlink:href="#DejaVuSans-53"/>
       <use x="63.623047" xlink:href="#DejaVuSans-48"/>
      </g>
     </g>
    </g>
    <g id="xtick_8">
     <g id="line2d_22">
      <g>
       <use style="stroke:#000000;stroke-width:0.8;" x="243.723776" xlink:href="#mbf6f983649" y="246.2"/>
      </g>
     </g>
     <g id="text_11">
      <!-- 100 -->
      <g transform="translate(234.180026 260.798437)scale(0.1 -0.1)">
       <use xlink:href="#DejaVuSans-49"/>
       <use x="63.623047" xlink:href="#DejaVuSans-48"/>
       <use x="127.246094" xlink:href="#DejaVuSans-48"/>
      </g>
     </g>
    </g>
    <g id="xtick_9">
     <g id="line2d_23">
      <g>
       <use style="stroke:#000000;stroke-width:0.8;" x="304.213287" xlink:href="#mbf6f983649" y="246.2"/>
      </g>
     </g>
     <g id="text_12">
      <!-- 150 -->
      <g transform="translate(294.669537 260.798437)scale(0.1 -0.1)">
       <use xlink:href="#DejaVuSans-49"/>
       <use x="63.623047" xlink:href="#DejaVuSans-53"/>
       <use x="127.246094" xlink:href="#DejaVuSans-48"/>
      </g>
     </g>
    </g>
    <g id="xtick_10">
     <g id="line2d_24">
      <g>
       <use style="stroke:#000000;stroke-width:0.8;" x="364.702797" xlink:href="#mbf6f983649" y="246.2"/>
      </g>
     </g>
     <g id="text_13">
      <!-- 200 -->
      <g transform="translate(355.159047 260.798437)scale(0.1 -0.1)">
       <use xlink:href="#DejaVuSans-50"/>
       <use x="63.623047" xlink:href="#DejaVuSans-48"/>
       <use x="127.246094" xlink:href="#DejaVuSans-48"/>
      </g>
     </g>
    </g>
    <g id="text_14">
     <!-- (c) commits B1 -->
     <defs>
      <path d="M 52 44.1875 
Q 55.375 50.25 60.0625 53.125 
Q 64.75 56 71.09375 56 
Q 79.640625 56 84.28125 50.015625 
Q 88.921875 44.046875 88.921875 33.015625 
L 88.921875 0 
L 79.890625 0 
L 79.890625 32.71875 
Q 79.890625 40.578125 77.09375 44.375 
Q 74.3125 48.1875 68.609375 48.1875 
Q 61.625 48.1875 57.5625 43.546875 
Q 53.515625 38.921875 53.515625 30.90625 
L 53.515625 0 
L 44.484375 0 
L 44.484375 32.71875 
Q 44.484375 40.625 41.703125 44.40625 
Q 38.921875 48.1875 33.109375 48.1875 
Q 26.21875 48.1875 22.15625 43.53125 
Q 18.109375 38.875 18.109375 30.90625 
L 18.109375 0 
L 9.078125 0 
L 9.078125 54.6875 
L 18.109375 54.6875 
L 18.109375 46.1875 
Q 21.1875 51.21875 25.484375 53.609375 
Q 29.78125 56 35.6875 56 
Q 41.65625 56 45.828125 52.96875 
Q 50 49.953125 52 44.1875 
z
" id="DejaVuSans-109"/>
      <path d="M 19.671875 34.8125 
L 19.671875 8.109375 
L 35.5 8.109375 
Q 43.453125 8.109375 47.28125 11.40625 
Q 51.125 14.703125 51.125 21.484375 
Q 51.125 28.328125 47.28125 31.5625 
Q 43.453125 34.8125 35.5 34.8125 
z
M 19.671875 64.796875 
L 19.671875 42.828125 
L 34.28125 42.828125 
Q 41.5 42.828125 45.03125 45.53125 
Q 48.578125 48.25 48.578125 53.8125 
Q 48.578125 59.328125 45.03125 62.0625 
Q 41.5 64.796875 34.28125 64.796875 
z
M 9.8125 72.90625 
L 35.015625 72.90625 
Q 46.296875 72.90625 52.390625 68.21875 
Q 58.5 63.53125 58.5 54.890625 
Q 58.5 48.1875 55.375 44.234375 
Q 52.25 40.28125 46.1875 39.3125 
Q 53.46875 37.75 57.5 32.78125 
Q 61.53125 27.828125 61.53125 20.40625 
Q 61.53125 10.640625 54.890625 5.3125 
Q 48.25 0 35.984375 0 
L 9.8125 0 
z
" id="DejaVuSans-66"/>
     </defs>
     <g transform="translate(227.55625 274.476562)scale(0.1 -0.1)">
      <use xlink:href="#DejaVuSans-40"/>
      <use x="39.013672" xlink:href="#DejaVuSans-99"/>
      <use x="93.994141" xlink:href="#DejaVuSans-41"/>
      <use x="133.007812" xlink:href="#DejaVuSans-32"/>
      <use x="164.794922" xlink:href="#DejaVuSans-99"/>
      <use x="219.775391" xlink:href="#DejaVuSans-111"/>
      <use x="280.957031" xlink:href="#DejaVuSans-109"/>
      <use x="378.369141" xlink:href="#DejaVuSans-109"/>
      <use x="475.78125" xlink:href="#DejaVuSans-105"/>
      <use x="503.564453" xlink:href="#DejaVuSans-116"/>
      <use x="542.773438" xlink:href="#DejaVuSans-115"/>
      <use x="594.873047" xlink:href="#DejaVuSans-32"/>
      <use x="626.660156" xlink:href="#DejaVuSans-66"/>
      <use x="695.263672" xlink:href="#DejaVuSans-49"/>
     </g>
    </g>
   </g>
   <g id="matplotlib.axis_4">
    <g id="ytick_3">
     <g id="line2d_25">
      <g>
       <use style="stroke:#000000;stroke-width:0.8;" x="109.8" xlink:href="#m083a7bc845" y="246.2"/>
      </g>
     </g>
     <g id="text_15">
      <!-- 0% -->
      <defs>
       <path d="M 72.703125 32.078125 
Q 68.453125 32.078125 66.03125 28.46875 
Q 63.625 24.859375 63.625 18.40625 
Q 63.625 12.0625 66.03125 8.421875 
Q 68.453125 4.78125 72.703125 4.78125 
Q 76.859375 4.78125 79.265625 8.421875 
Q 81.6875 12.0625 81.6875 18.40625 
Q 81.6875 24.8125 79.265625 28.4375 
Q 76.859375 32.078125 72.703125 32.078125 
z
M 72.703125 38.28125 
Q 80.421875 38.28125 84.953125 32.90625 
Q 89.5 27.546875 89.5 18.40625 
Q 89.5 9.28125 84.9375 3.921875 
Q 80.375 -1.421875 72.703125 -1.421875 
Q 64.890625 -1.421875 60.34375 3.921875 
Q 55.8125 9.28125 55.8125 18.40625 
Q 55.8125 27.59375 60.375 32.9375 
Q 64.9375 38.28125 72.703125 38.28125 
z
M 22.3125 68.015625 
Q 18.109375 68.015625 15.6875 64.375 
Q 13.28125 60.75 13.28125 54.390625 
Q 13.28125 47.953125 15.671875 44.328125 
Q 18.0625 40.71875 22.3125 40.71875 
Q 26.5625 40.71875 28.96875 44.328125 
Q 31.390625 47.953125 31.390625 54.390625 
Q 31.390625 60.6875 28.953125 64.34375 
Q 26.515625 68.015625 22.3125 68.015625 
z
M 66.40625 74.21875 
L 74.21875 74.21875 
L 28.609375 -1.421875 
L 20.796875 -1.421875 
z
M 22.3125 74.21875 
Q 30.03125 74.21875 34.609375 68.875 
Q 39.203125 63.53125 39.203125 54.390625 
Q 39.203125 45.171875 34.640625 39.84375 
Q 30.078125 34.515625 22.3125 34.515625 
Q 14.546875 34.515625 10.03125 39.859375 
Q 5.515625 45.21875 5.515625 54.390625 
Q 5.515625 63.484375 10.046875 68.84375 
Q 14.59375 74.21875 22.3125 74.21875 
z
" id="DejaVuSans-37"/>
      </defs>
      <g transform="translate(86.935937 249.999219)scale(0.1 -0.1)">
       <use xlink:href="#DejaVuSans-48"/>
       <use x="63.623047" xlink:href="#DejaVuSans-37"/>
      </g>
     </g>
    </g>
    <g id="ytick_4">
     <g id="line2d_26">
      <g>
       <use style="stroke:#000000;stroke-width:0.8;" x="109.8" xlink:href="#m083a7bc845" y="219.053333"/>
      </g>
     </g>
     <g id="text_16">
      <!-- 10% -->
      <g transform="translate(80.573437 222.852552)scale(0.1 -0.1)">
       <use xlink:href="#DejaVuSans-49"/>
       <use x="63.623047" xlink:href="#DejaVuSans-48"/>
       <use x="127.246094" xlink:href="#DejaVuSans-37"/>
      </g>
     </g>
    </g>
    <g id="ytick_5">
     <g id="line2d_27">
      <g>
       <use style="stroke:#000000;stroke-width:0.8;" x="109.8" xlink:href="#m083a7bc845" y="191.906667"/>
      </g>
     </g>
     <g id="text_17">
      <!-- 20% -->
      <g transform="translate(80.573437 195.705885)scale(0.1 -0.1)">
       <use xlink:href="#DejaVuSans-50"/>
       <use x="63.623047" xlink:href="#DejaVuSans-48"/>
       <use x="127.246094" xlink:href="#DejaVuSans-37"/>
      </g>
     </g>
    </g>
    <g id="ytick_6">
     <g id="line2d_28">
      <g>
       <use style="stroke:#000000;stroke-width:0.8;" x="109.8" xlink:href="#m083a7bc845" y="164.76"/>
      </g>
     </g>
     <g id="text_18">
      <!-- 30% -->
      <defs>
       <path d="M 40.578125 39.3125 
Q 47.65625 37.796875 51.625 33 
Q 55.609375 28.21875 55.609375 21.1875 
Q 55.609375 10.40625 48.1875 4.484375 
Q 40.765625 -1.421875 27.09375 -1.421875 
Q 22.515625 -1.421875 17.65625 -0.515625 
Q 12.796875 0.390625 7.625 2.203125 
L 7.625 11.71875 
Q 11.71875 9.328125 16.59375 8.109375 
Q 21.484375 6.890625 26.8125 6.890625 
Q 36.078125 6.890625 40.9375 10.546875 
Q 45.796875 14.203125 45.796875 21.1875 
Q 45.796875 27.640625 41.28125 31.265625 
Q 36.765625 34.90625 28.71875 34.90625 
L 20.21875 34.90625 
L 20.21875 43.015625 
L 29.109375 43.015625 
Q 36.375 43.015625 40.234375 45.921875 
Q 44.09375 48.828125 44.09375 54.296875 
Q 44.09375 59.90625 40.109375 62.90625 
Q 36.140625 65.921875 28.71875 65.921875 
Q 24.65625 65.921875 20.015625 65.03125 
Q 15.375 64.15625 9.8125 62.3125 
L 9.8125 71.09375 
Q 15.4375 72.65625 20.34375 73.4375 
Q 25.25 74.21875 29.59375 74.21875 
Q 40.828125 74.21875 47.359375 69.109375 
Q 53.90625 64.015625 53.90625 55.328125 
Q 53.90625 49.265625 50.4375 45.09375 
Q 46.96875 40.921875 40.578125 39.3125 
z
" id="DejaVuSans-51"/>
      </defs>
      <g transform="translate(80.573437 168.559219)scale(0.1 -0.1)">
       <use xlink:href="#DejaVuSans-51"/>
       <use x="63.623047" xlink:href="#DejaVuSans-48"/>
       <use x="127.246094" xlink:href="#DejaVuSans-37"/>
      </g>
     </g>
    </g>
    <g id="ytick_7">
     <g id="line2d_29">
      <g>
       <use style="stroke:#000000;stroke-width:0.8;" x="109.8" xlink:href="#m083a7bc845" y="137.613333"/>
      </g>
     </g>
     <g id="text_19">
      <!-- 40% -->
      <defs>
       <path d="M 37.796875 64.3125 
L 12.890625 25.390625 
L 37.796875 25.390625 
z
M 35.203125 72.90625 
L 47.609375 72.90625 
L 47.609375 25.390625 
L 58.015625 25.390625 
L 58.015625 17.1875 
L 47.609375 17.1875 
L 47.609375 0 
L 37.796875 0 
L 37.796875 17.1875 
L 4.890625 17.1875 
L 4.890625 26.703125 
z
" id="DejaVuSans-52"/>
      </defs>
      <g transform="translate(80.573437 141.412552)scale(0.1 -0.1)">
       <use xlink:href="#DejaVuSans-52"/>
       <use x="63.623047" xlink:href="#DejaVuSans-48"/>
       <use x="127.246094" xlink:href="#DejaVuSans-37"/>
      </g>
     </g>
    </g>
    <g id="ytick_8">
     <g id="line2d_30">
      <g>
       <use style="stroke:#000000;stroke-width:0.8;" x="109.8" xlink:href="#m083a7bc845" y="110.466667"/>
      </g>
     </g>
     <g id="text_20">
      <!-- 50% -->
      <g transform="translate(80.573437 114.265885)scale(0.1 -0.1)">
       <use xlink:href="#DejaVuSans-53"/>
       <use x="63.623047" xlink:href="#DejaVuSans-48"/>
       <use x="127.246094" xlink:href="#DejaVuSans-37"/>
      </g>
     </g>
    </g>
    <g id="ytick_9">
     <g id="line2d_31">
      <g>
       <use style="stroke:#000000;stroke-width:0.8;" x="109.8" xlink:href="#m083a7bc845" y="83.32"/>
      </g>
     </g>
     <g id="text_21">
      <!-- 60% -->
      <defs>
       <path d="M 33.015625 40.375 
Q 26.375 40.375 22.484375 35.828125 
Q 18.609375 31.296875 18.609375 23.390625 
Q 18.609375 15.53125 22.484375 10.953125 
Q 26.375 6.390625 33.015625 6.390625 
Q 39.65625 6.390625 43.53125 10.953125 
Q 47.40625 15.53125 47.40625 23.390625 
Q 47.40625 31.296875 43.53125 35.828125 
Q 39.65625 40.375 33.015625 40.375 
z
M 52.59375 71.296875 
L 52.59375 62.3125 
Q 48.875 64.0625 45.09375 64.984375 
Q 41.3125 65.921875 37.59375 65.921875 
Q 27.828125 65.921875 22.671875 59.328125 
Q 17.53125 52.734375 16.796875 39.40625 
Q 19.671875 43.65625 24.015625 45.921875 
Q 28.375 48.1875 33.59375 48.1875 
Q 44.578125 48.1875 50.953125 41.515625 
Q 57.328125 34.859375 57.328125 23.390625 
Q 57.328125 12.15625 50.6875 5.359375 
Q 44.046875 -1.421875 33.015625 -1.421875 
Q 20.359375 -1.421875 13.671875 8.265625 
Q 6.984375 17.96875 6.984375 36.375 
Q 6.984375 53.65625 15.1875 63.9375 
Q 23.390625 74.21875 37.203125 74.21875 
Q 40.921875 74.21875 44.703125 73.484375 
Q 48.484375 72.75 52.59375 71.296875 
z
" id="DejaVuSans-54"/>
      </defs>
      <g transform="translate(80.573437 87.119219)scale(0.1 -0.1)">
       <use xlink:href="#DejaVuSans-54"/>
       <use x="63.623047" xlink:href="#DejaVuSans-48"/>
       <use x="127.246094" xlink:href="#DejaVuSans-37"/>
      </g>
     </g>
    </g>
    <g id="text_22">
     <!-- P(conflict  -->
     <defs>
      <path d="M 19.671875 64.796875 
L 19.671875 37.40625 
L 32.078125 37.40625 
Q 38.96875 37.40625 42.71875 40.96875 
Q 46.484375 44.53125 46.484375 51.125 
Q 46.484375 57.671875 42.71875 61.234375 
Q 38.96875 64.796875 32.078125 64.796875 
z
M 9.8125 72.90625 
L 32.078125 72.90625 
Q 44.34375 72.90625 50.609375 67.359375 
Q 56.890625 61.8125 56.890625 51.125 
Q 56.890625 40.328125 50.609375 34.8125 
Q 44.34375 29.296875 32.078125 29.296875 
L 19.671875 29.296875 
L 19.671875 0 
L 9.8125 0 
z
" id="DejaVuSans-80"/>
     </defs>
     <g transform="translate(10.573437 150.557344)scale(0.1 -0.1)">
      <use xlink:href="#DejaVuSans-80"/>
      <use x="60.302734" xlink:href="#DejaVuSans-40"/>
      <use x="99.316406" xlink:href="#DejaVuSans-99"/>
      <use x="154.296875" xlink:href="#DejaVuSans-111"/>
      <use x="215.478516" xlink:href="#DejaVuSans-110"/>
      <use x="278.857422" xlink:href="#DejaVuSans-102"/>
      <use x="314.0625" xlink:href="#DejaVuSans-108"/>
      <use x="341.845703" xlink:href="#DejaVuSans-105"/>
      <use x="369.628906" xlink:href="#DejaVuSans-99"/>
      <use x="424.609375" xlink:href="#DejaVuSans-116"/>
      <use x="463.818359" xlink:href="#DejaVuSans-32"/>
     </g>
     <!--    | commits  -->
     <defs>
      <path d="M 21 76.421875 
L 21 -23.578125 
L 12.703125 -23.578125 
L 12.703125 76.421875 
z
" id="DejaVuSans-124"/>
     </defs>
     <g transform="translate(10.573437 161.807656)scale(0.1 -0.1)">
      <use xlink:href="#DejaVuSans-32"/>
      <use x="31.787109" xlink:href="#DejaVuSans-32"/>
      <use x="63.574219" xlink:href="#DejaVuSans-32"/>
      <use x="95.361328" xlink:href="#DejaVuSans-124"/>
      <use x="129.052734" xlink:href="#DejaVuSans-32"/>
      <use x="160.839844" xlink:href="#DejaVuSans-99"/>
      <use x="215.820312" xlink:href="#DejaVuSans-111"/>
      <use x="277.001953" xlink:href="#DejaVuSans-109"/>
      <use x="374.414062" xlink:href="#DejaVuSans-109"/>
      <use x="471.826172" xlink:href="#DejaVuSans-105"/>
      <use x="499.609375" xlink:href="#DejaVuSans-116"/>
      <use x="538.818359" xlink:href="#DejaVuSans-115"/>
      <use x="590.917969" xlink:href="#DejaVuSans-32"/>
     </g>
     <!--      B1 -->
     <g transform="translate(10.573437 173.283594)scale(0.1 -0.1)">
      <use xlink:href="#DejaVuSans-32"/>
      <use x="31.787109" xlink:href="#DejaVuSans-32"/>
      <use x="63.574219" xlink:href="#DejaVuSans-32"/>
      <use x="95.361328" xlink:href="#DejaVuSans-32"/>
      <use x="127.148438" xlink:href="#DejaVuSans-32"/>
      <use x="158.935547" xlink:href="#DejaVuSans-66"/>
      <use x="227.539062" xlink:href="#DejaVuSans-49"/>
     </g>
     <!--      ≥ x) -->
     <defs>
      <path d="M 10.59375 49.609375 
L 10.59375 58.203125 
L 73.1875 40.28125 
L 73.1875 31.984375 
L 10.59375 14.015625 
L 10.59375 22.703125 
L 57.515625 36.078125 
z
M 73.1875 8.296875 
L 73.1875 0 
L 10.59375 0 
L 10.59375 8.296875 
z
" id="DejaVuSans-8805"/>
      <path d="M 54.890625 54.6875 
L 35.109375 28.078125 
L 55.90625 0 
L 45.3125 0 
L 29.390625 21.484375 
L 13.484375 0 
L 2.875 0 
L 24.125 28.609375 
L 4.6875 54.6875 
L 15.28125 54.6875 
L 29.78125 35.203125 
L 44.28125 54.6875 
z
" id="DejaVuSans-120"/>
     </defs>
     <g transform="translate(10.573437 184.481406)scale(0.1 -0.1)">
      <use xlink:href="#DejaVuSans-32"/>
      <use x="31.787109" xlink:href="#DejaVuSans-32"/>
      <use x="63.574219" xlink:href="#DejaVuSans-32"/>
      <use x="95.361328" xlink:href="#DejaVuSans-32"/>
      <use x="127.148438" xlink:href="#DejaVuSans-32"/>
      <use x="158.935547" xlink:href="#DejaVuSans-8805"/>
      <use x="242.724609" xlink:href="#DejaVuSans-32"/>
      <use x="274.511719" xlink:href="#DejaVuSans-120"/>
      <use x="333.691406" xlink:href="#DejaVuSans-41"/>
     </g>
    </g>
   </g>
   <g id="line2d_32">
    <path clip-path="url(#p816be92b18)" d="M 407.045455 171.614072 
L 407.045455 171.555175 
L 407.045455 171.657576 
L 404.625874 171.777831 
L 404.625874 171.831726 
L 404.625874 171.829415 
L 398.576923 171.828211 
L 398.576923 171.775802 
L 398.576923 171.755826 
L 398.576923 171.77846 
L 398.576923 171.773576 
L 393.737762 171.909572 
L 393.737762 171.916996 
L 393.737762 171.83337 
L 393.737762 171.863066 
L 391.318182 171.987062 
L 391.318182 172.065714 
L 390.108392 172.180715 
L 390.108392 172.231904 
L 387.688811 172.35295 
L 387.688811 172.442014 
L 387.688811 172.34078 
L 387.688811 172.441714 
L 385.269231 172.563079 
L 385.269231 172.653562 
L 385.269231 172.559553 
L 385.269231 172.581026 
L 381.63986 172.413398 
L 381.63986 172.375298 
L 381.63986 172.481521 
L 381.63986 172.424236 
L 380.43007 172.40526 
L 380.43007 172.510992 
L 380.43007 172.546253 
L 379.22028 172.661031 
L 379.22028 172.660509 
L 379.22028 172.730613 
L 376.800699 172.587566 
L 376.800699 172.594514 
L 376.800699 172.519849 
L 376.800699 172.540696 
L 373.171329 172.592672 
L 373.171329 172.651414 
L 373.171329 172.576333 
L 373.171329 172.621375 
L 371.961538 172.735106 
L 371.961538 172.844257 
L 371.961538 172.814284 
L 369.541958 172.932354 
L 369.541958 172.978073 
L 369.541958 172.922038 
L 369.541958 172.958993 
L 367.122378 172.982643 
L 367.122378 173.029598 
L 367.122378 173.121401 
L 367.122378 173.02484 
L 367.122378 173.091851 
L 365.912587 173.206781 
L 365.912587 173.239942 
L 365.912587 173.19248 
L 365.912587 173.212367 
L 362.283217 173.234795 
L 362.283217 173.267565 
L 362.283217 173.298065 
L 362.283217 173.199946 
L 362.283217 173.237107 
L 358.653846 173.363376 
L 358.653846 173.39561 
L 358.653846 173.366894 
L 352.604895 173.505504 
L 352.604895 173.468044 
L 352.604895 173.609926 
L 351.395105 173.592712 
L 351.395105 173.693428 
L 348.975524 173.813536 
L 348.975524 173.895518 
L 348.975524 173.869184 
L 347.765734 173.986167 
L 347.765734 173.993796 
L 347.765734 173.96602 
L 347.765734 173.990606 
L 345.346154 174.02662 
L 345.346154 174.063291 
L 345.346154 174.236155 
L 341.716783 174.363164 
L 341.716783 174.35383 
L 341.716783 174.420229 
L 340.506993 174.535141 
L 340.506993 174.53172 
L 340.506993 174.567335 
L 340.506993 174.556719 
L 339.297203 174.520221 
L 339.297203 174.645961 
L 339.297203 174.657758 
L 339.297203 174.636599 
L 339.297203 174.648392 
L 338.087413 174.76023 
L 338.087413 174.777829 
L 338.087413 174.729744 
L 338.087413 174.730927 
L 335.667832 174.852141 
L 335.667832 174.821846 
L 335.667832 174.88771 
L 334.458042 174.999224 
L 334.458042 175.063508 
L 334.458042 174.988797 
L 334.458042 175.043724 
L 330.828671 175.170699 
L 330.828671 175.160374 
L 330.828671 175.316917 
L 328.409091 175.433966 
L 328.409091 175.564249 
L 327.199301 175.680582 
L 327.199301 175.747073 
L 327.199301 175.736816 
L 324.77972 175.775731 
L 324.77972 175.815827 
L 324.77972 175.943513 
L 324.77972 175.882358 
L 323.56993 175.99383 
L 323.56993 175.976413 
L 323.56993 176.032234 
L 322.36014 175.991655 
L 322.36014 176.11034 
L 321.15035 176.223408 
L 321.15035 176.268256 
L 321.15035 176.213314 
L 321.15035 176.242728 
L 319.940559 176.227288 
L 319.940559 176.333293 
L 319.940559 176.371809 
L 319.940559 176.323237 
L 319.940559 176.367083 
L 318.730769 176.480407 
L 318.730769 176.550893 
L 317.520979 176.666289 
L 317.520979 176.735024 
L 316.311189 176.849435 
L 316.311189 176.875479 
L 316.311189 176.86074 
L 313.891608 176.981569 
L 313.891608 176.971647 
L 313.891608 177.046929 
L 312.681818 177.158196 
L 312.681818 177.178968 
L 312.681818 177.148328 
L 312.681818 177.174206 
L 311.472028 177.288154 
L 311.472028 177.303687 
L 311.472028 177.278307 
L 311.472028 177.293844 
L 310.262238 177.406656 
L 310.262238 177.416755 
L 310.262238 177.328417 
L 310.262238 177.35365 
L 307.842657 177.473017 
L 307.842657 177.482972 
L 307.842657 177.424514 
L 307.842657 177.439446 
L 305.423077 177.556178 
L 305.423077 177.63739 
L 305.423077 177.517546 
L 305.423077 177.632674 
L 304.213287 177.746394 
L 304.213287 177.825023 
L 303.003497 177.937694 
L 303.003497 177.933182 
L 303.003497 177.996167 
L 300.583916 178.041032 
L 300.583916 178.074702 
L 300.583916 178.233186 
L 300.583916 178.228468 
L 298.164336 178.347544 
L 298.164336 178.442071 
L 298.164336 178.3947 
L 296.954545 178.507604 
L 296.954545 178.619849 
L 295.744755 178.605739 
L 295.744755 178.712634 
L 295.744755 178.786681 
L 295.744755 178.75823 
L 294.534965 178.873881 
L 294.534965 179.043906 
L 293.325175 179.02514 
L 293.325175 179.137419 
L 293.325175 179.160243 
L 292.115385 179.273111 
L 292.115385 179.267806 
L 292.115385 179.326504 
L 289.695804 179.444103 
L 289.695804 179.475255 
L 289.695804 179.397587 
L 287.276224 179.514135 
L 287.276224 179.759501 
L 286.066434 179.873411 
L 286.066434 180.081279 
L 284.856643 180.064603 
L 284.856643 180.177633 
L 284.856643 180.220241 
L 284.856643 180.174265 
L 284.856643 180.187179 
L 283.646853 180.173785 
L 283.646853 180.283474 
L 283.646853 180.52795 
L 283.646853 180.281448 
L 283.646853 180.523146 
L 282.437063 180.634562 
L 282.437063 180.89434 
L 282.437063 180.881199 
L 278.807692 181.004309 
L 278.807692 181.003637 
L 278.807692 181.129338 
L 278.807692 180.998869 
L 278.807692 181.120518 
L 277.597902 181.232607 
L 277.597902 181.223966 
L 277.597902 181.299056 
L 275.178322 181.326222 
L 275.178322 181.203286 
L 275.178322 181.189212 
L 275.178322 181.250096 
L 275.178322 181.249382 
L 273.968531 181.236742 
L 273.968531 181.344935 
L 273.968531 181.421936 
L 273.968531 181.414994 
L 272.758741 181.527542 
L 272.758741 181.590835 
L 272.758741 181.56352 
L 270.339161 181.678759 
L 270.339161 181.635394 
L 270.339161 181.78829 
L 266.70979 181.812344 
L 266.70979 181.859911 
L 266.70979 181.943305 
L 264.29021 182.058373 
L 264.29021 182.120894 
L 264.29021 182.057172 
L 264.29021 182.115449 
L 261.870629 182.07157 
L 261.870629 182.191637 
L 260.660839 182.305508 
L 260.660839 182.433282 
L 259.451049 182.547653 
L 259.451049 182.634311 
L 259.451049 182.543101 
L 259.451049 182.629757 
L 258.241259 182.744419 
L 258.241259 182.736299 
L 258.241259 182.802954 
L 255.821678 182.919684 
L 255.821678 182.918664 
L 255.821678 183.044782 
L 255.821678 183.043738 
L 254.611888 183.157978 
L 254.611888 183.171871 
L 252.192308 183.288866 
L 252.192308 183.286888 
L 252.192308 183.408477 
L 252.192308 183.285806 
L 252.192308 183.407373 
L 250.982517 183.396027 
L 250.982517 183.5064 
L 250.982517 183.492873 
L 250.982517 183.531288 
L 249.772727 183.643623 
L 249.772727 183.686146 
L 249.772727 183.684997 
L 247.353147 183.80034 
L 247.353147 183.956889 
L 246.143357 184.068242 
L 246.143357 184.248269 
L 244.933566 184.361035 
L 244.933566 184.452198 
L 244.933566 184.352046 
L 244.933566 184.447702 
L 243.723776 184.561826 
L 243.723776 184.58287 
L 243.723776 184.578387 
L 242.513986 184.691578 
L 242.513986 184.789198 
L 242.513986 184.784723 
L 241.304196 184.896149 
L 241.304196 185.043295 
L 240.094406 185.028111 
L 240.094406 185.140628 
L 240.094406 185.136156 
L 240.094406 185.269139 
L 238.884615 185.380645 
L 238.884615 185.477909 
L 238.884615 185.368626 
L 238.884615 185.458398 
L 237.674825 185.571496 
L 237.674825 185.669997 
L 237.674825 185.570051 
L 237.674825 185.649011 
L 236.465035 185.762077 
L 236.465035 185.847274 
L 234.045455 185.96406 
L 234.045455 185.96249 
L 234.045455 186.080489 
L 234.045455 185.928544 
L 234.045455 186.078986 
L 232.835664 186.190199 
L 232.835664 186.162339 
L 232.835664 186.297679 
L 231.625874 186.410452 
L 231.625874 186.403173 
L 231.625874 186.460224 
L 230.416084 186.572006 
L 230.416084 186.568875 
L 230.416084 186.655209 
L 229.206294 186.768213 
L 229.206294 186.910802 
L 227.996503 186.900826 
L 227.996503 187.010118 
L 227.996503 187.054976 
L 227.996503 187.001345 
L 227.996503 187.045069 
L 226.786713 187.031915 
L 226.786713 187.143783 
L 226.786713 187.165254 
L 226.786713 187.11667 
L 226.786713 187.124873 
L 225.576923 187.237781 
L 225.576923 187.236138 
L 225.576923 187.434395 
L 224.367133 187.547185 
L 224.367133 187.692014 
L 223.157343 187.804822 
L 223.157343 187.889767 
L 223.157343 187.782967 
L 223.157343 187.83154 
L 221.947552 187.945142 
L 221.947552 187.98255 
L 220.737762 188.094273 
L 220.737762 188.160386 
L 219.527972 188.273022 
L 219.527972 188.336845 
L 219.527972 188.259115 
L 219.527972 188.30942 
L 218.318182 188.422144 
L 218.318182 188.533805 
L 218.318182 188.417843 
L 218.318182 188.525937 
L 217.108392 188.516595 
L 217.108392 188.626902 
L 217.108392 188.763727 
L 215.898601 188.876297 
L 215.898601 189.014782 
L 214.688811 189.126614 
L 214.688811 189.248467 
L 214.688811 189.242331 
L 213.479021 189.355448 
L 213.479021 189.44982 
L 213.479021 189.439932 
L 212.269231 189.551929 
L 212.269231 189.550047 
L 212.269231 189.646334 
L 211.059441 189.757664 
L 211.059441 189.934689 
L 209.84965 190.046419 
L 209.84965 190.172482 
L 209.84965 190.035638 
L 209.84965 190.148313 
L 208.63986 190.260944 
L 208.63986 190.25967 
L 208.63986 190.450414 
L 208.63986 190.257725 
L 208.63986 190.441661 
L 207.43007 190.422195 
L 207.43007 190.542601 
L 207.43007 190.651897 
L 207.43007 190.643219 
L 206.22028 190.628355 
L 206.22028 190.74559 
L 206.22028 190.734993 
L 206.22028 190.858708 
L 205.01049 190.970833 
L 205.01049 191.081002 
L 205.01049 191.076833 
L 203.800699 191.189649 
L 203.800699 191.298172 
L 203.800699 191.178424 
L 203.800699 191.289745 
L 202.590909 191.262455 
L 202.590909 191.392187 
L 202.590909 191.386028 
L 202.590909 191.492517 
L 201.381119 191.603758 
L 201.381119 191.622853 
L 201.381119 191.578961 
L 201.381119 191.614578 
L 200.171329 191.727188 
L 200.171329 191.828686 
L 200.171329 191.725394 
L 200.171329 191.826646 
L 198.961538 191.939422 
L 198.961538 192.154313 
L 198.961538 191.929173 
L 198.961538 192.146184 
L 197.751748 192.13195 
L 197.751748 192.247335 
L 197.751748 192.390819 
L 196.541958 192.503187 
L 196.541958 192.503077 
L 196.541958 192.669543 
L 196.541958 192.500988 
L 196.541958 192.665486 
L 195.332168 192.777259 
L 195.332168 192.915339 
L 195.332168 192.763315 
L 195.332168 192.913227 
L 194.122378 193.024805 
L 194.122378 193.158257 
L 194.122378 193.019965 
L 194.122378 193.137469 
L 192.912587 193.250465 
L 192.912587 193.358648 
L 192.912587 193.246217 
L 192.912587 193.348083 
L 191.702797 193.459924 
L 191.702797 193.596805 
L 191.702797 193.459105 
L 191.702797 193.58915 
L 190.493007 193.701066 
L 190.493007 193.985149 
L 190.493007 193.969315 
L 189.283217 194.080706 
L 189.283217 194.171439 
L 189.283217 194.156928 
L 188.073427 194.268768 
L 188.073427 194.416284 
L 188.073427 194.263081 
L 188.073427 194.409784 
L 186.863636 194.522401 
L 186.863636 194.673734 
L 185.653846 194.786267 
L 185.653846 195.045853 
L 185.653846 195.038632 
L 184.444056 195.020327 
L 184.444056 195.141133 
L 184.444056 195.38548 
L 183.234266 195.497001 
L 183.234266 195.638197 
L 183.234266 195.489891 
L 183.234266 195.621902 
L 182.024476 195.734381 
L 182.024476 195.863224 
L 180.814685 195.974373 
L 180.814685 196.191651 
L 180.814685 196.189656 
L 179.604895 196.302096 
L 179.604895 196.289388 
L 179.604895 196.389831 
L 178.395105 196.383045 
L 178.395105 196.492739 
L 178.395105 196.74928 
L 177.185315 196.860968 
L 177.185315 196.855762 
L 177.185315 197.159299 
L 175.975524 197.134316 
L 175.975524 197.263061 
L 175.975524 197.635843 
L 174.765734 197.747206 
L 174.765734 197.744948 
L 174.765734 198.000163 
L 173.555944 198.112506 
L 173.555944 198.344782 
L 173.555944 198.103863 
L 173.555944 198.337516 
L 172.346154 198.449044 
L 172.346154 198.631091 
L 172.346154 198.626176 
L 171.136364 198.597592 
L 171.136364 198.730706 
L 171.136364 198.997798 
L 169.926573 199.109296 
L 169.926573 199.222707 
L 169.926573 199.2182 
L 168.716783 199.33005 
L 168.716783 199.308516 
L 168.716783 199.503496 
L 167.506993 199.614714 
L 167.506993 199.827133 
L 166.297203 199.939144 
L 166.297203 200.207858 
L 166.297203 200.20489 
L 165.087413 200.316944 
L 165.087413 200.481612 
L 165.087413 200.478072 
L 163.877622 200.590179 
L 163.877622 200.586869 
L 163.877622 200.738882 
L 162.667832 200.85058 
L 162.667832 201.06684 
L 161.458042 201.0591 
L 161.458042 201.172319 
L 161.458042 201.167868 
L 161.458042 201.349663 
L 160.248252 201.461496 
L 160.248252 201.848992 
L 159.038462 201.9608 
L 159.038462 201.95652 
L 159.038462 202.27028 
L 157.828671 202.382308 
L 157.828671 202.538774 
L 157.828671 202.378921 
L 157.828671 202.531009 
L 156.618881 202.64285 
L 156.618881 202.642623 
L 156.618881 202.828306 
L 155.409091 202.940327 
L 155.409091 203.090219 
L 155.409091 202.920291 
L 155.409091 203.080791 
L 154.199301 203.191958 
L 154.199301 203.456553 
L 154.199301 203.44685 
L 152.98951 203.558301 
L 152.98951 203.775043 
L 152.98951 203.554391 
L 152.98951 203.763961 
L 151.77972 203.875667 
L 151.77972 204.152653 
L 151.77972 203.875606 
L 151.77972 204.147606 
L 150.56993 204.259541 
L 150.56993 204.258296 
L 150.56993 204.641448 
L 149.36014 204.752742 
L 149.36014 205.078068 
L 149.36014 205.073138 
L 148.15035 205.184616 
L 148.15035 205.452593 
L 148.15035 205.443172 
L 146.940559 205.438825 
L 146.940559 205.549248 
L 146.940559 205.81929 
L 146.940559 205.545303 
L 146.940559 205.816323 
L 145.730769 205.927962 
L 145.730769 206.253595 
L 145.730769 205.90571 
L 145.730769 206.221789 
L 144.520979 206.33323 
L 144.520979 206.616003 
L 144.520979 206.330526 
L 144.520979 206.614533 
L 143.311189 206.725983 
L 143.311189 207.031785 
L 143.311189 206.719026 
L 143.311189 207.028681 
L 142.101399 207.140048 
L 142.101399 207.458733 
L 142.101399 207.456211 
L 140.891608 207.567936 
L 140.891608 207.559642 
L 140.891608 207.962495 
L 139.681818 208.073989 
L 139.681818 208.397868 
L 139.681818 208.070144 
L 139.681818 208.394684 
L 138.472028 208.505954 
L 138.472028 208.93293 
L 137.262238 209.044576 
L 137.262238 209.441917 
L 136.052448 209.553461 
L 136.052448 209.95725 
L 136.052448 209.955052 
L 134.842657 210.066421 
L 134.842657 210.063168 
L 134.842657 210.372785 
L 133.632867 210.484183 
L 133.632867 210.903707 
L 133.632867 210.483175 
L 133.632867 210.901934 
L 132.423077 211.01319 
L 132.423077 211.463374 
L 132.423077 211.012514 
L 132.423077 211.454457 
L 131.213287 211.565781 
L 131.213287 212.098626 
L 131.213287 211.565705 
L 131.213287 212.097717 
L 130.003497 212.209033 
L 130.003497 212.740968 
L 130.003497 212.207176 
L 130.003497 212.737684 
L 128.793706 212.724911 
L 128.793706 212.846275 
L 128.793706 213.445012 
L 128.793706 212.84189 
L 128.793706 213.441665 
L 127.583916 213.552998 
L 127.583916 214.403457 
L 126.374126 214.51479 
L 126.374126 215.452791 
L 126.374126 214.513915 
L 126.374126 215.451602 
L 125.164336 215.562731 
L 125.164336 217.031211 
L 125.164336 215.561306 
L 125.164336 217.030229 
L 123.954545 217.141406 
L 123.954545 219.668654 
L 123.954545 219.661431 
" style="fill:none;stroke:#1f77b4;stroke-linecap:square;stroke-width:1.5;"/>
   </g>
   <g id="line2d_33">
    <defs>
     <path d="M 0 3 
C 0.795609 3 1.55874 2.683901 2.12132 2.12132 
C 2.683901 1.55874 3 0.795609 3 0 
C 3 -0.795609 2.683901 -1.55874 2.12132 -2.12132 
C 1.55874 -2.683901 0.795609 -3 0 -3 
C -0.795609 -3 -1.55874 -2.683901 -2.12132 -2.12132 
C -2.683901 -1.55874 -3 -0.795609 -3 0 
C -3 0.795609 -2.683901 1.55874 -2.12132 2.12132 
C -1.55874 2.683901 -0.795609 3 0 3 
z
" id="mba18e2d42e" style="stroke:#008000;stroke-opacity:0.5;"/>
    </defs>
    <g clip-path="url(#p816be92b18)">
     <use style="fill:#008000;fill-opacity:0.5;stroke:#008000;stroke-opacity:0.5;" x="130.003497" xlink:href="#mba18e2d42e" y="212.737684"/>
    </g>
   </g>
   <g id="line2d_34">
    <defs>
     <path d="M 0 3 
C 0.795609 3 1.55874 2.683901 2.12132 2.12132 
C 2.683901 1.55874 3 0.795609 3 0 
C 3 -0.795609 2.683901 -1.55874 2.12132 -2.12132 
C 1.55874 -2.683901 0.795609 -3 0 -3 
C -0.795609 -3 -1.55874 -2.683901 -2.12132 -2.12132 
C -2.683901 -1.55874 -3 -0.795609 -3 0 
C -3 0.795609 -2.683901 1.55874 -2.12132 2.12132 
C -1.55874 2.683901 -0.795609 3 0 3 
z
" id="m31076b6802" style="stroke:#ff0000;stroke-opacity:0.5;"/>
    </defs>
    <g clip-path="url(#p816be92b18)">
     <use style="fill:#ff0000;fill-opacity:0.5;stroke:#ff0000;stroke-opacity:0.5;" x="140.891608" xlink:href="#m31076b6802" y="207.962495"/>
    </g>
   </g>
   <g id="line2d_35">
    <defs>
     <path d="M 0 3 
C 0.795609 3 1.55874 2.683901 2.12132 2.12132 
C 2.683901 1.55874 3 0.795609 3 0 
C 3 -0.795609 2.683901 -1.55874 2.12132 -2.12132 
C 1.55874 -2.683901 0.795609 -3 0 -3 
C -0.795609 -3 -1.55874 -2.683901 -2.12132 -2.12132 
C -2.683901 -1.55874 -3 -0.795609 -3 0 
C -3 0.795609 -2.683901 1.55874 -2.12132 2.12132 
C -1.55874 2.683901 -0.795609 3 0 3 
z
" id="mbbce0f3b3b" style="stroke:#0000ff;stroke-opacity:0.5;"/>
    </defs>
    <g clip-path="url(#p816be92b18)">
     <use style="fill:#0000ff;fill-opacity:0.5;stroke:#0000ff;stroke-opacity:0.5;" x="407.65035" xlink:href="#mbbce0f3b3b" y="171.614072"/>
    </g>
   </g>
   <g id="patch_8">
    <path d="M 109.8 246.2 
L 109.8 83.32 
" style="fill:none;stroke:#000000;stroke-linecap:square;stroke-linejoin:miter;stroke-width:0.8;"/>
   </g>
   <g id="patch_9">
    <path d="M 421.2 246.2 
L 421.2 83.32 
" style="fill:none;stroke:#000000;stroke-linecap:square;stroke-linejoin:miter;stroke-width:0.8;"/>
   </g>
   <g id="patch_10">
    <path d="M 109.8 246.2 
L 421.2 246.2 
" style="fill:none;stroke:#000000;stroke-linecap:square;stroke-linejoin:miter;stroke-width:0.8;"/>
   </g>
   <g id="patch_11">
    <path d="M 109.8 83.32 
L 421.2 83.32 
" style="fill:none;stroke:#000000;stroke-linecap:square;stroke-linejoin:miter;stroke-width:0.8;"/>
   </g>
   <g id="text_23">
    <!-- 12.3% -->
    <defs>
     <path d="M 10.6875 12.40625 
L 21 12.40625 
L 21 0 
L 10.6875 0 
z
" id="DejaVuSans-46"/>
    </defs>
    <g transform="translate(114.119903 237.214392)scale(0.1 -0.1)">
     <use xlink:href="#DejaVuSans-49"/>
     <use x="63.623047" xlink:href="#DejaVuSans-50"/>
     <use x="127.246094" xlink:href="#DejaVuSans-46"/>
     <use x="159.033203" xlink:href="#DejaVuSans-51"/>
     <use x="222.65625" xlink:href="#DejaVuSans-37"/>
    </g>
   </g>
   <g id="text_24">
    <!-- 14.1% -->
    <g transform="translate(125.008015 197.148537)scale(0.1 -0.1)">
     <use xlink:href="#DejaVuSans-49"/>
     <use x="63.623047" xlink:href="#DejaVuSans-52"/>
     <use x="127.246094" xlink:href="#DejaVuSans-46"/>
     <use x="159.033203" xlink:href="#DejaVuSans-49"/>
     <use x="222.65625" xlink:href="#DejaVuSans-37"/>
    </g>
   </g>
   <g id="text_25">
    <!-- 27.5% -->
    <defs>
     <path d="M 8.203125 72.90625 
L 55.078125 72.90625 
L 55.078125 68.703125 
L 28.609375 0 
L 18.3125 0 
L 43.21875 64.59375 
L 8.203125 64.59375 
z
" id="DejaVuSans-55"/>
    </defs>
    <g transform="translate(377.521476 187.94678)scale(0.1 -0.1)">
     <use xlink:href="#DejaVuSans-50"/>
     <use x="63.623047" xlink:href="#DejaVuSans-55"/>
     <use x="127.246094" xlink:href="#DejaVuSans-46"/>
     <use x="159.033203" xlink:href="#DejaVuSans-53"/>
     <use x="222.65625" xlink:href="#DejaVuSans-37"/>
    </g>
   </g>
   <g id="text_26">
    <!-- (b) -->
    <defs>
     <path d="M 48.6875 27.296875 
Q 48.6875 37.203125 44.609375 42.84375 
Q 40.53125 48.484375 33.40625 48.484375 
Q 26.265625 48.484375 22.1875 42.84375 
Q 18.109375 37.203125 18.109375 27.296875 
Q 18.109375 17.390625 22.1875 11.75 
Q 26.265625 6.109375 33.40625 6.109375 
Q 40.53125 6.109375 44.609375 11.75 
Q 48.6875 17.390625 48.6875 27.296875 
z
M 18.109375 46.390625 
Q 20.953125 51.265625 25.265625 53.625 
Q 29.59375 56 35.59375 56 
Q 45.5625 56 51.78125 48.09375 
Q 58.015625 40.1875 58.015625 27.296875 
Q 58.015625 14.40625 51.78125 6.484375 
Q 45.5625 -1.421875 35.59375 -1.421875 
Q 29.59375 -1.421875 25.265625 0.953125 
Q 20.953125 3.328125 18.109375 8.203125 
L 18.109375 0 
L 9.078125 0 
L 9.078125 75.984375 
L 18.109375 75.984375 
z
" id="DejaVuSans-98"/>
    </defs>
    <g transform="translate(404.218125 95.2368)scale(0.12 -0.12)">
     <use xlink:href="#DejaVuSans-40"/>
     <use x="39.013672" xlink:href="#DejaVuSans-98"/>
     <use x="102.490234" xlink:href="#DejaVuSans-41"/>
    </g>
   </g>
  </g>
 </g>
 <defs>
  <clipPath id="p625f26840a">
   <rect height="40.72" width="311.4" x="109.8" y="10.8"/>
  </clipPath>
  <clipPath id="p816be92b18">
   <rect height="162.88" width="311.4" x="109.8" y="83.32"/>
  </clipPath>
 </defs>
</svg>
