<?xml version="1.0" encoding="utf-8" standalone="no"?>
<!DOCTYPE svg PUBLIC "-//W3C//DTD SVG 1.1//EN"
  "http://www.w3.org/Graphics/SVG/1.1/DTD/svg11.dtd">
<!-- Created with matplotlib (https://matplotlib.org/) -->
<svg height="288pt" version="1.1" viewBox="0 0 432 288" width="432pt" xmlns="http://www.w3.org/2000/svg" xmlns:xlink="http://www.w3.org/1999/xlink">
 <defs>
  <style type="text/css">
*{stroke-linecap:butt;stroke-linejoin:round;}
  </style>
 </defs>
 <g id="figure_1">
  <g id="patch_1">
   <path d="M 0 288 
L 432 288 
L 432 0 
L 0 0 
z
" style="fill:#ffffff;"/>
  </g>
  <g id="axes_1">
   <g id="patch_2">
    <path d="M 109.8 51.52 
L 421.2 51.52 
L 421.2 10.8 
L 109.8 10.8 
z
" style="fill:#ffffff;"/>
   </g>
   <g id="matplotlib.axis_1">
    <g id="xtick_1">
     <g id="line2d_1">
      <defs>
       <path d="M 0 0 
L 0 3.5 
" id="mfbb4bd2fd0" style="stroke:#000000;stroke-width:0.8;"/>
      </defs>
      <g>
       <use style="stroke:#000000;stroke-width:0.8;" x="123.954545" xlink:href="#mfbb4bd2fd0" y="51.52"/>
      </g>
     </g>
     <g id="text_1">
      <!-- 0 -->
      <defs>
       <path d="M 31.78125 66.40625 
Q 24.171875 66.40625 20.328125 58.90625 
Q 16.5 51.421875 16.5 36.375 
Q 16.5 21.390625 20.328125 13.890625 
Q 24.171875 6.390625 31.78125 6.390625 
Q 39.453125 6.390625 43.28125 13.890625 
Q 47.125 21.390625 47.125 36.375 
Q 47.125 51.421875 43.28125 58.90625 
Q 39.453125 66.40625 31.78125 66.40625 
z
M 31.78125 74.21875 
Q 44.046875 74.21875 50.515625 64.515625 
Q 56.984375 54.828125 56.984375 36.375 
Q 56.984375 17.96875 50.515625 8.265625 
Q 44.046875 -1.421875 31.78125 -1.421875 
Q 19.53125 -1.421875 13.0625 8.265625 
Q 6.59375 17.96875 6.59375 36.375 
Q 6.59375 54.828125 13.0625 64.515625 
Q 19.53125 74.21875 31.78125 74.21875 
z
" id="DejaVuSans-48"/>
      </defs>
      <g transform="translate(120.773295 66.118437)scale(0.1 -0.1)">
       <use xlink:href="#DejaVuSans-48"/>
      </g>
     </g>
    </g>
    <g id="xtick_2">
     <g id="line2d_2">
      <g>
       <use style="stroke:#000000;stroke-width:0.8;" x="191.842054" xlink:href="#mfbb4bd2fd0" y="51.52"/>
      </g>
     </g>
     <g id="text_2">
      <!-- 100 -->
      <defs>
       <path d="M 12.40625 8.296875 
L 28.515625 8.296875 
L 28.515625 63.921875 
L 10.984375 60.40625 
L 10.984375 69.390625 
L 28.421875 72.90625 
L 38.28125 72.90625 
L 38.28125 8.296875 
L 54.390625 8.296875 
L 54.390625 0 
L 12.40625 0 
z
" id="DejaVuSans-49"/>
      </defs>
      <g transform="translate(182.298304 66.118437)scale(0.1 -0.1)">
       <use xlink:href="#DejaVuSans-49"/>
       <use x="63.623047" xlink:href="#DejaVuSans-48"/>
       <use x="127.246094" xlink:href="#DejaVuSans-48"/>
      </g>
     </g>
    </g>
    <g id="xtick_3">
     <g id="line2d_3">
      <g>
       <use style="stroke:#000000;stroke-width:0.8;" x="259.729562" xlink:href="#mfbb4bd2fd0" y="51.52"/>
      </g>
     </g>
     <g id="text_3">
      <!-- 200 -->
      <defs>
       <path d="M 19.1875 8.296875 
L 53.609375 8.296875 
L 53.609375 0 
L 7.328125 0 
L 7.328125 8.296875 
Q 12.9375 14.109375 22.625 23.890625 
Q 32.328125 33.6875 34.8125 36.53125 
Q 39.546875 41.84375 41.421875 45.53125 
Q 43.3125 49.21875 43.3125 52.78125 
Q 43.3125 58.59375 39.234375 62.25 
Q 35.15625 65.921875 28.609375 65.921875 
Q 23.96875 65.921875 18.8125 64.3125 
Q 13.671875 62.703125 7.8125 59.421875 
L 7.8125 69.390625 
Q 13.765625 71.78125 18.9375 73 
Q 24.125 74.21875 28.421875 74.21875 
Q 39.75 74.21875 46.484375 68.546875 
Q 53.21875 62.890625 53.21875 53.421875 
Q 53.21875 48.921875 51.53125 44.890625 
Q 49.859375 40.875 45.40625 35.40625 
Q 44.1875 33.984375 37.640625 27.21875 
Q 31.109375 20.453125 19.1875 8.296875 
z
" id="DejaVuSans-50"/>
      </defs>
      <g transform="translate(250.185812 66.118437)scale(0.1 -0.1)">
       <use xlink:href="#DejaVuSans-50"/>
       <use x="63.623047" xlink:href="#DejaVuSans-48"/>
       <use x="127.246094" xlink:href="#DejaVuSans-48"/>
      </g>
     </g>
    </g>
    <g id="xtick_4">
     <g id="line2d_4">
      <g>
       <use style="stroke:#000000;stroke-width:0.8;" x="327.61707" xlink:href="#mfbb4bd2fd0" y="51.52"/>
      </g>
     </g>
     <g id="text_4">
      <!-- 300 -->
      <defs>
       <path d="M 40.578125 39.3125 
Q 47.65625 37.796875 51.625 33 
Q 55.609375 28.21875 55.609375 21.1875 
Q 55.609375 10.40625 48.1875 4.484375 
Q 40.765625 -1.421875 27.09375 -1.421875 
Q 22.515625 -1.421875 17.65625 -0.515625 
Q 12.796875 0.390625 7.625 2.203125 
L 7.625 11.71875 
Q 11.71875 9.328125 16.59375 8.109375 
Q 21.484375 6.890625 26.8125 6.890625 
Q 36.078125 6.890625 40.9375 10.546875 
Q 45.796875 14.203125 45.796875 21.1875 
Q 45.796875 27.640625 41.28125 31.265625 
Q 36.765625 34.90625 28.71875 34.90625 
L 20.21875 34.90625 
L 20.21875 43.015625 
L 29.109375 43.015625 
Q 36.375 43.015625 40.234375 45.921875 
Q 44.09375 48.828125 44.09375 54.296875 
Q 44.09375 59.90625 40.109375 62.90625 
Q 36.140625 65.921875 28.71875 65.921875 
Q 24.65625 65.921875 20.015625 65.03125 
Q 15.375 64.15625 9.8125 62.3125 
L 9.8125 71.09375 
Q 15.4375 72.65625 20.34375 73.4375 
Q 25.25 74.21875 29.59375 74.21875 
Q 40.828125 74.21875 47.359375 69.109375 
Q 53.90625 64.015625 53.90625 55.328125 
Q 53.90625 49.265625 50.4375 45.09375 
Q 46.96875 40.921875 40.578125 39.3125 
z
" id="DejaVuSans-51"/>
      </defs>
      <g transform="translate(318.07332 66.118437)scale(0.1 -0.1)">
       <use xlink:href="#DejaVuSans-51"/>
       <use x="63.623047" xlink:href="#DejaVuSans-48"/>
       <use x="127.246094" xlink:href="#DejaVuSans-48"/>
      </g>
     </g>
    </g>
    <g id="xtick_5">
     <g id="line2d_5">
      <g>
       <use style="stroke:#000000;stroke-width:0.8;" x="395.504578" xlink:href="#mfbb4bd2fd0" y="51.52"/>
      </g>
     </g>
     <g id="text_5">
      <!-- 400 -->
      <defs>
       <path d="M 37.796875 64.3125 
L 12.890625 25.390625 
L 37.796875 25.390625 
z
M 35.203125 72.90625 
L 47.609375 72.90625 
L 47.609375 25.390625 
L 58.015625 25.390625 
L 58.015625 17.1875 
L 47.609375 17.1875 
L 47.609375 0 
L 37.796875 0 
L 37.796875 17.1875 
L 4.890625 17.1875 
L 4.890625 26.703125 
z
" id="DejaVuSans-52"/>
      </defs>
      <g transform="translate(385.960828 66.118437)scale(0.1 -0.1)">
       <use xlink:href="#DejaVuSans-52"/>
       <use x="63.623047" xlink:href="#DejaVuSans-48"/>
       <use x="127.246094" xlink:href="#DejaVuSans-48"/>
      </g>
     </g>
    </g>
   </g>
   <g id="matplotlib.axis_2">
    <g id="ytick_1">
     <g id="line2d_6">
      <defs>
       <path d="M 0 0 
L -3.5 0 
" id="m2ac39ef1ed" style="stroke:#000000;stroke-width:0.8;"/>
      </defs>
      <g>
       <use style="stroke:#000000;stroke-width:0.8;" x="109.8" xlink:href="#m2ac39ef1ed" y="41.34"/>
      </g>
     </g>
     <g id="text_6">
      <!-- With conflicts -->
      <defs>
       <path d="M 3.328125 72.90625 
L 13.28125 72.90625 
L 28.609375 11.28125 
L 43.890625 72.90625 
L 54.984375 72.90625 
L 70.3125 11.28125 
L 85.59375 72.90625 
L 95.609375 72.90625 
L 77.296875 0 
L 64.890625 0 
L 49.515625 63.28125 
L 33.984375 0 
L 21.578125 0 
z
" id="DejaVuSans-87"/>
       <path d="M 9.421875 54.6875 
L 18.40625 54.6875 
L 18.40625 0 
L 9.421875 0 
z
M 9.421875 75.984375 
L 18.40625 75.984375 
L 18.40625 64.59375 
L 9.421875 64.59375 
z
" id="DejaVuSans-105"/>
       <path d="M 18.3125 70.21875 
L 18.3125 54.6875 
L 36.8125 54.6875 
L 36.8125 47.703125 
L 18.3125 47.703125 
L 18.3125 18.015625 
Q 18.3125 11.328125 20.140625 9.421875 
Q 21.96875 7.515625 27.59375 7.515625 
L 36.8125 7.515625 
L 36.8125 0 
L 27.59375 0 
Q 17.1875 0 13.234375 3.875 
Q 9.28125 7.765625 9.28125 18.015625 
L 9.28125 47.703125 
L 2.6875 47.703125 
L 2.6875 54.6875 
L 9.28125 54.6875 
L 9.28125 70.21875 
z
" id="DejaVuSans-116"/>
       <path d="M 54.890625 33.015625 
L 54.890625 0 
L 45.90625 0 
L 45.90625 32.71875 
Q 45.90625 40.484375 42.875 44.328125 
Q 39.84375 48.1875 33.796875 48.1875 
Q 26.515625 48.1875 22.3125 43.546875 
Q 18.109375 38.921875 18.109375 30.90625 
L 18.109375 0 
L 9.078125 0 
L 9.078125 75.984375 
L 18.109375 75.984375 
L 18.109375 46.1875 
Q 21.34375 51.125 25.703125 53.5625 
Q 30.078125 56 35.796875 56 
Q 45.21875 56 50.046875 50.171875 
Q 54.890625 44.34375 54.890625 33.015625 
z
" id="DejaVuSans-104"/>
       <path id="DejaVuSans-32"/>
       <path d="M 48.78125 52.59375 
L 48.78125 44.1875 
Q 44.96875 46.296875 41.140625 47.34375 
Q 37.3125 48.390625 33.40625 48.390625 
Q 24.65625 48.390625 19.8125 42.84375 
Q 14.984375 37.3125 14.984375 27.296875 
Q 14.984375 17.28125 19.8125 11.734375 
Q 24.65625 6.203125 33.40625 6.203125 
Q 37.3125 6.203125 41.140625 7.25 
Q 44.96875 8.296875 48.78125 10.40625 
L 48.78125 2.09375 
Q 45.015625 0.34375 40.984375 -0.53125 
Q 36.96875 -1.421875 32.421875 -1.421875 
Q 20.0625 -1.421875 12.78125 6.34375 
Q 5.515625 14.109375 5.515625 27.296875 
Q 5.515625 40.671875 12.859375 48.328125 
Q 20.21875 56 33.015625 56 
Q 37.15625 56 41.109375 55.140625 
Q 45.0625 54.296875 48.78125 52.59375 
z
" id="DejaVuSans-99"/>
       <path d="M 30.609375 48.390625 
Q 23.390625 48.390625 19.1875 42.75 
Q 14.984375 37.109375 14.984375 27.296875 
Q 14.984375 17.484375 19.15625 11.84375 
Q 23.34375 6.203125 30.609375 6.203125 
Q 37.796875 6.203125 41.984375 11.859375 
Q 46.1875 17.53125 46.1875 27.296875 
Q 46.1875 37.015625 41.984375 42.703125 
Q 37.796875 48.390625 30.609375 48.390625 
z
M 30.609375 56 
Q 42.328125 56 49.015625 48.375 
Q 55.71875 40.765625 55.71875 27.296875 
Q 55.71875 13.875 49.015625 6.21875 
Q 42.328125 -1.421875 30.609375 -1.421875 
Q 18.84375 -1.421875 12.171875 6.21875 
Q 5.515625 13.875 5.515625 27.296875 
Q 5.515625 40.765625 12.171875 48.375 
Q 18.84375 56 30.609375 56 
z
" id="DejaVuSans-111"/>
       <path d="M 54.890625 33.015625 
L 54.890625 0 
L 45.90625 0 
L 45.90625 32.71875 
Q 45.90625 40.484375 42.875 44.328125 
Q 39.84375 48.1875 33.796875 48.1875 
Q 26.515625 48.1875 22.3125 43.546875 
Q 18.109375 38.921875 18.109375 30.90625 
L 18.109375 0 
L 9.078125 0 
L 9.078125 54.6875 
L 18.109375 54.6875 
L 18.109375 46.1875 
Q 21.34375 51.125 25.703125 53.5625 
Q 30.078125 56 35.796875 56 
Q 45.21875 56 50.046875 50.171875 
Q 54.890625 44.34375 54.890625 33.015625 
z
" id="DejaVuSans-110"/>
       <path d="M 37.109375 75.984375 
L 37.109375 68.5 
L 28.515625 68.5 
Q 23.6875 68.5 21.796875 66.546875 
Q 19.921875 64.59375 19.921875 59.515625 
L 19.921875 54.6875 
L 34.71875 54.6875 
L 34.71875 47.703125 
L 19.921875 47.703125 
L 19.921875 0 
L 10.890625 0 
L 10.890625 47.703125 
L 2.296875 47.703125 
L 2.296875 54.6875 
L 10.890625 54.6875 
L 10.890625 58.5 
Q 10.890625 67.625 15.140625 71.796875 
Q 19.390625 75.984375 28.609375 75.984375 
z
" id="DejaVuSans-102"/>
       <path d="M 9.421875 75.984375 
L 18.40625 75.984375 
L 18.40625 0 
L 9.421875 0 
z
" id="DejaVuSans-108"/>
       <path d="M 44.28125 53.078125 
L 44.28125 44.578125 
Q 40.484375 46.53125 36.375 47.5 
Q 32.28125 48.484375 27.875 48.484375 
Q 21.1875 48.484375 17.84375 46.4375 
Q 14.5 44.390625 14.5 40.28125 
Q 14.5 37.15625 16.890625 35.375 
Q 19.28125 33.59375 26.515625 31.984375 
L 29.59375 31.296875 
Q 39.15625 29.25 43.1875 25.515625 
Q 47.21875 21.78125 47.21875 15.09375 
Q 47.21875 7.46875 41.1875 3.015625 
Q 35.15625 -1.421875 24.609375 -1.421875 
Q 20.21875 -1.421875 15.453125 -0.5625 
Q 10.6875 0.296875 5.421875 2 
L 5.421875 11.28125 
Q 10.40625 8.6875 15.234375 7.390625 
Q 20.0625 6.109375 24.8125 6.109375 
Q 31.15625 6.109375 34.5625 8.28125 
Q 37.984375 10.453125 37.984375 14.40625 
Q 37.984375 18.0625 35.515625 20.015625 
Q 33.0625 21.96875 24.703125 23.78125 
L 21.578125 24.515625 
Q 13.234375 26.265625 9.515625 29.90625 
Q 5.8125 33.546875 5.8125 39.890625 
Q 5.8125 47.609375 11.28125 51.796875 
Q 16.75 56 26.8125 56 
Q 31.78125 56 36.171875 55.265625 
Q 40.578125 54.546875 44.28125 53.078125 
z
" id="DejaVuSans-115"/>
      </defs>
      <g transform="translate(35.042187 45.139219)scale(0.1 -0.1)">
       <use xlink:href="#DejaVuSans-87"/>
       <use x="98.845703" xlink:href="#DejaVuSans-105"/>
       <use x="126.628906" xlink:href="#DejaVuSans-116"/>
       <use x="165.837891" xlink:href="#DejaVuSans-104"/>
       <use x="229.216797" xlink:href="#DejaVuSans-32"/>
       <use x="261.003906" xlink:href="#DejaVuSans-99"/>
       <use x="315.984375" xlink:href="#DejaVuSans-111"/>
       <use x="377.166016" xlink:href="#DejaVuSans-110"/>
       <use x="440.544922" xlink:href="#DejaVuSans-102"/>
       <use x="475.75" xlink:href="#DejaVuSans-108"/>
       <use x="503.533203" xlink:href="#DejaVuSans-105"/>
       <use x="531.316406" xlink:href="#DejaVuSans-99"/>
       <use x="586.296875" xlink:href="#DejaVuSans-116"/>
       <use x="625.505859" xlink:href="#DejaVuSans-115"/>
      </g>
     </g>
    </g>
    <g id="ytick_2">
     <g id="line2d_7">
      <g>
       <use style="stroke:#000000;stroke-width:0.8;" x="109.8" xlink:href="#m2ac39ef1ed" y="20.98"/>
      </g>
     </g>
     <g id="text_7">
      <!-- Without conflicts -->
      <defs>
       <path d="M 8.5 21.578125 
L 8.5 54.6875 
L 17.484375 54.6875 
L 17.484375 21.921875 
Q 17.484375 14.15625 20.5 10.265625 
Q 23.53125 6.390625 29.59375 6.390625 
Q 36.859375 6.390625 41.078125 11.03125 
Q 45.3125 15.671875 45.3125 23.6875 
L 45.3125 54.6875 
L 54.296875 54.6875 
L 54.296875 0 
L 45.3125 0 
L 45.3125 8.40625 
Q 42.046875 3.421875 37.71875 1 
Q 33.40625 -1.421875 27.6875 -1.421875 
Q 18.265625 -1.421875 13.375 4.4375 
Q 8.5 10.296875 8.5 21.578125 
z
M 31.109375 56 
z
" id="DejaVuSans-117"/>
      </defs>
      <g transform="translate(18.665625 24.779219)scale(0.1 -0.1)">
       <use xlink:href="#DejaVuSans-87"/>
       <use x="98.845703" xlink:href="#DejaVuSans-105"/>
       <use x="126.628906" xlink:href="#DejaVuSans-116"/>
       <use x="165.837891" xlink:href="#DejaVuSans-104"/>
       <use x="229.216797" xlink:href="#DejaVuSans-111"/>
       <use x="290.398438" xlink:href="#DejaVuSans-117"/>
       <use x="353.777344" xlink:href="#DejaVuSans-116"/>
       <use x="392.986328" xlink:href="#DejaVuSans-32"/>
       <use x="424.773438" xlink:href="#DejaVuSans-99"/>
       <use x="479.753906" xlink:href="#DejaVuSans-111"/>
       <use x="540.935547" xlink:href="#DejaVuSans-110"/>
       <use x="604.314453" xlink:href="#DejaVuSans-102"/>
       <use x="639.519531" xlink:href="#DejaVuSans-108"/>
       <use x="667.302734" xlink:href="#DejaVuSans-105"/>
       <use x="695.085938" xlink:href="#DejaVuSans-99"/>
       <use x="750.066406" xlink:href="#DejaVuSans-116"/>
       <use x="789.275391" xlink:href="#DejaVuSans-115"/>
      </g>
     </g>
    </g>
   </g>
   <g id="line2d_8">
    <path clip-path="url(#p01afc78db7)" d="M 128.706671 47.448 
L 128.706671 35.232 
L 240.042184 35.232 
L 240.042184 47.448 
L 128.706671 47.448 
" style="fill:none;stroke:#1f77b4;stroke-linecap:square;"/>
   </g>
   <g id="line2d_9">
    <path clip-path="url(#p01afc78db7)" d="M 128.706671 41.34 
L 124.633421 41.34 
" style="fill:none;stroke:#1f77b4;stroke-linecap:square;"/>
   </g>
   <g id="line2d_10">
    <path clip-path="url(#p01afc78db7)" d="M 240.042184 41.34 
L 407.045455 41.34 
" style="fill:none;stroke:#1f77b4;stroke-linecap:square;"/>
   </g>
   <g id="line2d_11">
    <path clip-path="url(#p01afc78db7)" d="M 124.633421 44.394 
L 124.633421 38.286 
" style="fill:none;stroke:#000000;stroke-linecap:square;"/>
   </g>
   <g id="line2d_12">
    <path clip-path="url(#p01afc78db7)" d="M 407.045455 44.394 
L 407.045455 38.286 
" style="fill:none;stroke:#000000;stroke-linecap:square;"/>
   </g>
   <g id="line2d_13">
    <path clip-path="url(#p01afc78db7)" d="M 125.991171 27.088 
L 125.991171 14.872 
L 153.825049 14.872 
L 153.825049 27.088 
L 125.991171 27.088 
" style="fill:none;stroke:#1f77b4;stroke-linecap:square;"/>
   </g>
   <g id="line2d_14">
    <path clip-path="url(#p01afc78db7)" d="M 125.991171 20.98 
L 123.954545 20.98 
" style="fill:none;stroke:#1f77b4;stroke-linecap:square;"/>
   </g>
   <g id="line2d_15">
    <path clip-path="url(#p01afc78db7)" d="M 153.825049 20.98 
L 195.236429 20.98 
" style="fill:none;stroke:#1f77b4;stroke-linecap:square;"/>
   </g>
   <g id="line2d_16">
    <path clip-path="url(#p01afc78db7)" d="M 123.954545 24.034 
L 123.954545 17.926 
" style="fill:none;stroke:#000000;stroke-linecap:square;"/>
   </g>
   <g id="line2d_17">
    <path clip-path="url(#p01afc78db7)" d="M 195.236429 24.034 
L 195.236429 17.926 
" style="fill:none;stroke:#000000;stroke-linecap:square;"/>
   </g>
   <g id="line2d_18">
    <path clip-path="url(#p01afc78db7)" d="M 144.320798 47.448 
L 144.320798 35.232 
" style="fill:none;stroke:#2ca02c;stroke-linecap:square;"/>
   </g>
   <g id="line2d_19">
    <path clip-path="url(#p01afc78db7)" d="M 130.743296 27.088 
L 130.743296 14.872 
" style="fill:none;stroke:#2ca02c;stroke-linecap:square;"/>
   </g>
   <g id="patch_3">
    <path d="M 109.8 51.52 
L 109.8 10.8 
" style="fill:none;stroke:#000000;stroke-linecap:square;stroke-linejoin:miter;stroke-width:0.8;"/>
   </g>
   <g id="patch_4">
    <path d="M 421.2 51.52 
L 421.2 10.8 
" style="fill:none;stroke:#000000;stroke-linecap:square;stroke-linejoin:miter;stroke-width:0.8;"/>
   </g>
   <g id="patch_5">
    <path d="M 109.8 51.52 
L 421.2 51.52 
" style="fill:none;stroke:#000000;stroke-linecap:square;stroke-linejoin:miter;stroke-width:0.8;"/>
   </g>
   <g id="patch_6">
    <path d="M 109.8 10.8 
L 421.2 10.8 
" style="fill:none;stroke:#000000;stroke-linecap:square;stroke-linejoin:miter;stroke-width:0.8;"/>
   </g>
   <g id="text_8">
    <!-- (a) -->
    <defs>
     <path d="M 31 75.875 
Q 24.46875 64.65625 21.28125 53.65625 
Q 18.109375 42.671875 18.109375 31.390625 
Q 18.109375 20.125 21.3125 9.0625 
Q 24.515625 -2 31 -13.1875 
L 23.1875 -13.1875 
Q 15.875 -1.703125 12.234375 9.375 
Q 8.59375 20.453125 8.59375 31.390625 
Q 8.59375 42.28125 12.203125 53.3125 
Q 15.828125 64.359375 23.1875 75.875 
z
" id="DejaVuSans-40"/>
     <path d="M 34.28125 27.484375 
Q 23.390625 27.484375 19.1875 25 
Q 14.984375 22.515625 14.984375 16.5 
Q 14.984375 11.71875 18.140625 8.90625 
Q 21.296875 6.109375 26.703125 6.109375 
Q 34.1875 6.109375 38.703125 11.40625 
Q 43.21875 16.703125 43.21875 25.484375 
L 43.21875 27.484375 
z
M 52.203125 31.203125 
L 52.203125 0 
L 43.21875 0 
L 43.21875 8.296875 
Q 40.140625 3.328125 35.546875 0.953125 
Q 30.953125 -1.421875 24.3125 -1.421875 
Q 15.921875 -1.421875 10.953125 3.296875 
Q 6 8.015625 6 15.921875 
Q 6 25.140625 12.171875 29.828125 
Q 18.359375 34.515625 30.609375 34.515625 
L 43.21875 34.515625 
L 43.21875 35.40625 
Q 43.21875 41.609375 39.140625 45 
Q 35.0625 48.390625 27.6875 48.390625 
Q 23 48.390625 18.546875 47.265625 
Q 14.109375 46.140625 10.015625 43.890625 
L 10.015625 52.203125 
Q 14.9375 54.109375 19.578125 55.046875 
Q 24.21875 56 28.609375 56 
Q 40.484375 56 46.34375 49.84375 
Q 52.203125 43.703125 52.203125 31.203125 
z
" id="DejaVuSans-97"/>
     <path d="M 8.015625 75.875 
L 15.828125 75.875 
Q 23.140625 64.359375 26.78125 53.3125 
Q 30.421875 42.28125 30.421875 31.390625 
Q 30.421875 20.453125 26.78125 9.375 
Q 23.140625 -1.703125 15.828125 -13.1875 
L 8.015625 -13.1875 
Q 14.5 -2 17.703125 9.0625 
Q 20.90625 20.125 20.90625 31.390625 
Q 20.90625 42.671875 17.703125 53.65625 
Q 14.5 64.65625 8.015625 75.875 
z
" id="DejaVuSans-41"/>
    </defs>
    <g transform="translate(404.4825 23.124)scale(0.12 -0.12)">
     <use xlink:href="#DejaVuSans-40"/>
     <use x="39.013672" xlink:href="#DejaVuSans-97"/>
     <use x="100.292969" xlink:href="#DejaVuSans-41"/>
    </g>
   </g>
  </g>
  <g id="axes_2">
   <g id="patch_7">
    <path d="M 109.8 246.2 
L 421.2 246.2 
L 421.2 83.32 
L 109.8 83.32 
z
" style="fill:#ffffff;"/>
   </g>
   <g id="matplotlib.axis_3">
    <g id="xtick_6">
     <g id="line2d_20">
      <g>
       <use style="stroke:#000000;stroke-width:0.8;" x="123.954545" xlink:href="#mfbb4bd2fd0" y="246.2"/>
      </g>
     </g>
     <g id="text_9">
      <!-- 0 -->
      <g transform="translate(120.773295 260.798437)scale(0.1 -0.1)">
       <use xlink:href="#DejaVuSans-48"/>
      </g>
     </g>
    </g>
    <g id="xtick_7">
     <g id="line2d_21">
      <g>
       <use style="stroke:#000000;stroke-width:0.8;" x="191.842054" xlink:href="#mfbb4bd2fd0" y="246.2"/>
      </g>
     </g>
     <g id="text_10">
      <!-- 100 -->
      <g transform="translate(182.298304 260.798437)scale(0.1 -0.1)">
       <use xlink:href="#DejaVuSans-49"/>
       <use x="63.623047" xlink:href="#DejaVuSans-48"/>
       <use x="127.246094" xlink:href="#DejaVuSans-48"/>
      </g>
     </g>
    </g>
    <g id="xtick_8">
     <g id="line2d_22">
      <g>
       <use style="stroke:#000000;stroke-width:0.8;" x="259.729562" xlink:href="#mfbb4bd2fd0" y="246.2"/>
      </g>
     </g>
     <g id="text_11">
      <!-- 200 -->
      <g transform="translate(250.185812 260.798437)scale(0.1 -0.1)">
       <use xlink:href="#DejaVuSans-50"/>
       <use x="63.623047" xlink:href="#DejaVuSans-48"/>
       <use x="127.246094" xlink:href="#DejaVuSans-48"/>
      </g>
     </g>
    </g>
    <g id="xtick_9">
     <g id="line2d_23">
      <g>
       <use style="stroke:#000000;stroke-width:0.8;" x="327.61707" xlink:href="#mfbb4bd2fd0" y="246.2"/>
      </g>
     </g>
     <g id="text_12">
      <!-- 300 -->
      <g transform="translate(318.07332 260.798437)scale(0.1 -0.1)">
       <use xlink:href="#DejaVuSans-51"/>
       <use x="63.623047" xlink:href="#DejaVuSans-48"/>
       <use x="127.246094" xlink:href="#DejaVuSans-48"/>
      </g>
     </g>
    </g>
    <g id="xtick_10">
     <g id="line2d_24">
      <g>
       <use style="stroke:#000000;stroke-width:0.8;" x="395.504578" xlink:href="#mfbb4bd2fd0" y="246.2"/>
      </g>
     </g>
     <g id="text_13">
      <!-- 400 -->
      <g transform="translate(385.960828 260.798437)scale(0.1 -0.1)">
       <use xlink:href="#DejaVuSans-52"/>
       <use x="63.623047" xlink:href="#DejaVuSans-48"/>
       <use x="127.246094" xlink:href="#DejaVuSans-48"/>
      </g>
     </g>
    </g>
    <g id="text_14">
     <!-- (g) changed-files B1 -->
     <defs>
      <path d="M 45.40625 27.984375 
Q 45.40625 37.75 41.375 43.109375 
Q 37.359375 48.484375 30.078125 48.484375 
Q 22.859375 48.484375 18.828125 43.109375 
Q 14.796875 37.75 14.796875 27.984375 
Q 14.796875 18.265625 18.828125 12.890625 
Q 22.859375 7.515625 30.078125 7.515625 
Q 37.359375 7.515625 41.375 12.890625 
Q 45.40625 18.265625 45.40625 27.984375 
z
M 54.390625 6.78125 
Q 54.390625 -7.171875 48.1875 -13.984375 
Q 42 -20.796875 29.203125 -20.796875 
Q 24.46875 -20.796875 20.265625 -20.09375 
Q 16.0625 -19.390625 12.109375 -17.921875 
L 12.109375 -9.1875 
Q 16.0625 -11.328125 19.921875 -12.34375 
Q 23.78125 -13.375 27.78125 -13.375 
Q 36.625 -13.375 41.015625 -8.765625 
Q 45.40625 -4.15625 45.40625 5.171875 
L 45.40625 9.625 
Q 42.625 4.78125 38.28125 2.390625 
Q 33.9375 0 27.875 0 
Q 17.828125 0 11.671875 7.65625 
Q 5.515625 15.328125 5.515625 27.984375 
Q 5.515625 40.671875 11.671875 48.328125 
Q 17.828125 56 27.875 56 
Q 33.9375 56 38.28125 53.609375 
Q 42.625 51.21875 45.40625 46.390625 
L 45.40625 54.6875 
L 54.390625 54.6875 
z
" id="DejaVuSans-103"/>
      <path d="M 56.203125 29.59375 
L 56.203125 25.203125 
L 14.890625 25.203125 
Q 15.484375 15.921875 20.484375 11.0625 
Q 25.484375 6.203125 34.421875 6.203125 
Q 39.59375 6.203125 44.453125 7.46875 
Q 49.3125 8.734375 54.109375 11.28125 
L 54.109375 2.78125 
Q 49.265625 0.734375 44.1875 -0.34375 
Q 39.109375 -1.421875 33.890625 -1.421875 
Q 20.796875 -1.421875 13.15625 6.1875 
Q 5.515625 13.8125 5.515625 26.8125 
Q 5.515625 40.234375 12.765625 48.109375 
Q 20.015625 56 32.328125 56 
Q 43.359375 56 49.78125 48.890625 
Q 56.203125 41.796875 56.203125 29.59375 
z
M 47.21875 32.234375 
Q 47.125 39.59375 43.09375 43.984375 
Q 39.0625 48.390625 32.421875 48.390625 
Q 24.90625 48.390625 20.390625 44.140625 
Q 15.875 39.890625 15.1875 32.171875 
z
" id="DejaVuSans-101"/>
      <path d="M 45.40625 46.390625 
L 45.40625 75.984375 
L 54.390625 75.984375 
L 54.390625 0 
L 45.40625 0 
L 45.40625 8.203125 
Q 42.578125 3.328125 38.25 0.953125 
Q 33.9375 -1.421875 27.875 -1.421875 
Q 17.96875 -1.421875 11.734375 6.484375 
Q 5.515625 14.40625 5.515625 27.296875 
Q 5.515625 40.1875 11.734375 48.09375 
Q 17.96875 56 27.875 56 
Q 33.9375 56 38.25 53.625 
Q 42.578125 51.265625 45.40625 46.390625 
z
M 14.796875 27.296875 
Q 14.796875 17.390625 18.875 11.75 
Q 22.953125 6.109375 30.078125 6.109375 
Q 37.203125 6.109375 41.296875 11.75 
Q 45.40625 17.390625 45.40625 27.296875 
Q 45.40625 37.203125 41.296875 42.84375 
Q 37.203125 48.484375 30.078125 48.484375 
Q 22.953125 48.484375 18.875 42.84375 
Q 14.796875 37.203125 14.796875 27.296875 
z
" id="DejaVuSans-100"/>
      <path d="M 4.890625 31.390625 
L 31.203125 31.390625 
L 31.203125 23.390625 
L 4.890625 23.390625 
z
" id="DejaVuSans-45"/>
      <path d="M 19.671875 34.8125 
L 19.671875 8.109375 
L 35.5 8.109375 
Q 43.453125 8.109375 47.28125 11.40625 
Q 51.125 14.703125 51.125 21.484375 
Q 51.125 28.328125 47.28125 31.5625 
Q 43.453125 34.8125 35.5 34.8125 
z
M 19.671875 64.796875 
L 19.671875 42.828125 
L 34.28125 42.828125 
Q 41.5 42.828125 45.03125 45.53125 
Q 48.578125 48.25 48.578125 53.8125 
Q 48.578125 59.328125 45.03125 62.0625 
Q 41.5 64.796875 34.28125 64.796875 
z
M 9.8125 72.90625 
L 35.015625 72.90625 
Q 46.296875 72.90625 52.390625 68.21875 
Q 58.5 63.53125 58.5 54.890625 
Q 58.5 48.1875 55.375 44.234375 
Q 52.25 40.28125 46.1875 39.3125 
Q 53.46875 37.75 57.5 32.78125 
Q 61.53125 27.828125 61.53125 20.40625 
Q 61.53125 10.640625 54.890625 5.3125 
Q 48.25 0 35.984375 0 
L 9.8125 0 
z
" id="DejaVuSans-66"/>
     </defs>
     <g transform="translate(215.035156 274.476562)scale(0.1 -0.1)">
      <use xlink:href="#DejaVuSans-40"/>
      <use x="39.013672" xlink:href="#DejaVuSans-103"/>
      <use x="102.490234" xlink:href="#DejaVuSans-41"/>
      <use x="141.503906" xlink:href="#DejaVuSans-32"/>
      <use x="173.291016" xlink:href="#DejaVuSans-99"/>
      <use x="228.271484" xlink:href="#DejaVuSans-104"/>
      <use x="291.650391" xlink:href="#DejaVuSans-97"/>
      <use x="352.929688" xlink:href="#DejaVuSans-110"/>
      <use x="416.308594" xlink:href="#DejaVuSans-103"/>
      <use x="479.785156" xlink:href="#DejaVuSans-101"/>
      <use x="541.308594" xlink:href="#DejaVuSans-100"/>
      <use x="604.785156" xlink:href="#DejaVuSans-45"/>
      <use x="640.869141" xlink:href="#DejaVuSans-102"/>
      <use x="676.074219" xlink:href="#DejaVuSans-105"/>
      <use x="703.857422" xlink:href="#DejaVuSans-108"/>
      <use x="731.640625" xlink:href="#DejaVuSans-101"/>
      <use x="793.164062" xlink:href="#DejaVuSans-115"/>
      <use x="845.263672" xlink:href="#DejaVuSans-32"/>
      <use x="877.050781" xlink:href="#DejaVuSans-66"/>
      <use x="945.654297" xlink:href="#DejaVuSans-49"/>
     </g>
    </g>
   </g>
   <g id="matplotlib.axis_4">
    <g id="ytick_3">
     <g id="line2d_25">
      <g>
       <use style="stroke:#000000;stroke-width:0.8;" x="109.8" xlink:href="#m2ac39ef1ed" y="246.2"/>
      </g>
     </g>
     <g id="text_15">
      <!-- 0% -->
      <defs>
       <path d="M 72.703125 32.078125 
Q 68.453125 32.078125 66.03125 28.46875 
Q 63.625 24.859375 63.625 18.40625 
Q 63.625 12.0625 66.03125 8.421875 
Q 68.453125 4.78125 72.703125 4.78125 
Q 76.859375 4.78125 79.265625 8.421875 
Q 81.6875 12.0625 81.6875 18.40625 
Q 81.6875 24.8125 79.265625 28.4375 
Q 76.859375 32.078125 72.703125 32.078125 
z
M 72.703125 38.28125 
Q 80.421875 38.28125 84.953125 32.90625 
Q 89.5 27.546875 89.5 18.40625 
Q 89.5 9.28125 84.9375 3.921875 
Q 80.375 -1.421875 72.703125 -1.421875 
Q 64.890625 -1.421875 60.34375 3.921875 
Q 55.8125 9.28125 55.8125 18.40625 
Q 55.8125 27.59375 60.375 32.9375 
Q 64.9375 38.28125 72.703125 38.28125 
z
M 22.3125 68.015625 
Q 18.109375 68.015625 15.6875 64.375 
Q 13.28125 60.75 13.28125 54.390625 
Q 13.28125 47.953125 15.671875 44.328125 
Q 18.0625 40.71875 22.3125 40.71875 
Q 26.5625 40.71875 28.96875 44.328125 
Q 31.390625 47.953125 31.390625 54.390625 
Q 31.390625 60.6875 28.953125 64.34375 
Q 26.515625 68.015625 22.3125 68.015625 
z
M 66.40625 74.21875 
L 74.21875 74.21875 
L 28.609375 -1.421875 
L 20.796875 -1.421875 
z
M 22.3125 74.21875 
Q 30.03125 74.21875 34.609375 68.875 
Q 39.203125 63.53125 39.203125 54.390625 
Q 39.203125 45.171875 34.640625 39.84375 
Q 30.078125 34.515625 22.3125 34.515625 
Q 14.546875 34.515625 10.03125 39.859375 
Q 5.515625 45.21875 5.515625 54.390625 
Q 5.515625 63.484375 10.046875 68.84375 
Q 14.59375 74.21875 22.3125 74.21875 
z
" id="DejaVuSans-37"/>
      </defs>
      <g transform="translate(86.935937 249.999219)scale(0.1 -0.1)">
       <use xlink:href="#DejaVuSans-48"/>
       <use x="63.623047" xlink:href="#DejaVuSans-37"/>
      </g>
     </g>
    </g>
    <g id="ytick_4">
     <g id="line2d_26">
      <g>
       <use style="stroke:#000000;stroke-width:0.8;" x="109.8" xlink:href="#m2ac39ef1ed" y="219.053333"/>
      </g>
     </g>
     <g id="text_16">
      <!-- 10% -->
      <g transform="translate(80.573437 222.852552)scale(0.1 -0.1)">
       <use xlink:href="#DejaVuSans-49"/>
       <use x="63.623047" xlink:href="#DejaVuSans-48"/>
       <use x="127.246094" xlink:href="#DejaVuSans-37"/>
      </g>
     </g>
    </g>
    <g id="ytick_5">
     <g id="line2d_27">
      <g>
       <use style="stroke:#000000;stroke-width:0.8;" x="109.8" xlink:href="#m2ac39ef1ed" y="191.906667"/>
      </g>
     </g>
     <g id="text_17">
      <!-- 20% -->
      <g transform="translate(80.573437 195.705885)scale(0.1 -0.1)">
       <use xlink:href="#DejaVuSans-50"/>
       <use x="63.623047" xlink:href="#DejaVuSans-48"/>
       <use x="127.246094" xlink:href="#DejaVuSans-37"/>
      </g>
     </g>
    </g>
    <g id="ytick_6">
     <g id="line2d_28">
      <g>
       <use style="stroke:#000000;stroke-width:0.8;" x="109.8" xlink:href="#m2ac39ef1ed" y="164.76"/>
      </g>
     </g>
     <g id="text_18">
      <!-- 30% -->
      <g transform="translate(80.573437 168.559219)scale(0.1 -0.1)">
       <use xlink:href="#DejaVuSans-51"/>
       <use x="63.623047" xlink:href="#DejaVuSans-48"/>
       <use x="127.246094" xlink:href="#DejaVuSans-37"/>
      </g>
     </g>
    </g>
    <g id="ytick_7">
     <g id="line2d_29">
      <g>
       <use style="stroke:#000000;stroke-width:0.8;" x="109.8" xlink:href="#m2ac39ef1ed" y="137.613333"/>
      </g>
     </g>
     <g id="text_19">
      <!-- 40% -->
      <g transform="translate(80.573437 141.412552)scale(0.1 -0.1)">
       <use xlink:href="#DejaVuSans-52"/>
       <use x="63.623047" xlink:href="#DejaVuSans-48"/>
       <use x="127.246094" xlink:href="#DejaVuSans-37"/>
      </g>
     </g>
    </g>
    <g id="ytick_8">
     <g id="line2d_30">
      <g>
       <use style="stroke:#000000;stroke-width:0.8;" x="109.8" xlink:href="#m2ac39ef1ed" y="110.466667"/>
      </g>
     </g>
     <g id="text_20">
      <!-- 50% -->
      <defs>
       <path d="M 10.796875 72.90625 
L 49.515625 72.90625 
L 49.515625 64.59375 
L 19.828125 64.59375 
L 19.828125 46.734375 
Q 21.96875 47.46875 24.109375 47.828125 
Q 26.265625 48.1875 28.421875 48.1875 
Q 40.625 48.1875 47.75 41.5 
Q 54.890625 34.8125 54.890625 23.390625 
Q 54.890625 11.625 47.5625 5.09375 
Q 40.234375 -1.421875 26.90625 -1.421875 
Q 22.3125 -1.421875 17.546875 -0.640625 
Q 12.796875 0.140625 7.71875 1.703125 
L 7.71875 11.625 
Q 12.109375 9.234375 16.796875 8.0625 
Q 21.484375 6.890625 26.703125 6.890625 
Q 35.15625 6.890625 40.078125 11.328125 
Q 45.015625 15.765625 45.015625 23.390625 
Q 45.015625 31 40.078125 35.4375 
Q 35.15625 39.890625 26.703125 39.890625 
Q 22.75 39.890625 18.8125 39.015625 
Q 14.890625 38.140625 10.796875 36.28125 
z
" id="DejaVuSans-53"/>
      </defs>
      <g transform="translate(80.573437 114.265885)scale(0.1 -0.1)">
       <use xlink:href="#DejaVuSans-53"/>
       <use x="63.623047" xlink:href="#DejaVuSans-48"/>
       <use x="127.246094" xlink:href="#DejaVuSans-37"/>
      </g>
     </g>
    </g>
    <g id="ytick_9">
     <g id="line2d_31">
      <g>
       <use style="stroke:#000000;stroke-width:0.8;" x="109.8" xlink:href="#m2ac39ef1ed" y="83.32"/>
      </g>
     </g>
     <g id="text_21">
      <!-- 60% -->
      <defs>
       <path d="M 33.015625 40.375 
Q 26.375 40.375 22.484375 35.828125 
Q 18.609375 31.296875 18.609375 23.390625 
Q 18.609375 15.53125 22.484375 10.953125 
Q 26.375 6.390625 33.015625 6.390625 
Q 39.65625 6.390625 43.53125 10.953125 
Q 47.40625 15.53125 47.40625 23.390625 
Q 47.40625 31.296875 43.53125 35.828125 
Q 39.65625 40.375 33.015625 40.375 
z
M 52.59375 71.296875 
L 52.59375 62.3125 
Q 48.875 64.0625 45.09375 64.984375 
Q 41.3125 65.921875 37.59375 65.921875 
Q 27.828125 65.921875 22.671875 59.328125 
Q 17.53125 52.734375 16.796875 39.40625 
Q 19.671875 43.65625 24.015625 45.921875 
Q 28.375 48.1875 33.59375 48.1875 
Q 44.578125 48.1875 50.953125 41.515625 
Q 57.328125 34.859375 57.328125 23.390625 
Q 57.328125 12.15625 50.6875 5.359375 
Q 44.046875 -1.421875 33.015625 -1.421875 
Q 20.359375 -1.421875 13.671875 8.265625 
Q 6.984375 17.96875 6.984375 36.375 
Q 6.984375 53.65625 15.1875 63.9375 
Q 23.390625 74.21875 37.203125 74.21875 
Q 40.921875 74.21875 44.703125 73.484375 
Q 48.484375 72.75 52.59375 71.296875 
z
" id="DejaVuSans-54"/>
      </defs>
      <g transform="translate(80.573437 87.119219)scale(0.1 -0.1)">
       <use xlink:href="#DejaVuSans-54"/>
       <use x="63.623047" xlink:href="#DejaVuSans-48"/>
       <use x="127.246094" xlink:href="#DejaVuSans-37"/>
      </g>
     </g>
    </g>
    <g id="text_22">
     <!-- P(conflict  -->
     <defs>
      <path d="M 19.671875 64.796875 
L 19.671875 37.40625 
L 32.078125 37.40625 
Q 38.96875 37.40625 42.71875 40.96875 
Q 46.484375 44.53125 46.484375 51.125 
Q 46.484375 57.671875 42.71875 61.234375 
Q 38.96875 64.796875 32.078125 64.796875 
z
M 9.8125 72.90625 
L 32.078125 72.90625 
Q 44.34375 72.90625 50.609375 67.359375 
Q 56.890625 61.8125 56.890625 51.125 
Q 56.890625 40.328125 50.609375 34.8125 
Q 44.34375 29.296875 32.078125 29.296875 
L 19.671875 29.296875 
L 19.671875 0 
L 9.8125 0 
z
" id="DejaVuSans-80"/>
     </defs>
     <g transform="translate(10.573437 150.557344)scale(0.1 -0.1)">
      <use xlink:href="#DejaVuSans-80"/>
      <use x="60.302734" xlink:href="#DejaVuSans-40"/>
      <use x="99.316406" xlink:href="#DejaVuSans-99"/>
      <use x="154.296875" xlink:href="#DejaVuSans-111"/>
      <use x="215.478516" xlink:href="#DejaVuSans-110"/>
      <use x="278.857422" xlink:href="#DejaVuSans-102"/>
      <use x="314.0625" xlink:href="#DejaVuSans-108"/>
      <use x="341.845703" xlink:href="#DejaVuSans-105"/>
      <use x="369.628906" xlink:href="#DejaVuSans-99"/>
      <use x="424.609375" xlink:href="#DejaVuSans-116"/>
      <use x="463.818359" xlink:href="#DejaVuSans-32"/>
     </g>
     <!--    | changed- -->
     <defs>
      <path d="M 21 76.421875 
L 21 -23.578125 
L 12.703125 -23.578125 
L 12.703125 76.421875 
z
" id="DejaVuSans-124"/>
     </defs>
     <g transform="translate(10.573437 161.807656)scale(0.1 -0.1)">
      <use xlink:href="#DejaVuSans-32"/>
      <use x="31.787109" xlink:href="#DejaVuSans-32"/>
      <use x="63.574219" xlink:href="#DejaVuSans-32"/>
      <use x="95.361328" xlink:href="#DejaVuSans-124"/>
      <use x="129.052734" xlink:href="#DejaVuSans-32"/>
      <use x="160.839844" xlink:href="#DejaVuSans-99"/>
      <use x="215.820312" xlink:href="#DejaVuSans-104"/>
      <use x="279.199219" xlink:href="#DejaVuSans-97"/>
      <use x="340.478516" xlink:href="#DejaVuSans-110"/>
      <use x="403.857422" xlink:href="#DejaVuSans-103"/>
      <use x="467.333984" xlink:href="#DejaVuSans-101"/>
      <use x="528.857422" xlink:href="#DejaVuSans-100"/>
      <use x="592.333984" xlink:href="#DejaVuSans-45"/>
     </g>
     <!--      files B1 -->
     <g transform="translate(10.573437 173.283594)scale(0.1 -0.1)">
      <use xlink:href="#DejaVuSans-32"/>
      <use x="31.787109" xlink:href="#DejaVuSans-32"/>
      <use x="63.574219" xlink:href="#DejaVuSans-32"/>
      <use x="95.361328" xlink:href="#DejaVuSans-32"/>
      <use x="127.148438" xlink:href="#DejaVuSans-32"/>
      <use x="158.935547" xlink:href="#DejaVuSans-102"/>
      <use x="194.140625" xlink:href="#DejaVuSans-105"/>
      <use x="221.923828" xlink:href="#DejaVuSans-108"/>
      <use x="249.707031" xlink:href="#DejaVuSans-101"/>
      <use x="311.230469" xlink:href="#DejaVuSans-115"/>
      <use x="363.330078" xlink:href="#DejaVuSans-32"/>
      <use x="395.117188" xlink:href="#DejaVuSans-66"/>
      <use x="463.720703" xlink:href="#DejaVuSans-49"/>
     </g>
     <!--      ≥ x) -->
     <defs>
      <path d="M 10.59375 49.609375 
L 10.59375 58.203125 
L 73.1875 40.28125 
L 73.1875 31.984375 
L 10.59375 14.015625 
L 10.59375 22.703125 
L 57.515625 36.078125 
z
M 73.1875 8.296875 
L 73.1875 0 
L 10.59375 0 
L 10.59375 8.296875 
z
" id="DejaVuSans-8805"/>
      <path d="M 54.890625 54.6875 
L 35.109375 28.078125 
L 55.90625 0 
L 45.3125 0 
L 29.390625 21.484375 
L 13.484375 0 
L 2.875 0 
L 24.125 28.609375 
L 4.6875 54.6875 
L 15.28125 54.6875 
L 29.78125 35.203125 
L 44.28125 54.6875 
z
" id="DejaVuSans-120"/>
     </defs>
     <g transform="translate(10.573437 184.481406)scale(0.1 -0.1)">
      <use xlink:href="#DejaVuSans-32"/>
      <use x="31.787109" xlink:href="#DejaVuSans-32"/>
      <use x="63.574219" xlink:href="#DejaVuSans-32"/>
      <use x="95.361328" xlink:href="#DejaVuSans-32"/>
      <use x="127.148438" xlink:href="#DejaVuSans-32"/>
      <use x="158.935547" xlink:href="#DejaVuSans-8805"/>
      <use x="242.724609" xlink:href="#DejaVuSans-32"/>
      <use x="274.511719" xlink:href="#DejaVuSans-120"/>
      <use x="333.691406" xlink:href="#DejaVuSans-41"/>
     </g>
    </g>
   </g>
   <g id="line2d_32">
    <path clip-path="url(#p862916f509)" d="M 407.045455 170.269827 
L 407.045455 170.232387 
L 407.045455 170.319479 
L 406.366579 170.299097 
L 406.366579 170.40967 
L 404.329954 170.482325 
L 404.329954 170.333787 
L 404.329954 170.281119 
L 404.329954 170.434727 
L 401.614454 170.575759 
L 401.614454 170.663612 
L 398.220078 170.696881 
L 398.220078 170.598228 
L 398.220078 170.427266 
L 396.183453 170.554686 
L 396.183453 170.562238 
L 396.183453 170.54269 
L 396.183453 170.550241 
L 390.073578 170.723174 
L 390.073578 170.992464 
L 390.073578 170.968881 
L 389.394702 171.084284 
L 389.394702 171.072503 
L 389.394702 171.130861 
L 388.036952 171.194668 
L 388.036952 171.201939 
L 388.036952 171.298174 
L 388.036952 171.185667 
L 388.036952 171.286423 
L 387.358077 171.402826 
L 387.358077 171.889638 
L 386.679202 172.001353 
L 386.679202 172.008424 
L 386.679202 171.984975 
L 386.679202 171.992044 
L 384.642577 172.123858 
L 384.642577 172.165975 
L 383.284827 172.284668 
L 383.284827 172.291638 
L 383.284827 172.27301 
L 383.284827 172.27998 
L 381.927077 172.274948 
L 381.927077 172.20065 
L 381.927077 172.177511 
L 381.248201 172.292845 
L 381.248201 172.299754 
L 376.496076 172.456207 
L 376.496076 172.619764 
L 374.459451 172.745779 
L 374.459451 172.766 
L 373.780576 172.74783 
L 373.780576 172.848781 
L 371.065075 172.985815 
L 371.065075 172.984176 
L 371.065075 172.990808 
L 370.3862 172.97285 
L 370.3862 173.080723 
L 370.3862 173.077913 
L 370.3862 173.117535 
L 369.707325 173.231404 
L 369.707325 173.303683 
L 367.6707 173.429215 
L 367.6707 173.496132 
L 366.31295 173.616754 
L 366.31295 173.629703 
L 364.276324 173.759068 
L 364.276324 173.805678 
L 362.239699 173.935123 
L 362.239699 174.401272 
L 360.881949 174.519535 
L 360.881949 174.514612 
L 360.881949 174.665663 
L 360.203074 174.778778 
L 360.203074 175.17688 
L 360.203074 174.762644 
L 360.203074 175.165715 
L 359.524199 175.276908 
L 359.524199 175.265748 
L 359.524199 175.44539 
L 358.166449 175.568116 
L 358.166449 175.574149 
L 358.166449 175.501453 
L 358.166449 175.521466 
L 354.772073 175.657996 
L 354.772073 175.796102 
L 353.414323 175.913986 
L 353.414323 175.974332 
L 352.056573 176.09448 
L 352.056573 176.17104 
L 350.698823 176.290072 
L 350.698823 176.308134 
L 350.698823 176.252914 
L 350.698823 176.281877 
L 349.341073 176.403873 
L 349.341073 176.426872 
L 349.341073 176.410258 
L 348.662198 176.393647 
L 348.662198 176.503923 
L 348.662198 176.515377 
L 348.662198 176.498798 
L 348.662198 176.510249 
L 347.983322 176.493675 
L 347.983322 176.592021 
L 345.946697 176.716541 
L 345.946697 176.72219 
L 344.588947 176.842061 
L 344.588947 176.961735 
L 344.588947 176.82152 
L 344.588947 176.957028 
L 342.552322 177.079974 
L 342.552322 177.13543 
L 341.873447 177.119192 
L 341.873447 177.230208 
L 341.873447 177.285388 
L 341.194572 177.401873 
L 341.194572 177.407362 
L 341.194572 177.391192 
L 341.194572 177.396681 
L 340.515697 177.507862 
L 340.515697 177.535156 
L 340.515697 177.519041 
L 338.479071 177.643707 
L 338.479071 177.886282 
L 337.800196 177.99891 
L 337.800196 178.163878 
L 337.121321 178.275179 
L 337.121321 178.354436 
L 335.763571 178.475303 
L 335.763571 178.475259 
L 335.763571 178.684214 
L 335.084696 178.798496 
L 335.084696 178.813916 
L 335.084696 178.777179 
L 335.084696 178.797923 
L 334.405821 178.911432 
L 334.405821 179.008986 
L 334.405821 178.945305 
L 333.048071 179.062193 
L 333.048071 179.013856 
L 333.048071 179.303295 
L 331.69032 179.420908 
L 331.69032 179.430907 
L 331.011445 179.544243 
L 331.011445 179.574087 
L 331.011445 179.568746 
L 329.653695 179.686224 
L 329.653695 179.715896 
L 329.653695 179.704785 
L 328.295945 179.73768 
L 328.295945 179.782014 
L 328.295945 179.791426 
L 328.295945 179.755282 
L 328.295945 179.774527 
L 326.25932 179.896069 
L 326.25932 179.905823 
L 326.25932 179.880067 
L 326.25932 179.894691 
L 324.90157 180.01532 
L 324.90157 180.014334 
L 324.90157 180.062294 
L 322.864944 180.185724 
L 322.864944 180.169702 
L 322.864944 180.221943 
L 318.791694 180.360437 
L 318.791694 180.370497 
L 318.791694 180.319841 
L 318.791694 180.325278 
L 317.433944 180.444826 
L 317.433944 180.491501 
L 317.433944 180.490888 
L 315.397319 180.615491 
L 315.397319 180.624736 
L 315.397319 180.595715 
L 314.039568 180.713618 
L 314.039568 180.71295 
L 314.039568 180.717542 
L 312.681818 180.834981 
L 312.681818 180.834283 
L 312.681818 180.869344 
L 311.324068 180.986916 
L 311.324068 181.044987 
L 311.324068 181.030677 
L 309.966318 181.148425 
L 309.966318 181.157403 
L 308.608568 181.274346 
L 308.608568 181.283249 
L 308.608568 181.259383 
L 308.608568 181.268284 
L 305.893067 181.39471 
L 305.893067 181.4502 
L 305.893067 181.388647 
L 305.893067 181.440571 
L 303.856442 181.562469 
L 303.856442 181.597251 
L 302.498692 181.713944 
L 302.498692 181.713039 
L 302.498692 181.706916 
L 302.498692 181.745725 
L 300.462067 181.868759 
L 300.462067 181.867821 
L 300.462067 181.922306 
L 300.462067 181.858348 
L 300.462067 181.921355 
L 299.104317 182.03678 
L 299.104317 182.004222 
L 299.104317 182.093024 
L 296.388816 182.219033 
L 296.388816 182.310916 
L 296.388816 182.297384 
L 295.709941 182.283854 
L 295.709941 182.379477 
L 295.031066 182.491129 
L 295.031066 182.515901 
L 293.673316 182.63246 
L 293.673316 182.609743 
L 293.673316 182.656691 
L 291.636691 182.777423 
L 291.636691 182.856047 
L 290.27894 182.973237 
L 290.27894 183.097415 
L 290.27894 183.079014 
L 288.242315 183.20047 
L 288.242315 183.19132 
L 288.242315 183.233654 
L 286.20569 183.355949 
L 286.20569 183.391193 
L 286.20569 183.350944 
L 284.169065 183.4736 
L 284.169065 183.533168 
L 284.169065 183.518991 
L 280.095814 183.652891 
L 280.095814 183.702297 
L 280.095814 183.700992 
L 279.416939 183.815805 
L 279.416939 183.878667 
L 278.059189 183.996401 
L 278.059189 183.974561 
L 278.059189 184.019205 
L 276.022564 184.139803 
L 276.022564 184.162049 
L 276.022564 184.101797 
L 276.022564 184.14955 
L 274.664814 184.266171 
L 274.664814 184.313983 
L 274.664814 184.313396 
L 272.628188 184.433933 
L 272.628188 184.530619 
L 272.628188 184.432495 
L 272.628188 184.527703 
L 271.949313 184.639757 
L 271.949313 184.725362 
L 271.949313 184.713689 
L 271.270438 184.825065 
L 271.270438 184.869988 
L 269.912688 184.98477 
L 269.912688 185.077238 
L 269.912688 185.044301 
L 268.554938 185.159049 
L 268.554938 185.252139 
L 268.554938 185.211133 
L 267.876063 185.325092 
L 267.876063 185.323491 
L 267.876063 185.725665 
L 265.839438 185.845264 
L 265.839438 185.855435 
L 265.839438 185.760883 
L 265.839438 185.767652 
L 264.481687 185.825329 
L 264.481687 185.852244 
L 264.481687 185.937748 
L 264.481687 185.92599 
L 263.123937 186.040683 
L 263.123937 186.032336 
L 263.123937 186.119963 
L 262.445062 186.233472 
L 262.445062 186.254773 
L 261.766187 186.243167 
L 261.766187 186.35154 
L 261.766187 186.379267 
L 261.766187 186.316119 
L 261.766187 186.332488 
L 261.087312 186.44421 
L 261.087312 186.465215 
L 260.408437 186.578472 
L 260.408437 186.627002 
L 259.729562 186.738249 
L 259.729562 186.763952 
L 258.371812 186.879236 
L 258.371812 186.980719 
L 258.371812 186.970114 
L 257.014061 187.01345 
L 257.014061 186.872943 
L 257.014061 186.861685 
L 257.014061 186.886866 
L 257.014061 186.868844 
L 256.335186 186.981352 
L 256.335186 186.962034 
L 256.335186 186.997239 
L 253.619686 187.118069 
L 253.619686 187.127274 
L 253.619686 187.083161 
L 253.619686 187.086231 
L 252.261936 187.201338 
L 252.261936 187.229294 
L 252.261936 187.186115 
L 252.261936 187.205546 
L 251.583061 187.317478 
L 251.583061 187.392183 
L 251.583061 187.381759 
L 248.188685 187.505983 
L 248.188685 187.517807 
L 248.188685 187.425208 
L 248.188685 187.48646 
L 246.830935 187.603142 
L 246.830935 187.704639 
L 245.473185 187.821515 
L 245.473185 187.833057 
L 244.115435 187.947805 
L 244.115435 187.962075 
L 243.43656 188.073978 
L 243.43656 188.123989 
L 243.43656 188.104124 
L 242.07881 188.114108 
L 242.07881 188.193629 
L 242.07881 188.186004 
L 242.07881 188.214919 
L 240.72106 188.328947 
L 240.72106 188.348368 
L 239.363309 188.4637 
L 239.363309 188.511234 
L 239.363309 188.50106 
L 238.005559 188.617331 
L 238.005559 188.679136 
L 238.005559 188.664355 
L 237.326684 188.654248 
L 237.326684 188.763786 
L 237.326684 188.836926 
L 236.647809 188.948727 
L 236.647809 188.971548 
L 234.611184 189.090225 
L 234.611184 189.232637 
L 233.253434 189.348342 
L 233.253434 189.402812 
L 233.253434 189.368387 
L 231.895683 189.484668 
L 231.895683 189.482261 
L 231.895683 189.480232 
L 231.895683 189.558194 
L 229.180183 189.679248 
L 229.180183 189.75751 
L 227.143558 189.875607 
L 227.143558 189.89175 
L 227.143558 189.852247 
L 227.143558 189.872897 
L 226.464683 189.985408 
L 226.464683 190.04265 
L 226.464683 190.024277 
L 225.106933 190.14019 
L 225.106933 190.14504 
L 225.106933 190.106122 
L 225.106933 190.127441 
L 223.749182 190.241298 
L 223.749182 190.366101 
L 223.749182 190.226292 
L 223.749182 190.320715 
L 223.070307 190.311509 
L 223.070307 190.421235 
L 223.070307 190.460106 
L 222.391432 190.450939 
L 222.391432 190.560551 
L 222.391432 190.682108 
L 222.391432 190.65944 
L 221.033682 190.774226 
L 221.033682 190.903965 
L 220.354807 190.915515 
L 220.354807 190.798408 
L 220.354807 190.77598 
L 220.354807 190.856702 
L 220.354807 190.848374 
L 217.639307 190.967436 
L 217.639307 190.949946 
L 217.639307 191.083338 
L 215.602681 191.200024 
L 215.602681 191.176224 
L 215.602681 191.288063 
L 213.566056 191.40569 
L 213.566056 191.48087 
L 213.566056 191.397882 
L 213.566056 191.474453 
L 212.887181 191.587496 
L 212.887181 191.596174 
L 212.887181 191.583377 
L 212.887181 191.594144 
L 212.208306 191.706023 
L 212.208306 191.68048 
L 212.208306 191.766055 
L 210.850556 191.881259 
L 210.850556 191.860096 
L 210.850556 191.957341 
L 209.492806 192.070631 
L 209.492806 192.170582 
L 209.492806 192.164279 
L 208.813931 192.276322 
L 208.813931 192.315467 
L 208.813931 192.276251 
L 208.813931 192.307109 
L 208.135056 192.419848 
L 208.135056 192.47071 
L 208.135056 192.413576 
L 208.135056 192.454079 
L 207.456181 192.445764 
L 207.456181 192.555032 
L 207.456181 192.601519 
L 207.456181 192.550828 
L 207.456181 192.593245 
L 206.777305 192.705038 
L 206.777305 192.733333 
L 206.777305 192.733021 
L 205.419555 192.847403 
L 205.419555 192.990747 
L 205.419555 192.837025 
L 205.419555 192.982184 
L 204.061805 193.096145 
L 204.061805 193.133294 
L 204.061805 193.11858 
L 202.704055 193.23284 
L 202.704055 193.321651 
L 202.704055 193.226518 
L 202.704055 193.303484 
L 202.02518 193.415363 
L 202.02518 193.423042 
L 200.66743 193.537579 
L 200.66743 193.573687 
L 200.66743 193.53101 
L 200.66743 193.571496 
L 198.630804 193.688131 
L 198.630804 193.687815 
L 198.630804 193.811528 
L 198.630804 193.803803 
L 197.951929 193.916544 
L 197.951929 193.920209 
L 196.594179 194.034853 
L 196.594179 194.120877 
L 196.594179 194.027928 
L 196.594179 194.108892 
L 195.236429 194.223187 
L 195.236429 194.290204 
L 195.236429 194.221593 
L 195.236429 194.278724 
L 194.557554 194.391195 
L 194.557554 194.417234 
L 194.557554 194.385476 
L 194.557554 194.401001 
L 193.878679 194.512644 
L 193.878679 194.544995 
L 193.878679 194.539305 
L 192.520929 194.652244 
L 192.520929 194.737469 
L 191.842054 194.848759 
L 191.842054 194.889203 
L 191.842054 194.880632 
L 191.163179 194.993063 
L 191.163179 194.992045 
L 191.163179 194.981564 
L 191.163179 195.022078 
L 190.484303 195.133868 
L 190.484303 195.244977 
L 189.805428 195.356892 
L 189.805428 195.380055 
L 189.805428 195.371748 
L 189.126553 195.344115 
L 189.126553 195.474484 
L 189.126553 195.495221 
L 189.126553 195.472267 
L 189.126553 195.480281 
L 188.447678 195.592895 
L 188.447678 195.622428 
L 188.447678 195.616961 
L 187.768803 195.728087 
L 187.768803 195.759641 
L 187.768803 195.721414 
L 187.768803 195.748756 
L 187.089928 195.860726 
L 187.089928 195.933494 
L 185.732178 196.046933 
L 185.732178 196.128069 
L 185.732178 196.041567 
L 185.732178 196.122966 
L 185.053303 196.235104 
L 185.053303 196.240633 
L 185.053303 196.22932 
L 185.053303 196.23087 
L 184.374428 196.343048 
L 184.374428 196.373257 
L 183.695553 196.485703 
L 183.695553 196.507008 
L 183.695553 196.494251 
L 183.016678 196.606242 
L 183.016678 196.664398 
L 183.016678 196.632347 
L 181.658927 196.745659 
L 181.658927 196.741947 
L 181.658927 196.977487 
L 180.301177 197.090169 
L 180.301177 197.167835 
L 180.301177 197.165298 
L 178.943427 197.278165 
L 178.943427 197.288439 
L 178.943427 197.248804 
L 178.943427 197.26623 
L 177.585677 197.380105 
L 177.585677 197.498674 
L 177.585677 197.493702 
L 176.906802 197.48734 
L 176.906802 197.597269 
L 176.906802 197.600026 
L 176.906802 197.591518 
L 176.906802 197.59979 
L 176.227927 197.711759 
L 176.227927 197.698344 
L 176.227927 197.771013 
L 175.549052 197.883137 
L 175.549052 197.887174 
L 174.870177 197.998933 
L 174.870177 198.001597 
L 174.870177 197.98926 
L 174.870177 197.990592 
L 174.191302 198.10219 
L 174.191302 198.101899 
L 174.191302 198.124984 
L 174.191302 198.105834 
L 173.512426 198.217377 
L 173.512426 198.239956 
L 173.512426 198.222653 
L 172.833551 198.334636 
L 172.833551 198.381361 
L 172.833551 198.315665 
L 172.833551 198.350797 
L 172.154676 198.462645 
L 172.154676 198.556988 
L 172.154676 198.546202 
L 171.475801 198.657714 
L 171.475801 198.654665 
L 171.475801 198.708767 
L 170.796926 198.820205 
L 170.796926 198.831699 
L 170.796926 198.804456 
L 170.796926 198.828066 
L 170.118051 198.939761 
L 170.118051 198.998848 
L 170.118051 198.981039 
L 169.439176 199.09228 
L 169.439176 199.169867 
L 169.439176 199.089202 
L 169.439176 199.15791 
L 168.760301 199.269607 
L 168.760301 199.395642 
L 168.760301 199.266256 
L 168.760301 199.377946 
L 168.081426 199.489981 
L 168.081426 199.465366 
L 168.081426 199.530083 
L 167.402551 199.642176 
L 167.402551 199.716122 
L 167.402551 199.641203 
L 167.402551 199.715143 
L 166.044801 199.827702 
L 166.044801 199.978272 
L 165.365925 200.090393 
L 165.365925 200.115245 
L 165.365925 200.10326 
L 164.68705 200.214707 
L 164.68705 200.293335 
L 164.68705 200.284215 
L 164.008175 200.395718 
L 164.008175 200.504629 
L 164.008175 200.50154 
L 163.3293 200.490727 
L 163.3293 200.606975 
L 163.3293 200.651815 
L 163.3293 200.639161 
L 162.650425 200.60655 
L 162.650425 200.74476 
L 162.650425 200.797332 
L 162.650425 200.793184 
L 161.97155 200.905067 
L 161.97155 200.939801 
L 161.292675 201.051492 
L 161.292675 201.123936 
L 159.934925 201.189055 
L 159.934925 201.224623 
L 159.934925 201.208111 
L 159.934925 201.387581 
L 159.25605 201.499257 
L 159.25605 201.499184 
L 159.25605 201.527963 
L 159.25605 201.495046 
L 159.25605 201.523983 
L 158.577175 201.516866 
L 158.577175 201.629407 
L 158.577175 201.73491 
L 157.8983 201.846241 
L 157.8983 202.01558 
L 157.8983 201.842974 
L 157.8983 202.011322 
L 157.219424 202.123066 
L 157.219424 202.182006 
L 156.540549 202.293702 
L 156.540549 202.413937 
L 156.540549 202.289775 
L 156.540549 202.4091 
L 155.861674 202.520919 
L 155.861674 202.507007 
L 155.861674 202.573974 
L 155.182799 202.685673 
L 155.182799 202.725248 
L 155.182799 202.682744 
L 155.182799 202.711529 
L 154.503924 202.822864 
L 154.503924 202.981399 
L 154.503924 202.981149 
L 153.825049 203.092603 
L 153.825049 203.090587 
L 153.825049 203.193094 
L 153.146174 203.304911 
L 153.146174 203.420571 
L 153.146174 203.301186 
L 153.146174 203.413991 
L 151.788424 203.526638 
L 151.788424 203.703494 
L 151.788424 203.523807 
L 151.788424 203.691447 
L 151.109549 203.802568 
L 151.109549 203.78481 
L 151.109549 203.881848 
L 150.430674 203.993608 
L 150.430674 204.149685 
L 150.430674 203.98336 
L 150.430674 204.148524 
L 149.751799 204.260428 
L 149.751799 204.430045 
L 149.751799 204.429266 
L 149.072923 204.540869 
L 149.072923 204.672564 
L 149.072923 204.6648 
L 148.394048 204.776498 
L 148.394048 204.836847 
L 148.394048 204.832241 
L 147.715173 204.943921 
L 147.715173 205.039763 
L 147.715173 204.937928 
L 147.715173 205.029169 
L 147.036298 205.140292 
L 147.036298 205.273085 
L 147.036298 205.270456 
L 146.357423 205.382071 
L 146.357423 205.381857 
L 146.357423 205.398918 
L 146.357423 205.395611 
L 145.678548 205.507235 
L 145.678548 205.616257 
L 145.678548 205.498754 
L 145.678548 205.615994 
L 144.999673 205.727192 
L 144.999673 205.9322 
L 144.999673 205.723857 
L 144.999673 205.897022 
L 144.320798 206.008185 
L 144.320798 206.049212 
L 143.641923 206.160735 
L 143.641923 206.295347 
L 142.963048 206.406755 
L 142.963048 206.558174 
L 142.963048 206.400672 
L 142.963048 206.555331 
L 142.284173 206.666897 
L 142.284173 206.776745 
L 142.284173 206.663303 
L 142.284173 206.775929 
L 141.605298 206.887145 
L 141.605298 206.90756 
L 140.926422 207.018686 
L 140.926422 207.01757 
L 140.926422 207.208853 
L 140.247547 207.320552 
L 140.247547 207.430583 
L 140.247547 207.414442 
L 139.568672 207.525787 
L 139.568672 207.512673 
L 139.568672 207.600093 
L 138.889797 207.711233 
L 138.889797 207.734677 
L 138.889797 207.729649 
L 138.210922 207.841038 
L 138.210922 207.825191 
L 138.210922 207.957679 
L 137.532047 208.068806 
L 137.532047 208.048497 
L 137.532047 208.291326 
L 136.853172 208.402522 
L 136.853172 208.541411 
L 136.853172 208.390083 
L 136.853172 208.539299 
L 136.174297 208.650864 
L 136.174297 208.733227 
L 136.174297 208.707103 
L 135.495422 208.818487 
L 135.495422 208.815946 
L 135.495422 208.984544 
L 134.816547 209.095698 
L 134.816547 209.309384 
L 134.816547 209.294416 
L 134.137672 209.405791 
L 134.137672 209.676561 
L 134.137672 209.666786 
L 133.458797 209.777956 
L 133.458797 209.751685 
L 133.458797 209.967817 
L 132.779922 209.962738 
L 132.779922 210.075849 
L 132.779922 210.073711 
L 132.779922 210.315324 
L 132.101046 210.426476 
L 132.101046 210.589825 
L 132.101046 210.40263 
L 132.101046 210.586007 
L 131.422171 210.697393 
L 131.422171 210.937725 
L 131.422171 210.935212 
L 130.743296 211.046662 
L 130.743296 211.32242 
L 130.743296 211.306933 
L 130.064421 211.418214 
L 130.064421 211.724089 
L 130.064421 211.720564 
L 129.385546 211.831717 
L 129.385546 212.148933 
L 129.385546 211.828511 
L 129.385546 212.146385 
L 128.706671 212.14254 
L 128.706671 212.255214 
L 128.706671 212.624169 
L 128.027796 212.735335 
L 128.027796 212.734403 
L 128.027796 213.180419 
L 127.348921 213.291741 
L 127.348921 213.809379 
L 127.348921 213.288812 
L 127.348921 213.801379 
L 126.670046 213.912657 
L 126.670046 213.904327 
L 126.670046 214.482698 
L 125.991171 214.593914 
L 125.991171 215.440828 
L 125.991171 214.588657 
L 125.991171 215.436567 
L 125.312296 215.54783 
L 125.312296 216.958842 
L 125.312296 216.958049 
L 124.633421 217.069221 
L 124.633421 219.653454 
L 124.633421 217.068431 
L 124.633421 219.652693 
L 123.954545 219.661431 
L 123.954545 219.661431 
" style="fill:none;stroke:#1f77b4;stroke-linecap:square;stroke-width:1.5;"/>
   </g>
   <g id="line2d_33">
    <defs>
     <path d="M 0 3 
C 0.795609 3 1.55874 2.683901 2.12132 2.12132 
C 2.683901 1.55874 3 0.795609 3 0 
C 3 -0.795609 2.683901 -1.55874 2.12132 -2.12132 
C 1.55874 -2.683901 0.795609 -3 0 -3 
C -0.795609 -3 -1.55874 -2.683901 -2.12132 -2.12132 
C -2.683901 -1.55874 -3 -0.795609 -3 0 
C -3 0.795609 -2.683901 1.55874 -2.12132 2.12132 
C -1.55874 2.683901 -0.795609 3 0 3 
z
" id="md990727ee7" style="stroke:#008000;stroke-opacity:0.5;"/>
    </defs>
    <g clip-path="url(#p862916f509)">
     <use style="fill:#008000;fill-opacity:0.5;stroke:#008000;stroke-opacity:0.5;" x="130.743296" xlink:href="#md990727ee7" y="211.306933"/>
    </g>
   </g>
   <g id="line2d_34">
    <defs>
     <path d="M 0 3 
C 0.795609 3 1.55874 2.683901 2.12132 2.12132 
C 2.683901 1.55874 3 0.795609 3 0 
C 3 -0.795609 2.683901 -1.55874 2.12132 -2.12132 
C 1.55874 -2.683901 0.795609 -3 0 -3 
C -0.795609 -3 -1.55874 -2.683901 -2.12132 -2.12132 
C -2.683901 -1.55874 -3 -0.795609 -3 0 
C -3 0.795609 -2.683901 1.55874 -2.12132 2.12132 
C -1.55874 2.683901 -0.795609 3 0 3 
z
" id="mbaf65da2c1" style="stroke:#ff0000;stroke-opacity:0.5;"/>
    </defs>
    <g clip-path="url(#p862916f509)">
     <use style="fill:#ff0000;fill-opacity:0.5;stroke:#ff0000;stroke-opacity:0.5;" x="144.320798" xlink:href="#mbaf65da2c1" y="206.049212"/>
    </g>
   </g>
   <g id="line2d_35">
    <defs>
     <path d="M 0 3 
C 0.795609 3 1.55874 2.683901 2.12132 2.12132 
C 2.683901 1.55874 3 0.795609 3 0 
C 3 -0.795609 2.683901 -1.55874 2.12132 -2.12132 
C 1.55874 -2.683901 0.795609 -3 0 -3 
C -0.795609 -3 -1.55874 -2.683901 -2.12132 -2.12132 
C -2.683901 -1.55874 -3 -0.795609 -3 0 
C -3 0.795609 -2.683901 1.55874 -2.12132 2.12132 
C -1.55874 2.683901 -0.795609 3 0 3 
z
" id="m73ac089537" style="stroke:#0000ff;stroke-opacity:0.5;"/>
    </defs>
    <g clip-path="url(#p862916f509)">
     <use style="fill:#0000ff;fill-opacity:0.5;stroke:#0000ff;stroke-opacity:0.5;" x="407.045455" xlink:href="#m73ac089537" y="170.269827"/>
    </g>
   </g>
   <g id="patch_8">
    <path d="M 109.8 246.2 
L 109.8 83.32 
" style="fill:none;stroke:#000000;stroke-linecap:square;stroke-linejoin:miter;stroke-width:0.8;"/>
   </g>
   <g id="patch_9">
    <path d="M 421.2 246.2 
L 421.2 83.32 
" style="fill:none;stroke:#000000;stroke-linecap:square;stroke-linejoin:miter;stroke-width:0.8;"/>
   </g>
   <g id="patch_10">
    <path d="M 109.8 246.2 
L 421.2 246.2 
" style="fill:none;stroke:#000000;stroke-linecap:square;stroke-linejoin:miter;stroke-width:0.8;"/>
   </g>
   <g id="patch_11">
    <path d="M 109.8 83.32 
L 421.2 83.32 
" style="fill:none;stroke:#000000;stroke-linecap:square;stroke-linejoin:miter;stroke-width:0.8;"/>
   </g>
   <g id="text_23">
    <!-- 12.9% -->
    <defs>
     <path d="M 10.6875 12.40625 
L 21 12.40625 
L 21 0 
L 10.6875 0 
z
" id="DejaVuSans-46"/>
     <path d="M 10.984375 1.515625 
L 10.984375 10.5 
Q 14.703125 8.734375 18.5 7.8125 
Q 22.3125 6.890625 25.984375 6.890625 
Q 35.75 6.890625 40.890625 13.453125 
Q 46.046875 20.015625 46.78125 33.40625 
Q 43.953125 29.203125 39.59375 26.953125 
Q 35.25 24.703125 29.984375 24.703125 
Q 19.046875 24.703125 12.671875 31.3125 
Q 6.296875 37.9375 6.296875 49.421875 
Q 6.296875 60.640625 12.9375 67.421875 
Q 19.578125 74.21875 30.609375 74.21875 
Q 43.265625 74.21875 49.921875 64.515625 
Q 56.59375 54.828125 56.59375 36.375 
Q 56.59375 19.140625 48.40625 8.859375 
Q 40.234375 -1.421875 26.421875 -1.421875 
Q 22.703125 -1.421875 18.890625 -0.6875 
Q 15.09375 0.046875 10.984375 1.515625 
z
M 30.609375 32.421875 
Q 37.25 32.421875 41.125 36.953125 
Q 45.015625 41.5 45.015625 49.421875 
Q 45.015625 57.28125 41.125 61.84375 
Q 37.25 66.40625 30.609375 66.40625 
Q 23.96875 66.40625 20.09375 61.84375 
Q 16.21875 57.28125 16.21875 49.421875 
Q 16.21875 41.5 20.09375 36.953125 
Q 23.96875 32.421875 30.609375 32.421875 
z
" id="DejaVuSans-57"/>
    </defs>
    <g transform="translate(114.859703 235.783642)scale(0.1 -0.1)">
     <use xlink:href="#DejaVuSans-49"/>
     <use x="63.623047" xlink:href="#DejaVuSans-50"/>
     <use x="127.246094" xlink:href="#DejaVuSans-46"/>
     <use x="159.033203" xlink:href="#DejaVuSans-57"/>
     <use x="222.65625" xlink:href="#DejaVuSans-37"/>
    </g>
   </g>
   <g id="text_24">
    <!-- 14.8% -->
    <defs>
     <path d="M 31.78125 34.625 
Q 24.75 34.625 20.71875 30.859375 
Q 16.703125 27.09375 16.703125 20.515625 
Q 16.703125 13.921875 20.71875 10.15625 
Q 24.75 6.390625 31.78125 6.390625 
Q 38.8125 6.390625 42.859375 10.171875 
Q 46.921875 13.96875 46.921875 20.515625 
Q 46.921875 27.09375 42.890625 30.859375 
Q 38.875 34.625 31.78125 34.625 
z
M 21.921875 38.8125 
Q 15.578125 40.375 12.03125 44.71875 
Q 8.5 49.078125 8.5 55.328125 
Q 8.5 64.0625 14.71875 69.140625 
Q 20.953125 74.21875 31.78125 74.21875 
Q 42.671875 74.21875 48.875 69.140625 
Q 55.078125 64.0625 55.078125 55.328125 
Q 55.078125 49.078125 51.53125 44.71875 
Q 48 40.375 41.703125 38.8125 
Q 48.828125 37.15625 52.796875 32.3125 
Q 56.78125 27.484375 56.78125 20.515625 
Q 56.78125 9.90625 50.3125 4.234375 
Q 43.84375 -1.421875 31.78125 -1.421875 
Q 19.734375 -1.421875 13.25 4.234375 
Q 6.78125 9.90625 6.78125 20.515625 
Q 6.78125 27.484375 10.78125 32.3125 
Q 14.796875 37.15625 21.921875 38.8125 
z
M 18.3125 54.390625 
Q 18.3125 48.734375 21.84375 45.5625 
Q 25.390625 42.390625 31.78125 42.390625 
Q 38.140625 42.390625 41.71875 45.5625 
Q 45.3125 48.734375 45.3125 54.390625 
Q 45.3125 60.0625 41.71875 63.234375 
Q 38.140625 66.40625 31.78125 66.40625 
Q 25.390625 66.40625 21.84375 63.234375 
Q 18.3125 60.0625 18.3125 54.390625 
z
" id="DejaVuSans-56"/>
    </defs>
    <g transform="translate(128.437204 195.235253)scale(0.1 -0.1)">
     <use xlink:href="#DejaVuSans-49"/>
     <use x="63.623047" xlink:href="#DejaVuSans-52"/>
     <use x="127.246094" xlink:href="#DejaVuSans-46"/>
     <use x="159.033203" xlink:href="#DejaVuSans-56"/>
     <use x="222.65625" xlink:href="#DejaVuSans-37"/>
    </g>
   </g>
   <g id="text_25">
    <!-- 28.0% -->
    <g transform="translate(377.007315 186.602535)scale(0.1 -0.1)">
     <use xlink:href="#DejaVuSans-50"/>
     <use x="63.623047" xlink:href="#DejaVuSans-56"/>
     <use x="127.246094" xlink:href="#DejaVuSans-46"/>
     <use x="159.033203" xlink:href="#DejaVuSans-48"/>
     <use x="222.65625" xlink:href="#DejaVuSans-37"/>
    </g>
   </g>
   <g id="text_26">
    <!-- (b) -->
    <defs>
     <path d="M 48.6875 27.296875 
Q 48.6875 37.203125 44.609375 42.84375 
Q 40.53125 48.484375 33.40625 48.484375 
Q 26.265625 48.484375 22.1875 42.84375 
Q 18.109375 37.203125 18.109375 27.296875 
Q 18.109375 17.390625 22.1875 11.75 
Q 26.265625 6.109375 33.40625 6.109375 
Q 40.53125 6.109375 44.609375 11.75 
Q 48.6875 17.390625 48.6875 27.296875 
z
M 18.109375 46.390625 
Q 20.953125 51.265625 25.265625 53.625 
Q 29.59375 56 35.59375 56 
Q 45.5625 56 51.78125 48.09375 
Q 58.015625 40.1875 58.015625 27.296875 
Q 58.015625 14.40625 51.78125 6.484375 
Q 45.5625 -1.421875 35.59375 -1.421875 
Q 29.59375 -1.421875 25.265625 0.953125 
Q 20.953125 3.328125 18.109375 8.203125 
L 18.109375 0 
L 9.078125 0 
L 9.078125 75.984375 
L 18.109375 75.984375 
z
" id="DejaVuSans-98"/>
    </defs>
    <g transform="translate(404.218125 95.2368)scale(0.12 -0.12)">
     <use xlink:href="#DejaVuSans-40"/>
     <use x="39.013672" xlink:href="#DejaVuSans-98"/>
     <use x="102.490234" xlink:href="#DejaVuSans-41"/>
    </g>
   </g>
  </g>
 </g>
 <defs>
  <clipPath id="p01afc78db7">
   <rect height="40.72" width="311.4" x="109.8" y="10.8"/>
  </clipPath>
  <clipPath id="p862916f509">
   <rect height="162.88" width="311.4" x="109.8" y="83.32"/>
  </clipPath>
 </defs>
</svg>
