<?xml version="1.0" encoding="utf-8" standalone="no"?>
<!DOCTYPE svg PUBLIC "-//W3C//DTD SVG 1.1//EN"
  "http://www.w3.org/Graphics/SVG/1.1/DTD/svg11.dtd">
<!-- Created with matplotlib (https://matplotlib.org/) -->
<svg height="288pt" version="1.1" viewBox="0 0 432 288" width="432pt" xmlns="http://www.w3.org/2000/svg" xmlns:xlink="http://www.w3.org/1999/xlink">
 <defs>
  <style type="text/css">
*{stroke-linecap:butt;stroke-linejoin:round;}
  </style>
 </defs>
 <g id="figure_1">
  <g id="patch_1">
   <path d="M 0 288 
L 432 288 
L 432 0 
L 0 0 
z
" style="fill:#ffffff;"/>
  </g>
  <g id="axes_1">
   <g id="patch_2">
    <path d="M 109.8 51.52 
L 421.2 51.52 
L 421.2 10.8 
L 109.8 10.8 
z
" style="fill:#ffffff;"/>
   </g>
   <g id="matplotlib.axis_1">
    <g id="xtick_1">
     <g id="line2d_1">
      <defs>
       <path d="M 0 0 
L 0 3.5 
" id="m7eeb2c9038" style="stroke:#000000;stroke-width:0.8;"/>
      </defs>
      <g>
       <use style="stroke:#000000;stroke-width:0.8;" x="123.954545" xlink:href="#m7eeb2c9038" y="51.52"/>
      </g>
     </g>
     <g id="text_1">
      <!-- 0 -->
      <defs>
       <path d="M 31.78125 66.40625 
Q 24.171875 66.40625 20.328125 58.90625 
Q 16.5 51.421875 16.5 36.375 
Q 16.5 21.390625 20.328125 13.890625 
Q 24.171875 6.390625 31.78125 6.390625 
Q 39.453125 6.390625 43.28125 13.890625 
Q 47.125 21.390625 47.125 36.375 
Q 47.125 51.421875 43.28125 58.90625 
Q 39.453125 66.40625 31.78125 66.40625 
z
M 31.78125 74.21875 
Q 44.046875 74.21875 50.515625 64.515625 
Q 56.984375 54.828125 56.984375 36.375 
Q 56.984375 17.96875 50.515625 8.265625 
Q 44.046875 -1.421875 31.78125 -1.421875 
Q 19.53125 -1.421875 13.0625 8.265625 
Q 6.59375 17.96875 6.59375 36.375 
Q 6.59375 54.828125 13.0625 64.515625 
Q 19.53125 74.21875 31.78125 74.21875 
z
" id="DejaVuSans-48"/>
      </defs>
      <g transform="translate(120.773295 66.118437)scale(0.1 -0.1)">
       <use xlink:href="#DejaVuSans-48"/>
      </g>
     </g>
    </g>
    <g id="xtick_2">
     <g id="line2d_2">
      <g>
       <use style="stroke:#000000;stroke-width:0.8;" x="193.001109" xlink:href="#m7eeb2c9038" y="51.52"/>
      </g>
     </g>
     <g id="text_2">
      <!-- 50 -->
      <defs>
       <path d="M 10.796875 72.90625 
L 49.515625 72.90625 
L 49.515625 64.59375 
L 19.828125 64.59375 
L 19.828125 46.734375 
Q 21.96875 47.46875 24.109375 47.828125 
Q 26.265625 48.1875 28.421875 48.1875 
Q 40.625 48.1875 47.75 41.5 
Q 54.890625 34.8125 54.890625 23.390625 
Q 54.890625 11.625 47.5625 5.09375 
Q 40.234375 -1.421875 26.90625 -1.421875 
Q 22.3125 -1.421875 17.546875 -0.640625 
Q 12.796875 0.140625 7.71875 1.703125 
L 7.71875 11.625 
Q 12.109375 9.234375 16.796875 8.0625 
Q 21.484375 6.890625 26.703125 6.890625 
Q 35.15625 6.890625 40.078125 11.328125 
Q 45.015625 15.765625 45.015625 23.390625 
Q 45.015625 31 40.078125 35.4375 
Q 35.15625 39.890625 26.703125 39.890625 
Q 22.75 39.890625 18.8125 39.015625 
Q 14.890625 38.140625 10.796875 36.28125 
z
" id="DejaVuSans-53"/>
      </defs>
      <g transform="translate(186.638609 66.118437)scale(0.1 -0.1)">
       <use xlink:href="#DejaVuSans-53"/>
       <use x="63.623047" xlink:href="#DejaVuSans-48"/>
      </g>
     </g>
    </g>
    <g id="xtick_3">
     <g id="line2d_3">
      <g>
       <use style="stroke:#000000;stroke-width:0.8;" x="262.047672" xlink:href="#m7eeb2c9038" y="51.52"/>
      </g>
     </g>
     <g id="text_3">
      <!-- 100 -->
      <defs>
       <path d="M 12.40625 8.296875 
L 28.515625 8.296875 
L 28.515625 63.921875 
L 10.984375 60.40625 
L 10.984375 69.390625 
L 28.421875 72.90625 
L 38.28125 72.90625 
L 38.28125 8.296875 
L 54.390625 8.296875 
L 54.390625 0 
L 12.40625 0 
z
" id="DejaVuSans-49"/>
      </defs>
      <g transform="translate(252.503922 66.118437)scale(0.1 -0.1)">
       <use xlink:href="#DejaVuSans-49"/>
       <use x="63.623047" xlink:href="#DejaVuSans-48"/>
       <use x="127.246094" xlink:href="#DejaVuSans-48"/>
      </g>
     </g>
    </g>
    <g id="xtick_4">
     <g id="line2d_4">
      <g>
       <use style="stroke:#000000;stroke-width:0.8;" x="331.094235" xlink:href="#m7eeb2c9038" y="51.52"/>
      </g>
     </g>
     <g id="text_4">
      <!-- 150 -->
      <g transform="translate(321.550485 66.118437)scale(0.1 -0.1)">
       <use xlink:href="#DejaVuSans-49"/>
       <use x="63.623047" xlink:href="#DejaVuSans-53"/>
       <use x="127.246094" xlink:href="#DejaVuSans-48"/>
      </g>
     </g>
    </g>
    <g id="xtick_5">
     <g id="line2d_5">
      <g>
       <use style="stroke:#000000;stroke-width:0.8;" x="400.140798" xlink:href="#m7eeb2c9038" y="51.52"/>
      </g>
     </g>
     <g id="text_5">
      <!-- 200 -->
      <defs>
       <path d="M 19.1875 8.296875 
L 53.609375 8.296875 
L 53.609375 0 
L 7.328125 0 
L 7.328125 8.296875 
Q 12.9375 14.109375 22.625 23.890625 
Q 32.328125 33.6875 34.8125 36.53125 
Q 39.546875 41.84375 41.421875 45.53125 
Q 43.3125 49.21875 43.3125 52.78125 
Q 43.3125 58.59375 39.234375 62.25 
Q 35.15625 65.921875 28.609375 65.921875 
Q 23.96875 65.921875 18.8125 64.3125 
Q 13.671875 62.703125 7.8125 59.421875 
L 7.8125 69.390625 
Q 13.765625 71.78125 18.9375 73 
Q 24.125 74.21875 28.421875 74.21875 
Q 39.75 74.21875 46.484375 68.546875 
Q 53.21875 62.890625 53.21875 53.421875 
Q 53.21875 48.921875 51.53125 44.890625 
Q 49.859375 40.875 45.40625 35.40625 
Q 44.1875 33.984375 37.640625 27.21875 
Q 31.109375 20.453125 19.1875 8.296875 
z
" id="DejaVuSans-50"/>
      </defs>
      <g transform="translate(390.597048 66.118437)scale(0.1 -0.1)">
       <use xlink:href="#DejaVuSans-50"/>
       <use x="63.623047" xlink:href="#DejaVuSans-48"/>
       <use x="127.246094" xlink:href="#DejaVuSans-48"/>
      </g>
     </g>
    </g>
   </g>
   <g id="matplotlib.axis_2">
    <g id="ytick_1">
     <g id="line2d_6">
      <defs>
       <path d="M 0 0 
L -3.5 0 
" id="m56434c506e" style="stroke:#000000;stroke-width:0.8;"/>
      </defs>
      <g>
       <use style="stroke:#000000;stroke-width:0.8;" x="109.8" xlink:href="#m56434c506e" y="41.34"/>
      </g>
     </g>
     <g id="text_6">
      <!-- With conflicts -->
      <defs>
       <path d="M 3.328125 72.90625 
L 13.28125 72.90625 
L 28.609375 11.28125 
L 43.890625 72.90625 
L 54.984375 72.90625 
L 70.3125 11.28125 
L 85.59375 72.90625 
L 95.609375 72.90625 
L 77.296875 0 
L 64.890625 0 
L 49.515625 63.28125 
L 33.984375 0 
L 21.578125 0 
z
" id="DejaVuSans-87"/>
       <path d="M 9.421875 54.6875 
L 18.40625 54.6875 
L 18.40625 0 
L 9.421875 0 
z
M 9.421875 75.984375 
L 18.40625 75.984375 
L 18.40625 64.59375 
L 9.421875 64.59375 
z
" id="DejaVuSans-105"/>
       <path d="M 18.3125 70.21875 
L 18.3125 54.6875 
L 36.8125 54.6875 
L 36.8125 47.703125 
L 18.3125 47.703125 
L 18.3125 18.015625 
Q 18.3125 11.328125 20.140625 9.421875 
Q 21.96875 7.515625 27.59375 7.515625 
L 36.8125 7.515625 
L 36.8125 0 
L 27.59375 0 
Q 17.1875 0 13.234375 3.875 
Q 9.28125 7.765625 9.28125 18.015625 
L 9.28125 47.703125 
L 2.6875 47.703125 
L 2.6875 54.6875 
L 9.28125 54.6875 
L 9.28125 70.21875 
z
" id="DejaVuSans-116"/>
       <path d="M 54.890625 33.015625 
L 54.890625 0 
L 45.90625 0 
L 45.90625 32.71875 
Q 45.90625 40.484375 42.875 44.328125 
Q 39.84375 48.1875 33.796875 48.1875 
Q 26.515625 48.1875 22.3125 43.546875 
Q 18.109375 38.921875 18.109375 30.90625 
L 18.109375 0 
L 9.078125 0 
L 9.078125 75.984375 
L 18.109375 75.984375 
L 18.109375 46.1875 
Q 21.34375 51.125 25.703125 53.5625 
Q 30.078125 56 35.796875 56 
Q 45.21875 56 50.046875 50.171875 
Q 54.890625 44.34375 54.890625 33.015625 
z
" id="DejaVuSans-104"/>
       <path id="DejaVuSans-32"/>
       <path d="M 48.78125 52.59375 
L 48.78125 44.1875 
Q 44.96875 46.296875 41.140625 47.34375 
Q 37.3125 48.390625 33.40625 48.390625 
Q 24.65625 48.390625 19.8125 42.84375 
Q 14.984375 37.3125 14.984375 27.296875 
Q 14.984375 17.28125 19.8125 11.734375 
Q 24.65625 6.203125 33.40625 6.203125 
Q 37.3125 6.203125 41.140625 7.25 
Q 44.96875 8.296875 48.78125 10.40625 
L 48.78125 2.09375 
Q 45.015625 0.34375 40.984375 -0.53125 
Q 36.96875 -1.421875 32.421875 -1.421875 
Q 20.0625 -1.421875 12.78125 6.34375 
Q 5.515625 14.109375 5.515625 27.296875 
Q 5.515625 40.671875 12.859375 48.328125 
Q 20.21875 56 33.015625 56 
Q 37.15625 56 41.109375 55.140625 
Q 45.0625 54.296875 48.78125 52.59375 
z
" id="DejaVuSans-99"/>
       <path d="M 30.609375 48.390625 
Q 23.390625 48.390625 19.1875 42.75 
Q 14.984375 37.109375 14.984375 27.296875 
Q 14.984375 17.484375 19.15625 11.84375 
Q 23.34375 6.203125 30.609375 6.203125 
Q 37.796875 6.203125 41.984375 11.859375 
Q 46.1875 17.53125 46.1875 27.296875 
Q 46.1875 37.015625 41.984375 42.703125 
Q 37.796875 48.390625 30.609375 48.390625 
z
M 30.609375 56 
Q 42.328125 56 49.015625 48.375 
Q 55.71875 40.765625 55.71875 27.296875 
Q 55.71875 13.875 49.015625 6.21875 
Q 42.328125 -1.421875 30.609375 -1.421875 
Q 18.84375 -1.421875 12.171875 6.21875 
Q 5.515625 13.875 5.515625 27.296875 
Q 5.515625 40.765625 12.171875 48.375 
Q 18.84375 56 30.609375 56 
z
" id="DejaVuSans-111"/>
       <path d="M 54.890625 33.015625 
L 54.890625 0 
L 45.90625 0 
L 45.90625 32.71875 
Q 45.90625 40.484375 42.875 44.328125 
Q 39.84375 48.1875 33.796875 48.1875 
Q 26.515625 48.1875 22.3125 43.546875 
Q 18.109375 38.921875 18.109375 30.90625 
L 18.109375 0 
L 9.078125 0 
L 9.078125 54.6875 
L 18.109375 54.6875 
L 18.109375 46.1875 
Q 21.34375 51.125 25.703125 53.5625 
Q 30.078125 56 35.796875 56 
Q 45.21875 56 50.046875 50.171875 
Q 54.890625 44.34375 54.890625 33.015625 
z
" id="DejaVuSans-110"/>
       <path d="M 37.109375 75.984375 
L 37.109375 68.5 
L 28.515625 68.5 
Q 23.6875 68.5 21.796875 66.546875 
Q 19.921875 64.59375 19.921875 59.515625 
L 19.921875 54.6875 
L 34.71875 54.6875 
L 34.71875 47.703125 
L 19.921875 47.703125 
L 19.921875 0 
L 10.890625 0 
L 10.890625 47.703125 
L 2.296875 47.703125 
L 2.296875 54.6875 
L 10.890625 54.6875 
L 10.890625 58.5 
Q 10.890625 67.625 15.140625 71.796875 
Q 19.390625 75.984375 28.609375 75.984375 
z
" id="DejaVuSans-102"/>
       <path d="M 9.421875 75.984375 
L 18.40625 75.984375 
L 18.40625 0 
L 9.421875 0 
z
" id="DejaVuSans-108"/>
       <path d="M 44.28125 53.078125 
L 44.28125 44.578125 
Q 40.484375 46.53125 36.375 47.5 
Q 32.28125 48.484375 27.875 48.484375 
Q 21.1875 48.484375 17.84375 46.4375 
Q 14.5 44.390625 14.5 40.28125 
Q 14.5 37.15625 16.890625 35.375 
Q 19.28125 33.59375 26.515625 31.984375 
L 29.59375 31.296875 
Q 39.15625 29.25 43.1875 25.515625 
Q 47.21875 21.78125 47.21875 15.09375 
Q 47.21875 7.46875 41.1875 3.015625 
Q 35.15625 -1.421875 24.609375 -1.421875 
Q 20.21875 -1.421875 15.453125 -0.5625 
Q 10.6875 0.296875 5.421875 2 
L 5.421875 11.28125 
Q 10.40625 8.6875 15.234375 7.390625 
Q 20.0625 6.109375 24.8125 6.109375 
Q 31.15625 6.109375 34.5625 8.28125 
Q 37.984375 10.453125 37.984375 14.40625 
Q 37.984375 18.0625 35.515625 20.015625 
Q 33.0625 21.96875 24.703125 23.78125 
L 21.578125 24.515625 
Q 13.234375 26.265625 9.515625 29.90625 
Q 5.8125 33.546875 5.8125 39.890625 
Q 5.8125 47.609375 11.28125 51.796875 
Q 16.75 56 26.8125 56 
Q 31.78125 56 36.171875 55.265625 
Q 40.578125 54.546875 44.28125 53.078125 
z
" id="DejaVuSans-115"/>
      </defs>
      <g transform="translate(35.042187 45.139219)scale(0.1 -0.1)">
       <use xlink:href="#DejaVuSans-87"/>
       <use x="98.845703" xlink:href="#DejaVuSans-105"/>
       <use x="126.628906" xlink:href="#DejaVuSans-116"/>
       <use x="165.837891" xlink:href="#DejaVuSans-104"/>
       <use x="229.216797" xlink:href="#DejaVuSans-32"/>
       <use x="261.003906" xlink:href="#DejaVuSans-99"/>
       <use x="315.984375" xlink:href="#DejaVuSans-111"/>
       <use x="377.166016" xlink:href="#DejaVuSans-110"/>
       <use x="440.544922" xlink:href="#DejaVuSans-102"/>
       <use x="475.75" xlink:href="#DejaVuSans-108"/>
       <use x="503.533203" xlink:href="#DejaVuSans-105"/>
       <use x="531.316406" xlink:href="#DejaVuSans-99"/>
       <use x="586.296875" xlink:href="#DejaVuSans-116"/>
       <use x="625.505859" xlink:href="#DejaVuSans-115"/>
      </g>
     </g>
    </g>
    <g id="ytick_2">
     <g id="line2d_7">
      <g>
       <use style="stroke:#000000;stroke-width:0.8;" x="109.8" xlink:href="#m56434c506e" y="20.98"/>
      </g>
     </g>
     <g id="text_7">
      <!-- Without conflicts -->
      <defs>
       <path d="M 8.5 21.578125 
L 8.5 54.6875 
L 17.484375 54.6875 
L 17.484375 21.921875 
Q 17.484375 14.15625 20.5 10.265625 
Q 23.53125 6.390625 29.59375 6.390625 
Q 36.859375 6.390625 41.078125 11.03125 
Q 45.3125 15.671875 45.3125 23.6875 
L 45.3125 54.6875 
L 54.296875 54.6875 
L 54.296875 0 
L 45.3125 0 
L 45.3125 8.40625 
Q 42.046875 3.421875 37.71875 1 
Q 33.40625 -1.421875 27.6875 -1.421875 
Q 18.265625 -1.421875 13.375 4.4375 
Q 8.5 10.296875 8.5 21.578125 
z
M 31.109375 56 
z
" id="DejaVuSans-117"/>
      </defs>
      <g transform="translate(18.665625 24.779219)scale(0.1 -0.1)">
       <use xlink:href="#DejaVuSans-87"/>
       <use x="98.845703" xlink:href="#DejaVuSans-105"/>
       <use x="126.628906" xlink:href="#DejaVuSans-116"/>
       <use x="165.837891" xlink:href="#DejaVuSans-104"/>
       <use x="229.216797" xlink:href="#DejaVuSans-111"/>
       <use x="290.398438" xlink:href="#DejaVuSans-117"/>
       <use x="353.777344" xlink:href="#DejaVuSans-116"/>
       <use x="392.986328" xlink:href="#DejaVuSans-32"/>
       <use x="424.773438" xlink:href="#DejaVuSans-99"/>
       <use x="479.753906" xlink:href="#DejaVuSans-111"/>
       <use x="540.935547" xlink:href="#DejaVuSans-110"/>
       <use x="604.314453" xlink:href="#DejaVuSans-102"/>
       <use x="639.519531" xlink:href="#DejaVuSans-108"/>
       <use x="667.302734" xlink:href="#DejaVuSans-105"/>
       <use x="695.085938" xlink:href="#DejaVuSans-99"/>
       <use x="750.066406" xlink:href="#DejaVuSans-116"/>
       <use x="789.275391" xlink:href="#DejaVuSans-115"/>
      </g>
     </g>
    </g>
   </g>
   <g id="line2d_8">
    <path clip-path="url(#pa0926678c1)" d="M 130.859202 47.448 
L 130.859202 35.232 
L 241.333703 35.232 
L 241.333703 47.448 
L 130.859202 47.448 
" style="fill:none;stroke:#1f77b4;stroke-linecap:square;"/>
   </g>
   <g id="line2d_9">
    <path clip-path="url(#pa0926678c1)" d="M 130.859202 41.34 
L 125.335477 41.34 
" style="fill:none;stroke:#1f77b4;stroke-linecap:square;"/>
   </g>
   <g id="line2d_10">
    <path clip-path="url(#pa0926678c1)" d="M 241.333703 41.34 
L 407.045455 41.34 
" style="fill:none;stroke:#1f77b4;stroke-linecap:square;"/>
   </g>
   <g id="line2d_11">
    <path clip-path="url(#pa0926678c1)" d="M 125.335477 44.394 
L 125.335477 38.286 
" style="fill:none;stroke:#000000;stroke-linecap:square;"/>
   </g>
   <g id="line2d_12">
    <path clip-path="url(#pa0926678c1)" d="M 407.045455 44.394 
L 407.045455 38.286 
" style="fill:none;stroke:#000000;stroke-linecap:square;"/>
   </g>
   <g id="line2d_13">
    <path clip-path="url(#pa0926678c1)" d="M 125.335477 27.088 
L 125.335477 14.872 
L 135.001996 14.872 
L 135.001996 27.088 
L 125.335477 27.088 
" style="fill:none;stroke:#1f77b4;stroke-linecap:square;"/>
   </g>
   <g id="line2d_14">
    <path clip-path="url(#pa0926678c1)" d="M 125.335477 20.98 
L 123.954545 20.98 
" style="fill:none;stroke:#1f77b4;stroke-linecap:square;"/>
   </g>
   <g id="line2d_15">
    <path clip-path="url(#pa0926678c1)" d="M 135.001996 20.98 
L 148.811308 20.98 
" style="fill:none;stroke:#1f77b4;stroke-linecap:square;"/>
   </g>
   <g id="line2d_16">
    <path clip-path="url(#pa0926678c1)" d="M 123.954545 24.034 
L 123.954545 17.926 
" style="fill:none;stroke:#000000;stroke-linecap:square;"/>
   </g>
   <g id="line2d_17">
    <path clip-path="url(#pa0926678c1)" d="M 148.811308 24.034 
L 148.811308 17.926 
" style="fill:none;stroke:#000000;stroke-linecap:square;"/>
   </g>
   <g id="line2d_18">
    <path clip-path="url(#pa0926678c1)" d="M 150.192239 47.448 
L 150.192239 35.232 
" style="fill:none;stroke:#2ca02c;stroke-linecap:square;"/>
   </g>
   <g id="line2d_19">
    <path clip-path="url(#pa0926678c1)" d="M 126.716408 27.088 
L 126.716408 14.872 
" style="fill:none;stroke:#2ca02c;stroke-linecap:square;"/>
   </g>
   <g id="patch_3">
    <path d="M 109.8 51.52 
L 109.8 10.8 
" style="fill:none;stroke:#000000;stroke-linecap:square;stroke-linejoin:miter;stroke-width:0.8;"/>
   </g>
   <g id="patch_4">
    <path d="M 421.2 51.52 
L 421.2 10.8 
" style="fill:none;stroke:#000000;stroke-linecap:square;stroke-linejoin:miter;stroke-width:0.8;"/>
   </g>
   <g id="patch_5">
    <path d="M 109.8 51.52 
L 421.2 51.52 
" style="fill:none;stroke:#000000;stroke-linecap:square;stroke-linejoin:miter;stroke-width:0.8;"/>
   </g>
   <g id="patch_6">
    <path d="M 109.8 10.8 
L 421.2 10.8 
" style="fill:none;stroke:#000000;stroke-linecap:square;stroke-linejoin:miter;stroke-width:0.8;"/>
   </g>
   <g id="text_8">
    <!-- (a) -->
    <defs>
     <path d="M 31 75.875 
Q 24.46875 64.65625 21.28125 53.65625 
Q 18.109375 42.671875 18.109375 31.390625 
Q 18.109375 20.125 21.3125 9.0625 
Q 24.515625 -2 31 -13.1875 
L 23.1875 -13.1875 
Q 15.875 -1.703125 12.234375 9.375 
Q 8.59375 20.453125 8.59375 31.390625 
Q 8.59375 42.28125 12.203125 53.3125 
Q 15.828125 64.359375 23.1875 75.875 
z
" id="DejaVuSans-40"/>
     <path d="M 34.28125 27.484375 
Q 23.390625 27.484375 19.1875 25 
Q 14.984375 22.515625 14.984375 16.5 
Q 14.984375 11.71875 18.140625 8.90625 
Q 21.296875 6.109375 26.703125 6.109375 
Q 34.1875 6.109375 38.703125 11.40625 
Q 43.21875 16.703125 43.21875 25.484375 
L 43.21875 27.484375 
z
M 52.203125 31.203125 
L 52.203125 0 
L 43.21875 0 
L 43.21875 8.296875 
Q 40.140625 3.328125 35.546875 0.953125 
Q 30.953125 -1.421875 24.3125 -1.421875 
Q 15.921875 -1.421875 10.953125 3.296875 
Q 6 8.015625 6 15.921875 
Q 6 25.140625 12.171875 29.828125 
Q 18.359375 34.515625 30.609375 34.515625 
L 43.21875 34.515625 
L 43.21875 35.40625 
Q 43.21875 41.609375 39.140625 45 
Q 35.0625 48.390625 27.6875 48.390625 
Q 23 48.390625 18.546875 47.265625 
Q 14.109375 46.140625 10.015625 43.890625 
L 10.015625 52.203125 
Q 14.9375 54.109375 19.578125 55.046875 
Q 24.21875 56 28.609375 56 
Q 40.484375 56 46.34375 49.84375 
Q 52.203125 43.703125 52.203125 31.203125 
z
" id="DejaVuSans-97"/>
     <path d="M 8.015625 75.875 
L 15.828125 75.875 
Q 23.140625 64.359375 26.78125 53.3125 
Q 30.421875 42.28125 30.421875 31.390625 
Q 30.421875 20.453125 26.78125 9.375 
Q 23.140625 -1.703125 15.828125 -13.1875 
L 8.015625 -13.1875 
Q 14.5 -2 17.703125 9.0625 
Q 20.90625 20.125 20.90625 31.390625 
Q 20.90625 42.671875 17.703125 53.65625 
Q 14.5 64.65625 8.015625 75.875 
z
" id="DejaVuSans-41"/>
    </defs>
    <g transform="translate(404.4825 23.124)scale(0.12 -0.12)">
     <use xlink:href="#DejaVuSans-40"/>
     <use x="39.013672" xlink:href="#DejaVuSans-97"/>
     <use x="100.292969" xlink:href="#DejaVuSans-41"/>
    </g>
   </g>
  </g>
  <g id="axes_2">
   <g id="patch_7">
    <path d="M 109.8 246.2 
L 421.2 246.2 
L 421.2 83.32 
L 109.8 83.32 
z
" style="fill:#ffffff;"/>
   </g>
   <g id="matplotlib.axis_3">
    <g id="xtick_6">
     <g id="line2d_20">
      <g>
       <use style="stroke:#000000;stroke-width:0.8;" x="123.954545" xlink:href="#m7eeb2c9038" y="246.2"/>
      </g>
     </g>
     <g id="text_9">
      <!-- 0 -->
      <g transform="translate(120.773295 260.798437)scale(0.1 -0.1)">
       <use xlink:href="#DejaVuSans-48"/>
      </g>
     </g>
    </g>
    <g id="xtick_7">
     <g id="line2d_21">
      <g>
       <use style="stroke:#000000;stroke-width:0.8;" x="193.001109" xlink:href="#m7eeb2c9038" y="246.2"/>
      </g>
     </g>
     <g id="text_10">
      <!-- 50 -->
      <g transform="translate(186.638609 260.798437)scale(0.1 -0.1)">
       <use xlink:href="#DejaVuSans-53"/>
       <use x="63.623047" xlink:href="#DejaVuSans-48"/>
      </g>
     </g>
    </g>
    <g id="xtick_8">
     <g id="line2d_22">
      <g>
       <use style="stroke:#000000;stroke-width:0.8;" x="262.047672" xlink:href="#m7eeb2c9038" y="246.2"/>
      </g>
     </g>
     <g id="text_11">
      <!-- 100 -->
      <g transform="translate(252.503922 260.798437)scale(0.1 -0.1)">
       <use xlink:href="#DejaVuSans-49"/>
       <use x="63.623047" xlink:href="#DejaVuSans-48"/>
       <use x="127.246094" xlink:href="#DejaVuSans-48"/>
      </g>
     </g>
    </g>
    <g id="xtick_9">
     <g id="line2d_23">
      <g>
       <use style="stroke:#000000;stroke-width:0.8;" x="331.094235" xlink:href="#m7eeb2c9038" y="246.2"/>
      </g>
     </g>
     <g id="text_12">
      <!-- 150 -->
      <g transform="translate(321.550485 260.798437)scale(0.1 -0.1)">
       <use xlink:href="#DejaVuSans-49"/>
       <use x="63.623047" xlink:href="#DejaVuSans-53"/>
       <use x="127.246094" xlink:href="#DejaVuSans-48"/>
      </g>
     </g>
    </g>
    <g id="xtick_10">
     <g id="line2d_24">
      <g>
       <use style="stroke:#000000;stroke-width:0.8;" x="400.140798" xlink:href="#m7eeb2c9038" y="246.2"/>
      </g>
     </g>
     <g id="text_13">
      <!-- 200 -->
      <g transform="translate(390.597048 260.798437)scale(0.1 -0.1)">
       <use xlink:href="#DejaVuSans-50"/>
       <use x="63.623047" xlink:href="#DejaVuSans-48"/>
       <use x="127.246094" xlink:href="#DejaVuSans-48"/>
      </g>
     </g>
    </g>
    <g id="text_14">
     <!-- (h) changed-files B2 -->
     <defs>
      <path d="M 45.40625 27.984375 
Q 45.40625 37.75 41.375 43.109375 
Q 37.359375 48.484375 30.078125 48.484375 
Q 22.859375 48.484375 18.828125 43.109375 
Q 14.796875 37.75 14.796875 27.984375 
Q 14.796875 18.265625 18.828125 12.890625 
Q 22.859375 7.515625 30.078125 7.515625 
Q 37.359375 7.515625 41.375 12.890625 
Q 45.40625 18.265625 45.40625 27.984375 
z
M 54.390625 6.78125 
Q 54.390625 -7.171875 48.1875 -13.984375 
Q 42 -20.796875 29.203125 -20.796875 
Q 24.46875 -20.796875 20.265625 -20.09375 
Q 16.0625 -19.390625 12.109375 -17.921875 
L 12.109375 -9.1875 
Q 16.0625 -11.328125 19.921875 -12.34375 
Q 23.78125 -13.375 27.78125 -13.375 
Q 36.625 -13.375 41.015625 -8.765625 
Q 45.40625 -4.15625 45.40625 5.171875 
L 45.40625 9.625 
Q 42.625 4.78125 38.28125 2.390625 
Q 33.9375 0 27.875 0 
Q 17.828125 0 11.671875 7.65625 
Q 5.515625 15.328125 5.515625 27.984375 
Q 5.515625 40.671875 11.671875 48.328125 
Q 17.828125 56 27.875 56 
Q 33.9375 56 38.28125 53.609375 
Q 42.625 51.21875 45.40625 46.390625 
L 45.40625 54.6875 
L 54.390625 54.6875 
z
" id="DejaVuSans-103"/>
      <path d="M 56.203125 29.59375 
L 56.203125 25.203125 
L 14.890625 25.203125 
Q 15.484375 15.921875 20.484375 11.0625 
Q 25.484375 6.203125 34.421875 6.203125 
Q 39.59375 6.203125 44.453125 7.46875 
Q 49.3125 8.734375 54.109375 11.28125 
L 54.109375 2.78125 
Q 49.265625 0.734375 44.1875 -0.34375 
Q 39.109375 -1.421875 33.890625 -1.421875 
Q 20.796875 -1.421875 13.15625 6.1875 
Q 5.515625 13.8125 5.515625 26.8125 
Q 5.515625 40.234375 12.765625 48.109375 
Q 20.015625 56 32.328125 56 
Q 43.359375 56 49.78125 48.890625 
Q 56.203125 41.796875 56.203125 29.59375 
z
M 47.21875 32.234375 
Q 47.125 39.59375 43.09375 43.984375 
Q 39.0625 48.390625 32.421875 48.390625 
Q 24.90625 48.390625 20.390625 44.140625 
Q 15.875 39.890625 15.1875 32.171875 
z
" id="DejaVuSans-101"/>
      <path d="M 45.40625 46.390625 
L 45.40625 75.984375 
L 54.390625 75.984375 
L 54.390625 0 
L 45.40625 0 
L 45.40625 8.203125 
Q 42.578125 3.328125 38.25 0.953125 
Q 33.9375 -1.421875 27.875 -1.421875 
Q 17.96875 -1.421875 11.734375 6.484375 
Q 5.515625 14.40625 5.515625 27.296875 
Q 5.515625 40.1875 11.734375 48.09375 
Q 17.96875 56 27.875 56 
Q 33.9375 56 38.25 53.625 
Q 42.578125 51.265625 45.40625 46.390625 
z
M 14.796875 27.296875 
Q 14.796875 17.390625 18.875 11.75 
Q 22.953125 6.109375 30.078125 6.109375 
Q 37.203125 6.109375 41.296875 11.75 
Q 45.40625 17.390625 45.40625 27.296875 
Q 45.40625 37.203125 41.296875 42.84375 
Q 37.203125 48.484375 30.078125 48.484375 
Q 22.953125 48.484375 18.875 42.84375 
Q 14.796875 37.203125 14.796875 27.296875 
z
" id="DejaVuSans-100"/>
      <path d="M 4.890625 31.390625 
L 31.203125 31.390625 
L 31.203125 23.390625 
L 4.890625 23.390625 
z
" id="DejaVuSans-45"/>
      <path d="M 19.671875 34.8125 
L 19.671875 8.109375 
L 35.5 8.109375 
Q 43.453125 8.109375 47.28125 11.40625 
Q 51.125 14.703125 51.125 21.484375 
Q 51.125 28.328125 47.28125 31.5625 
Q 43.453125 34.8125 35.5 34.8125 
z
M 19.671875 64.796875 
L 19.671875 42.828125 
L 34.28125 42.828125 
Q 41.5 42.828125 45.03125 45.53125 
Q 48.578125 48.25 48.578125 53.8125 
Q 48.578125 59.328125 45.03125 62.0625 
Q 41.5 64.796875 34.28125 64.796875 
z
M 9.8125 72.90625 
L 35.015625 72.90625 
Q 46.296875 72.90625 52.390625 68.21875 
Q 58.5 63.53125 58.5 54.890625 
Q 58.5 48.1875 55.375 44.234375 
Q 52.25 40.28125 46.1875 39.3125 
Q 53.46875 37.75 57.5 32.78125 
Q 61.53125 27.828125 61.53125 20.40625 
Q 61.53125 10.640625 54.890625 5.3125 
Q 48.25 0 35.984375 0 
L 9.8125 0 
z
" id="DejaVuSans-66"/>
     </defs>
     <g transform="translate(215.040625 274.476562)scale(0.1 -0.1)">
      <use xlink:href="#DejaVuSans-40"/>
      <use x="39.013672" xlink:href="#DejaVuSans-104"/>
      <use x="102.392578" xlink:href="#DejaVuSans-41"/>
      <use x="141.40625" xlink:href="#DejaVuSans-32"/>
      <use x="173.193359" xlink:href="#DejaVuSans-99"/>
      <use x="228.173828" xlink:href="#DejaVuSans-104"/>
      <use x="291.552734" xlink:href="#DejaVuSans-97"/>
      <use x="352.832031" xlink:href="#DejaVuSans-110"/>
      <use x="416.210938" xlink:href="#DejaVuSans-103"/>
      <use x="479.6875" xlink:href="#DejaVuSans-101"/>
      <use x="541.210938" xlink:href="#DejaVuSans-100"/>
      <use x="604.6875" xlink:href="#DejaVuSans-45"/>
      <use x="640.771484" xlink:href="#DejaVuSans-102"/>
      <use x="675.976562" xlink:href="#DejaVuSans-105"/>
      <use x="703.759766" xlink:href="#DejaVuSans-108"/>
      <use x="731.542969" xlink:href="#DejaVuSans-101"/>
      <use x="793.066406" xlink:href="#DejaVuSans-115"/>
      <use x="845.166016" xlink:href="#DejaVuSans-32"/>
      <use x="876.953125" xlink:href="#DejaVuSans-66"/>
      <use x="945.556641" xlink:href="#DejaVuSans-50"/>
     </g>
    </g>
   </g>
   <g id="matplotlib.axis_4">
    <g id="ytick_3">
     <g id="line2d_25">
      <g>
       <use style="stroke:#000000;stroke-width:0.8;" x="109.8" xlink:href="#m56434c506e" y="246.2"/>
      </g>
     </g>
     <g id="text_15">
      <!-- 0% -->
      <defs>
       <path d="M 72.703125 32.078125 
Q 68.453125 32.078125 66.03125 28.46875 
Q 63.625 24.859375 63.625 18.40625 
Q 63.625 12.0625 66.03125 8.421875 
Q 68.453125 4.78125 72.703125 4.78125 
Q 76.859375 4.78125 79.265625 8.421875 
Q 81.6875 12.0625 81.6875 18.40625 
Q 81.6875 24.8125 79.265625 28.4375 
Q 76.859375 32.078125 72.703125 32.078125 
z
M 72.703125 38.28125 
Q 80.421875 38.28125 84.953125 32.90625 
Q 89.5 27.546875 89.5 18.40625 
Q 89.5 9.28125 84.9375 3.921875 
Q 80.375 -1.421875 72.703125 -1.421875 
Q 64.890625 -1.421875 60.34375 3.921875 
Q 55.8125 9.28125 55.8125 18.40625 
Q 55.8125 27.59375 60.375 32.9375 
Q 64.9375 38.28125 72.703125 38.28125 
z
M 22.3125 68.015625 
Q 18.109375 68.015625 15.6875 64.375 
Q 13.28125 60.75 13.28125 54.390625 
Q 13.28125 47.953125 15.671875 44.328125 
Q 18.0625 40.71875 22.3125 40.71875 
Q 26.5625 40.71875 28.96875 44.328125 
Q 31.390625 47.953125 31.390625 54.390625 
Q 31.390625 60.6875 28.953125 64.34375 
Q 26.515625 68.015625 22.3125 68.015625 
z
M 66.40625 74.21875 
L 74.21875 74.21875 
L 28.609375 -1.421875 
L 20.796875 -1.421875 
z
M 22.3125 74.21875 
Q 30.03125 74.21875 34.609375 68.875 
Q 39.203125 63.53125 39.203125 54.390625 
Q 39.203125 45.171875 34.640625 39.84375 
Q 30.078125 34.515625 22.3125 34.515625 
Q 14.546875 34.515625 10.03125 39.859375 
Q 5.515625 45.21875 5.515625 54.390625 
Q 5.515625 63.484375 10.046875 68.84375 
Q 14.59375 74.21875 22.3125 74.21875 
z
" id="DejaVuSans-37"/>
      </defs>
      <g transform="translate(86.935937 249.999219)scale(0.1 -0.1)">
       <use xlink:href="#DejaVuSans-48"/>
       <use x="63.623047" xlink:href="#DejaVuSans-37"/>
      </g>
     </g>
    </g>
    <g id="ytick_4">
     <g id="line2d_26">
      <g>
       <use style="stroke:#000000;stroke-width:0.8;" x="109.8" xlink:href="#m56434c506e" y="219.053333"/>
      </g>
     </g>
     <g id="text_16">
      <!-- 10% -->
      <g transform="translate(80.573437 222.852552)scale(0.1 -0.1)">
       <use xlink:href="#DejaVuSans-49"/>
       <use x="63.623047" xlink:href="#DejaVuSans-48"/>
       <use x="127.246094" xlink:href="#DejaVuSans-37"/>
      </g>
     </g>
    </g>
    <g id="ytick_5">
     <g id="line2d_27">
      <g>
       <use style="stroke:#000000;stroke-width:0.8;" x="109.8" xlink:href="#m56434c506e" y="191.906667"/>
      </g>
     </g>
     <g id="text_17">
      <!-- 20% -->
      <g transform="translate(80.573437 195.705885)scale(0.1 -0.1)">
       <use xlink:href="#DejaVuSans-50"/>
       <use x="63.623047" xlink:href="#DejaVuSans-48"/>
       <use x="127.246094" xlink:href="#DejaVuSans-37"/>
      </g>
     </g>
    </g>
    <g id="ytick_6">
     <g id="line2d_28">
      <g>
       <use style="stroke:#000000;stroke-width:0.8;" x="109.8" xlink:href="#m56434c506e" y="164.76"/>
      </g>
     </g>
     <g id="text_18">
      <!-- 30% -->
      <defs>
       <path d="M 40.578125 39.3125 
Q 47.65625 37.796875 51.625 33 
Q 55.609375 28.21875 55.609375 21.1875 
Q 55.609375 10.40625 48.1875 4.484375 
Q 40.765625 -1.421875 27.09375 -1.421875 
Q 22.515625 -1.421875 17.65625 -0.515625 
Q 12.796875 0.390625 7.625 2.203125 
L 7.625 11.71875 
Q 11.71875 9.328125 16.59375 8.109375 
Q 21.484375 6.890625 26.8125 6.890625 
Q 36.078125 6.890625 40.9375 10.546875 
Q 45.796875 14.203125 45.796875 21.1875 
Q 45.796875 27.640625 41.28125 31.265625 
Q 36.765625 34.90625 28.71875 34.90625 
L 20.21875 34.90625 
L 20.21875 43.015625 
L 29.109375 43.015625 
Q 36.375 43.015625 40.234375 45.921875 
Q 44.09375 48.828125 44.09375 54.296875 
Q 44.09375 59.90625 40.109375 62.90625 
Q 36.140625 65.921875 28.71875 65.921875 
Q 24.65625 65.921875 20.015625 65.03125 
Q 15.375 64.15625 9.8125 62.3125 
L 9.8125 71.09375 
Q 15.4375 72.65625 20.34375 73.4375 
Q 25.25 74.21875 29.59375 74.21875 
Q 40.828125 74.21875 47.359375 69.109375 
Q 53.90625 64.015625 53.90625 55.328125 
Q 53.90625 49.265625 50.4375 45.09375 
Q 46.96875 40.921875 40.578125 39.3125 
z
" id="DejaVuSans-51"/>
      </defs>
      <g transform="translate(80.573437 168.559219)scale(0.1 -0.1)">
       <use xlink:href="#DejaVuSans-51"/>
       <use x="63.623047" xlink:href="#DejaVuSans-48"/>
       <use x="127.246094" xlink:href="#DejaVuSans-37"/>
      </g>
     </g>
    </g>
    <g id="ytick_7">
     <g id="line2d_29">
      <g>
       <use style="stroke:#000000;stroke-width:0.8;" x="109.8" xlink:href="#m56434c506e" y="137.613333"/>
      </g>
     </g>
     <g id="text_19">
      <!-- 40% -->
      <defs>
       <path d="M 37.796875 64.3125 
L 12.890625 25.390625 
L 37.796875 25.390625 
z
M 35.203125 72.90625 
L 47.609375 72.90625 
L 47.609375 25.390625 
L 58.015625 25.390625 
L 58.015625 17.1875 
L 47.609375 17.1875 
L 47.609375 0 
L 37.796875 0 
L 37.796875 17.1875 
L 4.890625 17.1875 
L 4.890625 26.703125 
z
" id="DejaVuSans-52"/>
      </defs>
      <g transform="translate(80.573437 141.412552)scale(0.1 -0.1)">
       <use xlink:href="#DejaVuSans-52"/>
       <use x="63.623047" xlink:href="#DejaVuSans-48"/>
       <use x="127.246094" xlink:href="#DejaVuSans-37"/>
      </g>
     </g>
    </g>
    <g id="ytick_8">
     <g id="line2d_30">
      <g>
       <use style="stroke:#000000;stroke-width:0.8;" x="109.8" xlink:href="#m56434c506e" y="110.466667"/>
      </g>
     </g>
     <g id="text_20">
      <!-- 50% -->
      <g transform="translate(80.573437 114.265885)scale(0.1 -0.1)">
       <use xlink:href="#DejaVuSans-53"/>
       <use x="63.623047" xlink:href="#DejaVuSans-48"/>
       <use x="127.246094" xlink:href="#DejaVuSans-37"/>
      </g>
     </g>
    </g>
    <g id="ytick_9">
     <g id="line2d_31">
      <g>
       <use style="stroke:#000000;stroke-width:0.8;" x="109.8" xlink:href="#m56434c506e" y="83.32"/>
      </g>
     </g>
     <g id="text_21">
      <!-- 60% -->
      <defs>
       <path d="M 33.015625 40.375 
Q 26.375 40.375 22.484375 35.828125 
Q 18.609375 31.296875 18.609375 23.390625 
Q 18.609375 15.53125 22.484375 10.953125 
Q 26.375 6.390625 33.015625 6.390625 
Q 39.65625 6.390625 43.53125 10.953125 
Q 47.40625 15.53125 47.40625 23.390625 
Q 47.40625 31.296875 43.53125 35.828125 
Q 39.65625 40.375 33.015625 40.375 
z
M 52.59375 71.296875 
L 52.59375 62.3125 
Q 48.875 64.0625 45.09375 64.984375 
Q 41.3125 65.921875 37.59375 65.921875 
Q 27.828125 65.921875 22.671875 59.328125 
Q 17.53125 52.734375 16.796875 39.40625 
Q 19.671875 43.65625 24.015625 45.921875 
Q 28.375 48.1875 33.59375 48.1875 
Q 44.578125 48.1875 50.953125 41.515625 
Q 57.328125 34.859375 57.328125 23.390625 
Q 57.328125 12.15625 50.6875 5.359375 
Q 44.046875 -1.421875 33.015625 -1.421875 
Q 20.359375 -1.421875 13.671875 8.265625 
Q 6.984375 17.96875 6.984375 36.375 
Q 6.984375 53.65625 15.1875 63.9375 
Q 23.390625 74.21875 37.203125 74.21875 
Q 40.921875 74.21875 44.703125 73.484375 
Q 48.484375 72.75 52.59375 71.296875 
z
" id="DejaVuSans-54"/>
      </defs>
      <g transform="translate(80.573437 87.119219)scale(0.1 -0.1)">
       <use xlink:href="#DejaVuSans-54"/>
       <use x="63.623047" xlink:href="#DejaVuSans-48"/>
       <use x="127.246094" xlink:href="#DejaVuSans-37"/>
      </g>
     </g>
    </g>
    <g id="text_22">
     <!-- P(conflict  -->
     <defs>
      <path d="M 19.671875 64.796875 
L 19.671875 37.40625 
L 32.078125 37.40625 
Q 38.96875 37.40625 42.71875 40.96875 
Q 46.484375 44.53125 46.484375 51.125 
Q 46.484375 57.671875 42.71875 61.234375 
Q 38.96875 64.796875 32.078125 64.796875 
z
M 9.8125 72.90625 
L 32.078125 72.90625 
Q 44.34375 72.90625 50.609375 67.359375 
Q 56.890625 61.8125 56.890625 51.125 
Q 56.890625 40.328125 50.609375 34.8125 
Q 44.34375 29.296875 32.078125 29.296875 
L 19.671875 29.296875 
L 19.671875 0 
L 9.8125 0 
z
" id="DejaVuSans-80"/>
     </defs>
     <g transform="translate(10.573437 150.557344)scale(0.1 -0.1)">
      <use xlink:href="#DejaVuSans-80"/>
      <use x="60.302734" xlink:href="#DejaVuSans-40"/>
      <use x="99.316406" xlink:href="#DejaVuSans-99"/>
      <use x="154.296875" xlink:href="#DejaVuSans-111"/>
      <use x="215.478516" xlink:href="#DejaVuSans-110"/>
      <use x="278.857422" xlink:href="#DejaVuSans-102"/>
      <use x="314.0625" xlink:href="#DejaVuSans-108"/>
      <use x="341.845703" xlink:href="#DejaVuSans-105"/>
      <use x="369.628906" xlink:href="#DejaVuSans-99"/>
      <use x="424.609375" xlink:href="#DejaVuSans-116"/>
      <use x="463.818359" xlink:href="#DejaVuSans-32"/>
     </g>
     <!--    | changed- -->
     <defs>
      <path d="M 21 76.421875 
L 21 -23.578125 
L 12.703125 -23.578125 
L 12.703125 76.421875 
z
" id="DejaVuSans-124"/>
     </defs>
     <g transform="translate(10.573437 161.807656)scale(0.1 -0.1)">
      <use xlink:href="#DejaVuSans-32"/>
      <use x="31.787109" xlink:href="#DejaVuSans-32"/>
      <use x="63.574219" xlink:href="#DejaVuSans-32"/>
      <use x="95.361328" xlink:href="#DejaVuSans-124"/>
      <use x="129.052734" xlink:href="#DejaVuSans-32"/>
      <use x="160.839844" xlink:href="#DejaVuSans-99"/>
      <use x="215.820312" xlink:href="#DejaVuSans-104"/>
      <use x="279.199219" xlink:href="#DejaVuSans-97"/>
      <use x="340.478516" xlink:href="#DejaVuSans-110"/>
      <use x="403.857422" xlink:href="#DejaVuSans-103"/>
      <use x="467.333984" xlink:href="#DejaVuSans-101"/>
      <use x="528.857422" xlink:href="#DejaVuSans-100"/>
      <use x="592.333984" xlink:href="#DejaVuSans-45"/>
     </g>
     <!--      files B2 -->
     <g transform="translate(10.573437 173.283594)scale(0.1 -0.1)">
      <use xlink:href="#DejaVuSans-32"/>
      <use x="31.787109" xlink:href="#DejaVuSans-32"/>
      <use x="63.574219" xlink:href="#DejaVuSans-32"/>
      <use x="95.361328" xlink:href="#DejaVuSans-32"/>
      <use x="127.148438" xlink:href="#DejaVuSans-32"/>
      <use x="158.935547" xlink:href="#DejaVuSans-102"/>
      <use x="194.140625" xlink:href="#DejaVuSans-105"/>
      <use x="221.923828" xlink:href="#DejaVuSans-108"/>
      <use x="249.707031" xlink:href="#DejaVuSans-101"/>
      <use x="311.230469" xlink:href="#DejaVuSans-115"/>
      <use x="363.330078" xlink:href="#DejaVuSans-32"/>
      <use x="395.117188" xlink:href="#DejaVuSans-66"/>
      <use x="463.720703" xlink:href="#DejaVuSans-50"/>
     </g>
     <!--      ≥ x) -->
     <defs>
      <path d="M 10.59375 49.609375 
L 10.59375 58.203125 
L 73.1875 40.28125 
L 73.1875 31.984375 
L 10.59375 14.015625 
L 10.59375 22.703125 
L 57.515625 36.078125 
z
M 73.1875 8.296875 
L 73.1875 0 
L 10.59375 0 
L 10.59375 8.296875 
z
" id="DejaVuSans-8805"/>
      <path d="M 54.890625 54.6875 
L 35.109375 28.078125 
L 55.90625 0 
L 45.3125 0 
L 29.390625 21.484375 
L 13.484375 0 
L 2.875 0 
L 24.125 28.609375 
L 4.6875 54.6875 
L 15.28125 54.6875 
L 29.78125 35.203125 
L 44.28125 54.6875 
z
" id="DejaVuSans-120"/>
     </defs>
     <g transform="translate(10.573437 184.481406)scale(0.1 -0.1)">
      <use xlink:href="#DejaVuSans-32"/>
      <use x="31.787109" xlink:href="#DejaVuSans-32"/>
      <use x="63.574219" xlink:href="#DejaVuSans-32"/>
      <use x="95.361328" xlink:href="#DejaVuSans-32"/>
      <use x="127.148438" xlink:href="#DejaVuSans-32"/>
      <use x="158.935547" xlink:href="#DejaVuSans-8805"/>
      <use x="242.724609" xlink:href="#DejaVuSans-32"/>
      <use x="274.511719" xlink:href="#DejaVuSans-120"/>
      <use x="333.691406" xlink:href="#DejaVuSans-41"/>
     </g>
    </g>
   </g>
   <g id="line2d_32">
    <path clip-path="url(#pa939a748fd)" d="M 407.045455 116.080297 
L 407.045455 116.120021 
L 407.045455 115.948712 
L 405.664523 115.921297 
L 405.664523 116.018078 
L 405.664523 116.217411 
L 405.664523 116.135344 
L 404.283592 116.260962 
L 404.283592 116.361282 
L 404.283592 116.302127 
L 402.902661 116.424926 
L 402.902661 116.538056 
L 402.902661 116.503885 
L 400.140798 116.424427 
L 400.140798 116.543507 
L 400.140798 116.657469 
L 400.140798 116.538879 
L 400.140798 116.549665 
L 397.378936 116.473021 
L 397.378936 116.588627 
L 397.378936 116.659628 
L 397.378936 116.579398 
L 397.378936 116.625908 
L 394.617073 116.673363 
L 394.617073 116.721893 
L 394.617073 116.613273 
L 394.617073 116.68598 
L 393.236142 116.799876 
L 393.236142 116.884438 
L 393.236142 116.790434 
L 393.236142 116.855603 
L 391.855211 116.740585 
L 391.855211 116.714229 
L 391.855211 116.975634 
L 389.093348 117.1183 
L 389.093348 117.203431 
L 389.093348 117.060495 
L 384.950554 117.239787 
L 384.950554 117.416646 
L 384.950554 117.184682 
L 384.950554 117.207983 
L 382.188692 117.230137 
L 382.188692 117.253333 
L 382.188692 117.407991 
L 382.188692 117.354336 
L 380.807761 117.293419 
L 380.807761 117.431706 
L 380.807761 117.523733 
L 380.807761 117.444746 
L 379.426829 117.569835 
L 379.426829 117.567307 
L 379.426829 117.704491 
L 378.045898 117.820491 
L 378.045898 117.883395 
L 378.045898 117.807494 
L 378.045898 117.875534 
L 376.664967 117.998109 
L 376.664967 117.990158 
L 376.664967 118.057803 
L 376.664967 118.027283 
L 375.284035 118.143407 
L 375.284035 118.165826 
L 375.284035 118.085201 
L 373.903104 118.214057 
L 373.903104 118.345209 
L 373.903104 118.284264 
L 372.522173 118.243056 
L 372.522173 118.351298 
L 372.522173 118.373463 
L 372.522173 118.205437 
L 372.522173 118.222188 
L 369.76031 118.157601 
L 369.76031 118.132979 
L 369.76031 118.453712 
L 369.76031 118.396424 
L 368.379379 118.339293 
L 368.379379 118.45098 
L 365.617517 118.58551 
L 365.617517 118.727505 
L 362.855654 118.745308 
L 362.855654 118.788007 
L 362.855654 118.830676 
L 362.855654 118.669583 
L 362.855654 118.773175 
L 361.474723 118.79442 
L 361.474723 118.700449 
L 361.474723 118.649892 
L 361.474723 118.710676 
L 361.474723 118.681335 
L 360.093792 118.723609 
L 360.093792 118.601678 
L 360.093792 118.553766 
L 360.093792 118.638505 
L 360.093792 118.574829 
L 358.71286 118.54044 
L 358.71286 118.642835 
L 358.71286 118.640145 
L 358.71286 118.966689 
L 357.331929 118.943048 
L 357.331929 119.044444 
L 357.331929 119.282245 
L 355.950998 119.403477 
L 355.950998 119.48608 
L 355.950998 119.283382 
L 355.950998 119.324589 
L 354.570067 119.261152 
L 354.570067 119.393037 
L 353.189135 119.518464 
L 353.189135 119.871777 
L 351.808204 119.848555 
L 351.808204 119.946524 
L 351.808204 120.1789 
L 351.808204 119.943495 
L 351.808204 120.146471 
L 350.427273 120.260521 
L 350.427273 120.251191 
L 350.427273 120.484363 
L 347.66541 120.404629 
L 347.66541 120.533627 
L 347.66541 120.573107 
L 347.66541 120.468966 
L 347.66541 120.528078 
L 344.903548 120.383933 
L 344.903548 120.338566 
L 344.903548 120.485833 
L 344.903548 120.441488 
L 340.760754 120.604081 
L 340.760754 120.732213 
L 340.760754 120.597879 
L 340.760754 120.697822 
L 339.379823 120.815715 
L 339.379823 120.809431 
L 339.379823 120.8792 
L 339.379823 120.806292 
L 339.379823 120.876043 
L 337.998891 120.999114 
L 337.998891 121.083594 
L 337.998891 120.879367 
L 337.998891 121.061583 
L 333.856098 121.214827 
L 333.856098 121.233393 
L 333.856098 121.059213 
L 333.856098 121.142322 
L 332.475166 121.270912 
L 332.475166 121.258186 
L 332.475166 121.328528 
L 331.094235 121.282231 
L 331.094235 121.410653 
L 331.094235 121.48928 
L 331.094235 121.344389 
L 329.713304 121.472072 
L 329.713304 121.468857 
L 329.713304 121.639597 
L 328.332373 121.684135 
L 328.332373 121.558176 
L 328.332373 121.536907 
L 328.332373 121.58784 
L 328.332373 121.566585 
L 326.951441 121.681548 
L 326.951441 121.883489 
L 325.57051 122.010997 
L 325.57051 122.057684 
L 325.57051 121.949109 
L 325.57051 122.052241 
L 324.189579 122.163823 
L 324.189579 122.273752 
L 324.189579 122.160497 
L 324.189579 122.207638 
L 322.808647 122.125098 
L 322.808647 122.283721 
L 322.808647 122.280387 
L 322.808647 122.364374 
L 321.427716 122.343572 
L 321.427716 122.441452 
L 321.427716 122.493671 
L 321.427716 122.356412 
L 321.427716 122.426387 
L 320.046785 122.548238 
L 320.046785 122.56546 
L 320.046785 122.497018 
L 320.046785 122.531432 
L 318.665854 122.469781 
L 318.665854 122.614301 
L 318.665854 122.768498 
L 318.665854 122.727542 
L 317.284922 122.846863 
L 317.284922 122.843453 
L 317.284922 122.995897 
L 317.284922 122.836637 
L 317.284922 122.975534 
L 315.903991 123.093456 
L 315.903991 123.207918 
L 315.903991 123.133133 
L 314.52306 123.260519 
L 314.52306 123.35321 
L 314.52306 123.229817 
L 314.52306 123.335706 
L 313.142129 123.45559 
L 313.142129 123.551382 
L 310.380266 123.679646 
L 310.380266 123.83352 
L 310.380266 123.667755 
L 310.380266 123.75613 
L 308.999335 123.879337 
L 308.999335 123.937213 
L 308.999335 123.811287 
L 308.999335 123.876206 
L 307.618404 123.998667 
L 307.618404 124.181632 
L 307.618404 123.995085 
L 307.618404 124.13662 
L 306.237472 124.254316 
L 306.237472 124.484736 
L 303.47561 124.617701 
L 303.47561 124.657772 
L 303.47561 124.481366 
L 303.47561 124.53348 
L 302.094678 124.468114 
L 302.094678 124.616474 
L 302.094678 124.663399 
L 302.094678 124.605556 
L 302.094678 124.636822 
L 300.713747 124.594654 
L 300.713747 124.714149 
L 300.713747 124.745244 
L 300.713747 124.638441 
L 299.332816 124.681396 
L 299.332816 124.555794 
L 299.332816 124.514011 
L 299.332816 124.689961 
L 299.332816 124.670917 
L 297.951885 124.618468 
L 297.951885 124.755289 
L 297.951885 124.824724 
L 297.951885 124.74807 
L 297.951885 124.783228 
L 296.570953 124.716616 
L 296.570953 124.862884 
L 296.570953 124.878112 
L 295.190022 124.818002 
L 295.190022 124.9562 
L 295.190022 124.986503 
L 295.190022 124.930194 
L 295.190022 124.975624 
L 293.809091 125.097618 
L 293.809091 125.093977 
L 293.809091 125.0867 
L 293.809091 125.214794 
L 292.42816 125.338787 
L 292.42816 125.417637 
L 292.42816 125.376704 
L 291.047228 125.350737 
L 291.047228 125.455213 
L 291.047228 125.751652 
L 291.047228 125.733129 
L 289.666297 125.851219 
L 289.666297 126.052398 
L 289.666297 126.006886 
L 288.285366 126.130106 
L 288.285366 126.122507 
L 288.285366 126.25495 
L 288.285366 126.107331 
L 288.285366 126.236651 
L 286.904435 126.362185 
L 286.904435 126.358355 
L 286.904435 126.484278 
L 286.904435 126.354528 
L 286.904435 126.442966 
L 284.142572 126.568982 
L 284.142572 126.611586 
L 284.142572 126.466509 
L 284.142572 126.480692 
L 282.761641 126.599433 
L 282.761641 126.768759 
L 282.761641 126.749548 
L 281.38071 126.863126 
L 281.38071 127.000125 
L 281.38071 126.992383 
L 277.237916 126.95617 
L 277.237916 127.048482 
L 277.237916 127.279745 
L 277.237916 127.272042 
L 275.856984 127.392757 
L 275.856984 127.371524 
L 275.856984 127.439125 
L 274.476053 127.559922 
L 274.476053 127.623066 
L 274.476053 127.556058 
L 274.476053 127.605798 
L 273.095122 127.727907 
L 273.095122 127.724016 
L 273.095122 127.937897 
L 271.714191 128.049335 
L 271.714191 128.090633 
L 271.714191 128.024288 
L 271.714191 128.070979 
L 270.333259 127.981621 
L 270.333259 128.163143 
L 270.333259 128.253242 
L 270.333259 128.138319 
L 270.333259 128.203608 
L 268.952328 128.321983 
L 268.952328 128.523688 
L 268.952328 128.502833 
L 266.190466 128.638013 
L 266.190466 128.730569 
L 266.190466 128.624138 
L 266.190466 128.71 
L 264.809534 128.828781 
L 264.809534 128.824823 
L 264.809534 128.901392 
L 264.809534 128.794822 
L 264.809534 128.859348 
L 262.047672 128.993425 
L 262.047672 129.354661 
L 260.666741 129.314552 
L 260.666741 129.446569 
L 260.666741 129.642211 
L 259.285809 129.764036 
L 259.285809 130.030308 
L 259.285809 130.026123 
L 257.904878 130.137961 
L 257.904878 130.291943 
L 257.904878 130.128841 
L 257.904878 130.255878 
L 256.523947 130.378307 
L 256.523947 130.373851 
L 256.523947 130.45646 
L 256.523947 130.352404 
L 256.523947 130.434782 
L 255.143016 130.557458 
L 255.143016 130.553383 
L 255.143016 130.747712 
L 255.143016 130.723734 
L 253.762084 130.83756 
L 253.762084 130.825306 
L 253.762084 130.917772 
L 252.381153 130.88096 
L 252.381153 130.986535 
L 251.000222 131.106529 
L 251.000222 131.309613 
L 249.61929 131.424511 
L 249.61929 131.567175 
L 248.238359 131.689463 
L 248.238359 131.681196 
L 248.238359 131.824648 
L 248.238359 131.726422 
L 246.857428 131.848506 
L 246.857428 131.829309 
L 246.857428 132.102669 
L 245.476497 132.21414 
L 245.476497 132.466654 
L 245.476497 132.434918 
L 244.095565 132.556803 
L 244.095565 132.802532 
L 244.095565 132.798313 
L 242.714634 132.783385 
L 242.714634 132.884394 
L 242.714634 133.281445 
L 241.333703 133.190334 
L 241.333703 133.367968 
L 241.333703 133.380396 
L 241.333703 133.342506 
L 241.333703 133.363415 
L 239.952772 133.484009 
L 239.952772 133.673534 
L 239.952772 133.53124 
L 238.57184 133.648537 
L 238.57184 133.798153 
L 238.57184 133.640044 
L 238.57184 133.76667 
L 237.190909 133.882543 
L 237.190909 133.87999 
L 237.190909 134.12885 
L 235.809978 134.241652 
L 235.809978 134.483923 
L 235.809978 134.435282 
L 234.429047 134.555983 
L 234.429047 134.909712 
L 234.429047 134.905389 
L 233.048115 135.020419 
L 233.048115 134.990167 
L 233.048115 135.225454 
L 231.667184 135.340633 
L 231.667184 135.472347 
L 231.667184 135.314576 
L 231.667184 135.458387 
L 230.286253 135.577216 
L 230.286253 135.572867 
L 230.286253 135.733247 
L 230.286253 135.568519 
L 230.286253 135.707157 
L 228.905322 135.827277 
L 228.905322 135.744986 
L 228.905322 135.871178 
L 227.52439 135.843752 
L 227.52439 135.962071 
L 227.52439 136.277051 
L 227.52439 136.272701 
L 226.143459 136.38405 
L 226.143459 136.505954 
L 226.143459 136.376397 
L 226.143459 136.466355 
L 224.762528 136.577926 
L 224.762528 136.922784 
L 223.381596 137.03584 
L 223.381596 137.306717 
L 222.000665 137.266808 
L 222.000665 137.400696 
L 222.000665 137.688093 
L 222.000665 137.644055 
L 220.619734 137.761879 
L 220.619734 137.761819 
L 220.619734 138.039197 
L 219.238803 137.981791 
L 219.238803 138.136257 
L 219.238803 138.433228 
L 219.238803 138.123049 
L 219.238803 138.420286 
L 217.857871 138.536166 
L 217.857871 138.785132 
L 217.857871 138.522562 
L 217.857871 138.767878 
L 216.47694 138.879416 
L 216.47694 138.954169 
L 216.47694 138.803347 
L 216.47694 138.949759 
L 215.096009 138.92434 
L 215.096009 139.045964 
L 215.096009 139.31468 
L 215.096009 139.041554 
L 215.096009 139.285049 
L 213.715078 139.40263 
L 213.715078 139.528741 
L 213.715078 139.391418 
L 213.715078 139.451068 
L 212.334146 139.56264 
L 212.334146 139.651371 
L 212.334146 139.505671 
L 212.334146 139.572706 
L 210.953215 139.68767 
L 210.953215 139.83669 
L 210.953215 139.68331 
L 210.953215 139.824465 
L 209.572284 139.94082 
L 209.572284 139.936471 
L 209.572284 139.982599 
L 209.572284 139.816023 
L 209.572284 139.823799 
L 208.191353 139.935153 
L 208.191353 140.438091 
L 206.810421 140.553702 
L 206.810421 140.889989 
L 206.810421 140.545048 
L 206.810421 140.878137 
L 205.42949 140.990339 
L 205.42949 140.997783 
L 205.42949 140.922546 
L 205.42949 140.949924 
L 204.048559 141.066836 
L 204.048559 141.06452 
L 204.048559 141.395166 
L 204.048559 141.047355 
L 204.048559 141.386542 
L 202.667627 141.500864 
L 202.667627 142.112595 
L 202.667627 142.108247 
L 201.286696 142.220966 
L 201.286696 142.525956 
L 201.286696 142.492185 
L 199.905765 142.604853 
L 199.905765 142.869874 
L 199.905765 142.57543 
L 199.905765 142.845593 
L 198.524834 142.962877 
L 198.524834 143.350191 
L 198.524834 143.331446 
L 197.143902 143.320293 
L 197.143902 143.430092 
L 197.143902 143.6865 
L 197.143902 143.424338 
L 197.143902 143.682162 
L 195.762971 143.795702 
L 195.762971 144.236007 
L 195.762971 144.203247 
L 194.38204 144.315183 
L 194.38204 144.622606 
L 194.38204 144.604586 
L 193.001109 144.718259 
L 193.001109 145.008612 
L 193.001109 144.687607 
L 193.001109 144.99301 
L 191.620177 144.947791 
L 191.620177 145.087938 
L 191.620177 145.235631 
L 191.620177 145.04647 
L 191.620177 145.173929 
L 190.239246 145.156029 
L 190.239246 145.273721 
L 190.239246 145.5764 
L 188.858315 145.687828 
L 188.858315 145.684763 
L 188.858315 145.990019 
L 187.477384 146.105326 
L 187.477384 146.449017 
L 187.477384 146.09545 
L 187.477384 146.394662 
L 186.096452 146.384511 
L 186.096452 146.495194 
L 186.096452 146.951572 
L 186.096452 146.916067 
L 184.715521 147.03179 
L 184.715521 147.677221 
L 184.715521 147.675719 
L 183.33459 147.791005 
L 183.33459 148.313323 
L 183.33459 148.300515 
L 181.953659 148.280445 
L 181.953659 148.39821 
L 181.953659 148.723378 
L 180.572727 148.837335 
L 180.572727 149.301667 
L 180.572727 148.823479 
L 180.572727 149.282561 
L 179.191796 149.264556 
L 179.191796 149.383526 
L 179.191796 149.651261 
L 179.191796 149.618549 
L 177.810865 149.600741 
L 177.810865 149.719045 
L 177.810865 150.030773 
L 177.810865 150.026596 
L 176.429933 150.003916 
L 176.429933 150.128078 
L 176.429933 150.515779 
L 175.049002 150.630359 
L 175.049002 151.112012 
L 173.668071 151.224591 
L 173.668071 151.894499 
L 173.668071 151.221134 
L 173.668071 151.876836 
L 172.28714 151.988752 
L 172.28714 152.689071 
L 170.906208 152.802351 
L 170.906208 153.335642 
L 170.906208 153.319907 
L 169.525277 153.435177 
L 169.525277 154.06069 
L 169.525277 154.003534 
L 168.144346 154.116761 
L 168.144346 154.852158 
L 168.144346 154.83564 
L 166.763415 154.950596 
L 166.763415 155.524033 
L 165.382483 155.638146 
L 165.382483 156.274658 
L 165.382483 155.621975 
L 165.382483 156.26655 
L 164.001552 156.258519 
L 164.001552 156.367831 
L 164.001552 156.973024 
L 162.620621 157.084558 
L 162.620621 157.649806 
L 162.620621 157.06827 
L 162.620621 157.642138 
L 161.23969 157.755801 
L 161.23969 157.755544 
L 161.23969 158.524084 
L 159.858758 158.637249 
L 159.858758 159.560087 
L 159.858758 159.555245 
L 158.477827 159.669663 
L 158.477827 160.324767 
L 158.477827 160.319814 
L 157.096896 160.4316 
L 157.096896 161.368593 
L 157.096896 160.427727 
L 157.096896 161.345512 
L 155.715965 161.457357 
L 155.715965 161.453518 
L 155.715965 162.195495 
L 154.335033 162.306772 
L 154.335033 163.062608 
L 154.335033 163.055109 
L 152.954102 163.048397 
L 152.954102 163.159166 
L 152.954102 163.927962 
L 152.954102 163.155423 
L 152.954102 163.894367 
L 151.573171 164.006655 
L 151.573171 164.002959 
L 151.573171 164.767318 
L 150.192239 164.879348 
L 150.192239 166.08129 
L 148.811308 166.194437 
L 148.811308 167.372197 
L 147.430377 167.484314 
L 147.430377 168.653401 
L 147.430377 167.482093 
L 147.430377 168.646336 
L 146.049446 168.758868 
L 146.049446 168.758817 
L 146.049446 169.933817 
L 146.049446 168.758791 
L 146.049446 169.923389 
L 144.668514 170.035312 
L 144.668514 171.095009 
L 144.668514 170.031842 
L 144.668514 171.093715 
L 143.287583 171.206061 
L 143.287583 172.620626 
L 143.287583 172.619877 
L 141.906652 172.603926 
L 141.906652 172.724728 
L 141.906652 174.288668 
L 141.906652 174.272994 
L 140.525721 174.385104 
L 140.525721 174.378375 
L 140.525721 175.910998 
L 139.144789 176.022747 
L 139.144789 177.846974 
L 137.763858 177.959241 
L 137.763858 179.948436 
L 136.382927 179.943988 
L 136.382927 180.053723 
L 136.382927 180.050716 
L 136.382927 182.295417 
L 135.001996 182.406731 
L 135.001996 184.860912 
L 135.001996 184.860422 
L 133.621064 184.971732 
L 133.621064 184.962218 
L 133.621064 187.696562 
L 132.240133 187.808225 
L 132.240133 190.507961 
L 130.859202 190.619522 
L 130.859202 194.048809 
L 130.859202 190.605213 
L 130.859202 194.048507 
L 129.478271 194.160263 
L 129.478271 194.160105 
L 129.478271 197.987525 
L 128.097339 198.099103 
L 128.097339 202.715432 
L 128.097339 202.713979 
L 126.716408 202.825429 
L 126.716408 209.671855 
L 125.335477 209.782997 
L 125.335477 219.658519 
L 123.954545 219.661431 
L 123.954545 219.661431 
" style="fill:none;stroke:#1f77b4;stroke-linecap:square;stroke-width:1.5;"/>
   </g>
   <g id="line2d_33">
    <defs>
     <path d="M 0 3 
C 0.795609 3 1.55874 2.683901 2.12132 2.12132 
C 2.683901 1.55874 3 0.795609 3 0 
C 3 -0.795609 2.683901 -1.55874 2.12132 -2.12132 
C 1.55874 -2.683901 0.795609 -3 0 -3 
C -0.795609 -3 -1.55874 -2.683901 -2.12132 -2.12132 
C -2.683901 -1.55874 -3 -0.795609 -3 0 
C -3 0.795609 -2.683901 1.55874 -2.12132 2.12132 
C -1.55874 2.683901 -0.795609 3 0 3 
z
" id="m4e3ed9f70b" style="stroke:#008000;stroke-opacity:0.5;"/>
    </defs>
    <g clip-path="url(#pa939a748fd)">
     <use style="fill:#008000;fill-opacity:0.5;stroke:#008000;stroke-opacity:0.5;" x="126.716408" xlink:href="#m4e3ed9f70b" y="209.671855"/>
    </g>
   </g>
   <g id="line2d_34">
    <defs>
     <path d="M 0 3 
C 0.795609 3 1.55874 2.683901 2.12132 2.12132 
C 2.683901 1.55874 3 0.795609 3 0 
C 3 -0.795609 2.683901 -1.55874 2.12132 -2.12132 
C 1.55874 -2.683901 0.795609 -3 0 -3 
C -0.795609 -3 -1.55874 -2.683901 -2.12132 -2.12132 
C -2.683901 -1.55874 -3 -0.795609 -3 0 
C -3 0.795609 -2.683901 1.55874 -2.12132 2.12132 
C -1.55874 2.683901 -0.795609 3 0 3 
z
" id="me1ae511a63" style="stroke:#ff0000;stroke-opacity:0.5;"/>
    </defs>
    <g clip-path="url(#pa939a748fd)">
     <use style="fill:#ff0000;fill-opacity:0.5;stroke:#ff0000;stroke-opacity:0.5;" x="150.192239" xlink:href="#me1ae511a63" y="166.08129"/>
    </g>
   </g>
   <g id="line2d_35">
    <defs>
     <path d="M 0 3 
C 0.795609 3 1.55874 2.683901 2.12132 2.12132 
C 2.683901 1.55874 3 0.795609 3 0 
C 3 -0.795609 2.683901 -1.55874 2.12132 -2.12132 
C 1.55874 -2.683901 0.795609 -3 0 -3 
C -0.795609 -3 -1.55874 -2.683901 -2.12132 -2.12132 
C -2.683901 -1.55874 -3 -0.795609 -3 0 
C -3 0.795609 -2.683901 1.55874 -2.12132 2.12132 
C -1.55874 2.683901 -0.795609 3 0 3 
z
" id="m67baff97dd" style="stroke:#0000ff;stroke-opacity:0.5;"/>
    </defs>
    <g clip-path="url(#pa939a748fd)">
     <use style="fill:#0000ff;fill-opacity:0.5;stroke:#0000ff;stroke-opacity:0.5;" x="407.045455" xlink:href="#m67baff97dd" y="116.080297"/>
    </g>
   </g>
   <g id="patch_8">
    <path d="M 109.8 246.2 
L 109.8 83.32 
" style="fill:none;stroke:#000000;stroke-linecap:square;stroke-linejoin:miter;stroke-width:0.8;"/>
   </g>
   <g id="patch_9">
    <path d="M 421.2 246.2 
L 421.2 83.32 
" style="fill:none;stroke:#000000;stroke-linecap:square;stroke-linejoin:miter;stroke-width:0.8;"/>
   </g>
   <g id="patch_10">
    <path d="M 109.8 246.2 
L 421.2 246.2 
" style="fill:none;stroke:#000000;stroke-linecap:square;stroke-linejoin:miter;stroke-width:0.8;"/>
   </g>
   <g id="patch_11">
    <path d="M 109.8 83.32 
L 421.2 83.32 
" style="fill:none;stroke:#000000;stroke-linecap:square;stroke-linejoin:miter;stroke-width:0.8;"/>
   </g>
   <g id="text_23">
    <!-- 13.5% -->
    <defs>
     <path d="M 10.6875 12.40625 
L 21 12.40625 
L 21 0 
L 10.6875 0 
z
" id="DejaVuSans-46"/>
    </defs>
    <g transform="translate(110.832814 234.148563)scale(0.1 -0.1)">
     <use xlink:href="#DejaVuSans-49"/>
     <use x="63.623047" xlink:href="#DejaVuSans-51"/>
     <use x="127.246094" xlink:href="#DejaVuSans-46"/>
     <use x="159.033203" xlink:href="#DejaVuSans-53"/>
     <use x="222.65625" xlink:href="#DejaVuSans-37"/>
    </g>
   </g>
   <g id="text_24">
    <!-- 29.5% -->
    <defs>
     <path d="M 10.984375 1.515625 
L 10.984375 10.5 
Q 14.703125 8.734375 18.5 7.8125 
Q 22.3125 6.890625 25.984375 6.890625 
Q 35.75 6.890625 40.890625 13.453125 
Q 46.046875 20.015625 46.78125 33.40625 
Q 43.953125 29.203125 39.59375 26.953125 
Q 35.25 24.703125 29.984375 24.703125 
Q 19.046875 24.703125 12.671875 31.3125 
Q 6.296875 37.9375 6.296875 49.421875 
Q 6.296875 60.640625 12.9375 67.421875 
Q 19.578125 74.21875 30.609375 74.21875 
Q 43.265625 74.21875 49.921875 64.515625 
Q 56.59375 54.828125 56.59375 36.375 
Q 56.59375 19.140625 48.40625 8.859375 
Q 40.234375 -1.421875 26.421875 -1.421875 
Q 22.703125 -1.421875 18.890625 -0.6875 
Q 15.09375 0.046875 10.984375 1.515625 
z
M 30.609375 32.421875 
Q 37.25 32.421875 41.125 36.953125 
Q 45.015625 41.5 45.015625 49.421875 
Q 45.015625 57.28125 41.125 61.84375 
Q 37.25 66.40625 30.609375 66.40625 
Q 23.96875 66.40625 20.09375 61.84375 
Q 16.21875 57.28125 16.21875 49.421875 
Q 16.21875 41.5 20.09375 36.953125 
Q 23.96875 32.421875 30.609375 32.421875 
z
" id="DejaVuSans-57"/>
    </defs>
    <g transform="translate(134.308646 155.267332)scale(0.1 -0.1)">
     <use xlink:href="#DejaVuSans-50"/>
     <use x="63.623047" xlink:href="#DejaVuSans-57"/>
     <use x="127.246094" xlink:href="#DejaVuSans-46"/>
     <use x="159.033203" xlink:href="#DejaVuSans-53"/>
     <use x="222.65625" xlink:href="#DejaVuSans-37"/>
    </g>
   </g>
   <g id="text_25">
    <!-- 47.9% -->
    <defs>
     <path d="M 8.203125 72.90625 
L 55.078125 72.90625 
L 55.078125 68.703125 
L 28.609375 0 
L 18.3125 0 
L 43.21875 64.59375 
L 8.203125 64.59375 
z
" id="DejaVuSans-55"/>
    </defs>
    <g transform="translate(377.007315 132.413005)scale(0.1 -0.1)">
     <use xlink:href="#DejaVuSans-52"/>
     <use x="63.623047" xlink:href="#DejaVuSans-55"/>
     <use x="127.246094" xlink:href="#DejaVuSans-46"/>
     <use x="159.033203" xlink:href="#DejaVuSans-57"/>
     <use x="222.65625" xlink:href="#DejaVuSans-37"/>
    </g>
   </g>
   <g id="text_26">
    <!-- (b) -->
    <defs>
     <path d="M 48.6875 27.296875 
Q 48.6875 37.203125 44.609375 42.84375 
Q 40.53125 48.484375 33.40625 48.484375 
Q 26.265625 48.484375 22.1875 42.84375 
Q 18.109375 37.203125 18.109375 27.296875 
Q 18.109375 17.390625 22.1875 11.75 
Q 26.265625 6.109375 33.40625 6.109375 
Q 40.53125 6.109375 44.609375 11.75 
Q 48.6875 17.390625 48.6875 27.296875 
z
M 18.109375 46.390625 
Q 20.953125 51.265625 25.265625 53.625 
Q 29.59375 56 35.59375 56 
Q 45.5625 56 51.78125 48.09375 
Q 58.015625 40.1875 58.015625 27.296875 
Q 58.015625 14.40625 51.78125 6.484375 
Q 45.5625 -1.421875 35.59375 -1.421875 
Q 29.59375 -1.421875 25.265625 0.953125 
Q 20.953125 3.328125 18.109375 8.203125 
L 18.109375 0 
L 9.078125 0 
L 9.078125 75.984375 
L 18.109375 75.984375 
z
" id="DejaVuSans-98"/>
    </defs>
    <g transform="translate(404.218125 95.2368)scale(0.12 -0.12)">
     <use xlink:href="#DejaVuSans-40"/>
     <use x="39.013672" xlink:href="#DejaVuSans-98"/>
     <use x="102.490234" xlink:href="#DejaVuSans-41"/>
    </g>
   </g>
  </g>
 </g>
 <defs>
  <clipPath id="pa0926678c1">
   <rect height="40.72" width="311.4" x="109.8" y="10.8"/>
  </clipPath>
  <clipPath id="pa939a748fd">
   <rect height="162.88" width="311.4" x="109.8" y="83.32"/>
  </clipPath>
 </defs>
</svg>
